<svg width="56" height="56" viewBox="0 0 56 56" fill="none" xmlns="http://www.w3.org/2000/svg">
<g clip-path="url(#clip0_31_5067)">
<path d="M27.3838 0.391968H28.6158L29.8198 0.447968L30.8278 0.531968L32.0038 0.671968L33.3198 0.895968L34.4678 1.14797L35.5318 1.42797L36.5398 1.73597L37.5198 2.07197L38.3038 2.37997L39.0318 2.68797L39.7038 2.99597L40.4038 3.33197L41.2718 3.77997L41.9158 4.14397L42.5598 4.53597L43.2598 4.98397L43.9038 5.43197L44.4358 5.82397L44.7718 6.07597L45.1358 6.35597L45.6118 6.74797L46.0038 7.08397L46.2278 7.27997L46.5078 7.53197L46.7318 7.72797L46.9558 7.95197L47.1798 8.14797L48.0758 9.04397L48.2718 9.26797L48.6638 9.68797L48.8598 9.91197L49.1958 10.304L49.5038 10.696L49.7838 11.032L50.1198 11.48L50.5118 12.012L50.9598 12.656L51.3518 13.272L51.7158 13.86L52.0518 14.448L52.3878 15.064L52.8078 15.876L53.1998 16.716L53.6478 17.78L54.0118 18.76L54.3758 19.824L54.7678 21.224L55.0198 22.316L55.2438 23.548L55.3838 24.5L55.4958 25.592L55.5518 26.376L55.5798 26.992V29.008L55.5238 30.072L55.4118 31.22L55.2718 32.256L55.1038 33.236L54.8518 34.412L54.5438 35.588L54.2358 36.596L53.8718 37.632L53.4798 38.612L53.0878 39.508L52.6398 40.432L52.3598 40.992L51.9958 41.636L51.6038 42.308L51.2398 42.896L50.9598 43.316L50.5958 43.848L50.2318 44.352L49.8678 44.828L49.5598 45.22L49.1958 45.668L48.8318 46.088L48.5798 46.368L48.3838 46.592L47.9918 47.012L47.7118 47.292L47.5158 47.516L47.0398 47.964L46.7318 48.272L46.5078 48.468L46.1718 48.776L45.8638 49.028L45.5838 49.28L45.1918 49.588L44.7718 49.924L44.3238 50.26L43.8478 50.596L43.2878 50.988L42.7558 51.324L42.3078 51.604L41.6918 51.968L41.0198 52.332L40.4878 52.612L39.7038 53.004L38.7518 53.424L37.9118 53.76L36.9038 54.124L36.0638 54.404L35.0558 54.684L34.0478 54.936L32.7878 55.188L31.6678 55.356L30.3798 55.496L29.0078 55.58H26.9638L25.6198 55.496L24.3038 55.356L23.0718 55.16L22.2038 54.992L21.0278 54.712L20.1318 54.46L19.1518 54.152L18.3678 53.872L17.4438 53.508L16.6598 53.172L15.8198 52.78L15.2598 52.5L14.6438 52.164L14.1398 51.884L13.5798 51.548L13.0478 51.212L12.3758 50.764L11.8998 50.428L11.3678 50.036L10.8638 49.644L10.4158 49.28L10.0238 48.944L9.74384 48.692L9.51985 48.496L9.23985 48.244L8.81985 47.852L7.92385 46.956L7.72785 46.732L7.33585 46.312L7.13985 46.088L6.80385 45.696L6.49585 45.304L6.21585 44.968L5.85185 44.492L5.48785 43.988L5.03985 43.344L4.67585 42.784L4.22785 42.056L3.86385 41.412L3.47185 40.684L2.99585 39.732L2.63185 38.92L2.26785 38.024L1.98785 37.268L1.62385 36.204L1.28785 35.028L1.03585 33.992L0.811846 32.872L0.643846 31.78L0.531846 30.856L0.447846 29.876L0.419846 29.4L0.391846 28.504V27.468L0.419846 26.6L0.503846 25.424L0.643846 24.192L0.839846 22.96L1.06385 21.868L1.34385 20.748L1.65185 19.712L1.98785 18.704L2.37985 17.668L2.79985 16.688L3.24785 15.736L3.52785 15.176L3.86385 14.56L4.19985 13.972L4.64785 13.244L5.31985 12.236L5.59985 11.844L5.99185 11.312L6.29985 10.92L6.66385 10.472L6.97185 10.108L7.22385 9.79997L7.67185 9.32397L7.86785 9.09997L8.20385 8.76397L8.39985 8.53997L8.59585 8.34397L8.81985 8.14797L9.18385 7.78397L9.40785 7.58797L9.79985 7.22397L10.1078 6.97197L10.5278 6.60797L10.9198 6.29997L11.4238 5.90797L11.9558 5.51597L12.4878 5.15197L12.9918 4.81597L13.6078 4.42397L14.2798 4.03197L15.0358 3.61197L15.9038 3.16397L16.8278 2.74397L17.6118 2.40797L18.6198 2.01597L19.6278 1.67997L20.4398 1.42797L21.5038 1.14797L22.6798 0.895968L23.9678 0.671968L25.1438 0.531968L26.1518 0.447968L27.3838 0.391968Z" fill="#FD87B3"/>
<path d="M27.3838 0.391968H28.6158L29.8198 0.447968L30.8278 0.531968L32.0038 0.671968L33.3198 0.895968L34.4678 1.14797L35.5318 1.42797L36.5398 1.73597L37.5198 2.07197L38.3038 2.37997L39.0318 2.68797L39.7038 2.99597L40.4038 3.33197L41.2718 3.77997L41.9158 4.14397L42.5598 4.53597L43.2598 4.98397L43.9038 5.43197L44.4358 5.82397L44.7718 6.07597L45.1358 6.35597L45.6118 6.74797L46.0038 7.08397L46.2278 7.27997L46.5078 7.53197L46.7318 7.72797L46.9558 7.95197L47.1798 8.14797L48.0758 9.04397L48.2718 9.26797L48.6638 9.68797L48.8598 9.91197L49.1958 10.304L49.5038 10.696L49.7838 11.032L50.1198 11.48L50.5118 12.012L50.9598 12.656L51.3518 13.272L51.7158 13.86L52.0518 14.448L52.3878 15.064L52.8078 15.876L53.1998 16.716L53.6478 17.78L54.0118 18.76L54.3758 19.824L54.7678 21.224L55.0198 22.316L55.2438 23.548L55.3838 24.5L55.4958 25.592L55.5518 26.376L55.5798 26.992V29.008L55.5238 30.072L55.4118 31.22L55.2718 32.256L55.1038 33.236L54.8518 34.412L54.5438 35.588L54.2358 36.596L53.8718 37.632L53.4798 38.612L53.0878 39.508L52.6398 40.432L52.3598 40.992L51.9958 41.636L51.6038 42.308L51.2398 42.896L50.9598 43.316L50.5958 43.848L50.2318 44.352L49.8678 44.828L49.5598 45.22L49.1958 45.668L48.8318 46.088L48.5798 46.368L48.3838 46.592L47.9918 47.012L47.7118 47.292L47.5158 47.516L47.0398 47.964L46.7318 48.272L46.5078 48.468L46.1718 48.776L45.8638 49.028L45.5838 49.28L45.1918 49.588L44.7718 49.924L44.3238 50.26L43.8478 50.596L43.2878 50.988L42.7558 51.324L42.3078 51.604L41.6918 51.968L41.0198 52.332L40.4878 52.612L39.7038 53.004L38.7518 53.424L37.9118 53.76L36.9038 54.124L36.0638 54.404L35.0558 54.684L34.0478 54.936L32.7878 55.188L31.6678 55.356L30.3798 55.496L29.0078 55.58H26.9638L25.6198 55.496L24.3038 55.356L23.0718 55.16L22.2038 54.992L21.0278 54.712L20.1318 54.46L19.1518 54.152L18.3678 53.872L17.4438 53.508L16.6598 53.172L15.8198 52.78L15.2598 52.5L14.6438 52.164L14.1398 51.884L13.5798 51.548L13.0478 51.212L12.3758 50.764L11.8998 50.428L11.3678 50.036L10.8638 49.644L10.4158 49.28L10.0238 48.944L9.74384 48.692L9.51985 48.496L9.23985 48.244L8.81985 47.852L7.92385 46.956L7.72785 46.732L7.33585 46.312L7.13985 46.088L6.80385 45.696L6.49585 45.304L6.21585 44.968L5.85185 44.492L5.48785 43.988L5.03985 43.344L4.67585 42.784L4.22785 42.056L3.86385 41.412L3.47185 40.684L2.99585 39.732L2.63185 38.92L2.26785 38.024L1.98785 37.268L1.62385 36.204L1.28785 35.028L1.03585 33.992L0.811846 32.872L0.643846 31.78L0.531846 30.856L0.447846 29.876L0.419846 29.4L0.391846 28.504V27.468L0.419846 26.6L0.503846 25.424L0.643846 24.192L0.839846 22.96L1.06385 21.868L1.34385 20.748L1.65185 19.712L1.98785 18.704L2.37985 17.668L2.79985 16.688L3.24785 15.736L3.52785 15.176L3.86385 14.56L4.19985 13.972L4.64785 13.244L5.31985 12.236L5.59985 11.844L5.99185 11.312L6.29985 10.92L6.66385 10.472L6.97185 10.108L7.22385 9.79997L7.67185 9.32397L7.86785 9.09997L8.20385 8.76397L8.39985 8.53997L8.59585 8.34397L8.81985 8.14797L9.18385 7.78397L9.40785 7.58797L9.79985 7.22397L10.1078 6.97197L10.5278 6.60797L10.9198 6.29997L11.4238 5.90797L11.9558 5.51597L12.4878 5.15197L12.9918 4.81597L13.6078 4.42397L14.2798 4.03197L15.0358 3.61197L15.9038 3.16397L16.8278 2.74397L17.6118 2.40797L18.6198 2.01597L19.6278 1.67997L20.4398 1.42797L21.5038 1.14797L22.6798 0.895968L23.9678 0.671968L25.1438 0.531968L26.1518 0.447968L27.3838 0.391968ZM27.1878 2.79997L26.0958 2.85597L24.9478 2.96797L23.7718 3.13597L22.7358 3.33197L21.6718 3.58397L20.8598 3.80797L19.7958 4.14397L18.6758 4.56397L17.9478 4.87197L17.0238 5.29197L16.1838 5.71197L15.5398 6.07597L15.0918 6.32797L14.4198 6.74797L13.6638 7.25197L13.2718 7.53197L12.7398 7.92397L12.3478 8.23197L11.8998 8.59597L11.5078 8.93197L11.2278 9.18397L11.0038 9.37997L10.5838 9.77197L9.49185 10.864L9.29585 11.088L8.95985 11.452L8.70785 11.76L8.37185 12.152L8.09185 12.516L7.69985 13.02L7.36385 13.496L6.69185 14.504L6.29985 15.148L5.96385 15.736L5.59985 16.408L5.17985 17.248L4.81585 18.06L4.50785 18.816L4.08785 19.964L3.72385 21.14L3.35985 22.596L3.16385 23.576L2.96785 24.92L2.85585 26.068L2.79985 27.16V28.84L2.85585 29.932L2.96785 31.052L3.13585 32.228L3.33185 33.264L3.58385 34.328L3.86385 35.308L4.25585 36.512L4.59185 37.38L4.89985 38.108L5.34785 39.088L5.62785 39.648L5.96385 40.264L6.38385 40.992L6.71985 41.524L6.80385 41.664H6.85985L7.22385 40.824L7.67185 39.816L8.03585 38.976L8.23185 38.528L8.42785 38.304L9.07185 37.996L9.51985 37.716L9.79985 37.492L10.2198 37.072L10.4718 36.708L10.6958 36.288L10.8638 35.784L10.9478 35.336L10.9758 35.028V34.692L10.9478 34.356L10.8078 34.412L10.2478 34.776L9.74384 35.056L9.32384 35.252L8.65184 35.476L8.11985 35.56H7.44785L7.05585 35.476L6.71985 35.336L6.43985 35.14L6.41185 35.084H6.35585L6.13185 34.636L6.07585 34.412V33.88L6.21585 33.348L6.43985 32.9L6.66385 32.508L7.08385 31.864L7.33585 31.416L7.39185 31.192L7.44785 30.772L7.58785 30.408L7.78385 30.156L8.03585 29.932L8.31585 29.736L8.25985 28.784V26.796L8.34385 25.704L8.48385 24.668L8.67985 23.632L8.90385 22.708L9.18385 21.756L9.54785 20.72L9.91185 19.852L10.4158 18.788L10.7798 18.144L11.0598 17.64L11.4518 17.024L11.8158 16.492L12.1238 16.072L12.4878 15.596L12.7958 15.232L13.0478 14.924L13.3558 14.588L13.5518 14.364L13.9998 13.888L14.0558 13.86V13.804L14.1678 13.748L14.6158 13.3L14.8398 13.104L15.1198 12.852L15.5958 12.46L15.9878 12.152L16.5198 11.76L17.3598 11.2L17.8638 10.892L18.4518 10.556L19.2638 10.136L19.9078 9.82797L20.8598 9.43597L21.8118 9.09997L22.7358 8.81997L23.6318 8.59597L24.6398 8.39997L25.6198 8.25997L26.5438 8.17597L26.9638 8.14797L28.0278 8.11997L29.0358 8.14797L30.1278 8.23197L31.4998 8.42797L32.3118 8.59597L33.3198 8.84797L34.3838 9.18397L35.0838 9.43597L36.0078 9.82797L36.7918 10.192L37.5478 10.584L38.3038 11.032L39.0038 11.48L40.0678 12.264L40.4038 12.544L40.7958 12.852L41.2158 13.244L41.4398 13.44L41.6358 13.636H41.6918V13.692L41.9158 13.888L42.1958 14.168L42.3918 14.392L42.7838 14.812L43.0358 15.12L43.3718 15.512L43.6518 15.876L44.0438 16.408L44.4918 17.08L44.7998 17.556L45.2198 18.284L45.5558 18.928L45.9478 19.74L46.2838 20.552L46.5918 21.392L46.8158 22.064L47.0958 23.1L47.2638 23.856L47.3478 24.36L47.1238 23.38L46.8438 22.4L46.5078 21.392L46.1158 20.412L45.8078 19.74L45.3878 18.9L45.0238 18.256L44.5758 17.528L44.1558 16.912L43.7918 16.408L43.5118 16.044L43.2038 15.652L42.8678 15.26L42.6158 14.98L42.4198 14.756L42.0838 14.42L41.8878 14.196L41.5238 13.86L41.2998 13.636L41.0758 13.44L40.6838 13.104L40.3758 12.852L39.9558 12.516L39.4518 12.152L38.8918 11.76L38.3878 11.452L37.9398 11.172L37.2398 10.78L36.8198 10.556L36.0358 10.192L35.2518 9.85597L34.4118 9.54797L33.3478 9.21197L32.3398 8.95997L31.4998 8.79197L30.3518 8.62397L29.3998 8.53997L28.9238 8.51197H27.1878L25.9838 8.59597L24.7518 8.76397L23.7438 8.95997L22.9318 9.15597L21.8118 9.49197L20.9438 9.79997L20.0758 10.164L19.2358 10.556L18.5918 10.892L18.0038 11.228L17.4158 11.592L16.7998 12.012L16.4078 12.292L16.1278 12.516L15.7638 12.796L15.3718 13.132L15.0638 13.384L14.6438 13.776L14.3638 14.028L13.7758 14.616L13.5798 14.84L13.1598 15.288L12.9078 15.596L12.5438 16.044L12.2078 16.492L11.8718 16.968L11.3118 17.808L11.0598 18.228L10.6398 18.984L10.3598 19.516L9.99585 20.3L9.68785 21.056L9.35185 22.008L9.07185 22.932L8.81985 23.968L8.62385 25.004L8.48385 26.096L8.39985 27.076L8.37185 28.112V28.672L8.39985 29.372L8.42785 29.652L9.32384 29.204H9.40785L9.23985 29.456L9.07185 29.792L8.93185 30.296L8.81985 31.052L8.73585 31.612L8.70785 31.864L8.90385 32.816L8.98785 33.18L8.76385 32.34L8.65184 31.836L8.25985 32.032L7.89585 32.144L7.58785 32.396L7.30785 32.76L7.08385 33.208L6.97185 33.572V33.908L7.11185 34.188L7.27985 34.328L7.36385 34.356H7.61585L8.14785 34.244L8.59585 34.02L9.01585 33.74L9.12785 33.628L9.26785 33.572L9.74384 33.208L10.0238 32.984L10.4438 32.592L10.8358 32.2L11.0318 31.976L11.4518 31.528L11.7038 31.22L12.1238 30.772L12.3758 30.464L12.7398 30.072L12.9358 29.848L13.2718 29.456L13.5518 29.148L13.7478 28.924L13.9718 28.672V28.616L13.4398 28.728L11.9278 29.092L11.7318 29.12L12.1238 28.532L12.3758 28.196L12.6838 27.804L13.0478 27.384L13.4398 26.964L14.1398 26.264L14.3638 26.068L14.7838 25.704L15.2598 25.312L15.6238 25.032L16.2118 24.584L16.7438 24.22L17.1638 23.912L17.6678 23.576L17.8638 23.436L17.7798 23.408L15.9598 23.968L14.8398 24.304L14.8678 24.22L15.1198 23.884L15.4558 23.492L15.7638 23.156L16.1838 22.708L16.4638 22.456L16.7718 22.176L17.0798 21.924L17.4998 21.588L18.0038 21.224L18.6198 20.804L19.1518 20.468L19.8238 20.076L20.5238 19.684L21.2798 19.292L21.3078 19.236L18.2278 19.208L18.7038 18.9L19.2638 18.564L19.9078 18.228L20.7758 17.864L21.6438 17.584L22.3158 17.416L23.0158 17.276L23.7998 17.164L24.4158 17.108L25.2838 17.052L25.1438 16.912L24.8078 16.604L24.4998 16.352L24.0798 15.96L23.7718 15.708L23.5478 15.512L24.1358 15.4L25.2278 15.232L26.3478 15.148H27.3278L28.1398 15.204L29.0638 15.344L29.8198 15.512L30.5478 15.736L31.2758 16.016L32.0878 16.408L32.7038 16.772L33.3198 17.192L33.6838 17.472L34.0478 17.78L34.2718 17.976L34.6358 18.312L34.9718 18.648L35.0838 18.872L35.1118 19.18V19.908L35.2238 20.468L35.4198 21L35.6438 21.448L35.8678 21.84L35.9518 21.924L35.9238 21.588L35.8118 20.72L35.7558 20.02V19.124L35.8118 18.48L35.9518 17.78L36.1198 17.22L36.3438 16.688L36.6238 16.156L36.8758 15.792L37.1278 15.932L37.4918 16.212L37.8558 16.52L38.2198 16.912L38.4718 17.276L38.7238 17.724L38.8918 18.116L39.0318 18.536L39.1438 19.096L39.2278 19.684L39.3678 20.076L39.6478 20.496L40.0118 21L40.3758 21.56L40.8798 22.4L41.0198 22.736L41.0758 22.96L41.1038 23.296L41.0478 23.688L40.9078 24.024L40.7118 24.36L40.4878 24.724L40.3478 25.088L40.3198 25.228V25.788L40.4038 26.096L40.4878 26.348L40.3478 26.376L39.0598 26.852L38.7798 26.964L38.8638 27.02L39.3398 27.104H40.0958L40.7678 26.992L41.4958 26.768L42.1958 26.46L42.8118 26.124L43.2038 25.872L43.7638 25.48L43.9878 25.312V25.788L43.8758 26.264L43.6518 26.768L43.3998 27.188L43.1198 27.552L42.8118 27.916L42.4478 28.28L42.2518 28.448L42.4198 28.644L42.7278 28.98L42.9238 29.176L43.1198 29.4L43.5398 29.848L43.7358 30.044L43.7638 30.1L43.6518 30.156L43.2038 30.464L42.6998 30.828L42.1398 31.22L41.6638 31.556L41.1598 31.92L40.7118 32.228L40.6558 32.256H40.4318L39.8438 32.004L38.8078 31.528L37.6598 30.968L36.9318 30.576L36.1478 30.1L35.7278 29.82L35.1678 29.428L34.8318 29.176L34.5238 28.924L34.1598 28.56L33.9358 28.196L33.8238 27.86L33.7678 27.552V26.88L33.8518 26.208L33.9918 25.48L34.1598 24.92L34.3278 24.416V24.36L34.1878 24.416L33.9358 24.612L33.6278 24.892L33.4038 25.172L33.1238 25.62L32.9558 25.984L32.8158 26.432L32.7598 26.712V27.412L32.8438 27.692L33.1238 28.308L33.2918 28.812L33.3758 29.232L33.4038 29.512V30.016L33.3198 30.548L33.1518 30.968L32.9278 31.304L32.6198 31.612L32.2838 31.864L32.0038 32.116L31.8918 32.256L31.8638 32.312V32.564L32.0318 32.788L32.3118 33.04L32.8438 33.432L33.2078 33.74L33.4318 33.964L33.6278 34.3L33.7118 34.58V35.252L33.5998 35.812L33.4318 36.428L33.0678 37.296L32.7318 37.996L32.5638 38.136L32.2838 38.22L30.3238 38.64L30.0998 38.696L30.2678 38.108L30.6318 36.736L30.7718 36.12L30.7998 35.952V35.42L30.6878 35.112L30.4638 34.86L30.1558 34.664L29.7358 34.468L28.3918 33.964L27.9158 33.74L27.4678 33.432L27.2158 33.208L26.9918 32.928L26.7678 32.508L26.6278 32.032L26.5718 31.612V30.884L26.6558 30.072L26.7958 29.372L26.9918 28.7L27.2718 28.028L27.5518 27.496L27.8878 26.992L28.1958 26.6L28.4758 26.292L28.3918 26.264L27.9438 26.46L27.5518 26.684L27.1878 26.964L26.8518 27.3L26.5718 27.608L26.2358 28.112L25.8718 28.812L25.5918 29.512L25.3958 30.212L25.2838 30.828L25.2558 31.136V31.836L25.3118 32.34L25.4518 32.956L25.5918 33.404L25.3678 33.432L18.3398 35.112L18.3958 34.888L18.4518 34.44L18.4798 34.048V33.712L18.4238 33.096L18.2838 32.508L18.1158 32.06L17.8358 31.528L17.5558 31.136L17.3598 30.912L17.3318 30.968L17.6118 32.788L17.6678 33.292V34.104L17.5838 34.72L17.4158 35.308L17.1638 35.896L16.8838 36.344L16.5198 36.792L16.1278 37.184L15.7358 37.492L15.1478 37.884L14.5038 38.248L14.0558 38.472L13.5238 38.724L12.7398 39.06L11.1998 39.648L10.7518 39.816L10.4998 39.984L10.2198 40.236L9.82785 40.712L9.51985 41.076L8.73585 42.056L8.37185 42.532L8.17585 42.784L7.95185 42.924L7.75585 42.98L7.81185 43.092L8.06385 43.428L8.42785 43.876L8.48385 43.932L8.79185 43.512L9.12785 43.036L9.37985 42.672L9.74384 42.224L10.3038 41.524L10.6118 41.132L10.8358 40.88L11.0878 40.572L11.2558 40.432L11.5358 40.292L12.7398 39.984L13.4398 39.76L13.9998 39.564L14.8118 39.2L15.4278 38.864L15.9038 38.556L16.3518 38.22L16.7158 37.912L17.2478 37.38L17.5278 37.016L17.8638 36.512L18.1158 36.064L18.2278 35.868L18.3678 35.756L19.8238 35.392H19.9358L19.7398 35.924L19.4038 36.624L19.0678 37.156L18.7878 37.52L18.5078 37.828L18.3118 38.052L17.9478 38.388L17.4718 38.752L16.9958 39.088L16.2958 39.48L15.7078 39.76L14.8958 40.068L14.1678 40.292L13.1318 40.544L12.8518 40.656L12.5438 40.936L12.2358 41.328L12.0118 41.608L11.7038 42L11.3118 42.476L11.1158 42.728L10.8078 43.12L10.4998 43.484L10.2478 43.792L9.91185 44.156L9.71585 44.38L9.43585 44.66L9.23985 44.8L9.40785 45.024L9.68785 45.304L9.88385 45.528L10.6118 46.256L10.8358 46.452L11.0598 46.676L11.2838 46.872L11.6758 47.208L12.0398 47.516L12.4318 47.824L12.8518 48.16L13.2438 48.44L13.7198 48.776L14.1398 49.056L14.6158 49.364L15.1758 49.7L15.7078 50.008L16.4358 50.4L17.2198 50.792L18.0318 51.156L19.0118 51.548L19.8518 51.856L20.7198 52.136L21.7278 52.416L22.6798 52.64L23.6878 52.836L25.0598 53.032L25.9278 53.116L26.9078 53.172H29.0918L30.0438 53.116L31.1638 53.004L32.4518 52.808L33.5718 52.584L34.5798 52.332L35.6158 52.024L36.4558 51.744L37.5478 51.324L38.3318 50.988L38.9478 50.708L39.3958 50.484L40.0398 50.148L40.6838 49.784L41.3278 49.392L41.8038 49.084L42.2238 48.804L42.6998 48.468L43.2318 48.076L43.6238 47.768L44.0718 47.404L44.4638 47.068L44.7438 46.816L44.9678 46.62L45.3878 46.228L46.4798 45.136L46.6758 44.912L47.0118 44.548L47.2638 44.24L47.5998 43.848L47.9078 43.456L48.3278 42.896L48.6918 42.392L49.1398 41.72L49.4758 41.188L49.7278 40.768L50.0638 40.18L50.5398 39.284L50.9318 38.472L51.2958 37.632L51.7158 36.54L52.0518 35.532L52.3038 34.692L52.6118 33.46L52.8358 32.312L53.0038 31.192L53.1158 30.1L53.1718 29.232L53.1998 28.224V27.776L53.1718 26.768L53.0878 25.564L52.9478 24.388L52.7798 23.352L52.5278 22.176L52.3318 21.392L52.0238 20.356L51.7718 19.6L51.3798 18.564L50.9598 17.584L50.4278 16.492L50.0638 15.792L49.6718 15.12L49.3358 14.56L48.8318 13.804L48.4398 13.244L48.0478 12.712L47.6838 12.264L47.3758 11.872L47.1238 11.592L46.9278 11.368L46.5918 10.976L46.3118 10.696L46.1158 10.472L45.3878 9.74397L45.1638 9.54797L44.9398 9.32397L44.6318 9.07197L44.2958 8.76397L43.9878 8.51197L43.5118 8.11997L43.0638 7.78397L42.5598 7.41997L42.0838 7.08397L41.5238 6.71997L40.9358 6.35597L40.3478 6.01997L39.7318 5.68397L39.1998 5.40397L38.4158 5.03997L37.7158 4.73197L36.6518 4.31197L35.5038 3.91997L34.3278 3.58397L33.1238 3.30397L32.1998 3.13597L31.2758 2.99597L29.9038 2.85597L28.8118 2.79997H27.1878Z" fill="black"/>
<path d="M27.0759 11.928H28.5039L29.4279 11.984L30.5479 12.124L31.5559 12.32L32.5639 12.572L33.4599 12.852L34.3279 13.188L35.0839 13.524L35.6999 13.832L36.2039 14.112L36.7919 14.476L37.2959 14.812L37.6039 15.036L38.0519 15.372L38.4999 15.736L38.9199 16.1L39.2839 16.436L39.9839 17.136L40.1799 17.36L40.4319 17.64L40.6839 17.948L41.0199 18.368L41.3839 18.872L41.8879 19.628L42.2239 20.188L42.6439 20.944L42.9519 21.588L43.2599 22.288L43.3439 22.54L43.4559 22.484H43.5399L43.6799 22.848L43.9039 23.576L44.1279 24.472L44.2959 25.312L44.4079 26.068L44.4919 27.048L44.5199 27.552V28.672L44.4639 29.568L44.3799 30.24L44.2399 31.136L44.0439 32.004L43.8479 32.704L43.5959 32.648L43.5119 32.984L43.2039 33.908L42.8679 34.72L42.4759 35.532L42.1399 36.148L41.7199 36.82L41.4119 37.268L41.0199 37.8L40.6279 38.276L40.2919 38.668L39.9839 39.004L39.7879 39.228L39.5639 39.424L39.1439 39.844L38.9199 40.04L38.4999 40.404L37.6599 41.048L37.0999 41.44L36.5119 41.804L36.0359 42.084L35.2799 42.476L34.8319 42.7L33.9639 43.064L33.0119 43.4L32.2559 43.624L31.3319 43.848L30.3519 44.016L29.3439 44.128L28.9239 44.156H27.1599L26.1519 44.072L25.3119 43.96L24.2759 43.764L23.3799 43.54L22.3999 43.232L21.8119 43.008L21.0839 42.7L20.2159 42.28L19.6279 41.944L19.1799 41.664L18.6479 41.3L18.0599 40.852L17.6679 40.516L17.4439 40.32L17.0799 39.984L16.9399 40.096L16.8279 40.04L16.4079 39.648L16.2959 39.536V39.48L16.8559 39.172L17.2759 38.892L17.7239 38.556L18.0319 38.304L18.4519 37.912L18.7039 37.632L19.0679 37.156L19.4039 36.624L19.7679 35.868L19.9359 35.392L19.7119 35.42L18.3679 35.756L18.1999 35.896L17.8359 36.568L17.4439 37.128L17.1359 37.492L16.6039 38.024L16.3239 38.248L15.7919 38.64L15.1199 39.032L14.6439 39.284L13.8599 39.62L12.9359 39.928L12.0959 40.152L11.5359 40.292L11.1999 40.46L10.8639 40.824L10.6399 41.104L10.3319 41.468L10.0519 41.832L9.65986 42.308L9.29586 42.784L9.04386 43.148L8.70786 43.624L8.48386 43.932L8.34386 43.792L8.03586 43.4L7.75586 43.036V42.98L8.06386 42.868L8.20386 42.756L8.53986 42.308L8.90386 41.86L9.35186 41.3L9.71586 40.852L10.0239 40.488L10.2759 40.18L10.5559 39.928L10.8919 39.76L12.0959 39.312L12.9359 38.976L13.6359 38.668L14.1959 38.416L14.8119 38.08L15.2879 37.8L15.8479 37.408L16.2399 37.072L16.6039 36.708L16.8839 36.344L17.1079 35.98L17.3319 35.532L17.5279 34.944L17.6399 34.384L17.6679 34.104V33.292L17.5839 32.592L17.3319 30.968L17.3599 30.912L17.5839 31.164L17.9199 31.668L18.1999 32.256L18.3679 32.816L18.4519 33.32L18.4799 33.712V34.048L18.4239 34.692L18.3679 35.056L18.3399 35.112L19.8519 34.748L25.4799 33.404H25.5919L25.3959 32.76L25.2839 32.144L25.2559 31.836V31.136L25.3399 30.464L25.5079 29.792L25.6759 29.288L25.9559 28.644L26.2639 28.056L26.5999 27.58L26.8799 27.272L27.2439 26.908L27.6359 26.628L28.1679 26.348L28.3919 26.264L28.4759 26.292L28.1399 26.656L27.8039 27.104L27.4959 27.608L27.2159 28.14L26.9639 28.784L26.7679 29.484L26.6559 30.072L26.5719 30.884V31.612L26.6559 32.144L26.7959 32.564L26.9919 32.928L27.3279 33.32L27.6639 33.572L28.0279 33.796L28.6159 34.048L29.8759 34.524L30.3519 34.776L30.6319 35.028L30.7719 35.308L30.7999 35.42V35.952L30.6599 36.624L30.3519 37.8L30.1279 38.64L30.0999 38.696L31.1079 38.472L32.4239 38.192L32.6479 38.08L32.7599 37.94L33.1799 37.044L33.4599 36.344L33.6839 35.448L33.7119 35.252V34.58L33.5999 34.244L33.4039 33.936L33.0959 33.628L32.6199 33.264L32.2559 32.984L31.9479 32.704L31.8639 32.564V32.312L31.9759 32.144L32.1999 31.92L32.6759 31.556L32.9559 31.276L33.1799 30.912L33.3199 30.548L33.4039 30.016V29.512L33.3479 29.064L33.2079 28.532L32.9839 28L32.7879 27.552L32.7599 27.412V26.712L32.8999 26.124L33.0959 25.676L33.2919 25.34L33.5159 25.032L33.8239 24.696L34.1879 24.416L34.3279 24.36L34.2439 24.696L34.0199 25.368L33.8799 26.04L33.7959 26.572L33.7679 26.88V27.552L33.8799 28.056L34.0479 28.392L34.2439 28.644L34.6079 29.008L35.0839 29.372L35.6439 29.764L36.0639 30.044L36.8479 30.52L37.4639 30.856L38.1079 31.192L39.0319 31.64L39.9559 32.06L40.4319 32.256H40.6559L40.9639 32.06L41.3839 31.752L41.9439 31.36L42.4199 31.024L42.9239 30.66L43.3999 30.324L43.7079 30.1H43.7639L43.5679 29.876L43.2879 29.596L43.0919 29.372L42.2519 28.476L42.3919 28.308L42.6159 28.112L42.9239 27.804L43.2319 27.412L43.5119 27.02L43.7639 26.544L43.9319 26.068L43.9879 25.788V25.312L43.4559 25.704L43.0359 25.984L42.5039 26.292L42.0279 26.544L41.3279 26.824L40.6279 27.02L40.0959 27.104H39.3399L38.8639 27.02L38.7799 26.964L39.4519 26.712L40.4039 26.348H40.4879L40.3479 25.928L40.3199 25.788V25.228L40.4319 24.836L40.6839 24.388L40.8799 24.08L40.9919 23.856L41.0759 23.576L41.1039 23.212L41.0479 22.848L40.9359 22.512L40.5719 21.868L40.1799 21.252L39.8719 20.804L39.5079 20.3L39.3399 20.02L39.1999 19.572L39.1159 18.928L39.0039 18.452L38.8079 17.892L38.5279 17.36L38.1919 16.884L37.7719 16.436L37.3239 16.072L36.9039 15.792L36.7919 15.904L36.5679 16.268L36.2599 16.856L36.0079 17.556L35.8679 18.144L35.7839 18.732L35.7559 19.124V20.02L35.8399 20.972L35.9519 21.756V21.924L35.8399 21.784L35.6159 21.392L35.3919 20.944L35.1959 20.356L35.1119 19.908V19.012L35.0279 18.732L34.7759 18.452L34.4119 18.088L34.1879 17.892L33.7959 17.556L33.3199 17.192L32.5639 16.688L31.9199 16.324L31.2199 15.988L30.4639 15.708L29.8199 15.512L29.0639 15.344L28.1399 15.204L27.3279 15.148H26.3479L25.2279 15.232L23.9679 15.428L23.5479 15.512L23.9679 15.876L24.3039 16.184L24.5279 16.38L24.9199 16.716L25.1999 16.968L25.2839 17.052L24.1079 17.136L23.3799 17.22L22.5679 17.36L21.7559 17.556L20.9439 17.808L20.4959 17.976L19.7399 18.312L19.0119 18.704L18.3959 19.096L18.2279 19.208L21.3079 19.236L21.2239 19.32L20.3559 19.768L19.7679 20.104L19.0119 20.552L18.3679 20.972L17.8079 21.364L17.2199 21.812L16.8559 22.12L16.4639 22.456L16.2679 22.652L16.0439 22.848L15.6519 23.268L15.3439 23.604L15.0919 23.912L14.8119 24.304L15.3999 24.136L17.7799 23.408L17.8639 23.436L17.3879 23.772L16.9679 24.052L16.4639 24.416L16.0719 24.696L15.5959 25.06L15.2039 25.368L14.8959 25.62L14.5039 25.956L14.2799 26.152L13.9159 26.488L13.1879 27.216L12.9919 27.44L12.6279 27.86L12.3479 28.224L11.9839 28.728L11.7319 29.12L12.0399 29.064L13.6639 28.672L13.9719 28.616L13.9159 28.728L13.5799 29.092L13.3279 29.4L12.9919 29.764L12.7959 29.988L12.5439 30.268L12.2919 30.576L11.8999 30.996L11.8719 31.052H11.8159L11.7039 30.408L11.5919 29.484L11.5359 28.532V27.272L11.6199 26.208L11.6759 25.872H11.8719L12.0399 24.976L12.2359 24.164L12.4879 23.296L12.7399 22.568L13.1039 21.672L13.4959 20.832L13.8319 20.216L14.1679 19.628L14.4759 19.152L14.8399 18.62L15.1759 18.172L15.4839 17.78L15.8199 17.388L16.0719 17.108L16.4079 16.744L16.9679 16.184L17.1919 15.988L17.4999 15.708L17.8079 15.456L18.3119 15.064L18.7319 14.756L19.1519 14.476L19.6839 14.14L20.3839 13.748L21.1679 13.356L21.7559 13.104L22.4839 12.824L23.1559 12.6L23.9679 12.376L24.8639 12.18L25.7599 12.04L26.6559 11.956L27.0759 11.928Z" fill="#FDFCFC"/>
<path d="M27.3838 0.391968H28.6158L29.8198 0.447968L30.8278 0.531968L32.0038 0.671968L33.3198 0.895968L34.4678 1.14797L35.5318 1.42797L36.5398 1.73597L37.5198 2.07197L38.3038 2.37997L39.0318 2.68797L39.7038 2.99597L40.4038 3.33197L41.2718 3.77997L41.9158 4.14397L42.5598 4.53597L43.2598 4.98397L43.9038 5.43197L44.4358 5.82397L44.7718 6.07597L45.1358 6.35597L45.6118 6.74797L46.0038 7.08397L46.2278 7.27997L46.5078 7.53197L46.7318 7.72797L46.9558 7.95197L47.1798 8.14797L48.0758 9.04397L48.2718 9.26797L48.6638 9.68797L48.8598 9.91197L49.1958 10.304L49.5038 10.696L49.7838 11.032L50.1198 11.48L50.5118 12.012L50.9598 12.656L51.3518 13.272L51.7158 13.86L52.0518 14.448L52.3878 15.064L52.8078 15.876L53.1998 16.716L53.6478 17.78L54.0118 18.76L54.3758 19.824L54.7678 21.224L55.0198 22.316L55.2438 23.548L55.3838 24.5L55.4958 25.592L55.5518 26.376L55.5798 26.992V29.008L55.5238 30.072L55.4118 31.22L55.2718 32.256L55.1038 33.236L54.8518 34.412L54.5438 35.588L54.2358 36.596L53.8718 37.632L53.4798 38.612L53.0878 39.508L52.6398 40.432L52.3598 40.992L51.9958 41.636L51.6038 42.308L51.2398 42.896L50.9598 43.316L50.5958 43.848L50.2318 44.352L49.8678 44.828L49.5598 45.22L49.1958 45.668L48.8318 46.088L48.5798 46.368L48.3838 46.592L47.9918 47.012L47.7118 47.292L47.5158 47.516L47.0398 47.964L46.7318 48.272L46.5078 48.468L46.1718 48.776L45.8638 49.028L45.5838 49.28L45.1918 49.588L44.7718 49.924L44.3238 50.26L43.8478 50.596L43.2878 50.988L42.7558 51.324L42.3078 51.604L41.6918 51.968L41.0198 52.332L40.4878 52.612L39.7038 53.004L38.7518 53.424L37.9118 53.76L36.9038 54.124L36.0638 54.404L35.0558 54.684L34.0478 54.936L32.7878 55.188L31.6678 55.356L30.3798 55.496L29.0078 55.58H26.9638L25.6198 55.496L24.3038 55.356L23.0718 55.16L22.2038 54.992L21.0278 54.712L20.1318 54.46L19.1518 54.152L18.3678 53.872L17.4438 53.508L16.6598 53.172L15.8198 52.78L15.2598 52.5L14.6438 52.164L14.1398 51.884L13.5798 51.548L13.0478 51.212L12.3758 50.764L11.8998 50.428L11.3678 50.036L10.8638 49.644L10.4158 49.28L10.0238 48.944L9.74384 48.692L9.51985 48.496L9.23985 48.244L8.81985 47.852L7.92385 46.956L7.72785 46.732L7.33585 46.312L7.13985 46.088L6.80385 45.696L6.49585 45.304L6.21585 44.968L5.85185 44.492L5.48785 43.988L5.03985 43.344L4.67585 42.784L4.22785 42.056L3.86385 41.412L3.47185 40.684L2.99585 39.732L2.63185 38.92L2.26785 38.024L1.98785 37.268L1.62385 36.204L1.28785 35.028L1.03585 33.992L0.811846 32.872L0.643846 31.78L0.531846 30.856L0.447846 29.876L0.419846 29.4L0.391846 28.504V27.468L0.419846 26.6L0.503846 25.424L0.643846 24.192L0.839846 22.96L1.06385 21.868L1.34385 20.748L1.65185 19.712L1.98785 18.704L2.37985 17.668L2.79985 16.688L3.24785 15.736L3.52785 15.176L3.86385 14.56L4.19985 13.972L4.64785 13.244L5.31985 12.236L5.59985 11.844L5.99185 11.312L6.29985 10.92L6.66385 10.472L6.97185 10.108L7.22385 9.79997L7.67185 9.32397L7.86785 9.09997L8.20385 8.76397L8.39985 8.53997L8.59585 8.34397L8.81985 8.14797L9.18385 7.78397L9.40785 7.58797L9.79985 7.22397L10.1078 6.97197L10.5278 6.60797L10.9198 6.29997L11.4238 5.90797L11.9558 5.51597L12.4878 5.15197L12.9918 4.81597L13.6078 4.42397L14.2798 4.03197L15.0358 3.61197L15.9038 3.16397L16.8278 2.74397L17.6118 2.40797L18.6198 2.01597L19.6278 1.67997L20.4398 1.42797L21.5038 1.14797L22.6798 0.895968L23.9678 0.671968L25.1438 0.531968L26.1518 0.447968L27.3838 0.391968ZM26.7958 2.40797L25.6198 2.49197L24.3878 2.63197L23.3518 2.79997L22.2598 3.02397L21.2518 3.27597L20.1318 3.61197L19.1518 3.94797L18.2278 4.31197L17.3878 4.67597L16.6318 5.03997L16.1838 5.26397L15.5398 5.59997L14.8678 5.99197L14.2238 6.38397L13.8038 6.66397L13.2718 7.02797L12.7678 7.39197L12.2638 7.78397L11.8718 8.09197L11.1438 8.70797L10.7798 9.04397L10.5558 9.23997L10.0798 9.68797L9.43585 10.332L9.23985 10.556L8.81985 11.004L8.62385 11.228L8.31585 11.592L7.92385 12.068L7.16785 13.076L6.77585 13.636L6.35585 14.28L6.04785 14.784L5.65585 15.456L5.26385 16.184L4.78785 17.136L4.33985 18.144L3.91985 19.236L3.49985 20.468L3.16385 21.672L2.96785 22.512L2.77185 23.492L2.60385 24.584L2.49185 25.592L2.40785 26.88V29.12L2.49185 30.38L2.60385 31.388L2.77185 32.48L2.93985 33.348L3.19185 34.412L3.47185 35.42L3.80785 36.428L4.05985 37.128L4.42385 38.024L4.75985 38.78L5.15185 39.592L5.51585 40.292L5.87985 40.936L6.32785 41.664L6.94385 42.588L7.27985 43.064L7.72785 43.652L8.03585 44.044L8.28785 44.352L8.65184 44.772L8.84785 44.996L9.15585 45.332L9.40785 45.612L10.4998 46.704L10.7238 46.9L11.0878 47.236L11.3118 47.432L11.6758 47.74L12.0678 48.048L12.4878 48.384L13.0198 48.776L13.2998 48.972L13.8318 49.336L14.3078 49.644L14.8958 50.008L15.5398 50.372L15.8198 50.54L17.1638 51.212L18.1158 51.632L18.8998 51.94L19.7398 52.248L20.8038 52.584L21.9518 52.892L23.1278 53.144L24.2758 53.34L25.4238 53.48L26.5438 53.564L27.2438 53.592H28.7558L29.8758 53.536L30.8278 53.452L31.8918 53.312L32.8718 53.144L33.9078 52.92L34.6918 52.724L35.7278 52.416L36.9598 51.996L37.9958 51.576L38.9198 51.156L39.6198 50.82L40.2638 50.484L40.9078 50.12L41.5518 49.728L42.0278 49.42L42.3638 49.196L42.9238 48.804L43.4558 48.412L43.8478 48.104L44.2958 47.74L44.6878 47.404L44.9118 47.208L45.4718 46.704L45.6678 46.536V46.48L45.7798 46.424L46.5638 45.64L46.7598 45.416L46.9838 45.192L47.2358 44.884L47.5438 44.548L48.0478 43.932L48.4398 43.428L48.8038 42.924L49.0838 42.532L49.5878 41.776L50.0358 41.048L50.3998 40.404L50.8198 39.62L51.1278 39.004L51.5198 38.136L51.9678 37.016L52.3038 36.064L52.5558 35.28L52.8638 34.132L53.0598 33.292L53.2838 32.06L53.4238 31.052L53.5358 29.876L53.5918 28.756V27.244L53.5358 26.096L53.4238 24.92L53.2558 23.744L53.0598 22.708L52.8078 21.616L52.5278 20.608L52.1918 19.6L51.9118 18.816L51.5198 17.864L51.2678 17.304L50.9318 16.604L50.5678 15.876L50.2038 15.232L49.7558 14.476L49.4478 14L49.1678 13.58L48.7758 13.02L48.4398 12.572L48.0478 12.068L47.6838 11.62L47.3478 11.228L47.0678 10.92L46.8718 10.696L46.4798 10.276L45.4438 9.23997L45.2198 9.04397L44.8558 8.70797L44.5478 8.45597L44.2678 8.20397L43.8758 7.89597L43.3718 7.50397L42.8678 7.13997L42.3918 6.80397L41.6638 6.32797L40.8798 5.85197L40.1238 5.43197L39.1998 4.95597L38.3038 4.53597L37.2678 4.11597L36.5118 3.83597L35.5038 3.49997L34.5238 3.21997L33.5998 2.99597L32.4798 2.77197L31.4158 2.60397L30.0438 2.46397L29.1758 2.40797H26.7958Z" fill="#FDFBFB"/>
<path d="M27.3838 0.391968H28.6158L29.8198 0.447968L30.8278 0.531968L32.0038 0.671968L33.3198 0.895968L34.4678 1.14797L35.5318 1.42797L36.5398 1.73597L37.5198 2.07197L38.3038 2.37997L39.0318 2.68797L39.7038 2.99597L40.4038 3.33197L41.2718 3.77997L41.9158 4.14397L42.5598 4.53597L43.2598 4.98397L43.9038 5.43197L44.4358 5.82397L44.7718 6.07597L45.1358 6.35597L45.6118 6.74797L46.0038 7.08397L46.2278 7.27997L46.5078 7.53197L46.7318 7.72797L46.9558 7.95197L47.1798 8.14797L48.0758 9.04397L48.2718 9.26797L48.6638 9.68797L48.8598 9.91197L49.1958 10.304L49.5038 10.696L49.7838 11.032L50.1198 11.48L50.5118 12.012L50.9598 12.656L51.3518 13.272L51.7158 13.86L52.0518 14.448L52.3878 15.064L52.8078 15.876L53.1998 16.716L53.6478 17.78L54.0118 18.76L54.3758 19.824L54.7678 21.224L55.0198 22.316L55.2438 23.548L55.3838 24.5L55.4958 25.592L55.5518 26.376L55.5798 26.992V29.008L55.5238 30.072L55.4118 31.22L55.2718 32.256L55.1038 33.236L54.8518 34.412L54.5438 35.588L54.2358 36.596L53.8718 37.632L53.4798 38.612L53.0878 39.508L52.6398 40.432L52.3598 40.992L51.9958 41.636L51.6038 42.308L51.2398 42.896L50.9598 43.316L50.5958 43.848L50.2318 44.352L49.8678 44.828L49.5598 45.22L49.1958 45.668L48.8318 46.088L48.5798 46.368L48.3838 46.592L47.9918 47.012L47.7118 47.292L47.5158 47.516L47.0398 47.964L46.7318 48.272L46.5078 48.468L46.1718 48.776L45.8638 49.028L45.5838 49.28L45.1918 49.588L44.7718 49.924L44.3238 50.26L43.8478 50.596L43.2878 50.988L42.7558 51.324L42.3078 51.604L41.6918 51.968L41.0198 52.332L40.4878 52.612L39.7038 53.004L38.7518 53.424L37.9118 53.76L36.9038 54.124L36.0638 54.404L35.0558 54.684L34.0478 54.936L32.7878 55.188L31.6678 55.356L30.3798 55.496L29.0078 55.58H26.9638L25.6198 55.496L24.3038 55.356L23.0718 55.16L22.2038 54.992L21.0278 54.712L20.1318 54.46L19.1518 54.152L18.3678 53.872L17.4438 53.508L16.6598 53.172L15.8198 52.78L15.2598 52.5L14.6438 52.164L14.1398 51.884L13.5798 51.548L13.0478 51.212L12.3758 50.764L11.8998 50.428L11.3678 50.036L10.8638 49.644L10.4158 49.28L10.0238 48.944L9.74384 48.692L9.51985 48.496L9.23985 48.244L8.81985 47.852L7.92385 46.956L7.72785 46.732L7.33585 46.312L7.13985 46.088L6.80385 45.696L6.49585 45.304L6.21585 44.968L5.85185 44.492L5.48785 43.988L5.03985 43.344L4.67585 42.784L4.22785 42.056L3.86385 41.412L3.47185 40.684L2.99585 39.732L2.63185 38.92L2.26785 38.024L1.98785 37.268L1.62385 36.204L1.28785 35.028L1.03585 33.992L0.811846 32.872L0.643846 31.78L0.531846 30.856L0.447846 29.876L0.419846 29.4L0.391846 28.504V27.468L0.419846 26.6L0.503846 25.424L0.643846 24.192L0.839846 22.96L1.06385 21.868L1.34385 20.748L1.65185 19.712L1.98785 18.704L2.37985 17.668L2.79985 16.688L3.24785 15.736L3.52785 15.176L3.86385 14.56L4.19985 13.972L4.64785 13.244L5.31985 12.236L5.59985 11.844L5.99185 11.312L6.29985 10.92L6.66385 10.472L6.97185 10.108L7.22385 9.79997L7.67185 9.32397L7.86785 9.09997L8.20385 8.76397L8.39985 8.53997L8.59585 8.34397L8.81985 8.14797L9.18385 7.78397L9.40785 7.58797L9.79985 7.22397L10.1078 6.97197L10.5278 6.60797L10.9198 6.29997L11.4238 5.90797L11.9558 5.51597L12.4878 5.15197L12.9918 4.81597L13.6078 4.42397L14.2798 4.03197L15.0358 3.61197L15.9038 3.16397L16.8278 2.74397L17.6118 2.40797L18.6198 2.01597L19.6278 1.67997L20.4398 1.42797L21.5038 1.14797L22.6798 0.895968L23.9678 0.671968L25.1438 0.531968L26.1518 0.447968L27.3838 0.391968ZM27.6358 1.20397L26.7398 1.23197L25.4798 1.31597L24.2758 1.45597L23.2118 1.62397L22.0918 1.84797L20.8598 2.15597L19.6558 2.51997L18.6198 2.88397L17.4998 3.33197L16.7438 3.66797L15.8198 4.11597L15.1198 4.47997L14.4758 4.84397L13.8318 5.23597L13.3558 5.54397L12.9358 5.82397L12.4878 6.13197L11.9558 6.52397L11.4518 6.91597L11.1718 7.13997L10.8638 7.39197L10.4718 7.72797L10.1638 8.00797L9.93985 8.20397L9.51985 8.59597L9.15585 8.95997L8.98785 9.09997L8.79185 9.32397L8.34385 9.77197L8.14785 9.99597L7.81185 10.36L7.55985 10.668L7.30785 10.948L6.99985 11.34L6.60785 11.844L6.21585 12.376L5.87985 12.852L5.59985 13.272L5.29185 13.748L4.87185 14.448L4.59185 14.924L4.11585 15.82L3.77985 16.492L3.33185 17.5L3.02385 18.256L2.74385 19.012L2.40785 20.02L2.15585 20.86L1.84785 22.092L1.59585 23.352L1.39985 24.668L1.28785 25.788L1.23185 26.628L1.20385 27.552V28.448L1.23185 29.344L1.31585 30.548L1.48385 31.948L1.67985 33.096L1.93185 34.244L2.18385 35.224L2.49185 36.232L2.74385 36.988L3.10785 37.94L3.41585 38.668L3.66785 39.228L4.00385 39.928L4.22785 40.376L4.53585 40.964L4.92785 41.636L5.26385 42.196L5.57185 42.672L5.79585 43.008L6.10385 43.456L6.49585 43.988L6.77585 44.352L7.08385 44.744L7.33585 45.052L7.67185 45.444L7.86785 45.668L8.11985 45.948L8.31585 46.172L8.53985 46.396L8.73585 46.62L9.54785 47.432L9.77185 47.628L9.96784 47.824L10.1918 48.02L10.4718 48.272L10.8358 48.58L11.2838 48.944L11.7878 49.336L12.3198 49.728L12.7118 50.008L13.5518 50.568L14.0838 50.904L14.7558 51.296L15.4278 51.66L16.1838 52.052L17.1358 52.5L18.1438 52.92L19.1238 53.284L20.1318 53.62L21.1118 53.9L22.1478 54.152L23.2678 54.376L24.3318 54.544L25.6198 54.684L26.3198 54.74L26.9638 54.768H29.0078L30.0718 54.712L31.4438 54.572L32.7318 54.376L33.7118 54.18L34.7758 53.928L35.7558 53.648L36.9598 53.256L37.9118 52.892L38.8358 52.5L39.6198 52.136L40.6278 51.632L41.2718 51.268L41.9998 50.848L42.6438 50.428L43.1478 50.092L43.6238 49.756L44.0438 49.448L44.5478 49.056L44.9398 48.748L45.3598 48.384L45.6678 48.132L46.1158 47.712L46.3958 47.46L47.6558 46.2L47.8518 45.976L48.1598 45.64L48.4118 45.332L48.7758 44.912L49.0838 44.52L49.4758 44.016L49.8398 43.512L50.2878 42.868L50.5958 42.392L51.0438 41.664L51.4078 41.02L51.7718 40.348L52.2478 39.396L52.6398 38.528L52.9758 37.688L53.2558 36.932L53.5918 35.924L53.8718 34.972L54.1238 33.964L54.3758 32.704L54.5438 31.64L54.6558 30.688L54.7398 29.568L54.7678 28.952V27.02L54.7118 25.956L54.5998 24.808L54.4038 23.436L54.1798 22.288L53.9278 21.224L53.6478 20.244L53.2558 19.04L52.8638 18.004L52.5278 17.22L52.2198 16.548L51.8838 15.848L51.5198 15.148L51.1558 14.504L50.8198 13.944L50.4278 13.328L50.0638 12.796L49.7278 12.32L49.3918 11.872L49.0278 11.396L48.6358 10.92L48.3278 10.556L48.0758 10.276L47.8238 9.96797L47.4598 9.60397L47.2638 9.37997L46.3958 8.51197L46.1718 8.31597L45.9758 8.11997L45.7518 7.92397L44.9678 7.25197L44.1838 6.63597L43.6518 6.24397L43.1758 5.90797L42.5878 5.51597L42.0558 5.17997L41.4958 4.84397L40.9078 4.50797L40.1798 4.11597L39.5358 3.80797L38.7518 3.44397L37.7998 3.05197L36.6518 2.63197L35.6158 2.29597L34.4678 1.98797L33.6278 1.79197L32.6198 1.59597L31.5278 1.42797L30.1558 1.28797L29.2598 1.23197L28.2798 1.20397H27.6358Z" fill="#020101"/>
<path d="M40.6281 40.824H40.7961L40.9361 40.964L41.2441 41.384L41.6081 41.888L42.0001 42.42L42.3641 42.924L42.7561 43.456L43.0921 43.932L43.4841 44.464L44.2121 45.472L44.2401 45.668L44.1001 45.836L43.5681 46.2L43.2881 46.424L43.1481 46.48L42.9241 46.452L41.3841 45.976L39.5361 45.416L39.1721 45.304L39.3401 45.556L39.5921 45.892L39.8721 46.284L40.6001 47.292L40.9921 47.824L41.0201 47.992L40.9641 48.104L40.4321 48.496L40.0121 48.804H39.7881L39.5921 48.58L39.2561 48.104L38.8641 47.572L38.1361 46.564L37.7441 46.032L36.6521 44.52L36.3721 44.128V43.932L36.5961 43.736L37.3801 43.176H37.6041L38.5281 43.456L39.3121 43.708L40.8521 44.184L41.4121 44.352L41.4401 44.324L40.7121 43.316L40.3201 42.784L39.9561 42.28L39.6201 41.804L39.5921 41.608L39.7321 41.468L40.0961 41.188L40.6281 40.824Z" fill="black"/>
<path d="M33.516 44.884L33.712 44.912L33.992 45.248L34.356 45.724L34.664 46.116L34.944 46.48L35.308 46.956L35.7 47.46L36.064 47.936L36.4 48.356L36.82 48.916L37.156 49.336L37.436 49.7L37.548 49.924L37.492 50.092L37.184 50.204L36.26 50.456L36.064 50.428L35.7 49.98L35.504 49.728V49.672L34.412 49.98L32.984 50.372H32.872L32.816 50.932L32.76 51.296L32.704 51.408L32.48 51.492L31.444 51.772L31.304 51.744L31.22 51.66V51.268L31.948 45.528L32.004 45.332L32.172 45.248L33.516 44.884Z" fill="black"/>
<path d="M20.9439 44.352L21.4199 44.464L22.1199 44.66L22.2599 44.772V44.996L21.7839 46.732L22.0079 46.816L24.2479 47.432L24.3879 47.46L24.4439 47.152L24.8639 45.64L25.0039 45.5H25.1999L26.2079 45.78L26.3479 45.892L26.3759 46.06L25.6479 48.72L25.0319 50.96L24.8639 51.548L24.7519 51.66L24.4719 51.632L23.4639 51.352L23.3799 51.24V51.016L23.7999 49.504L23.9679 48.86L23.4919 48.748L21.3639 48.16L21.3079 48.468L20.7759 50.4L20.6359 50.54L20.3839 50.512L19.4599 50.26L19.2919 50.148L19.2639 49.952L19.7119 48.328L20.4119 45.78L20.7479 44.548L20.8319 44.408L20.9439 44.352Z" fill="black"/>
<path d="M34.3559 30.128L34.5799 30.24L35.1119 30.576L35.8959 31.052L35.9239 31.108L35.8399 31.36V31.668L36.0359 31.892L36.3719 32.172L36.7359 32.452L37.1279 32.76L37.3799 33.012L37.5479 33.292L37.6599 33.656L37.6879 33.88V34.132L37.6039 34.72L37.4919 35.196L37.2959 35.784L37.0439 36.344L36.7079 37.016L36.5679 37.184L36.3719 37.268L34.4119 37.688L34.1319 37.744H33.9919L34.0759 37.436L34.4119 36.344L34.6919 35.224L34.7199 35.028V34.804L34.6359 34.412L34.4399 34.048L34.1879 33.768L33.8799 33.516L33.5159 33.236L33.0959 32.9L32.8999 32.732L32.8159 32.592V32.34L32.9839 32.088L33.2919 31.808L33.5999 31.584L33.8799 31.304L34.0759 30.996L34.2159 30.688L34.3279 30.268L34.3559 30.128Z" fill="black"/>
<path d="M16.2118 41.916H16.9118L17.4438 42.028L17.8078 42.168L18.1998 42.364L18.5358 42.588L18.8998 42.896L19.2358 43.26L19.5158 43.708L19.7118 44.156L19.8238 44.604V44.8L19.7118 44.912L19.5998 44.94L18.9558 44.968H18.4238L18.3118 44.856L18.1718 44.408L18.0038 44.1L17.8078 43.876L17.5278 43.68L17.1918 43.512L16.9678 43.456H16.4078L16.0438 43.568L15.7638 43.736L15.4838 43.988L15.2878 44.212L15.0638 44.632L14.9798 44.912L14.9518 45.108V45.444L15.0358 45.808L15.2038 46.116L15.3718 46.34L15.6798 46.592L16.0438 46.76L16.3518 46.844H16.9678L17.0798 46.956L17.3878 48.02V48.188L17.2478 48.328L16.8278 48.384L16.2958 48.356L15.7918 48.244L15.3438 48.076L14.8958 47.824L14.5598 47.572L14.2798 47.32L13.9998 47.012L13.7478 46.62L13.5518 46.2L13.4118 45.668L13.3838 45.416V44.996L13.4678 44.464L13.6638 43.904L13.9438 43.4L14.2238 43.036L14.5318 42.7L14.8958 42.42L15.2878 42.196L15.6238 42.056L16.2118 41.916Z" fill="black"/>
<path d="M26.88 11.536H28.784L29.596 11.592L30.632 11.732L31.416 11.872L32.34 12.096L33.208 12.348L34.02 12.628L34.832 12.964L35.756 13.412L36.428 13.776L36.932 14.084L37.436 14.42L37.94 14.784L38.416 15.148L38.892 15.54L39.172 15.792L39.396 15.988L39.592 16.184L39.816 16.38L40.012 16.604L40.404 16.996L40.656 17.304L40.936 17.612L41.16 17.892L41.44 18.256L41.804 18.76L42.28 19.488L42.756 20.3L43.26 21.28L43.652 22.176L43.708 22.316L43.68 22.428L43.4 22.54H43.344L43.036 21.84L42.7 21.112L42.28 20.328L41.916 19.712L41.356 18.872L40.964 18.34L40.6 17.892L40.348 17.584L40.012 17.22L39.76 16.94L39.06 16.24L38.836 16.044L38.444 15.708L37.996 15.344L37.604 15.064L37.184 14.756L36.568 14.364L35.952 14L35.028 13.524L34.188 13.16L33.376 12.852L32.368 12.544L31.304 12.292L30.38 12.124L29.428 12.012L28.504 11.956H27.076L26.04 12.04L25.2 12.152L24.192 12.348L23.352 12.572L22.736 12.768L22.176 12.964L21.56 13.216L20.888 13.524L20.216 13.86L19.544 14.252L18.984 14.616L18.536 14.924L18.032 15.316L17.752 15.54L17.388 15.848L17.108 16.1L16.744 16.436L16.212 16.968L16.016 17.192L15.736 17.5L15.176 18.2L14.784 18.732L14.504 19.152L14.112 19.768L13.72 20.468L13.412 21.056L13.048 21.868L12.74 22.652L12.404 23.66L12.18 24.472L11.984 25.396L11.9 25.872L11.76 25.9L11.48 25.844L11.62 25.004L11.844 24.08L12.068 23.296L12.292 22.624L12.6 21.84L12.908 21.14L13.16 20.608L13.496 19.992L13.804 19.46L14.252 18.76L14.588 18.284L15.148 17.556L15.484 17.164L15.68 16.94L16.072 16.52L16.772 15.82L16.996 15.624L17.276 15.372L17.584 15.12L18.004 14.784L18.424 14.476L19.096 14.028L19.6 13.72L20.356 13.3L21.056 12.964L21.7 12.684L22.456 12.404L23.156 12.18L23.996 11.956L24.92 11.76L25.648 11.648L26.46 11.564L26.88 11.536Z" fill="black"/>
<path d="M44.4921 35.392L44.6601 35.42L45.1361 35.728L45.5561 36.008L45.6121 36.12L45.5841 36.288L45.1921 36.876L44.7721 37.52L44.4921 37.94L44.5201 38.024L45.1641 38.444L46.7881 39.508L47.7681 40.152L48.1881 40.432L48.2441 40.516L48.2161 40.712L47.8521 41.272L47.5721 41.692L47.4601 41.748L47.2921 41.72L46.8721 41.44L46.2281 41.02L45.4721 40.516L44.9961 40.208L44.1841 39.676L43.7641 39.396L43.5961 39.312L43.0921 40.068L42.7001 40.684L42.4481 41.048L42.3921 41.076H42.2241L41.7761 40.796L41.3561 40.516L41.2441 40.404V40.236L41.5241 39.788L42.0281 39.032L43.2041 37.24L43.4841 36.82L43.8481 36.26L44.4081 35.42L44.4921 35.392Z" fill="black"/>
<path d="M43.5958 32.648L43.9598 32.732L43.9878 32.788L43.6798 33.768L43.3438 34.636L43.0078 35.364L42.7278 35.924L42.3358 36.596L41.9998 37.128L41.8038 37.408L41.5238 37.8L41.2438 38.164L40.9358 38.556L40.6558 38.864L40.4598 39.088L40.0398 39.536L39.5638 40.012L39.3398 40.208L39.0318 40.488L38.7238 40.74L38.3038 41.076L37.7718 41.468L36.9318 42.028L36.3158 42.392L35.6438 42.756L34.8878 43.12L33.9358 43.512L32.9278 43.848L32.0318 44.1L31.1358 44.296L30.2958 44.436L29.1478 44.548L28.4478 44.576H27.8318L26.6558 44.52L25.5918 44.408L24.7518 44.268L23.9398 44.1L23.0998 43.876L22.0918 43.54L21.4198 43.288L20.9718 43.092L20.4118 42.84L19.7958 42.504L19.3478 42.252L18.9558 42L18.5358 41.72L18.0038 41.328L17.6958 41.076L17.3318 40.768L16.9958 40.46L16.7998 40.292L16.8278 40.18L17.0518 39.956L17.2478 40.124L17.5838 40.432L17.9478 40.74L18.4238 41.104L18.8438 41.412L19.4878 41.832L20.0758 42.168L20.8318 42.56L21.5318 42.868L22.1758 43.12L23.1838 43.456L24.0238 43.68L25.1158 43.904L25.8718 44.016L26.7398 44.1L27.1598 44.128H28.9238L29.9318 44.044L30.8838 43.904L31.6958 43.736L32.5638 43.512L33.5718 43.176L34.1038 42.98L34.8878 42.644L35.8958 42.14L36.4278 41.832L37.0158 41.468L37.5758 41.076L38.0238 40.74L38.4158 40.432L38.7798 40.124L39.3398 39.62L39.7318 39.228H39.7878L39.8438 39.116L40.1798 38.78L40.4318 38.472L40.6838 38.192L40.9918 37.8L41.3838 37.268L41.8318 36.596L42.1678 36.036L42.5038 35.42L42.8678 34.664L43.2038 33.824L43.4838 32.984L43.5958 32.648Z" fill="black"/>
<path d="M38.4439 6.27197H38.9759L39.4239 6.38397L39.8719 6.60797L40.0959 6.77597L40.3759 7.02797L40.5719 7.30797L40.7119 7.58797L40.7959 7.83997L40.8239 8.00797V8.56797L40.7399 8.93197L40.5439 9.37997L40.3199 9.68797L40.0679 9.96797L39.7879 10.164L39.3679 10.36L39.0599 10.416H38.5559L38.0239 10.276L37.5479 10.024L37.2119 9.71597L36.9879 9.46397L36.7919 9.07197L36.6799 8.62397V8.17597L36.7919 7.69997L37.0159 7.22397L37.2399 6.94397L37.4079 6.74797L37.7719 6.49597L38.1639 6.32797L38.4439 6.27197Z" fill="black"/>
<path d="M20.888 4.62H21.448L21.812 4.704L22.26 4.928L22.568 5.18L22.82 5.516L23.016 5.90799L23.128 6.27199L23.156 6.43999V7.05599L23.044 7.47599L22.848 7.83999L22.54 8.17599L22.344 8.34399L21.924 8.56799L21.504 8.70799L21.308 8.73599H20.72L20.3 8.62399L19.992 8.45599L19.74 8.25999L19.516 8.03599L19.292 7.67199L19.152 7.33599L19.04 6.88799V6.35599L19.152 5.90799L19.32 5.572L19.544 5.292L19.824 5.04L20.216 4.816L20.72 4.648L20.888 4.62Z" fill="black"/>
<path d="M7.6719 16.072H7.9239L8.3159 16.128L8.7639 16.296L9.1839 16.548L9.5479 16.912L9.7719 17.276L9.8839 17.584L9.9399 17.836V18.312L9.8559 18.704L9.7159 19.068L9.5479 19.348L9.3519 19.6L9.1559 19.796L8.7639 20.048L8.3719 20.188L8.2319 20.216H7.6159L7.1959 20.104L6.7479 19.88L6.4679 19.684L6.2159 19.432L5.9639 19.04L5.8239 18.62L5.7959 18.48V18.004L5.8799 17.584L6.1039 17.08L6.3279 16.772L6.4679 16.604L6.8039 16.352L7.1399 16.184L7.4479 16.1L7.6719 16.072Z" fill="black"/>
<path d="M42.3362 8.31598L42.5042 8.34398L42.7842 8.59598L43.0922 8.84798L43.4842 9.18398L43.7922 9.43598L44.1282 9.74398L44.3802 10.136L44.4922 10.444L44.5202 10.584V10.892L44.4362 11.228L44.2962 11.48L44.0442 11.76L43.8202 11.928L43.4842 12.068L43.3162 12.096H43.0922L42.7562 12.04V12.32L42.6722 13.3L42.5882 13.44H42.4482L42.0562 13.104L41.7762 12.88L41.7482 12.824V12.404L41.8042 11.732V11.424L41.3842 11.06L41.2162 11.2L40.7122 11.816L40.5442 11.844L40.1522 11.508L39.9562 11.368L39.9282 11.172L40.1802 10.864L40.7962 10.136L41.0482 9.82798L41.3842 9.43598L41.6362 9.12798L42.2522 8.39998L42.3362 8.31598Z" fill="black"/>
<path d="M3.86398 24.892L5.06798 24.948L7.16798 25.06L7.55998 25.088L7.67198 25.172V25.536L7.64398 25.984L7.53198 26.124L6.52398 26.796L6.07598 27.104L5.45998 27.524L5.54398 27.552L7.13998 27.636L7.44798 27.664L7.53198 27.748V28.112L7.50398 28.56L7.44798 28.644H6.80398L4.11598 28.504L3.69598 28.476L3.61198 28.448L3.58398 28.392V28.056L3.61198 27.608L3.69598 27.468L4.92798 26.656L5.45998 26.292L5.82398 26.04L5.76798 26.012L3.80798 25.9L3.72398 25.816V25.424L3.75198 25.004L3.86398 24.892Z" fill="black"/>
<path d="M16.9959 6.35602H17.3879L17.7239 6.44002L18.0319 6.60802L18.2559 6.83202L18.4239 7.11202L18.5359 7.39202L18.5639 7.53202V7.92402L18.4519 8.26002L18.2559 8.56802L17.9759 8.84802L17.5839 9.10002L16.8839 9.49202L16.9399 9.63202L17.3599 10.416L17.3039 10.556L16.6599 10.92H16.4919L16.2119 10.444L15.8479 9.77202L15.5119 9.18402L15.0919 8.42802L14.7279 7.78402L14.6719 7.70002V7.53202L14.9519 7.36402L15.6519 6.97202L16.1559 6.69202L16.6039 6.46802L16.9959 6.35602Z" fill="black"/>
<path d="M33.7399 4.25598L34.6639 4.53598L35.6439 4.84398L36.0639 5.06798L36.3439 5.31998L36.5399 5.57198L36.6519 5.85198L36.6799 5.96398V6.41198L36.5959 6.71998L36.4559 6.99998L36.1759 7.30798L35.7839 7.50398L35.5599 7.55998H35.0279L34.5519 7.44798L33.7679 7.19598L33.7119 7.44798L33.4879 8.14798L33.4039 8.23198L33.1799 8.20398L32.5919 8.00798L32.5359 7.95198L32.5639 7.69998L33.2639 5.45998L33.5999 4.36798L33.6839 4.28398L33.7399 4.25598Z" fill="black"/>
<path d="M47.4321 20.86L48.8321 21.056L51.3521 21.42L51.4921 21.504L51.7161 22.372V22.568L51.2121 22.96L50.9041 23.184L50.3721 23.576L49.7841 24.024L49.2521 24.416L48.8041 24.752L48.5241 24.948L48.3561 24.976L48.2721 24.836L48.1041 24.164L48.1321 24.024L48.4681 23.744L48.5801 23.66L48.5521 23.436L48.1881 22.008V21.952L47.8521 21.924L47.5721 21.868L47.4881 21.728L47.3201 21.084V20.944L47.4321 20.86Z" fill="black"/>
<path d="M11.5922 9.96802L11.7602 9.99602L12.8802 10.5L14.0282 11.004L15.1482 11.508L15.3162 11.592L15.4002 11.732L15.2042 11.956L14.9522 12.208L14.7282 12.376L14.4762 12.292L14.1122 12.152L13.6922 12.544L13.3842 12.852L13.1602 13.048L12.8802 13.328L13.0482 13.804L13.0762 13.944L12.9922 14.084L12.7682 14.28L12.5722 14.476L12.3762 14.588L12.2922 14.56L12.1802 14.336L11.7882 13.3L11.2562 11.928L10.8362 10.836V10.696L11.4522 10.08L11.5922 9.96802Z" fill="black"/>
<path d="M27.7479 45.696H28.8959L29.0359 45.78L29.0919 45.892L29.1199 50.624V51.604L29.0359 51.744L28.9799 51.772L27.7759 51.8L27.6359 51.744L27.5519 51.576L27.5239 45.892L27.6079 45.752L27.7479 45.696Z" fill="black"/>
<path d="M45.08 33.124H45.276L49.588 34.58L50.568 34.916L50.708 35L50.736 35.056L50.708 35.336L50.372 36.288L50.26 36.4H50.064L48.888 36.008L47.74 35.616L46.76 35.28L45.752 34.944L44.688 34.58L44.604 34.468L44.632 34.244L44.968 33.236L45.08 33.124Z" fill="black"/>
<path d="M4.90007 20.16L5.09607 20.188L7.16807 20.72L7.50407 20.86L7.81207 21.056L8.03607 21.308L8.23207 21.644L8.31607 21.896L8.34407 22.064V22.652L8.26007 23.044L8.06407 23.492L7.78407 23.856L7.47607 24.108L7.16807 24.248L6.77607 24.332H6.49607L6.04807 24.248L4.53607 23.856L4.03207 23.716L3.97607 23.66L4.00407 23.408L4.17207 22.82L4.22807 22.764L4.48007 22.792L6.35607 23.268H6.80407L7.08407 23.128L7.28007 22.904L7.36407 22.708L7.39207 22.372L7.30807 22.092L7.14007 21.868L6.86007 21.7L4.84407 21.168L4.67607 21.112L4.64807 20.916L4.81607 20.272L4.90007 20.16Z" fill="black"/>
<path d="M30.464 3.724H31.08L31.584 3.836L31.92 3.976L32.228 4.172L32.368 4.284V4.34H32.424L32.592 4.536V4.676L32.452 4.788L31.892 5.124L31.752 5.096L31.612 4.928L31.332 4.76L31.024 4.676H30.632L30.436 4.76L30.408 4.956L30.548 5.096L30.968 5.32L31.472 5.544L31.892 5.824L32.144 6.076L32.284 6.356L32.312 6.468V6.888L32.2 7.196L32.004 7.448L31.78 7.616L31.472 7.756L31.192 7.812H30.548L30.016 7.7L29.624 7.532L29.232 7.252L29.008 7L28.98 6.888L29.12 6.748L29.484 6.524L29.68 6.412H29.82L29.96 6.58L30.24 6.748L30.492 6.832L30.66 6.86H31.052L31.276 6.804L31.304 6.636L31.22 6.496L30.912 6.3L30.408 6.076L29.988 5.852L29.736 5.656L29.54 5.432L29.4 5.152L29.372 5.012V4.76L29.456 4.424L29.624 4.172L29.82 3.976L30.156 3.808L30.464 3.724Z" fill="black"/>
<path d="M14.9519 37.996L15.0639 38.108L15.3719 38.5L15.5679 38.724V38.78L14.7559 39.228L13.9999 39.564L13.2719 39.816L12.5439 40.04L11.5359 40.292L11.1999 40.46L10.8639 40.824L10.6399 41.104L10.3319 41.468L10.0519 41.832L9.65986 42.308L9.29586 42.784L9.04386 43.148L8.70786 43.624L8.48386 43.932L8.34386 43.792L8.03586 43.4L7.75586 43.036V42.98L8.06386 42.868L8.20386 42.756L8.53986 42.308L8.90386 41.86L9.35186 41.3L9.71586 40.852L10.0239 40.488L10.2759 40.18L10.5559 39.928L10.8919 39.76L12.0959 39.312L12.9359 38.976L13.6359 38.668L14.1959 38.416L14.8119 38.08L14.9519 37.996Z" fill="#FE88B4"/>
<path d="M49.3361 16.296L49.4761 16.324L49.6721 16.716L49.8121 17.052V17.22L49.5321 17.5L49.3361 17.724L48.8601 18.2L48.6641 18.424L48.2161 18.872L48.0201 19.096L47.8801 19.236H48.5241L49.9521 19.208H50.7081L50.7921 19.264L51.1001 19.992V20.132L51.0161 20.188L50.2881 20.216L47.7121 20.272H46.9561L46.8441 20.104L46.5081 19.32L46.5361 19.18L46.8721 18.844L47.0681 18.62L47.4601 18.228L47.6561 18.004L48.1601 17.5L48.3561 17.276L48.8041 16.828L49.0001 16.604L49.2801 16.324L49.3361 16.296Z" fill="black"/>
<path d="M9.77186 11.704L9.91186 11.732L10.0799 11.984L10.5559 12.796L11.0319 13.58L11.2839 14.028L11.9559 15.148L11.9839 15.26L11.7879 15.568L11.3959 16.072L11.3399 16.128L11.0879 16.1L8.23186 15.372L7.39186 15.148L7.30786 15.064L7.33586 14.924L7.75586 14.364L7.86786 14.252L8.09186 14.28L10.3599 14.868L10.6399 14.924L10.1639 14.112L9.82786 13.552L9.35186 12.74L9.21186 12.46L9.32386 12.264L9.71586 11.76L9.77186 11.704Z" fill="black"/>
<path d="M45.5839 11.116L45.7239 11.172L46.0879 11.592L46.5359 12.152L46.9279 12.628L47.1799 12.936L47.5439 13.384L47.9359 13.86L48.0479 14.028L48.0199 14.168L47.6279 14.504L47.4879 14.616L47.2919 14.588L47.0399 14.28L46.6759 13.832L46.4799 13.58L46.3119 13.692L45.8359 14.084L45.5279 14.336L45.0519 14.728L44.7439 14.98L44.2959 15.344L44.2679 15.372H44.0999L43.9599 15.232L43.6519 14.868L43.5679 14.728L43.5959 14.588L43.9039 14.336L44.3799 13.944L44.7719 13.636L45.1359 13.328L45.4159 13.104L45.8079 12.796L45.6399 12.544L45.3599 12.236L45.0519 11.844L44.9679 11.732L44.9959 11.592L45.3039 11.312L45.5839 11.116Z" fill="black"/>
<path d="M24.248 3.89197H24.444L24.528 4.00397L24.724 5.57197L24.864 6.74797V6.83197L26.964 6.57997H27.104L27.188 6.69197L27.244 7.13997V7.44797L27.188 7.50397L26.6 7.58797L24.248 7.86797H24.052L23.968 7.78397L23.856 6.94397L23.52 4.14397L23.576 4.00397L23.604 3.97597L24.248 3.89197Z" fill="black"/>
<path d="M48.412 14.868L48.552 14.896L48.944 15.512L48.972 15.68L48.804 15.82L48.02 16.296L47.292 16.744L46.06 17.5L45.78 17.668L45.64 17.64L45.444 17.36L45.22 16.996V16.828L45.836 16.436L46.48 16.044L47.208 15.596L48.356 14.896L48.412 14.868Z" fill="black"/>
<path d="M27.6922 3.64001H28.5602L28.6162 3.69601V7.44801L28.5042 7.56001H27.7202L27.6082 7.47601V4.70401L27.6362 3.69601L27.6922 3.64001Z" fill="black"/>
<path d="M21.028 5.54401L21.336 5.57201L21.616 5.68401L21.896 5.93601L22.064 6.21601L22.148 6.46801L22.176 6.63601V6.86001L22.092 7.19601L21.924 7.44801L21.7 7.64401L21.448 7.75601L21.336 7.78401H20.86L20.608 7.67201L20.384 7.50401L20.188 7.25201L20.048 6.86001L20.02 6.58001L20.076 6.24401L20.216 5.99201L20.384 5.79601L20.832 5.57201L21.028 5.54401Z" fill="#FE88B4"/>
<path d="M38.612 7.224H38.948L39.256 7.336L39.48 7.476L39.704 7.728L39.816 7.98L39.844 8.148V8.372L39.76 8.708L39.592 9.016L39.34 9.268L39.004 9.436L38.864 9.464H38.612L38.36 9.408L38.108 9.268L37.884 9.072L37.744 8.848L37.688 8.68V8.176L37.8 7.868L37.996 7.588L38.22 7.392L38.5 7.252L38.612 7.224Z" fill="#FE88B4"/>
<path d="M7.61605 17.08H7.95205L8.31605 17.192L8.59605 17.36L8.84805 17.64L8.96005 17.892L8.98805 18.032V18.312L8.87605 18.676L8.70805 18.9L8.48405 19.096L8.23205 19.208L8.09205 19.236H7.78405L7.42005 19.124L7.11205 18.928L6.91605 18.704L6.77605 18.424L6.74805 18.284V18.004L6.86005 17.64L7.02805 17.416L7.16805 17.276L7.42005 17.136L7.61605 17.08Z" fill="#FE88B4"/>
<path d="M8.62417 31.8359H8.65217L8.90417 32.8999L9.10017 33.5719V33.6839L8.68017 33.9639L8.28817 34.1879L7.92417 34.2999L7.61617 34.3559H7.36417L7.19617 34.2719L7.05617 34.1039L6.97217 33.9079V33.5719L7.08417 33.2079L7.30817 32.7599L7.53217 32.4799L7.67217 32.3119L7.89617 32.1439L8.40017 31.9759L8.62417 31.8359Z" fill="#FE88B4"/>
<path d="M36.4561 37.548H36.5121L36.4281 37.828L36.0361 38.64L35.9241 38.78L35.7281 38.864L34.1601 39.228L33.6561 39.34H33.5161L33.8521 38.164L33.9361 38.108L36.4561 37.548Z" fill="black"/>
<path d="M32.5641 38.472L32.6481 38.5L32.3681 39.144L32.0881 39.676L31.8641 39.788L30.4081 40.124L29.6521 40.292L29.7081 40.012L29.9881 39.06L32.5641 38.472Z" fill="black"/>
<path d="M33.3199 46.9L33.4599 47.04L33.7959 47.46L34.1599 47.936L34.4679 48.328L34.5239 48.44L33.8519 48.636L33.1519 48.832H33.0679L33.0959 48.468L33.2919 46.956L33.3199 46.9Z" fill="#FE88B4"/>
<path d="M17.136 7.27997L17.36 7.33597L17.528 7.53197L17.584 7.67197V7.89597L17.416 8.11997L16.94 8.39997L16.436 8.67997L16.352 8.65197L15.988 7.97997L15.96 7.86797L16.436 7.58797L16.912 7.33597L17.136 7.27997Z" fill="#FE88B4"/>
<path d="M42.5038 9.63196L42.6158 9.65996L42.9798 9.96796L43.2878 10.22L43.5118 10.472L43.5398 10.528V10.78L43.4278 10.976L43.2598 11.116L43.0638 11.144L42.8398 11.06L42.5598 10.836L42.1958 10.528L41.9438 10.332L42.1118 10.108L42.4758 9.68796L42.5038 9.63196Z" fill="#FE88B4"/>
<path d="M34.3281 5.43201L34.6081 5.48801L35.3641 5.74001L35.5881 5.88001L35.7001 6.04801V6.24401L35.5881 6.52401L35.3921 6.63601H35.1121L34.1881 6.35601L34.0481 6.30001L34.3001 5.48801L34.3281 5.43201Z" fill="#FE88B4"/>
<path d="M45.304 28.784H46.06L46.088 28.812V29.008L46.06 29.036H45.5L45.528 29.12H45.948L46.004 29.148L46.032 29.316L45.92 29.372H45.5L45.528 29.512L46.088 29.54V29.736L46.06 29.764H45.276L45.248 29.596V28.84L45.304 28.784Z" fill="black"/>
<path d="M49.8121 28.784H50.0641L50.2321 28.896L50.3161 29.092V29.484L50.2321 29.652L50.0921 29.764L49.8681 29.792L49.7001 29.708L49.5881 29.568L49.5601 29.456V29.12L49.6441 28.924L49.8121 28.784Z" fill="black"/>
<path d="M49.196 22.092L50.372 22.26L50.428 22.316L49.924 22.708L49.504 23.016L49.42 23.044L49.196 22.204V22.092Z" fill="#FE88B4"/>
<path d="M12.04 11.2L12.628 11.452L13.16 11.676V11.76L12.656 12.264L12.488 12.376L12.376 12.124L12.04 11.256V11.2Z" fill="#FE88B4"/>
<path d="M46.5359 28.784H46.8439L47.0679 28.896L47.0399 29.008L46.9279 29.092L46.7879 29.036H46.5639L46.6479 29.12L46.9279 29.232L47.0679 29.372L47.0959 29.512L47.0119 29.68L46.8999 29.764L46.7599 29.792H46.5639L46.3399 29.708L46.2839 29.652V29.568L46.3959 29.484L46.7039 29.54L46.8159 29.512V29.456L46.4519 29.316L46.3119 29.176V28.98L46.4519 28.812L46.5359 28.784Z" fill="black"/>
<path d="M51.8 28.784L52.024 28.812V29.372H52.108V29.568H52.024V29.764H51.8L51.772 29.736V29.596H51.38L51.324 29.568V29.344L51.688 28.868L51.716 28.812L51.8 28.784Z" fill="#050203"/>
<path d="M50.7081 28.784H50.9601L51.1281 28.896L51.1841 29.008L51.1561 29.26L50.9881 29.456L50.9041 29.512L51.1841 29.54V29.764H50.4841L50.4561 29.596L50.5121 29.484L50.8201 29.26L50.9041 29.176V29.008L50.7361 29.064H50.4841L50.5121 28.896L50.7081 28.784Z" fill="black"/>
<path d="M48.8878 28.784H49.1398L49.2798 28.868L49.3638 28.98V29.204L49.2518 29.372L49.1398 29.484H49.0838V29.54H49.3638V29.764H48.6638V29.54L48.8598 29.372L49.0558 29.232L49.0838 29.036L48.9158 29.064H48.6638L48.6918 28.924L48.8318 28.812L48.8878 28.784Z" fill="black"/>
<path d="M47.4599 28.784H48.1599L48.2159 28.812V29.008L48.1879 29.036H47.8519V29.764H47.6279L47.5999 29.708V29.036H47.2639V28.812L47.4599 28.784Z" fill="black"/>
<path d="M49.8959 29.008L50.0359 29.036L50.0919 29.176V29.372L50.0359 29.54L49.9239 29.568L49.8119 29.456L49.7839 29.232L49.8399 29.036L49.8959 29.008Z" fill="#FE88B4"/>
<path d="M48.328 29.568H48.468L48.496 29.596V29.736L48.44 29.792L48.3 29.764L48.272 29.624L48.328 29.568Z" fill="black"/>
</g>
<defs>
<clipPath id="clip0_31_5067">
<rect width="56" height="56" fill="white"/>
</clipPath>
</defs>
</svg>
