<svg width="101" height="106" viewBox="0 0 101 106" fill="none" xmlns="http://www.w3.org/2000/svg">
<path d="M39.6659 23.4124H41.4073L43.7293 26.7017L48.7601 33.6675L51.082 36.9569L56.1128 43.9226L58.0478 46.6315L60.5632 50.1144L62.3046 52.6298L62.1111 53.4038L60.3697 56.4997L57.0803 61.9175L53.7909 67.5288L52.4365 69.6572L51.2755 68.8833L48.5666 66.7548L47.0187 65.5939L47.4056 63.659L51.082 51.2754V49.9209L49.921 47.7925L47.4056 44.1161L44.5032 39.8593L41.4073 35.4089L38.3115 30.7651H35.6025L18.7686 33.087H18.3816L18.7686 39.8593L16.8337 41.7942L15.6727 42.7617L17.9947 43.9226L19.7361 44.6966L20.3166 53.0168L21.0906 57.8542L22.2515 61.9175L23.7995 65.5939L25.3474 68.3028L27.2823 70.8182L29.4108 72.9466L32.3132 74.8816L35.0221 76.236L38.8919 77.397L41.9878 77.9775L43.7293 78.1709H51.2755L55.3389 77.5905L58.6282 76.8165L61.3372 75.462L63.2721 73.9141L65.4005 71.2052L68.1094 66.9483L70.2378 64.4329L71.5923 63.0785L74.3012 61.337L76.4296 60.3696L79.5255 59.4021L81.6539 59.0151L83.7824 58.8216H86.4913L87.8457 59.0151L88.0392 59.7891L86.6848 65.2069L84.7498 65.5939L81.267 66.1744L78.7515 66.9483L76.2361 68.3028L73.9142 70.4312L71.9793 73.1401L69.4639 77.2035L67.3354 79.5254L65.594 81.0733L62.8851 82.4278L60.1762 83.2018L54.9519 84.1692L52.63 85.1367L51.856 85.3302V87.0716L50.695 100.229L50.5015 101.39L49.3406 101.197L46.0512 101.003L42.3748 85.5237V85.1367L39.0854 84.9432L35.4091 84.1692L31.7327 82.8148L28.8303 81.4603L25.7344 83.5888L24.1864 84.7497H23.7995L24.1864 88.2326V89.2001L25.1539 89.3936L26.7019 90.1675L28.2498 91.522L29.2173 93.0699L29.6043 94.2309V97.1333L28.8303 99.0682L27.0888 101.003L25.1539 101.971L24.1864 102.164H22.445L20.5101 101.584L18.7686 100.423L17.6077 99.0682L16.8337 96.9398V94.4244L17.6077 92.4894L19.1556 90.361L18.9621 89.5871L16.0597 84.3627L15.4792 83.3953L15.6727 82.6213L18.5751 78.3644L20.8971 75.0751L20.7036 73.9141L18.7686 70.2377L17.8012 68.4963V68.1093H17.4142L17.0272 69.0768L16.0597 70.4312L13.9313 69.8507L5.99808 67.1418L4.45013 66.5614L4.64363 65.5939L6.57856 61.9175L9.28746 56.6932L11.2224 53.0168L13.3508 48.9535L12.3834 48.76L3.86965 45.2771L3.48267 45.0836L3.86965 44.3096L5.80459 42.5682L7.93301 40.8267L10.2549 38.6983L11.8029 37.3439V34.4415L11.4159 27.6692L11.6094 27.4757L39.6659 23.4124Z" fill="white"/>
<path d="M37.9247 0H39.8596L41.2141 0.58048L42.1815 1.54795L42.762 2.70891V5.22432L41.6011 19.1558L41.4076 19.9298L42.5685 20.1233L43.7295 20.8973L45.2774 22.8322L47.5993 26.1216L52.6302 33.0873L54.9521 36.3767L57.4675 39.8596L59.4024 42.5685L59.9829 41.0206L61.5309 39.6661L63.4658 38.8921L64.6267 37.9247L67.1422 33.8613L69.6576 30.7654L72.3665 28.0565L75.0754 26.1216L78.7518 24.1867L82.2346 23.0257L86.298 22.2517L88.0394 22.0582L93.6507 21.8647L97.7141 22.0582L99.262 23.0257L100.036 24.3802L100.23 25.9281L98.2946 33.4743L97.3271 34.8288L95.9727 35.6028L96.7466 37.1507V38.6987L95.1987 45.8579L94.4247 47.0189L93.8442 47.7928L94.0377 48.1798V50.3082L92.6833 55.7261L91.9093 56.887L91.3288 57.4675L91.5223 58.435V60.1764L89.9744 66.3682L89.2004 67.5292L88.0394 68.4966L86.4915 68.8836L81.6542 69.6576L79.5257 70.4315L77.7843 71.5925L76.8168 72.3665L74.8819 75.0754L72.3665 79.1387L70.625 81.2672L69.0771 82.8151L67.1422 84.1696L64.0463 85.7175L61.5309 86.4915L56.113 87.459L55.1456 87.6525L54.9521 91.7158L53.9846 102.164L53.2106 103.712L52.2432 104.486L51.4692 104.873H49.5343L48.7603 104.68L45.0839 104.486L43.7295 103.712L42.762 102.358L39.6661 89.2004V88.4264L36.5702 88.0394L32.5069 86.8785L29.2175 85.524L27.6695 86.4915L28.637 87.2655L30.5719 89.0069L31.9264 90.7483L32.8939 93.0703L33.0873 93.8442V97.5206L32.3134 99.8425L31.1524 101.777L29.798 103.325L27.6695 104.68L25.5411 105.454L24.3802 105.647H22.2517L19.7363 105.067L17.2209 103.712L15.0925 101.584L13.738 98.8751L13.351 97.1336V94.0377L14.125 91.5223L15.0925 89.7809L12.3836 84.9435L11.9966 84.1696V82.0411L13.351 79.7192L15.286 77.0103L16.8339 74.6884V74.1079L14.512 73.7209L3.67637 70.0446L2.12843 69.2706L1.16096 68.1096L0.773973 66.9487L0.967466 65.2072L4.45035 58.435L8.32021 51.0822L7.93322 50.6952L1.74144 48.1798L0.58048 47.2124L0 46.0514V43.923L1.16096 41.988L3.28939 40.2466L5.6113 38.1182L7.73973 36.3767L8.32021 35.7963L7.93322 27.2826L8.5137 25.7346L9.09418 24.7671L4.45035 15.673L3.67637 13.9315V11.2226L4.45035 9.86816L5.6113 8.90069L6.19178 8.7072H8.12672L13.738 11.0291L14.512 11.2226L17.4144 4.06336L18.9623 2.70891L20.1233 2.32192L21.8647 2.51541L23.6062 3.67637L27.0891 6.19178L29.9915 8.32021L30.9589 7.35274L33.4743 4.45035L35.0223 2.51541L36.7637 0.58048L37.9247 0ZM37.9247 0.967466L36.7637 1.74144L34.0548 5.03082L31.9264 7.54624L30.3784 9.48117L29.6045 9.09418L26.8956 7.15925L23.4127 4.64384L21.8647 3.48288L21.2843 3.28939H19.9298L18.7688 3.86987L17.8014 5.41781L15.0925 12.1901V12.5771L8.32021 9.67466L6.77226 9.48117L5.22432 10.2551L4.64384 11.2226L4.45035 11.9966V13.351L6.57877 17.8014L10.0616 24.7671L9.86816 25.5411L9.09418 26.5086L8.90069 27.0891L9.09418 32.5069L9.28768 36.1832L7.35274 37.9247L5.22432 39.6661L2.9024 41.7945L1.35445 43.149L0.773973 44.6969L1.16096 46.4384L2.32192 47.4058L8.32021 49.9213L9.67466 50.3082L8.12672 53.4041L4.64384 60.1764L2.70891 63.8528L1.74144 65.7877V67.1422L2.51541 68.4966L4.06336 69.2706L15.0925 72.947H17.2209L17.9949 74.6884L15.286 78.5583L12.964 82.0411L12.7706 83.5891L14.125 86.298L16.0599 89.5874L15.8664 90.3614L14.512 93.0703L14.3185 93.8442V97.5206L15.0925 99.8425L16.4469 101.777L17.9949 103.132L20.3168 104.293L21.8647 104.68H24.7671L27.2826 103.906L29.2175 102.551L30.7654 100.81L31.9264 98.4881L32.3134 96.5531V94.8117L31.7329 92.4898L30.7654 90.5548L29.024 88.6199L26.8956 87.2655H26.5086L26.8956 85.911L28.8305 84.5566L29.798 84.75L32.5069 85.911L35.6028 86.8785L38.5052 87.459L40.4401 87.6525L40.6336 89.3939L43.536 101.777L44.31 102.938L45.0839 103.519L46.6319 103.712H48.7603L50.6952 104.099L52.0497 103.519L52.8237 102.745L53.2106 101.197L54.3716 88.0394L54.5651 87.072L56.3065 86.4915L61.7243 85.524L65.0137 84.3631L67.5292 82.8151L69.8511 80.8802L71.786 78.3648L74.8819 73.3339L77.2038 70.8185L79.1387 69.6576L81.0737 68.8836L83.9761 68.3031L87.6525 67.7226L88.8134 66.7552L89.5874 64.2398L90.5548 60.3699V58.435L89.9744 57.274L91.1353 56.5L91.7158 55.7261L93.2638 49.7278L93.0703 48.1798L92.6833 47.2124L93.8442 46.4384L94.4247 45.2774L95.7792 38.8921V36.9572L94.6182 35.6028L92.8768 34.8288L95.7792 34.6353L96.7466 34.0548L97.5206 32.8939L99.262 26.1216V24.7671L98.4881 23.6062L97.7141 23.0257L96.1662 22.8322H89.9744L85.911 23.2192L82.0411 23.9932L78.3648 25.3476L75.8494 26.7021L73.1404 28.637L70.625 30.9589L68.6901 33.2808L66.7552 36.1832L65.4007 38.3117L63.8528 39.6661L61.7243 40.6336L60.7569 41.6011L60.3699 42.375L60.5634 44.1165L63.0788 47.5993L65.0137 50.3082L66.1747 51.0822H67.7226L70.4315 49.7278L72.3665 48.1798L72.947 47.5993L73.7209 47.9863L74.6884 48.7603H75.0754V49.1473L74.1079 49.5343L71.786 51.6627L70.4315 53.7911L69.8511 55.5326V57.661L70.625 58.822L71.786 59.4024H72.173V59.7894L71.2055 60.1764L69.2706 61.7243L67.5292 63.4658L65.0137 66.9487L63.0788 70.0446L61.3374 72.173L59.5959 73.5274L57.274 74.4949L53.5976 75.2689L50.3082 75.6559H44.6969L40.2466 75.0754L36.1832 73.9144L33.0873 72.3665L30.7654 70.625L28.8305 68.6901L27.0891 66.1747L25.5411 63.2723L24.3802 60.1764L23.4127 56.3065L22.8322 52.2432L22.4452 45.0839L22.0582 43.3425L20.8973 42.375L20.5103 42.1815L21.2843 40.6336V38.1182L21.0908 35.2158L23.7997 35.0223L34.6353 33.4743L36.9572 33.0873L37.3442 34.0548L40.0531 37.9247L45.0839 45.2774L48.1798 49.9213L48.3733 51.2757L44.31 65.0137L44.5034 66.3682L45.2774 67.5292L48.5668 70.0446L51.0822 71.9795L51.4692 72.173H53.2106L54.3716 71.399L56.3065 68.3031L59.5959 62.6918L62.8853 57.274L64.8202 53.9846L65.0137 52.2432L64.0463 50.5017L61.7243 47.4058L59.4024 44.1165L54.3716 37.1507L52.0497 33.8613L47.0189 26.8956L43.149 21.4778L42.1815 20.8973L40.4401 20.7038L40.8271 17.6079L41.7945 5.99829V2.51541L40.8271 1.35445L40.0531 0.967466H37.9247ZM35.9897 34.0548L27.2826 35.2158L22.0582 35.9897V40.2466L21.6712 41.988L22.6387 42.9555L23.0257 43.923L23.6062 52.8237L24.3802 57.4675L25.5411 61.3374L26.8956 64.4333L28.637 67.1422L30.3784 69.2706L32.1199 70.8185L34.6353 72.3665L36.7637 73.3339L40.0531 74.3014L43.923 74.8819H51.0822L54.9521 74.3014L57.8545 73.5274L59.4024 72.7535L61.3374 71.012L63.0788 68.6901L65.4007 65.0137L67.1422 62.8853L68.4966 61.3374L70.4315 59.7894L69.2706 58.048L69.0771 57.4675V55.9196L69.8511 53.4041L71.012 51.4692L73.5274 48.9538H72.7535L70.2381 50.6952L68.3031 51.6627L66.3682 51.8562H65.7877L65.5942 53.9846L63.6593 57.4675L60.3699 62.8853L57.0805 68.4966L54.7586 72.173L53.2106 72.947H51.6627L49.7278 71.9795L47.4058 70.0446L44.8904 68.1096L43.923 66.9487L43.7295 66.3682V64.4333L47.5993 51.4692V50.3082L41.7945 41.7945L38.6987 37.3442L36.5702 34.2483L35.9897 34.0548Z" fill="white"/>
<path d="M38.6986 3.48267H39.2791L39.0856 7.35253L38.1181 18.9621L37.9246 20.5101L20.1232 23.0255L13.1575 23.993H12.577L7.15918 13.1573V12.1899L8.90062 12.7703L16.2534 15.8662L16.6403 15.2858L20.3167 6.19157H21.0907L23.7996 8.1265L27.2825 10.6419L30.5719 12.9638L30.9589 13.1573L31.3458 12.3834L33.6678 9.67445L35.7962 6.96554L38.3116 4.06315L38.6986 3.48267Z" fill="white"/>
<path d="M88.2327 25.541H96.5529L96.3595 27.089L95.005 32.1198L88.8132 32.3133L84.9434 33.0873L81.8475 34.2482L79.332 35.7962L77.3971 37.5376L75.8492 39.4725L72.9468 43.7294L71.2053 45.6643L69.8509 47.0188L67.142 48.5667L66.1745 47.5992L63.8526 44.3099L63.0786 42.9554L65.981 41.4075L66.5615 40.827H66.9485L67.3355 40.053L69.0769 37.3441L70.8183 34.8287L72.9468 32.3133L74.3012 30.9588L77.2036 28.8304L80.88 27.089L84.3629 26.1215L88.2327 25.541Z" fill="white"/>
<path d="M87.8453 37.7312H92.8762L93.2632 37.9247L92.2957 42.9555L91.7152 44.697L90.3608 44.5035H84.7495L80.1056 45.0839L77.2032 45.8579L75.6553 46.2449L77.0097 43.536L78.7512 41.6011L80.2991 40.2466L83.008 38.8922L86.6844 37.9247L87.8453 37.7312Z" fill="white"/>
<path d="M85.33 48.9534H89.7804L90.5543 49.1469L90.3608 50.6948L89.3934 54.3712L88.6194 54.5647L87.0715 54.3712H83.3951L80.1057 54.7582L76.0423 55.7256L73.5269 56.6931H72.366L72.753 54.9517L73.9139 53.2102L75.8488 51.4688L78.5578 50.1143L81.6536 49.3404L85.33 48.9534Z" fill="white"/>
</svg>
