<svg width="24" height="24" viewBox="0 0 24 24" fill="none" xmlns="http://www.w3.org/2000/svg">
<g clip-path="url(#clip0_15_4361)">
<mask id="mask0_15_4361" style="mask-type:luminance" maskUnits="userSpaceOnUse" x="0" y="0" width="24" height="24">
</mask>
<g mask="url(#mask0_15_4361)">
<path d="M14.4739 12.367L14.1986 11.9148C14.0204 12.0233 13.9226 12.2263 13.9488 12.4333C13.9748 12.6402 14.12 12.8125 14.3196 12.8734L14.4739 12.367ZM9.52595 12.367L9.68036 12.8734C9.87991 12.8125 10.0251 12.6402 10.0512 12.4333C10.0773 12.2263 9.97945 12.0233 9.80124 11.9148L9.52595 12.367ZM16.2353 8.29412C16.2353 9.82728 15.421 11.1707 14.1986 11.9148L14.7492 12.8192C16.2739 11.891 17.2941 10.212 17.2941 8.29412H16.2353ZM12 4.05882C14.339 4.05882 16.2353 5.95503 16.2353 8.29412H17.2941C17.2941 5.37026 14.9238 3 12 3V4.05882ZM7.76466 8.29412C7.76466 5.95503 9.66087 4.05882 12 4.05882V3C9.0761 3 6.70584 5.37026 6.70584 8.29412H7.76466ZM9.80124 11.9148C8.57898 11.1707 7.76466 9.82729 7.76466 8.29412H6.70584C6.70584 10.212 7.72597 11.891 9.25068 12.8192L9.80124 11.9148ZM9.37155 11.8606C6.02911 12.8798 3.512 15.791 3.06929 19.3484L4.12 19.4792C4.51028 16.3431 6.73109 13.7727 9.68036 12.8734L9.37155 11.8606ZM3.06929 19.3484C2.95228 20.2887 3.73117 21 4.58819 21V19.9412C4.27568 19.9412 4.09258 19.6997 4.12 19.4792L3.06929 19.3484ZM4.58819 21H19.4118V19.9412H4.58819V21ZM19.4118 21C20.2688 21 21.0476 20.2887 20.9306 19.3484L19.8799 19.4792C19.9073 19.6997 19.7242 19.9412 19.4118 19.9412V21ZM20.9306 19.3484C20.488 15.791 17.9708 12.8798 14.6283 11.8606L14.3196 12.8734C17.2688 13.7727 19.4896 16.3431 19.8799 19.4792L20.9306 19.3484Z" fill="black"/>
</g>
</g>
<defs>
<clipPath id="clip0_15_4361">
<rect width="24" height="24" fill="white"/>
</clipPath>
</defs>
</svg>
