<svg width="23" height="24" viewBox="0 0 23 24" fill="none" xmlns="http://www.w3.org/2000/svg">
<path d="M9.01099 5.31868H9.40659L9.93406 6.06593L11.0769 7.64835L11.6044 8.3956L12.7473 9.97802L13.1868 10.5934L13.7582 11.3846L14.1538 11.956L14.1099 12.1319L13.7143 12.8352L12.967 14.0659L12.2198 15.3407L11.9121 15.8242L11.6483 15.6484L11.033 15.1648L10.6813 14.9011L10.7692 14.4615L11.6044 11.6484V11.3407L11.3407 10.8571L10.7692 10.022L10.1099 9.05494L9.40659 8.04395L8.70329 6.98901H8.08791L4.26373 7.51648H4.17582L4.26373 9.05494L3.82417 9.4945L3.56044 9.71428L4.08791 9.97802L4.48351 10.1538L4.61538 12.044L4.79121 13.1429L5.05494 14.0659L5.40659 14.9011L5.75824 15.5165L6.1978 16.0879L6.68132 16.5714L7.34066 17.011L7.95604 17.3187L8.83516 17.5824L9.53846 17.7143L9.93406 17.7582H11.6483L12.5714 17.6264L13.3187 17.4505L13.9341 17.1429L14.3736 16.7912L14.8571 16.1758L15.4725 15.2088L15.956 14.6374L16.2637 14.3297L16.8791 13.9341L17.3626 13.7143L18.0659 13.4945L18.5494 13.4066L19.033 13.3626H19.6483L19.956 13.4066L20 13.5824L19.6923 14.8132L19.2527 14.9011L18.4615 15.033L17.8901 15.2088L17.3187 15.5165L16.7912 16L16.3516 16.6154L15.7802 17.5385L15.2967 18.0659L14.9011 18.4176L14.2857 18.7253L13.6703 18.9011L12.4835 19.1209L11.956 19.3407L11.7802 19.3846V19.7802L11.5165 22.7692L11.4725 23.033L11.2088 22.989L10.4615 22.9451L9.62637 19.4286V19.3407L8.87912 19.2967L8.04395 19.1209L7.20879 18.8132L6.54945 18.5055L5.84615 18.989L5.4945 19.2527H5.40659L5.4945 20.044V20.2637L5.71428 20.3077L6.06593 20.4835L6.41758 20.7912L6.63736 21.1429L6.72527 21.4066V22.0659L6.54945 22.5055L6.15384 22.9451L5.71428 23.1648L5.4945 23.2088H5.0989L4.65934 23.0769L4.26373 22.8132L4 22.5055L3.82417 22.022V21.4505L4 21.011L4.35165 20.5275L4.30769 20.3516L3.64835 19.1648L3.51648 18.9451L3.56044 18.7692L4.21978 17.8022L4.74725 17.0549L4.70329 16.7912L4.26373 15.956L4.04395 15.5604V15.4725H3.95604L3.86813 15.6923L3.64835 16L3.16483 15.8681L1.36263 15.2527L1.01099 15.1209L1.05494 14.9011L1.4945 14.0659L2.10989 12.8791L2.54945 12.044L3.03296 11.1209L2.81318 11.0769L0.879118 10.2857L0.791206 10.2418L0.879118 10.0659L1.31868 9.67033L1.8022 9.27472L2.32967 8.79121L2.68132 8.48352V7.82417L2.5934 6.28571L2.63736 6.24176L9.01099 5.31868Z" fill="white"/>
<path d="M8.61538 0H9.05494L9.36264 0.131868L9.58242 0.351648L9.71428 0.615385V1.18681L9.45055 4.35165L9.40659 4.52747L9.67033 4.57143L9.93406 4.74725L10.2857 5.18681L10.8132 5.93407L11.956 7.51648L12.4835 8.26374L13.0549 9.05494L13.4945 9.67033L13.6264 9.31868L13.978 9.01099L14.4176 8.83517L14.6813 8.61539L15.2527 7.69231L15.8242 6.98901L16.4396 6.37363L17.0549 5.93407L17.8901 5.49451L18.6813 5.23077L19.6044 5.05494L20 5.01099L21.2747 4.96703L22.1978 5.01099L22.5494 5.23077L22.7253 5.53846L22.7692 5.89011L22.3297 7.6044L22.1099 7.91209L21.8022 8.08791L21.978 8.43956V8.79121L21.6264 10.4176L21.4505 10.6813L21.3187 10.8571L21.3626 10.9451V11.4286L21.0549 12.6593L20.8791 12.9231L20.7473 13.0549L20.7912 13.2747V13.6703L20.4396 15.0769L20.2637 15.3407L20 15.5604L19.6483 15.6484L18.5494 15.8242L18.0659 16L17.6703 16.2637L17.4505 16.4396L17.011 17.0549L16.4396 17.978L16.044 18.4615L15.6923 18.8132L15.2527 19.1209L14.5494 19.4725L13.978 19.6484L12.7473 19.8681L12.5275 19.9121L12.4835 20.8352L12.2637 23.2088L12.0879 23.5604L11.8681 23.7363L11.6923 23.8242H11.2527L11.0769 23.7802L10.2418 23.7363L9.93406 23.5604L9.71428 23.2527L9.01099 20.2637V20.0879L8.30769 20L7.38461 19.7363L6.63736 19.4286L6.28571 19.6484L6.50549 19.8242L6.94505 20.2198L7.25275 20.6154L7.47253 21.1429L7.51648 21.3187V22.1538L7.34066 22.6813L7.07692 23.1209L6.76923 23.4725L6.28571 23.7802L5.8022 23.956L5.53846 24H5.05494L4.48352 23.8681L3.91209 23.5604L3.42857 23.0769L3.12088 22.4615L3.03297 22.0659V21.3626L3.20879 20.7912L3.42857 20.3956L2.81319 19.2967L2.72527 19.1209V18.6374L3.03297 18.1099L3.47253 17.4945L3.82418 16.967V16.8352L3.2967 16.7473L0.835165 15.9121L0.483516 15.7363L0.263736 15.4725L0.175824 15.2088L0.21978 14.8132L1.01099 13.2747L1.89011 11.6044L1.8022 11.5165L0.395604 10.9451L0.131868 10.7253L0 10.4615V9.97802L0.263736 9.53846L0.747253 9.14286L1.27473 8.65934L1.75824 8.26374L1.89011 8.13187L1.8022 6.1978L1.93407 5.84615L2.06593 5.62637L1.01099 3.56044L0.835165 3.16484V2.54945L1.01099 2.24176L1.27473 2.02198L1.40659 1.97802H1.84615L3.12088 2.50549L3.2967 2.54945L3.95604 0.923077L4.30769 0.615385L4.57143 0.527473L4.96703 0.571429L5.36264 0.835165L6.15385 1.40659L6.81319 1.89011L7.03297 1.67033L7.60439 1.01099L7.95604 0.571429L8.35165 0.131868L8.61538 0ZM8.61538 0.21978L8.35165 0.395604L7.73626 1.14286L7.25275 1.71429L6.9011 2.15385L6.72527 2.06593L6.10989 1.62637L5.31868 1.05495L4.96703 0.791209L4.83516 0.747253H4.52747L4.26374 0.879121L4.04396 1.23077L3.42857 2.76923V2.85714L1.89011 2.1978L1.53846 2.15385L1.18681 2.32967L1.05494 2.54945L1.01099 2.72527V3.03297L1.49451 4.04396L2.28571 5.62637L2.24176 5.8022L2.06593 6.02198L2.02198 6.15385L2.06593 7.38462L2.10989 8.21978L1.67033 8.61539L1.18681 9.01099L0.659341 9.49451L0.307692 9.8022L0.175824 10.1538L0.263736 10.5495L0.527472 10.7692L1.89011 11.3407L2.1978 11.4286L1.84615 12.1319L1.05494 13.6703L0.615385 14.5055L0.395604 14.9451V15.2527L0.571429 15.5604L0.923077 15.7363L3.42857 16.5714H3.91209L4.08791 16.967L3.47253 17.8462L2.94505 18.6374L2.9011 18.989L3.20879 19.6044L3.64835 20.3516L3.6044 20.5275L3.2967 21.1429L3.25275 21.3187V22.1538L3.42857 22.6813L3.73626 23.1209L4.08791 23.4286L4.61538 23.6923L4.96703 23.7802H5.62637L6.1978 23.6044L6.63736 23.2967L6.98901 22.9011L7.25275 22.3736L7.34066 21.9341V21.5385L7.20879 21.011L6.98901 20.5714L6.59341 20.1319L6.10989 19.8242H6.02198L6.10989 19.5165L6.54945 19.2088L6.76923 19.2527L7.38461 19.5165L8.08791 19.7363L8.74725 19.8681L9.18681 19.9121L9.23077 20.3077L9.89011 23.1209L10.0659 23.3846L10.2418 23.5165L10.5934 23.5604H11.0769L11.5165 23.6484L11.8242 23.5165L12 23.3407L12.0879 22.989L12.3516 20L12.3956 19.7802L12.7912 19.6484L14.022 19.4286L14.7692 19.1648L15.3407 18.8132L15.8681 18.3736L16.3077 17.8022L17.011 16.6593L17.5385 16.0879L17.978 15.8242L18.4176 15.6484L19.0769 15.5165L19.9121 15.3846L20.1758 15.1648L20.3516 14.5934L20.5714 13.7143V13.2747L20.4396 13.011L20.7033 12.8352L20.8352 12.6593L21.1868 11.2967L21.1429 10.9451L21.0549 10.7253L21.3187 10.5495L21.4505 10.2857L21.7582 8.83517V8.3956L21.4945 8.08791L21.0989 7.91209L21.7582 7.86813L21.978 7.73626L22.1538 7.47253L22.5494 5.93407V5.62637L22.3736 5.36264L22.1978 5.23077L21.8462 5.18681H20.4396L19.5165 5.27473L18.6374 5.45055L17.8022 5.75824L17.2308 6.06593L16.6154 6.50549L16.044 7.03297L15.6044 7.56044L15.1648 8.21978L14.8571 8.7033L14.5055 9.01099L14.022 9.23077L13.8022 9.45055L13.7143 9.62637L13.7582 10.022L14.3297 10.8132L14.7692 11.4286L15.033 11.6044H15.3846L16 11.2967L16.4396 10.9451L16.5714 10.8132L16.7473 10.9011L16.967 11.0769H17.0549V11.1648L16.8352 11.2527L16.3077 11.7363L16 12.2198L15.8681 12.6154V13.0989L16.044 13.3626L16.3077 13.4945H16.3956V13.5824L16.1758 13.6703L15.7363 14.022L15.3407 14.4176L14.7692 15.2088L14.3297 15.9121L13.9341 16.3956L13.5385 16.7033L13.011 16.9231L12.1758 17.0989L11.4286 17.1868H10.1538L9.14286 17.0549L8.21978 16.7912L7.51648 16.4396L6.98901 16.044L6.54945 15.6044L6.15385 15.033L5.8022 14.3736L5.53846 13.6703L5.31868 12.7912L5.18681 11.8681L5.0989 10.2418L5.01099 9.84615L4.74725 9.62637L4.65934 9.58242L4.83516 9.23077V8.65934L4.79121 8L5.40659 7.95604L7.86813 7.6044L8.3956 7.51648L8.48352 7.73626L9.0989 8.61539L10.2418 10.2857L10.9451 11.3407L10.989 11.6484L10.0659 14.7692L10.1099 15.0769L10.2857 15.3407L11.033 15.9121L11.6044 16.3516L11.6923 16.3956H12.0879L12.3516 16.2198L12.7912 15.5165L13.5385 14.2418L14.2857 13.011L14.7253 12.2637L14.7692 11.8681L14.5494 11.4725L14.022 10.7692L13.4945 10.022L12.3516 8.43956L11.8242 7.69231L10.6813 6.10989L9.8022 4.87912L9.58242 4.74725L9.18681 4.7033L9.27472 4L9.4945 1.36264V0.571429L9.27472 0.307692L9.0989 0.21978H8.61538ZM8.17582 7.73626L6.1978 8L5.01099 8.17582V9.14286L4.92308 9.53846L5.14286 9.75824L5.23077 9.97802L5.36264 12L5.53846 13.0549L5.8022 13.9341L6.10989 14.6374L6.50549 15.2527L6.9011 15.7363L7.2967 16.0879L7.86813 16.4396L8.35165 16.6593L9.0989 16.8791L9.97802 17.011H11.6044L12.4835 16.8791L13.1429 16.7033L13.4945 16.5275L13.9341 16.1319L14.3297 15.6044L14.8571 14.7692L15.2527 14.2857L15.5604 13.9341L16 13.5824L15.7363 13.1868L15.6923 13.0549V12.7033L15.8681 12.1319L16.1319 11.6923L16.7033 11.1209H16.5275L15.956 11.5165L15.5165 11.7363L15.0769 11.7802H14.9451L14.9011 12.2637L14.4615 13.0549L13.7143 14.2857L12.967 15.5604L12.4396 16.3956L12.0879 16.5714H11.7363L11.2967 16.3516L10.7692 15.9121L10.1978 15.4725L9.97802 15.2088L9.93406 15.0769V14.6374L10.8132 11.6923V11.4286L9.4945 9.49451L8.79121 8.48352L8.30769 7.78022L8.17582 7.73626Z" fill="white"/>
<path d="M8.79121 0.79121H8.92307L8.87912 1.67033L8.65934 4.30769L8.61538 4.65934L4.57143 5.23077L2.98901 5.45055H2.85714L1.62637 2.98901V2.76923L2.02198 2.9011L3.69231 3.6044L3.78022 3.47253L4.61538 1.40659H4.79121L5.40659 1.84616L6.1978 2.41758L6.94505 2.94506L7.03296 2.98901L7.12088 2.81319L7.64835 2.1978L8.13187 1.58242L8.70329 0.923078L8.79121 0.79121Z" fill="white"/>
<path d="M20.044 5.8022H21.9341L21.8901 6.15384L21.5824 7.2967L20.1758 7.34066L19.2967 7.51648L18.5934 7.78022L18.022 8.13187L17.5824 8.52747L17.2308 8.96703L16.5714 9.93406L16.1758 10.3736L15.8681 10.6813L15.2527 11.033L15.033 10.8132L14.5055 10.0659L14.3297 9.75824L14.989 9.40659L15.1209 9.27472H15.2088L15.2967 9.0989L15.6923 8.48352L16.0879 7.91209L16.5714 7.34066L16.8791 7.03297L17.5385 6.54945L18.3736 6.15384L19.1648 5.93406L20.044 5.8022Z" fill="white"/>
<path d="M19.956 8.57143H21.0989L21.1868 8.61538L20.967 9.75824L20.8352 10.1538L20.5275 10.1099H19.2527L18.1978 10.2418L17.5385 10.4176L17.1868 10.5055L17.4945 9.89011L17.8901 9.45055L18.2418 9.14285L18.8571 8.83516L19.6923 8.61538L19.956 8.57143Z" fill="white"/>
<path d="M19.3846 11.1209H20.3956L20.5714 11.1648L20.5275 11.5165L20.3077 12.3516L20.1319 12.3956L19.7802 12.3516H18.9451L18.1978 12.4396L17.2747 12.6593L16.7033 12.8791H16.4396L16.5275 12.4835L16.7912 12.0879L17.2308 11.6923L17.8462 11.3846L18.5495 11.2088L19.3846 11.1209Z" fill="white"/>
</svg>
