<svg width="18" height="18" viewBox="0 0 18 18" fill="none" xmlns="http://www.w3.org/2000/svg">
<path opacity="0.7" fill-rule="evenodd" clip-rule="evenodd" d="M10.3736 17.8924C14.6986 17.2382 18 13.4991 18 9.00004C18 4.02844 13.9716 0 8.99999 0C4.02844 0 0 4.02844 0 9.00004C0 13.4905 3.26263 17.237 7.59617 17.8924H10.3736ZM11.9069 11.1802H10.1506V16.4186C10.6668 16.3405 11.1656 16.2096 11.6413 16.0316C14.4868 14.9669 16.5094 12.2168 16.5094 9.00004C16.5094 4.85172 13.1484 1.49068 8.99999 1.49068C4.85172 1.49068 1.49069 4.85172 1.49069 9.00004C1.49069 12.2162 3.49023 14.9658 6.32843 16.0309C6.80364 16.2092 7.30235 16.3404 7.81912 16.4186V11.1802H5.91151V9.00004H7.81912V7.36493C7.81912 5.48759 8.93946 4.42781 10.6351 4.42781C11.483 4.42781 12.3308 4.57921 12.3308 4.57921V6.42626H11.3921C10.5042 6.42626 10.1853 6.94107 10.1534 7.50934C10.1515 7.5418 10.1506 7.57444 10.1506 7.60716V9.00004H12.24L11.9069 11.1802Z" fill="url(#paint0_linear_20_9147)"/>
<defs>
<linearGradient id="paint0_linear_20_9147" x1="16.7516" y1="2.29193" x2="6.36915" y2="18.1635" gradientUnits="userSpaceOnUse">
<stop stop-color="#4267B2" stop-opacity="0.5"/>
<stop offset="0.640625" stop-color="#4267B2"/>
</linearGradient>
</defs>
</svg>
