<svg width="18" height="18" viewBox="0 0 18 18" fill="none" xmlns="http://www.w3.org/2000/svg">
<g clip-path="url(#clip0_20_9183)">
<path d="M14.7 11.1H13.2C12.1353 11.1 11.2548 10.3026 11.1201 9.2739C11.3376 9.1326 11.5428 8.9691 11.7324 8.7831C12.4851 8.0436 12.9 7.0554 12.9 6V2.1C12.9 0.942 11.9577 0 10.8 0H9.3H9H3.9C3.7341 0 3.6 0.1344 3.6 0.3V0.6C3.6 1.7556 4.1982 2.7726 5.1 3.3624V5.8806C5.1 7.2825 5.814 8.526 6.8841 9.2466C6.7617 10.2885 5.8743 11.1 4.8 11.1H3.3C1.4805 11.1 0 12.5805 0 14.4V18H0.6V14.4C0.6 12.9114 1.8111 11.7 3.3 11.7H4.8C5.3598 11.7 5.8803 11.5284 6.312 11.2356C7.0374 11.9154 7.9983 12.3024 9 12.3024C10.0017 12.3024 10.9626 11.9154 11.688 11.2356C12.1197 11.5284 12.6402 11.7 13.2 11.7H14.7C16.1889 11.7 17.4 12.9114 17.4 14.4V18H18V14.4C18 12.5805 16.5195 11.1 14.7 11.1ZM4.2 0.6H9H9.3H10.8C11.6271 0.6 12.3 1.2729 12.3 2.1V5.3574C11.7837 5.2233 11.4 4.7574 11.4 4.2V3.6C11.4 3.4344 11.2659 3.3 11.1 3.3H6.9C5.4111 3.3 4.2 2.0886 4.2 0.6ZM5.7 5.8806V3.6708C6.0726 3.8169 6.4764 3.9 6.9 3.9H10.8V4.2C10.8 5.0901 11.4501 5.8293 12.3 5.973V6C12.3 6.8931 11.949 7.7292 11.3118 8.355C10.6749 8.9802 9.8373 9.3126 8.9382 9.2994C7.1526 9.2667 5.7 7.7331 5.7 5.8806ZM9.0003 11.7024C8.1729 11.7024 7.3764 11.3928 6.7674 10.8435C7.098 10.491 7.3362 10.0515 7.4403 9.5619C7.8975 9.7701 8.4 9.8898 8.9271 9.8994C8.9517 9.9 8.9763 9.9 9.0009 9.9C9.5478 9.9 10.0758 9.7851 10.5624 9.5721C10.6677 10.0575 10.9047 10.4934 11.2329 10.8432C10.6239 11.3925 9.8277 11.7024 9.0003 11.7024Z" fill="#09144C"/>
<path d="M10.8 6.29999C10.8 7.12709 10.1271 7.79999 9.30005 7.79999V8.39999C10.4577 8.39999 11.4 7.45799 11.4 6.29999H10.8Z" fill="black"/>
<path d="M8.39995 16.2H8.09995V13.2C8.09995 13.0344 7.96585 12.9 7.79995 12.9H5.99995C5.83405 12.9 5.69995 13.0344 5.69995 13.2V14.4C5.69995 14.5656 5.83405 14.7 5.99995 14.7H6.29995V16.2H5.99995C5.83405 16.2 5.69995 16.3344 5.69995 16.5V17.7C5.69995 17.8656 5.83405 18 5.99995 18H8.39995C8.56585 18 8.69995 17.8656 8.69995 17.7V16.5C8.69995 16.3344 8.56585 16.2 8.39995 16.2ZM8.09995 17.4H6.29995V16.8H6.59995C6.76585 16.8 6.89995 16.6656 6.89995 16.5V14.4C6.89995 14.2344 6.76585 14.1 6.59995 14.1H6.29995V13.5H7.49995V16.5C7.49995 16.6656 7.63405 16.8 7.79995 16.8H8.09995V17.4Z" fill="black"/>
<path d="M12 16.2H11.7V13.2C11.7 13.0344 11.5659 12.9 11.4 12.9H9.60005C9.43415 12.9 9.30005 13.0344 9.30005 13.2V14.4C9.30005 14.5656 9.43415 14.7 9.60005 14.7H9.90005V16.2H9.60005C9.43415 16.2 9.30005 16.3344 9.30005 16.5V17.7C9.30005 17.8656 9.43415 18 9.60005 18H12C12.1659 18 12.3 17.8656 12.3 17.7V16.5C12.3 16.3344 12.1659 16.2 12 16.2ZM11.7 17.4H9.90005V16.8H10.2C10.3659 16.8 10.5 16.6656 10.5 16.5V14.4C10.5 14.2344 10.3659 14.1 10.2 14.1H9.90005V13.5H11.1V16.5C11.1 16.6656 11.2341 16.8 11.4 16.8H11.7V17.4Z" fill="black"/>
</g>
<defs>
<clipPath id="clip0_20_9183">
<rect width="18" height="18" fill="white"/>
</clipPath>
</defs>
</svg>
