<svg width="24" height="24" viewBox="0 0 24 24" fill="none" xmlns="http://www.w3.org/2000/svg">
<path d="M4.90323 22H19.0968V2H4.90323L4.90323 22ZM10.7555 11.6774C10.8997 11.1223 11.4003 10.7097 12 10.7097C12.5997 10.7097 13.1003 11.1223 13.2445 11.6774H10.7555ZM10.0645 21.3548V20.7097H13.9355V21.3548H10.0645ZM14.5806 21.3548V20.0645H9.41936V21.3548H8.45162V18.7742H15.5484V21.3548H14.5806ZM13.2445 12.3226C13.1003 12.8777 12.5997 13.2903 12 13.2903C11.4003 13.2903 10.8997 12.8777 10.7555 12.3226H13.2445ZM10.0936 12.3226C10.2477 13.2365 11.0426 13.9355 12 13.9355C12.9574 13.9355 13.7519 13.2365 13.9065 12.3226H18.4516V21.3548H16.1936V18.129H13.8197C13.5497 17.3687 12.8252 16.8387 12 16.8387C11.1748 16.8387 10.45 17.3687 10.1803 18.129H7.80645V21.3548H5.54839L5.54839 12.3226H10.0936ZM13.1148 18.129H10.8852C11.1113 17.7403 11.5313 17.4839 12 17.4839C12.4687 17.4839 12.8887 17.7403 13.1148 18.129ZM13.9355 2.64516V3.29032H10.0645V2.64516H13.9355ZM9.41936 2.64516V3.93548H14.5806V2.64516H15.5484V5.22581H8.45162L8.45162 2.64516H9.41936ZM7.80645 2.64516L7.80645 5.87097H10.1803C10.4503 6.63129 11.1748 7.16129 12 7.16129C12.8252 7.16129 13.55 6.63129 13.8197 5.87097H16.1936V2.64516H18.4516V11.6774H13.9065C13.7523 10.7635 12.9574 10.0645 12 10.0645C11.0426 10.0645 10.2481 10.7635 10.0936 11.6774H5.54839V2.64516H7.80645ZM10.8852 5.87097H13.1148C12.8887 6.25968 12.4687 6.51613 12 6.51613C11.5313 6.51613 11.1113 6.25968 10.8852 5.87097Z" fill="black"/>
</svg>
