<svg width="18" height="18" viewBox="0 0 18 18" fill="none" xmlns="http://www.w3.org/2000/svg">
<g clip-path="url(#clip0_188_5592)">
<path d="M4.81812 3.085C4.81812 4.78261 6.19432 6.15853 7.89171 6.15853C9.58887 6.15853 10.9651 4.78232 10.9651 3.085C10.9651 1.3875 9.5892 0.0112915 7.89171 0.0112915C6.19404 0.0112354 4.81812 1.38744 4.81812 3.085ZM7.89171 0.605869C9.25878 0.605869 10.3705 1.71821 10.3705 3.085C10.3705 4.45162 9.2585 5.56396 7.89171 5.56396C6.52492 5.56396 5.41275 4.45162 5.41275 3.085C5.41275 1.71821 6.52458 0.605869 7.89171 0.605869Z" fill="#09144C"/>
<path d="M1.39885 10.551L2.67783 10.233C2.69746 10.2284 2.71619 10.2261 2.73374 10.2261C2.84408 10.2261 2.86046 10.3202 2.86046 10.3762V16.5132C2.86046 16.9371 3.20524 17.282 3.62902 17.282H11.6885C11.5306 17.1252 11.3885 16.9533 11.2585 16.7722H3.62902C3.48632 16.7722 3.37003 16.6561 3.37003 16.5132V10.3762C3.37003 10.0002 3.09652 9.71686 2.73374 9.71686C2.67492 9.71686 2.61481 9.72409 2.55498 9.7389L1.27578 10.0568C1.13846 10.0917 0.99329 10.0043 0.958301 9.86724L0.517695 8.14042C0.500705 8.07381 0.510686 8.00456 0.545842 7.94591C0.580943 7.88715 0.637126 7.84571 0.704075 7.82906L4.74568 6.82561C4.94759 6.77425 5.15505 6.74812 5.37979 6.74812L5.94482 6.74638C6.22904 7.56687 6.99873 8.12371 7.88196 8.12371C8.76531 8.12371 9.53533 7.56653 9.81927 6.74638L10.417 6.74812C10.6266 6.74812 10.8348 6.77425 11.0381 6.82639L15.0785 7.82906C15.1456 7.84577 15.2016 7.88715 15.2368 7.94591C15.2719 8.00456 15.2818 8.07381 15.2649 8.14042L14.8245 9.86724C14.7894 10.0043 14.6448 10.092 14.5069 10.0568L13.234 9.74063C13.1742 9.72611 13.1141 9.71854 13.0552 9.71854C12.6925 9.71854 12.419 10.0019 12.419 10.3779V11.0884C12.5822 10.9886 12.7509 10.8965 12.9286 10.8207V10.378C12.9286 10.322 12.9448 10.2279 13.0552 10.2279C13.0726 10.2279 13.0912 10.2302 13.1109 10.2355L14.2412 10.5159C14.3205 10.5113 14.3994 10.5037 14.4799 10.5037C14.6027 10.5037 14.7238 10.5113 14.8436 10.5223C15.0734 10.4346 15.2545 10.2418 15.3178 9.99273L15.7582 8.26591C15.8093 8.06702 15.7791 7.86001 15.6737 7.68406C15.5686 7.50811 15.4005 7.38357 15.201 7.33417L11.1624 6.3319C10.9197 6.26978 10.6688 6.23815 10.4162 6.23815L9.42767 6.23669L9.38063 6.4321C9.21359 7.12806 8.59732 7.61425 7.88162 7.61425C7.16638 7.61425 6.54994 7.12811 6.38262 6.4321L6.33574 6.23669H5.40866L5.36179 6.2386C5.11222 6.2386 4.86253 6.26983 4.62087 6.33162L0.581335 7.33378C0.381891 7.38357 0.213789 7.50783 0.108488 7.68378C0.00324241 7.85973 -0.0266435 8.06674 0.0241569 8.26563L0.464764 9.99245C0.552178 10.3347 0.859616 10.5734 1.21253 10.5734C1.27522 10.5733 1.3379 10.5661 1.39885 10.551Z" fill="#09144C"/>
<path d="M7.0032 14.1155V9.79056H6.29318C6.29318 9.82835 6.28213 9.88582 6.26049 9.96359C6.22275 10.0928 6.16746 10.1965 6.09396 10.2737C5.98725 10.387 5.84775 10.4624 5.67746 10.5001C5.57059 10.524 5.38303 10.542 5.11523 10.5539V11.1325H6.13231V14.1155H7.0032V14.1155Z" fill="#09144C"/>
<path d="M9.77103 9.76038C9.2203 9.76038 8.83397 9.95433 8.61216 10.3419C8.39045 10.7295 8.27954 11.2806 8.27954 11.9943C8.27954 12.7082 8.39045 13.2579 8.61216 13.644C8.83397 14.0296 9.2203 14.2223 9.77103 14.2223C10.0791 14.2223 10.3337 14.1597 10.539 14.0389C10.6139 13.3467 10.8697 12.7091 11.2552 12.1696C11.257 12.1104 11.2622 12.0564 11.2622 11.9943C11.2622 11.2806 11.1513 10.7295 10.9297 10.3419C10.7083 9.95433 10.3218 9.76038 9.77103 9.76038ZM10.2675 13.1354C10.1892 13.3989 10.0234 13.5308 9.77103 13.5308C9.51877 13.5308 9.35168 13.3989 9.27021 13.1354C9.18862 12.8723 9.14797 12.4919 9.14797 11.9949C9.14797 11.474 9.18862 11.0879 9.27021 10.8373C9.35162 10.5867 9.51877 10.4613 9.77103 10.4613C10.0234 10.4613 10.1892 10.5867 10.2675 10.8373C10.3459 11.0879 10.3854 11.4734 10.3854 11.9949C10.3857 12.4919 10.3462 12.8723 10.2675 13.1354Z" fill="#09144C"/>
<path d="M14.4806 10.9493C13.9228 10.9493 13.3976 11.0826 12.929 11.3137C12.7499 11.4019 12.5797 11.5041 12.4194 11.6203C11.5371 12.2599 10.9607 13.2962 10.9607 14.4692C10.9607 15.3512 11.287 16.1549 11.823 16.7722C11.9784 16.951 12.1514 17.1136 12.3395 17.2582C12.933 17.7146 13.674 17.9887 14.4806 17.9887C16.4244 17.9887 18.0001 16.413 18.0001 14.4691C18.0001 12.5256 16.4244 10.9493 14.4806 10.9493ZM16.2656 14.9973H14.9826V16.2804C14.9826 16.5579 14.7578 16.7827 14.4803 16.7827C14.203 16.7827 13.9783 16.5579 13.9783 16.2804V14.9973H12.9287H12.695C12.593 14.9973 12.4981 14.9662 12.4191 14.914C12.2829 14.8243 12.1926 14.6701 12.1926 14.4953C12.1926 14.32 12.2829 14.1661 12.4191 14.0761C12.4981 14.0237 12.593 13.993 12.695 13.993H12.9287H13.9783V12.7097C13.9783 12.4324 14.203 12.2074 14.4803 12.2074C14.7578 12.2074 14.9826 12.4324 14.9826 12.7097V13.993H16.2656C16.5432 13.993 16.7679 14.2178 16.7679 14.4953C16.7679 14.7723 16.5432 14.9973 16.2656 14.9973Z" fill="#09144C"/>
</g>
<defs>
<clipPath id="clip0_188_5592">
<rect width="18" height="18" fill="white"/>
</clipPath>
</defs>
</svg>
