<svg width="32" height="32" viewBox="0 0 32 32" fill="none" xmlns="http://www.w3.org/2000/svg">
<path d="M20.1023 10.6019C20.5895 11.6233 21.7716 12.137 22.8602 11.7477C24.0226 11.3324 24.6286 10.0536 24.2128 8.89125C24.1788 8.79642 24.1303 8.71147 24.0854 8.6239L20.1023 10.6019Z" fill="black"/>
<path d="M29.554 2.69946C30.7878 2.69946 31.7884 3.70004 31.7884 4.93429C31.7884 6.16848 30.7878 7.16946 29.554 7.16946C28.3194 7.16946 27.3188 6.16848 27.3188 4.93429C27.3188 3.69997 28.3194 2.69946 29.554 2.69946Z" fill="black"/>
<path d="M1.75652 24.8679C1.81351 24.8471 1.87044 24.8235 1.92581 24.7936L12.3931 19.3085L12.9737 20.441C12.8951 20.4879 12.8197 20.5432 12.7501 20.608L9.31171 23.8208L2.48921 26.7794C1.82346 27.0678 1.51693 27.8419 1.80592 28.5085C2.08315 29.1473 2.8069 29.4551 3.45309 29.2238C3.48071 29.2139 3.50807 29.2031 3.53569 29.1912L10.5662 26.1435C10.7046 26.084 10.8305 26.0011 10.9408 25.898L14.2073 22.8462L14.214 22.8602L14.3258 22.736L14.5453 22.5308C14.6395 22.4432 14.7115 22.3422 14.7738 22.2378L21.713 14.5136L26.7866 13.4015C26.8296 13.3918 26.873 13.3797 26.9153 13.3643C27.0429 13.3185 27.162 13.248 27.2635 13.1565L31.6509 9.21494C32.0831 8.82641 32.1187 8.16134 31.7306 7.72933C31.3433 7.29692 30.6775 7.26123 30.2452 7.64949L26.065 11.4055L21.3777 12.4339L19.1374 11.0814L18.87 10.9202L18.6015 10.7581L19.9314 10.0981L23.793 8.18089L26.314 6.92943C26.8354 6.67022 27.0468 6.03928 26.7885 5.51896C26.6046 5.14919 26.2326 4.93494 25.8454 4.93494C25.6881 4.93494 25.5289 4.97022 25.3784 5.04509L16.6998 9.35345C16.6253 9.39062 16.5565 9.43591 16.4955 9.48719L16.4855 9.48128L16.4465 9.53666C16.4058 9.57584 16.364 9.61421 16.3299 9.6585C16.2762 9.72934 16.2345 9.80797 16.2001 9.88862L15.8644 10.3689L15.6404 10.6895L11.2882 16.9184L0.704935 22.4642C0.0618996 22.8009 -0.186699 23.5962 0.150478 24.2399C0.459159 24.8267 1.14931 25.0848 1.75652 24.8679Z" fill="black"/>
</svg>
