<svg width="28" height="24" viewBox="0 0 28 24" fill="none" xmlns="http://www.w3.org/2000/svg">
<path d="M6.76483 10.7762L6.9348 10.8102L7.24075 11.1501L7.27474 11.3881L6.73083 12.4419L6.52687 13.0878L6.42488 13.6317L6.39089 14.2436L6.45888 14.8895L6.59486 15.3994L6.79882 15.9093L7.07078 16.3513L7.34273 16.6912L7.61469 16.9972L8.19259 17.4391L8.7365 17.745L9.45038 18.017L10.1303 18.187L10.8441 18.289L11.3541 18.3229H11.898L12.5779 18.255L13.1898 18.119L13.6997 17.949L14.3456 17.6091L14.7535 17.3031L14.8895 17.2691L15.4674 17.6091L15.6034 17.745L15.3314 18.085L14.9575 18.4929L14.6175 18.7989L14.4815 18.9348L14.9235 19.5807L15.3314 20.1246L15.7053 20.6006L16.3172 21.3484L17.2351 21.3824L17.643 21.5184L17.915 21.7224L18.0509 21.9603V22.3003L17.881 22.6402L17.575 22.9122L17.1331 23.0822L16.7932 23.1501H15.8413L15.1614 23.0142L14.7535 22.8442L14.4815 22.6062L14.4136 22.4703V22.1983L14.5835 21.9603L14.9235 21.7564H15.0255L14.9235 21.5864L14.8895 21.4844L14.7535 21.4164L14.4136 21.1785L13.5977 20.7365L13.2577 20.4306L12.8838 19.9547L12.7138 19.7507V19.6827L12 19.7847H11.0141L10.1643 19.6827L9.17843 19.4788L8.36256 19.2748L8.1586 19.6147L7.88664 19.8867L6.9008 20.5666L6.56086 20.8725L6.22092 21.2465L5.91497 21.6884L5.88097 21.7904L6.22092 21.8244L6.56086 21.9603L6.73083 22.1643L6.76483 22.2663V22.6062L6.66284 22.8102L6.39089 23.0482L5.94896 23.2181L5.30307 23.3201H4.62318L4.14726 23.2181L3.84131 23.0482L3.56936 22.7762L3.46738 22.4703L3.53537 22.1643L3.77333 21.8923L4.07927 21.6884L4.58919 21.5864L4.72517 21.3144L5.1331 20.7705L5.47304 20.2946L5.94896 19.6147L6.3569 18.9348L6.66284 18.3569L6.62885 18.221L6.15293 17.711L5.88097 17.3711L5.60902 16.8952L5.37106 16.3853L5.16709 15.7394L5.06511 15.1615L5.03112 14.7875V14.2436L5.0991 13.6317L5.23508 13.0538L5.47304 12.4079L5.81299 11.796L6.15293 11.3541L6.69684 10.8102L6.76483 10.7762Z" fill="#FEFEFE"/>
<path d="M10.5382 12.3399L10.9461 12.3739L11.592 12.5439L12.5099 12.8839L14.2436 13.6317L15.3654 14.1416L16.5892 14.7195L17.813 15.2635L18.5948 15.6034L19.2067 15.8414L20.0566 16.0793L20.4305 16.1813L20.5665 16.7932V16.8952L19.7846 16.9292V17.0312L20.0906 17.1331L20.6685 17.3711L20.9065 17.6771L21.1104 18.017L21.0424 18.153L20.7025 18.3229L20.4305 18.3909H20.0906L19.9206 18.3569L20.0906 18.5269L20.1586 18.6289L20.1246 18.7989L19.9546 18.9008L19.7507 18.9688H19.1727L18.7648 18.7989L18.3909 18.5609L17.9829 18.187L17.609 17.711L17.473 17.6091L16.5892 17.4051L15.9433 17.1671L15.0254 16.7252L14.2776 16.2833L13.8696 16.0113L13.2917 15.6034L12.7138 15.1615L12.3739 14.8895L11.9999 14.5836L11.49 14.1416L11.0481 13.7337L10.7082 13.4278L10.0963 12.8159L9.99428 12.6459V12.4759L10.2662 12.3739L10.5382 12.3399Z" fill="#FEFEFE"/>
<path d="M23.3541 13.3938H24.1019L24.6458 13.5297L25.1897 13.8017L25.5637 14.1076L25.8696 14.4476L26.1416 14.9235L26.3116 15.4334L26.3456 15.6034V16.4193L26.2096 16.9292L25.9376 17.4731L25.6317 17.847L25.3257 18.119L24.8838 18.3909L24.4079 18.5609L24.0679 18.6289H23.388L22.8441 18.4929L22.3002 18.221L21.9943 17.983L21.6543 17.6431L21.3824 17.2011L21.2124 16.7932L21.1104 16.2833V15.7054L21.2464 15.1275L21.5184 14.5836L21.7563 14.2776L22.1303 13.9037L22.5722 13.6317L23.0481 13.4618L23.3541 13.3938Z" fill="#FEFEFE"/>
<path d="M12.5779 4.38527L12.7138 4.41926L13.0878 4.72521L13.5637 5.20113L13.9036 5.64306L14.2096 6.18697L14.4135 6.69688L14.5155 7.13881L15.3314 7.37677L15.8073 7.58074L16.1133 7.85269V7.92068L14.8555 8.49858L14.0056 8.87252L13.9376 8.77054L13.6657 8.02266L13.2917 7.27479L12.9178 6.69688L12.5099 6.15297L12.2379 5.84703H11.966L11.0481 6.08499L9.96029 6.42493L9.58635 6.5949L9.41638 6.73088L9.38239 6.83286V7.51275L9.48437 8.66856V9.65439L9.34839 10.5042L9.21241 11.0142L9.11043 11.1501L8.90647 11.0822L8.56652 10.8102L8.32856 10.5382L8.05661 9.99433H7.07077L6.62884 9.85836L6.42488 9.68839L6.39088 9.51841L6.62884 9.24646L6.93479 9.0085L7.61468 8.32861L7.5127 8.22663L7.00278 8.02266L6.39088 7.68272L6.56086 7.51275L7.20675 7.03683L7.81865 6.5949L7.92063 6.52691L7.78465 6.18697V5.84703L7.92063 5.67705L8.26057 5.54108L9.68833 5.13314L11.626 4.62323L12.5779 4.38527Z" fill="#FEFEFE"/>
<path d="M12.204 0H12.5779L12.8499 0.135977L13.0198 0.339943L13.0878 0.475921L13.1218 3.87535L13.5977 4.28329L14.0397 4.72521L14.4816 5.30312L14.7875 5.84703L14.9915 6.32295L15.0595 6.6289L15.3994 6.69688L15.9433 6.90085L16.2833 7.10482L16.5892 7.37677L16.7592 7.64873L16.7932 7.75071V8.02266L16.6912 8.29462L16.4533 8.49858L15.1955 9.07649L15.3654 9.24646L15.7394 9.5864L16.1133 9.89235L16.4193 10.1983L16.6912 10.4363L17.0652 10.8102L17.3371 11.0482L18.9688 12.6799L19.2408 12.9178L20.3626 14.0397L20.6006 14.3116L20.7705 14.5156L21.0765 14.0397L21.4504 13.6317L21.7904 13.3258L22.3003 13.0198L22.8442 12.8159L23.3881 12.7139H24.068L24.6119 12.8159L25.1558 13.0198L25.5297 13.2238L26.0057 13.5977L26.3796 14.0057L26.6516 14.4476L26.8895 14.9915L26.9915 15.3994L27.0255 15.6374V16.3853L26.9235 16.8952L26.7535 17.3711L26.5156 17.813L26.2436 18.153L26.0057 18.4249L25.5297 18.7989L24.9858 19.0708L24.4419 19.2408L24 19.3088H23.4561L22.8782 19.2068L22.3343 19.0028L21.8584 18.7309L21.6204 18.5609L21.3484 18.7649L20.8045 19.0028L20.6686 19.2068L20.3966 19.4448L19.9207 19.6147L19.7507 19.6487H19.1728L18.6969 19.5127L18.187 19.2408L17.847 18.9688L17.5071 18.6629L17.2011 18.289V18.221L16.5212 18.085L16.2153 18.017L15.9773 18.3569L15.5694 18.8329L15.3994 19.0028L15.4334 19.1388L15.9093 19.7847L16.3513 20.3286L16.6232 20.6686L17.2351 20.7026L17.779 20.8385L18.153 21.0425L18.3909 21.2465L18.5949 21.5524L18.7309 21.9263V22.3343L18.6289 22.6742L18.4589 22.9802L18.153 23.3201L17.779 23.5581L17.3371 23.728L16.7592 23.83H15.8754L15.2295 23.728L14.6176 23.5241L14.2096 23.2861L13.9377 23.0142L13.7677 22.6742L13.7337 22.5382V22.1303L13.8697 21.7904L13.9037 21.6544L13.2578 21.3144L12.9518 21.0765L12.6119 20.7026L12.4079 20.4306L11.864 20.4646H11.1841L10.4023 20.3966L9.41643 20.2266L8.66856 20.0567L8.36261 20.3626L7.85269 20.7365L7.47875 20.9745L7.1728 21.2125L6.96884 21.4504L7.2068 21.6544L7.37677 21.9943L7.44476 22.2663V22.6402L7.34278 22.9802L7.13881 23.2861L6.83286 23.5581L6.35694 23.796L5.81303 23.932L5.13314 24H4.72521L4.2153 23.932L3.80737 23.796L3.43343 23.5921L3.05949 23.2181L2.85552 22.8102L2.82153 22.6742V22.1983L2.95751 21.8244L3.16147 21.5524L3.39943 21.3144L3.80737 21.0765L4.14731 20.9745L4.62323 20.3286L5.06516 19.7167L5.47309 19.1048L5.77904 18.5949L5.88102 18.3909L5.43909 17.915L5.09915 17.3711L4.89518 16.9632L4.41926 16.9972L4.01133 17.1331L3.46742 17.4731L3.12748 17.6771L2.71955 17.779L2.34561 17.745L2.00567 17.6091L1.73371 17.3711L1.59773 17.2011L1.46176 16.8952L1.42776 16.5552L1.49575 16.2153L1.56374 16.0793L1.39377 16.0453L1.12181 15.8414L0.917847 15.5694L0.747875 15.1275L0.713881 14.9575V14.6856L0.815864 14.3456L0.543909 14.2096L0.23796 13.9377L0.0339943 13.5297L0 13.3598V13.0198L0.101983 12.6799L0.271955 12.4079L0.543909 12.136L1.01983 11.898L1.56374 11.762L1.8017 11.728L2.58357 11.6941L3.63739 11.762L4.69122 11.932L4.96317 12L5.03116 11.796L5.37111 11.2521L5.74504 10.8102L6.15297 10.4023V10.3343L5.91501 10.1303L5.74504 9.79037V9.34844L5.91501 9.0085L6.18697 8.73654L6.45892 8.53258L6.49292 8.46459L6.28895 8.3966L5.94901 8.19263L5.77904 7.98867L5.71105 7.8187V7.51275L5.84703 7.24079L6.11898 7.00283L6.73088 6.56091L7.10482 6.28895V5.77904L7.13881 5.64306L6.86686 5.37111L6.25496 4.14731L5.91501 3.50142L5.43909 2.54958V2.17564L5.60907 1.90368L5.81303 1.73371L5.91501 1.69972H6.32295L7.75071 2.17564L7.92068 1.76771L8.32861 0.679887L8.53258 0.441926L8.73654 0.339943H9.14448L9.48442 0.543909L10.0623 0.951841L10.6742 1.39377L10.7762 1.42776L11.1501 0.917847L11.5241 0.475921L11.898 0.135977L12.204 0ZM12.272 0.135977L11.932 0.305949L11.5921 0.611898L11.2861 0.985836L10.9122 1.49575L10.8102 1.63173L10.6402 1.56374L10.0963 1.15581L9.45043 0.713881L9.14448 0.509915L8.83853 0.475921L8.56657 0.611898L8.4306 0.815864L7.88669 2.31161V2.3796L6.25496 1.83569H5.983L5.77904 1.93768L5.64306 2.10765L5.57507 2.27762L5.60907 2.54958L6.35694 4.04533L7.03683 5.33711L7.24079 5.50708L7.30878 5.54108L7.24079 6.08499L7.27479 6.35694L6.66289 6.79887L6.017 7.27479L5.88102 7.47875V7.85269L6.017 8.05666L6.25496 8.19263L6.66289 8.4306H6.73088L6.49292 8.70255L6.11898 9.0085L5.91501 9.31445L5.88102 9.41643V9.68839L5.983 9.96034L6.11898 10.1303L6.42493 10.3343L5.77904 10.9802L5.37111 11.5241L5.03116 12.136L4.96317 12.204L4.72521 12.102L4.01133 11.966L3.0255 11.864H2.00567L1.49575 11.932L1.08782 12.034L0.679887 12.238L0.373938 12.5099L0.203966 12.8159L0.169972 12.9518V13.4278L0.305949 13.7677L0.509915 14.0057L0.815864 14.1756L1.08782 14.2436L0.917847 14.5156L0.883853 14.6176V15.0595L1.05382 15.5014L1.25779 15.7734L1.52975 15.9433L1.76771 16.0113L1.63173 16.2833L1.59773 16.4193V16.7932L1.73371 17.1331L1.97167 17.4051L2.31161 17.5751L2.4136 17.6091H2.85552L3.19547 17.4731L3.87535 17.0312L4.1813 16.8952L4.7932 16.7932L4.96317 16.7592L5.23513 17.3031L5.54108 17.779L5.94901 18.255L6.05099 18.3569L5.983 18.5609L5.57507 19.2408L5.20113 19.7847L4.31728 21.0085L4.24929 21.1105L3.80737 21.2465L3.43343 21.4844L3.19547 21.7224L2.9915 22.1303L2.95751 22.3003V22.5722L3.05949 22.9122L3.26346 23.2181L3.56941 23.4901L4.04533 23.728L4.52125 23.83H5.4051L6.05099 23.728L6.5949 23.5241L6.96884 23.2521L7.1728 22.9802L7.27479 22.7082V22.1643L7.13881 21.8244L6.96884 21.6204L6.76487 21.4844L6.83286 21.3484L7.2068 20.9745L7.8187 20.5666L8.19263 20.2946L8.49858 20.0227L8.60057 19.8867L9.21247 20.0227L10.0623 20.1926L10.9122 20.2946H12.136L12.4419 20.2606L12.7139 20.5666L13.0198 20.9405L13.3258 21.1785L14.1416 21.6204L13.9037 22.0963L13.8697 22.4023L13.9377 22.7082L14.1756 23.0482L14.5496 23.3201L14.9575 23.4901L15.5014 23.6261L16.1473 23.6941H16.5212L17.0992 23.6261L17.6431 23.4561L18.017 23.2181L18.187 23.0822L18.4249 22.7422L18.5609 22.4023V21.8584L18.3569 21.4504L18.085 21.1785L17.6091 20.9405L17.0652 20.8385H16.5892L16.2493 20.4646L15.8754 19.9887L15.4334 19.4108L15.1955 19.0708L15.2295 18.9348L15.5014 18.6969L15.8074 18.3229L16.0793 17.949L16.1133 17.779L16.5892 17.949L17.2351 18.085L17.6431 18.5609L17.813 18.7309L18.119 19.0028L18.4929 19.2408L18.7649 19.3768L19.1048 19.4788L19.5807 19.5127L20.0907 19.4108L20.4306 19.2408L20.6346 19.0028L20.7026 18.8669L21.1445 18.6969L21.4844 18.4589L21.5524 18.3229L22.1303 18.7309L22.6402 18.9688L23.1161 19.1048L23.3201 19.1388H24.17L24.7479 19.0028L25.2238 18.7989L25.6317 18.5269L25.9717 18.221L26.2776 17.881L26.5496 17.4391L26.7195 17.0312L26.8555 16.5212L26.8895 16.1813V15.8074L26.8215 15.3314L26.6516 14.7875L26.3796 14.2776L26.1077 13.9377L25.9377 13.7337L25.4618 13.3598L24.9518 13.0878L24.3739 12.9178L23.796 12.8499L23.0822 12.9178L22.5382 13.0878L22.0623 13.3258L21.6204 13.6657L21.3144 13.9717L20.9745 14.4816L20.8045 14.7875L20.3966 14.3116L20.1586 14.0737L19.9207 13.8017L19.1388 13.0198L18.8669 12.7819L17.2011 11.1161L16.9292 10.8782L16.4873 10.4363L16.2153 10.1983L15.7734 9.79037L15.3994 9.48442L14.8895 9.04249L16.1133 8.49858L16.4873 8.29462L16.6232 8.09065V7.71671L16.4873 7.51275L16.3173 7.34278L16.0113 7.10482L15.5354 6.90085L14.9575 6.73088L14.7535 6.11898L14.4136 5.47309L14.0057 4.92918L13.5977 4.48725L13.1898 4.11331L12.9518 3.94334V0.577904L12.8159 0.305949L12.6119 0.169972L12.5099 0.135977H12.272Z" fill="#FEFEFE"/>
<path d="M12.3739 0.645893L12.4419 0.679887V3.70538L12.1699 3.80737L7.51269 5.03116H7.44471L6.76482 3.67139L6.42488 3.0255L6.11893 2.4136L6.15292 2.34561L7.85264 2.92351L8.15859 3.0255L8.32856 2.61756L8.90646 1.01983L9.04244 1.05383L9.62034 1.46176L10.2322 1.90368L10.8781 2.34561L11.0481 2.17564L11.388 1.73371L11.728 1.25779L12.1359 0.815865L12.3739 0.645893Z" fill="#FEFEFE"/>
<path d="M14.2436 9.31445L14.5155 9.41643L14.9915 9.82436L15.3654 10.1303L15.9093 10.6402L16.1813 10.8782L16.4872 11.1841L16.7592 11.4221L18.3569 13.0198L18.6288 13.2578L19.9546 14.5836L20.1926 14.8555L20.4645 15.2295L20.4305 15.5354L19.9546 15.4674L19.2407 15.2635L18.6968 15.0255L18.0509 14.6855L17.507 14.3116L17.0311 13.9377L16.5892 13.5297L15.8413 12.7819L15.5354 12.4079L15.1954 11.966L14.7195 11.2521L14.3456 10.6062L13.9716 9.85835L13.8356 9.51841L13.8696 9.41643L14.2436 9.31445Z" fill="#FEFEFE"/>
<path d="M11.898 6.35694L12.0679 6.39094L12.4759 6.90085L12.9178 7.61473L13.2917 8.3966L13.4957 8.97451L13.4277 9.14448L13.3257 9.38244L13.3597 9.65439L13.6657 10.3343L14.0056 11.0142L14.4136 11.6941L14.8895 12.3739L15.2634 12.8499L15.6034 13.2238L15.8413 13.4958L16.3172 13.9717L16.2153 14.0057L15.2974 13.5637L14.3116 13.1218L12.7138 12.4419L11.796 12.102L11.2181 11.932L10.8102 11.864H10.3682L9.9263 11.966L9.65434 12.136L9.51837 12.3399V12.7479L9.68834 13.0878L10.0623 13.4958L10.4362 13.8697L10.7082 14.1076L11.1501 14.5156L11.524 14.8215L11.864 15.1275L12.3399 15.5014L13.0538 16.0453L14.3796 16.9292L14.2096 17.0992L13.8356 17.3371L13.3937 17.5411L12.8498 17.711L12.2379 17.813H10.9461L10.0623 17.6771L9.34839 17.4731L8.63451 17.1331L8.19259 16.8272L7.75066 16.4193L7.37672 15.9433L7.10477 15.3994L6.9348 14.8215L6.9008 14.6176V13.6997L7.03678 13.0538L7.24075 12.5099L7.71667 11.5921L7.75066 11.4901V11.0822L7.54669 10.7422L7.37672 10.5722V10.5043H7.71667L7.95463 10.8442L8.19259 11.1501L8.63451 11.4901L8.90647 11.6261H9.28041L9.48437 11.4901L9.65434 11.2181L9.79032 10.7422L9.9263 9.99434L9.96029 9.75637V8.53258L9.85831 7.37677V7.00283L10.4022 6.79887L11.49 6.45892L11.898 6.35694ZM11.83 6.52691L10.6742 6.86686L10.0623 7.07082L10.0283 7.10482V7.61473L10.1303 8.77054V9.6204L9.99429 10.5043L9.85831 11.0822L9.72233 11.4221L9.48437 11.6941L9.21242 11.796H8.94046L8.46454 11.5581L8.02262 11.1841L7.95463 11.1501L7.88664 11.5581L7.58069 12.204L7.30873 12.7479L7.13876 13.2578L7.03678 13.8697V14.4476L7.13876 15.0255L7.34273 15.5694L7.68267 16.1133L8.05661 16.5212L8.49854 16.8612L8.97446 17.1331L9.51837 17.3711L10.1643 17.5411L10.8102 17.6431L11.1841 17.6771H12.0339L12.7478 17.5751L13.4277 17.3711L14.0056 17.0652L14.1076 16.9972L14.0736 16.8952L13.5297 16.5552L12.8498 16.0793L12.4079 15.7394L11.932 15.3654L11.456 14.9575L11.0821 14.6516L10.5382 14.1416L10.1983 13.8357L9.62035 13.2578L9.41638 12.9178L9.34839 12.6799V12.4079L9.45038 12.136L9.72233 11.898L10.0623 11.762L10.2322 11.728H10.9461L11.66 11.898L12.6119 12.238L14.4475 13.0198L15.5694 13.5297L15.6373 13.4958L15.2294 13.0538L14.8555 12.5779L14.4815 12.068L14.0736 11.4221L13.7677 10.8782L13.3937 10.1303L13.1898 9.6204V9.28045L13.3257 9.0085L13.2237 8.66856L13.0198 8.15864L12.6458 7.44476L12.2719 6.90085L12 6.56091L11.83 6.52691Z" fill="#FDFDFD"/>
<path d="M2.1416 12.3739H2.88947L3.67134 12.4419L4.65718 12.6119L4.62318 12.8499L4.38522 13.5977L4.31723 13.6317L3.70534 13.4958H2.51553L1.56369 13.6317L1.32573 13.6997H1.01978L0.815817 13.5637L0.713834 13.4278L0.67984 13.3258V13.0538L0.781823 12.8499L1.05378 12.6119L1.42772 12.4759L1.76766 12.4079L2.1416 12.3739Z" fill="#FEFEFE"/>
<path d="M3.02545 14.1416H3.67134L4.31724 14.2436L4.35123 14.2776V14.9915L3.19542 15.0255L2.61752 15.1955L2.1076 15.4334L2.00562 15.4674H1.73367L1.5297 15.2975L1.39372 14.9575V14.7195L1.66568 14.4816L2.07361 14.3116L2.68551 14.1756L3.02545 14.1416Z" fill="#FEFEFE"/>
<path d="M4.28323 15.5694L4.4532 15.6034L4.62317 16.2153V16.2833L3.97728 16.4193L3.43337 16.6912L2.92345 17.0312L2.75348 17.0991H2.51552L2.31156 16.9972L2.14158 16.7932L2.10759 16.5212L2.20957 16.3173L2.41354 16.1473L3.12742 15.7734L3.63733 15.6374L4.28323 15.5694Z" fill="#FEFEFE"/>
</svg>
