<svg width="18" height="18" viewBox="0 0 18 18" fill="none" xmlns="http://www.w3.org/2000/svg">
<path d="M9.0201 4.35939C11.5513 4.35939 13.6407 6.44867 13.6407 8.97995C13.6407 11.5514 11.5513 13.6005 9.0201 13.6005C6.44868 13.6005 4.39956 11.5514 4.39956 8.97995C4.39956 6.44867 6.44868 4.35939 9.0201 4.35939ZM9.0201 11.9933C10.6674 11.9933 11.9933 10.6674 11.9933 8.97995C11.9933 7.3326 10.6674 6.0067 9.0201 6.0067C7.33261 6.0067 6.00671 7.3326 6.00671 8.97995C6.00671 10.6674 7.37279 11.9933 9.0201 11.9933ZM14.8862 4.19867C14.8862 3.59599 14.404 3.11385 13.8013 3.11385C13.1986 3.11385 12.7165 3.59599 12.7165 4.19867C12.7165 4.80135 13.1986 5.2835 13.8013 5.2835C14.404 5.2835 14.8862 4.80135 14.8862 4.19867ZM17.9398 5.2835C18.0201 6.7701 18.0201 11.2299 17.9398 12.7165C17.8594 14.163 17.538 15.4085 16.4933 16.4933C15.4487 17.5379 14.1629 17.8594 12.7165 17.9397C11.23 18.0202 6.77011 18.0202 5.28349 17.9397C3.83706 17.8594 2.59152 17.5379 1.5067 16.4933C0.462054 15.4085 0.140625 14.163 0.060268 12.7165C-0.0200893 11.2299 -0.0200893 6.7701 0.060268 5.2835C0.140625 3.83706 0.462054 2.55135 1.5067 1.5067C2.59152 0.462054 3.83706 0.140624 5.28349 0.0602666C6.77011 -0.0200889 11.23 -0.0200889 12.7165 0.0602666C14.1629 0.140624 15.4487 0.462054 16.4933 1.5067C17.538 2.55135 17.8594 3.83706 17.9398 5.2835ZM16.0111 14.2835C16.4933 13.1183 16.3728 10.3058 16.3728 8.97995C16.3728 7.69421 16.4933 4.88171 16.0111 3.67635C15.6898 2.91295 15.0871 2.27009 14.3237 1.98884C13.1183 1.5067 10.3058 1.62724 9.0201 1.62724C7.69421 1.62724 4.88171 1.5067 3.71653 1.98884C2.91295 2.31027 2.31027 2.91295 1.98884 3.67635C1.5067 4.88171 1.62723 7.69421 1.62723 8.97995C1.62723 10.3058 1.5067 13.1183 1.98884 14.2835C2.31027 15.0871 2.91295 15.6897 3.71653 16.0112C4.88171 16.4933 7.69421 16.3728 9.0201 16.3728C10.3058 16.3728 13.1183 16.4933 14.3237 16.0112C15.0871 15.6897 15.7299 15.0871 16.0111 14.2835Z" fill="url(#paint0_linear_20_9145)"/>
<defs>
<linearGradient id="paint0_linear_20_9145" x1="18.0201" y1="-0.0200904" x2="3.48837" y2="19.3025" gradientUnits="userSpaceOnUse">
<stop stop-color="#833AB4" stop-opacity="0.5"/>
<stop offset="0.640625" stop-color="#FCAF45"/>
</linearGradient>
</defs>
</svg>
