<svg preserveAspectRatio="none" width="100%" height="100%" overflow="visible" style="display: block;" viewBox="0 0 24 24" fill="none" xmlns="http://www.w3.org/2000/svg">
<g id="plain-white-football-shirt-svgrepo-com 1" clip-path="url(#clip0_0_80)">
<g id="Vector">
</g>
<path id="Vector_2" d="M16.8052 2.39913C17.1447 2.39913 17.3899 2.56888 17.3899 2.56888L22.8031 6.45427C23.1048 6.64288 23.1803 7.03896 22.9728 7.34074L20.9547 10.1888C20.8415 10.3774 20.634 10.4717 20.4266 10.4717C20.3134 10.4717 20.1814 10.434 20.0682 10.3585L18.0878 8.73646L18.0501 21.5997H6.03555V8.77418L3.92311 10.5471C3.80994 10.6226 3.69678 10.6603 3.56475 10.6603C3.35728 10.6603 3.1498 10.566 3.03664 10.3774L1.03736 7.34074C0.84875 7.03896 0.924194 6.66174 1.20711 6.45427L6.80886 2.55002C6.80886 2.55002 7.26152 2.39913 7.9028 2.38027H8.48749V2.41799V2.45572C8.48749 4.15321 10.2039 5.71869 12.0711 5.71869C13.9384 5.71869 15.6547 4.15321 15.6547 2.45572V2.41799V2.38027H16.7675H16.8052C16.7864 2.39913 16.8052 2.39913 16.8052 2.39913ZM16.8052 1.45608H16.7675H15.6547C15.3907 1.45608 15.1455 1.56924 14.9569 1.75785C14.7871 1.94647 14.6928 2.21052 14.7117 2.47458V2.55002C14.6551 3.70055 13.3725 4.79449 12.0711 4.79449C10.7697 4.79449 9.48713 3.70055 9.43055 2.55002V2.47458C9.44941 2.21052 9.37397 1.94647 9.18536 1.75785C9.01561 1.56924 8.75155 1.45608 8.48749 1.45608H7.9028H7.88394C7.1295 1.47494 6.58252 1.64469 6.50708 1.66355C6.41277 1.70127 6.33733 1.73899 6.26189 1.79558L0.697861 5.68096C-0.0188604 6.17135 -0.207471 7.13327 0.264056 7.86885L2.28219 10.9055C2.58397 11.3393 3.07436 11.6033 3.60247 11.6033C3.90425 11.6033 4.20603 11.509 4.47008 11.3393C4.5078 11.3204 4.52666 11.3016 4.56439 11.2827L5.11136 10.8112V21.5997C5.11136 22.1278 5.5263 22.5428 6.05441 22.5428H18.0878C18.6159 22.5428 19.0308 22.1278 19.0308 21.5997L19.0497 10.7169L19.4835 11.0752C19.5024 11.0941 19.5401 11.113 19.559 11.1318C19.823 11.3016 20.1248 11.3959 20.4266 11.3959C20.9547 11.3959 21.4451 11.1318 21.728 10.698L23.7273 7.86885L23.7461 7.84999C24.2177 7.13327 24.029 6.15249 23.3123 5.68096L18.0312 1.73899C18.0123 1.72013 17.9935 1.72013 17.9746 1.70127C17.918 1.66355 17.4842 1.41836 16.9184 1.41836L16.8052 1.45608Z" fill="var(--fill-0, black)" fill-opacity="0.75"/>
</g>
<defs>
<clipPath id="clip0_0_80">
<rect width="24" height="24" fill="white"/>
</clipPath>
</defs>
</svg>
