<svg width="18" height="18" viewBox="0 0 18 18" fill="none" xmlns="http://www.w3.org/2000/svg">
<g clip-path="url(#clip0_243_10215)">
<path d="M9 16.3561C7.62598 16.3561 5.99898 15.7055 5.15176 15.3172C5.00627 15.251 4.91309 15.1059 4.91309 14.9461V10.2302C4.91309 10.0046 5.09618 9.82153 5.32178 9.82153H12.6782C12.9038 9.82153 13.0869 10.0046 13.0869 10.2302V14.9935C13.0869 15.1488 12.9986 15.2911 12.8593 15.3597C11.9397 15.8146 10.524 16.3561 9 16.3561ZM5.73047 14.6809C6.4702 15.0029 7.87242 15.5391 9 15.5391C10.2935 15.5391 11.5323 15.0769 12.2695 14.736V10.6389H5.73047V14.6809Z" fill="#09144C"/>
<path d="M13.0869 8.18674V4.10882C13.0869 1.83813 11.2535 -0.00915527 9 -0.00915527C6.74648 -0.00915527 4.91309 1.83813 4.91309 4.10882V8.18674C3.71358 8.18674 3.27832 9.16434 3.27832 9.82151V15.9519C3.27832 16.0986 3.3572 16.2343 3.48471 16.307C3.60527 16.3757 6.46857 17.9908 9 17.9908C11.5314 17.9908 14.3947 16.3757 14.5153 16.3066C14.6428 16.2343 14.7217 16.0986 14.7217 15.9519V9.82151C14.7217 8.62241 13.7441 8.18674 13.0869 8.18674ZM5.73047 4.10882C5.73047 2.28892 7.19726 0.808228 9 0.808228C10.8027 0.808228 12.2695 2.28892 12.2695 4.10882V8.18674H5.73047V4.10882ZM13.9043 15.7079C13.2177 16.0671 10.9466 17.1735 9 17.1735C7.0534 17.1735 4.7823 16.0671 4.0957 15.7079V9.82151C4.0957 9.68501 4.13494 9.00413 4.91309 9.00413H13.0869C13.2234 9.00413 13.9043 9.04377 13.9043 9.82151V15.7079Z" fill="#09144C"/>
<path d="M9.81738 13.0911C9.81738 12.6399 9.4512 12.2737 9 12.2737C8.5488 12.2737 8.18262 12.6399 8.18262 13.0911C8.18262 13.3927 8.34814 13.6534 8.59131 13.7952V14.7258C8.59131 14.9514 8.7744 15.1345 9 15.1345C9.2256 15.1345 9.40869 14.9514 9.40869 14.7258V13.7952C9.65186 13.6534 9.81738 13.3927 9.81738 13.0911Z" fill="#09144C"/>
<path d="M10.2261 11.865H7.77393C7.54833 11.865 7.36523 11.6819 7.36523 11.4563C7.36523 11.2307 7.54833 11.0476 7.77393 11.0476H10.2261C10.4517 11.0476 10.6348 11.2307 10.6348 11.4563C10.6348 11.6819 10.4517 11.865 10.2261 11.865Z" fill="#09144C"/>
</g>
<defs>
<clipPath id="clip0_243_10215">
<rect width="18" height="18" fill="white"/>
</clipPath>
</defs>
</svg>
