<svg width="18" height="18" viewBox="0 0 18 18" fill="none" xmlns="http://www.w3.org/2000/svg">
<g clip-path="url(#clip0_20_9160)">
<path d="M11.7053 11.2023L9.92135 10.943L9.12376 9.32668C9.07104 9.21987 8.96229 9.15227 8.84317 9.15227C8.72411 9.15227 8.61534 9.21988 8.56261 9.32668L7.76485 10.943L5.98099 11.2023C5.86314 11.2194 5.76525 11.3019 5.72846 11.4152C5.69166 11.5284 5.72235 11.6528 5.80763 11.7359L7.09847 12.9941L6.79373 14.7707C6.7736 14.888 6.82184 15.0067 6.9182 15.0767C7.01453 15.1466 7.14224 15.1559 7.24764 15.1005L8.84317 14.2617L10.4386 15.1005C10.4844 15.1245 10.5344 15.1364 10.5842 15.1364C10.6491 15.1364 10.7136 15.1162 10.7681 15.0767C10.8645 15.0067 10.9127 14.888 10.8926 14.7707L10.5879 12.9941L11.8786 11.7359C11.9639 11.6528 11.9945 11.5284 11.9578 11.4152C11.921 11.3019 11.8231 11.2194 11.7053 11.2023ZM10.0333 12.6608C9.95959 12.7327 9.92599 12.8363 9.94335 12.9378L10.1687 14.2517L8.98875 13.6313C8.94318 13.6074 8.8932 13.5954 8.84318 13.5954C8.79317 13.5954 8.74319 13.6074 8.69762 13.6313L7.5176 14.2517L7.74299 12.9378C7.7604 12.8363 7.72675 12.7327 7.65299 12.6608L6.69832 11.7303L8.01761 11.5385C8.11949 11.5237 8.20761 11.4597 8.25317 11.3674L8.84317 10.172L9.43312 11.3674C9.47859 11.4597 9.56667 11.5237 9.66863 11.5385L10.988 11.7303L10.0333 12.6608Z" fill="#09144C"/>
<path d="M17.8462 0.233386C17.7905 0.135626 17.6867 0.0752563 17.5743 0.0752563H12.9515C12.8397 0.0752563 12.7364 0.134916 12.6805 0.231776L9.13906 6.37144C9.04557 6.36668 8.95154 6.36433 8.85695 6.36411L5.3197 0.231776C5.26383 0.134916 5.16052 0.0752563 5.0487 0.0752563H0.425891C0.313421 0.0752563 0.209631 0.135626 0.153981 0.233386C0.0983705 0.331106 0.0994705 0.451176 0.156901 0.547896L4.67142 8.14749C3.67566 9.1864 3.06295 10.5951 3.06295 12.1443C3.06295 15.3317 5.65604 17.9248 8.84334 17.9248C12.0306 17.9248 14.6236 15.3317 14.6236 12.1443C14.6236 10.6962 14.0883 9.37081 13.2052 8.35551L17.8432 0.547896C17.9007 0.451176 17.9018 0.331106 17.8462 0.233386ZM0.975621 0.700966H4.86801L8.15805 6.40473C7.01758 6.54008 5.97793 7.00858 5.13944 7.71023L0.975621 0.700966ZM13.9979 12.1443C13.9979 14.9867 11.6856 17.299 8.84334 17.299C6.00105 17.299 3.68866 14.9867 3.68866 12.1443C3.68866 10.8254 4.18681 9.62085 5.00452 8.70826C5.14803 8.54808 5.30122 8.3968 5.46342 8.25565C6.28864 7.53745 7.34374 7.07729 8.50211 7.00122C8.59478 6.99515 8.68809 6.99153 8.78202 6.99044C8.80244 6.99018 8.82283 6.98965 8.84334 6.98965C8.97205 6.98965 9.09961 6.99454 9.22601 7.00388C9.31191 7.01017 9.39728 7.01868 9.48195 7.0292C10.6189 7.17035 11.6421 7.68328 12.426 8.44207C12.5828 8.59383 12.7298 8.75536 12.8665 8.92576C13.574 9.8084 13.9979 10.9277 13.9979 12.1443ZM12.7533 7.89106C11.9505 7.15239 10.9388 6.63767 9.81802 6.44655L13.1322 0.700966H17.0245L12.7533 7.89106Z" fill="#09144C"/>
</g>
<defs>
<clipPath id="clip0_20_9160">
<rect width="18" height="18" fill="white"/>
</clipPath>
</defs>
</svg>
