<svg width="18" height="18" viewBox="0 0 18 18" fill="none" xmlns="http://www.w3.org/2000/svg">
<g clip-path="url(#clip0_368_11021)">
<path d="M8.49426 1.36747C8.65338 0.877511 9.34663 0.877511 9.50574 1.36747L11.0298 6.05776C11.1009 6.27687 11.3051 6.42523 11.5355 6.42523H16.4672C16.9823 6.42523 17.1965 7.08446 16.7798 7.38731L12.7899 10.286C12.6036 10.4214 12.5256 10.6615 12.5968 10.8806L14.1207 15.5709C14.2799 16.0609 13.7192 16.4682 13.3024 16.1654L9.31259 13.2667C9.12614 13.1313 8.87386 13.1313 8.68741 13.2667L4.69761 16.1654C4.28084 16.4682 3.72006 16.0609 3.87926 15.5709L5.40323 10.8806C5.47442 10.6615 5.39643 10.4214 5.21005 10.286L1.22024 7.38731C0.803455 7.08446 1.01765 6.42523 1.53282 6.42523H6.46449C6.69488 6.42523 6.89907 6.27687 6.97023 6.05776L8.49426 1.36747Z" stroke="#09144C" stroke-width="1.0636" stroke-linecap="round" stroke-linejoin="round"/>
</g>
<defs>
<clipPath id="clip0_368_11021">
<rect width="18" height="18" fill="white"/>
</clipPath>
</defs>
</svg>
