<svg width="32" height="32" viewBox="0 0 32 32" fill="none" xmlns="http://www.w3.org/2000/svg">
<g clip-path="url(#clip0_193_7595)">
<path d="M18.6639 0C20.2251 0 21.4908 1.26557 21.4908 2.82691C21.4908 4.38795 20.2251 5.65362 18.6639 5.65362C17.103 5.65362 15.8372 4.38795 15.8372 2.82691C15.8372 1.26557 17.103 0 18.6639 0Z" fill="black"/>
<path d="M28.2941 15.8069C28.4563 15.8662 28.6212 15.8944 28.7839 15.8944C29.3609 15.8944 29.9023 15.5395 30.1139 14.9673C31.0158 12.5189 29.5747 8.97103 29.4077 8.57461L29.2083 8.10322L24.1947 5.50625C23.8979 5.35251 23.5729 5.31985 23.2687 5.38044C20.9964 5.18532 18.0082 6.85665 17.2313 7.32065C17.1085 7.39397 17.0394 7.43762 17.0394 7.43762V7.44081C16.9085 7.52903 16.7862 7.63142 16.689 7.7676L13.9672 11.5713L10.3417 13.3555C9.63975 13.7012 9.35044 14.5502 9.69582 15.2521C9.94261 15.7531 10.4451 16.044 10.9679 16.044C11.1782 16.044 11.3909 15.9972 11.5925 15.898L15.8569 13.7993L17.2668 11.8295L17.5014 16.3585C17.5014 16.3585 17.5167 16.3644 17.5433 16.375C17.5497 16.4548 17.5593 16.5351 17.5806 16.6154L18.0368 18.374L15.3116 21.4611L8.50902 29.6804C8.01021 30.2835 8.09473 31.1769 8.69748 31.6758C8.96152 31.8943 9.28163 32.0001 9.59969 32.0001C10.007 32.0001 10.4117 31.8257 10.6923 31.4869L17.4518 23.3181L18.8962 21.6813L19.0387 22.2344L19.8289 22.4513C22.0215 23.0543 24.6662 23.9244 25.4005 24.3429C25.6584 24.7077 26.0838 24.9423 26.5566 24.9423C26.589 24.9423 26.6221 24.9411 26.655 24.9391C27.4362 24.8854 28.0255 24.209 27.9716 23.4277C27.8908 22.245 26.8102 21.6834 23.8072 20.6943C22.8931 20.3928 21.9906 20.1227 21.3732 19.9439L21.159 19.1186L22.1044 18.047C23.0175 17.4726 24.6703 12.6078 24.9846 9.10464L26.972 10.1345C27.3533 11.2175 27.8042 13.0392 27.4548 13.9865C27.1836 14.7216 27.5601 15.5362 28.2941 15.8069Z" fill="black"/>
<path d="M4.56748 25.2675C6.21099 25.2675 7.54341 26.6001 7.54341 28.2434C7.54341 29.8866 6.21099 31.2193 4.56748 31.2193C2.92398 31.2193 1.59155 29.8866 1.59155 28.2434C1.59155 26.6001 2.92398 25.2675 4.56748 25.2675Z" fill="black"/>
</g>
<defs>
<clipPath id="clip0_193_7595">
<rect width="32" height="32" fill="white"/>
</clipPath>
</defs>
</svg>
