<svg width="18" height="18" viewBox="0 0 18 18" fill="none" xmlns="http://www.w3.org/2000/svg">
<path d="M2.25 7.81252C2.25 5.4143 2.25 4.21521 2.53314 3.81181C2.81627 3.4084 3.94374 3.02247 6.19868 2.25059L6.62829 2.10354C7.80375 1.70118 8.39145 1.5 9 1.5C9.60855 1.5 10.1963 1.70118 11.3717 2.10354L11.8013 2.25059C14.0563 3.02247 15.1837 3.4084 15.4669 3.81181C15.75 4.21521 15.75 5.4143 15.75 7.81252C15.75 8.1747 15.75 8.56755 15.75 8.99355C15.75 13.222 12.5708 15.2741 10.5761 16.1455C10.035 16.3818 9.76447 16.5 9 16.5C8.23553 16.5 7.965 16.3818 7.42392 16.1455C5.42922 15.2741 2.25 13.222 2.25 8.99355C2.25 8.56755 2.25 8.1747 2.25 7.81252Z" stroke="#09144C" stroke-width="0.6"/>
<path d="M8.14597 6.27251C8.52592 5.59084 8.71597 5.25 9 5.25C9.28402 5.25 9.47407 5.59084 9.85402 6.27251L9.95235 6.44887C10.0603 6.64258 10.1143 6.73943 10.1985 6.80334C10.2827 6.86725 10.3876 6.89097 10.5972 6.93841L10.7881 6.98161C11.5261 7.14857 11.895 7.23205 11.9827 7.51432C12.0706 7.79662 11.819 8.0907 11.316 8.679L11.1858 8.83118C11.0428 8.99835 10.9714 9.0819 10.9393 9.18532C10.9071 9.28875 10.9179 9.4002 10.9395 9.62325L10.9591 9.82635C11.0352 10.6111 11.0733 11.0036 10.8434 11.1781C10.6136 11.3525 10.2682 11.1934 9.57727 10.8754L9.39855 10.793C9.2022 10.7026 9.10402 10.6574 9 10.6574C8.89597 10.6574 8.7978 10.7026 8.60145 10.793L8.42272 10.8754C7.73182 11.1934 7.38635 11.3525 7.15654 11.1781C6.92674 11.0036 6.96476 10.6111 7.04082 9.82635L7.06049 9.62325C7.08211 9.4002 7.09291 9.28875 7.06076 9.18532C7.0286 9.0819 6.95713 8.99835 6.81418 8.83118L6.68403 8.679C6.18097 8.0907 5.92945 7.79662 6.01723 7.51432C6.10501 7.23205 6.47395 7.14857 7.21186 6.98161L7.40276 6.93841C7.61242 6.89097 7.71727 6.86725 7.8015 6.80334C7.88565 6.73943 7.93965 6.64258 8.04765 6.44887L8.14597 6.27251Z" stroke="#09144C" stroke-width="0.6"/>
</svg>
