<svg width="24" height="22" viewBox="0 0 24 22" fill="none" xmlns="http://www.w3.org/2000/svg">
<path d="M16.8001 0.980777C17.1396 0.980777 17.3848 1.15053 17.3848 1.15053L22.798 5.03591C23.0998 5.22452 23.1752 5.62061 22.9677 5.92239L20.9496 8.77041C20.8364 8.95902 20.629 9.05333 20.4215 9.05333C20.3083 9.05333 20.1763 9.01561 20.0631 8.94016L18.0827 7.31811L18.045 20.1814H6.03046V7.35583L3.91802 9.12877C3.80485 9.20422 3.69169 9.24194 3.55966 9.24194C3.35219 9.24194 3.14471 9.14763 3.03155 8.95902L1.03227 5.92239C0.84366 5.62061 0.919104 5.24339 1.20202 5.03591L6.80377 1.13167C6.80377 1.13167 7.25643 0.980777 7.89771 0.961916H8.4824V0.999638V1.03736C8.4824 2.73486 10.1988 4.30033 12.066 4.30033C13.9333 4.30033 15.6496 2.73486 15.6496 1.03736V0.999638V0.961916H16.7624H16.8001C16.7813 0.980777 16.8001 0.980777 16.8001 0.980777ZM16.8001 0.0377222H16.7624H15.6496C15.3856 0.0377222 15.1404 0.150889 14.9518 0.3395C14.782 0.528111 14.6877 0.792166 14.7066 1.05622V1.13167C14.65 2.28219 13.3674 3.37614 12.066 3.37614C10.7646 3.37614 9.48204 2.28219 9.42546 1.13167V1.05622C9.44432 0.792166 9.36888 0.528111 9.18027 0.3395C9.01052 0.150889 8.74646 0.0377222 8.4824 0.0377222H7.89771H7.87885C7.12441 0.0565833 6.57743 0.226333 6.50199 0.245194C6.40768 0.282917 6.33224 0.320639 6.2568 0.377222L0.692771 4.26261C-0.0239507 4.753 -0.212562 5.71491 0.258966 6.4505L2.2771 9.48713C2.57888 9.92094 3.06927 10.185 3.59738 10.185C3.89916 10.185 4.20094 10.0907 4.46499 9.92094C4.50271 9.90208 4.52157 9.88322 4.5593 9.86436L5.10627 9.39283V20.1814C5.10627 20.7095 5.52121 21.1244 6.04932 21.1244H18.0827C18.6108 21.1244 19.0258 20.7095 19.0258 20.1814L19.0446 9.29852L19.4784 9.65688C19.4973 9.67574 19.535 9.69461 19.5539 9.71347C19.8179 9.88322 20.1197 9.97752 20.4215 9.97752C20.9496 9.97752 21.44 9.71347 21.7229 9.27966L23.7222 6.4505L23.741 6.43164C24.2126 5.71491 24.0239 4.73414 23.3072 4.26261L18.0261 0.320639C18.0073 0.301778 17.9884 0.301778 17.9695 0.282916C17.913 0.245194 17.4791 0 16.9133 0L16.8001 0.0377222Z" fill="black"/>
</svg>
