<svg width="8" height="8" viewBox="0 0 8 8" fill="none" xmlns="http://www.w3.org/2000/svg">
<g clip-path="url(#clip0_331_14418)">
<path d="M8 0H0V8H8V0Z" fill="#FFCA28"/>
<path d="M3.86752 1.86164C3.9092 1.73329 4.09081 1.73329 4.13249 1.86164L4.53173 3.09032C4.55037 3.14772 4.60387 3.18658 4.66422 3.18658H5.95613C6.09107 3.18658 6.14719 3.35928 6.03802 3.43861L4.99282 4.19797C4.94401 4.23344 4.92359 4.29632 4.94223 4.35372L5.34144 5.58239C5.38315 5.71075 5.23626 5.81746 5.12706 5.73814L4.0819 4.97878C4.03305 4.94331 3.96696 4.94331 3.91812 4.97878L2.87295 5.73814C2.76377 5.81746 2.61686 5.71075 2.65857 5.58239L3.05779 4.35372C3.07644 4.29632 3.05601 4.23344 3.00718 4.19797L1.96201 3.43861C1.85282 3.35928 1.90894 3.18658 2.04389 3.18658H3.3358C3.39615 3.18658 3.44964 3.14772 3.46828 3.09032L3.86752 1.86164Z" fill="#09144C" stroke="#09144C" stroke-width="0.278623" stroke-linecap="round" stroke-linejoin="round"/>
</g>
<defs>
<clipPath id="clip0_331_14418">
<rect width="8" height="8" rx="4" fill="white"/>
</clipPath>
</defs>
</svg>
