<svg width="12" height="12" viewBox="0 0 12 12" fill="none" xmlns="http://www.w3.org/2000/svg">
<g clip-path="url(#clip0_331_14418)">
<path d="M12 0H0V12H12V0Z" fill="#FFCA28"/>
<path d="M5.80128 2.79247C5.8638 2.59994 6.13621 2.59994 6.19873 2.79247L6.79759 4.63548C6.82555 4.72158 6.90579 4.77988 6.99632 4.77988H8.93419C9.1366 4.77988 9.22077 5.03892 9.05702 5.15792L7.48923 6.29696C7.41601 6.35016 7.38537 6.44449 7.41333 6.53058L8.01215 8.37359C8.07471 8.56613 7.85438 8.7262 7.69059 8.60721L6.12283 7.46817C6.04957 7.41497 5.95044 7.41497 5.87717 7.46817L4.30941 8.60721C4.14564 8.7262 3.92529 8.56613 3.98784 8.37359L4.58668 6.53058C4.61465 6.44449 4.58401 6.35016 4.51077 6.29696L2.943 5.15792C2.77923 5.03892 2.8634 4.77988 3.06583 4.77988H5.00369C5.09422 4.77988 5.17446 4.72158 5.20242 4.63548L5.80128 2.79247Z" fill="#09144C" stroke="#09144C" stroke-width="0.417934" stroke-linecap="round" stroke-linejoin="round"/>
</g>
<defs>
<clipPath id="clip0_331_14418">
<rect width="12" height="12" rx="6" fill="white"/>
</clipPath>
</defs>
</svg>
