<svg width="18" height="18" viewBox="0 0 18 18" fill="none" xmlns="http://www.w3.org/2000/svg">
<path d="M3 7.5V4.5C3 3.67157 3.67157 3 4.5 3H13.5C14.3284 3 15 3.67157 15 4.5V7.5M3 7.5V11.25M3 7.5H6.75M15 7.5V11.25M15 7.5H11.25M3 11.25V13.5C3 14.3284 3.67157 15 4.5 15H6.75M3 11.25H6.75M6.75 7.5V11.25M6.75 7.5H11.25M15 11.25V13.5C15 14.3284 14.3284 15 13.5 15H11.25M15 11.25H11.25M11.25 7.5V11.25M6.75 15V11.25M6.75 15H11.25M6.75 11.25H11.25M11.25 15V11.25M7.5 5.25H10.5" stroke="#09144C" stroke-width="0.75" stroke-linecap="round" stroke-linejoin="round"/>
</svg>
