<svg width="59" height="64" viewBox="0 0 59 64" fill="none" xmlns="http://www.w3.org/2000/svg">
<path d="M28.1121 0H30.4449L31.8206 0.179439L33.3159 0.538318L34.3327 0.897196L35.529 1.43551L36.486 1.97383L37.3234 2.57196L37.9813 3.11028L39.1776 4.30654L39.7757 5.08411L40.3738 6.04112L40.9121 7.05794L41.3308 8.13458L41.6897 9.45047L41.8692 10.4075L41.9888 11.3645L42.1682 15.0729V18.0636L42.0486 19.5589L42.3477 20.2168L42.6467 21.2935L42.7664 22.1907V24.1645L42.5869 25.2411L42.2878 26.2579L41.8093 27.215L41.3308 27.8131L40.7327 28.2318L40.4336 28.3514H40.2542L40.015 29.3682L39.5963 30.7439L38.9383 32.4187L38.3402 33.6748L37.5626 34.9907L37.5028 35.0505L37.443 37.443L37.7421 37.5626L38.6393 38.1607L39.4168 38.6991L40.7327 39.5364L41.929 40.2542L43.4243 41.0916L45.0991 41.9888L47.2523 43.0654L48.628 43.7234L50.7813 44.8L52.157 45.5776L53.5925 46.5346L54.4299 47.1925L55.1477 47.8505L55.6262 48.329L56.2841 49.1664L56.8822 50.0636L57.3607 50.9607L57.8393 52.157L58.2579 53.5925L58.557 55.0879L58.7364 56.5832L58.8561 58.9159V59.9925L58.7364 62.6841L58.6766 63.6411L58.6168 64H0.239252L0.179439 63.6411L0.0598131 61.7271L0 60.0523V58.9159L0.0598131 57.3607L0.239252 55.5065L0.538318 53.8318L0.957009 52.3365L1.31589 51.3794L1.79439 50.4224L2.15327 49.7645L2.7514 48.9271L3.46916 48.0897L4.18692 47.372L5.0243 46.714L5.86168 46.1159L7.53645 45.0991L9.62991 44.0224L11.185 43.2449L12.5607 42.5869L14.3551 41.6897L15.671 40.972L17.1664 40.1346L18.4224 39.357L19.4393 38.6991L20.5757 37.9215L20.9346 37.6822V34.3925L20.2168 33.0766L19.4991 31.4019L18.9009 29.6075L18.6019 28.471V28.2916L18.3028 28.2318L17.7645 27.8729L17.286 27.3346L16.8075 26.4374L16.5084 25.5402L16.329 24.7626L16.2093 23.5664V22.7888L16.329 21.5925L16.5682 20.5757L16.8673 19.7981L16.9869 19.5589V19.1402L16.628 17.1065L16.3888 15.1925L16.2692 13.0393V12.3215L16.329 11.0056L16.5084 9.62991L16.8075 8.31402L17.2262 7.05794L17.7047 6.04112L18.3028 5.08411L18.9607 4.24673L20.0374 3.17009L20.815 2.57196L22.071 1.79439L23.3271 1.19626L24.5832 0.717757L25.8393 0.358879L27.0953 0.119626L28.1121 0Z" fill="#09144C"/>
<path d="M33.974 9.45044H34.4525L35.7085 9.7495L36.5459 10.1084L37.2637 10.5869L37.9814 11.2448L38.5796 12.0224L39.1179 13.0392L39.5366 14.2355L39.8357 15.3719L40.1347 17.0467L40.4936 19.9177L40.8525 22.6093L40.9123 22.9682L41.2114 22.3701L41.5702 21.2934L41.8095 20.456L41.9291 20.5159L42.2282 21.7719L42.288 22.3103V24.0448L42.1085 25.1813L41.6899 26.4374L41.1515 27.2747L40.6132 27.7532L40.0749 27.9327H39.8357L39.7758 28.3514L39.4768 29.4878L38.8786 31.2822L38.2805 32.7177L37.5628 34.0336L36.9048 35.1103L36.2469 35.9476L35.5291 36.785L34.9908 37.3233L34.1534 37.9813L33.5553 38.4L32.8375 38.8187L32.0001 39.1775L30.9235 39.4766L30.1459 39.5962H28.7104L27.6936 39.4168L26.7366 39.1177L25.4805 38.5196L24.7029 37.9813L24.1048 37.5028L23.3871 36.8448L22.6693 36.0673L21.9515 35.1103L21.174 33.8542L20.5758 32.7177L19.8581 30.9831L19.3198 29.3084L19.0207 28.1719V27.9327L18.4226 27.7532L17.9441 27.3345L17.5254 26.7962L17.1067 25.8392L16.8076 24.7028L16.688 23.028L16.8076 21.7121L17.0469 20.6953L17.1665 20.3364H17.2861L17.8244 22.7888L18.1235 24.1046V24.3439H18.2431L18.3029 23.686L18.602 21.6523L18.9609 18.9009L19.26 17.2261L19.6188 15.7906L20.0375 14.6542L20.5758 13.6972L21.1142 13.0392L21.6525 12.5607L22.2506 12.2018L22.9684 11.9028L23.9852 11.7233H25.3609L26.8562 11.9028L27.873 12.0822H28.0525L27.5142 11.4243L26.916 10.7663L26.1983 10.228L25.66 9.86913V9.80932L26.4973 9.86913L27.9328 10.1084L29.7272 10.5271L31.5216 11.1252L32.9571 11.7233L34.4525 12.4411L35.8282 13.2187L35.3497 12.2018L34.7515 11.0654L33.974 9.57007V9.45044Z" fill="white"/>
<path d="M21.4731 35.3496L21.6526 35.4094L22.1311 36.0674L22.6694 36.7253L23.0283 37.0842V37.2038L23.2077 37.2636V37.3833L23.447 37.5029L24.1049 38.101L24.9423 38.6991L25.8993 39.2375L27.1554 39.716L28.1722 39.9552L28.5909 40.015H30.2058L31.2825 39.8356L32.5386 39.4169L33.4956 38.9384L34.3329 38.4001L35.1703 37.7421L36.3666 36.5459L36.8451 35.9477H36.9647L37.0245 37.6823L37.7423 38.1608L37.8021 38.2805L37.0843 39.3571L36.4862 40.1347L35.9479 40.7926L35.29 41.5104L34.7516 42.1085L34.2731 42.587L33.7946 43.0057L33.1367 43.6038L32.4787 44.1421L31.5815 44.8599L30.7442 45.458L29.5479 46.2954L29.2488 46.2356L28.3516 45.6375L27.6339 45.0991L27.0358 44.6206L26.2582 43.9627L25.6601 43.4244L24.8825 42.7066L24.2844 42.1085L23.8657 41.63L23.1479 40.8524L22.6096 40.1945L21.832 39.2375L21.1143 38.2805L21.1741 38.101L21.4731 37.9814V35.3496Z" fill="white"/>
<path d="M41.3906 54.4299H42.7064L43.484 54.6692L44.142 55.0281L44.7401 55.5664L45.2186 56.2243L45.4578 56.7028L45.6373 57.3608V58.6767L45.3382 59.5739L44.9793 60.172L44.5008 60.7103L43.9027 61.129L43.3046 61.4281L42.5868 61.6075H41.5102L40.7924 61.4281L40.0747 61.0692L39.4167 60.5309L38.8784 59.8131L38.5793 59.1552L38.4597 58.6767L38.3999 57.9589L38.5195 57.1215L38.7588 56.4636L39.1177 55.8654L39.656 55.2673L40.2541 54.8486L40.9121 54.5496L41.3906 54.4299Z" fill="white"/>
<path d="M38.2208 38.5197L39.5367 39.357V39.5963L38.8189 40.4337L38.2806 41.0916L37.5628 41.8692L37.1441 42.3477L36.9049 42.6468H36.7852L36.6656 42.886L35.2899 44.2617L34.8114 44.6804L34.0338 45.3982L33.3759 45.9365L32.5983 46.5944L31.8208 47.1926L30.7441 47.9701L29.4881 48.8075L29.189 48.6879L27.7535 47.7309L26.7965 47.0131L26.1983 46.5346L25.4208 45.8767L24.9423 45.458L24.2245 44.8L22.3105 42.886L21.8918 42.4075L21.3535 41.8094L20.8152 41.1514L20.1572 40.3739L19.5591 39.5963L19.4395 39.2972L20.0376 38.8785L20.5161 38.5795L20.7553 38.6991L21.4731 39.5365L22.0114 40.1944L22.5497 40.7926L23.0881 41.4505L23.5067 41.8692L23.9254 42.3477L24.8824 43.3645L25.6002 44.0823L26.0787 44.501L26.9759 45.2785L28.0525 46.0561L28.9497 46.5944L29.3086 46.7739L29.6675 46.714L30.7441 46.1159L31.7609 45.3982L32.5983 44.7402L33.1965 44.2019L33.675 43.7832L34.4525 43.0654L35.1105 42.4075L35.5292 41.929L36.1871 41.2112L37.503 39.5365L38.2208 38.5197Z" fill="white"/>
<path d="M17.705 41.3308L18.1236 41.3906L18.4227 41.6897L18.4825 41.8093V42.1682L18.2433 42.5271L16.9872 43.2448L15.0732 44.2617L14.1162 44.7402L12.3816 45.6374L10.7068 46.4747L9.33112 47.2523L8.19468 47.9701L7.35729 48.5682L6.4601 49.3458L5.86197 49.9439L5.0844 50.9607L4.54608 51.9177L4.12739 52.8149L3.64888 54.2504L3.34982 55.686L3.17038 57.1215L3.11056 57.899V62.6841L2.93112 62.9831L2.75169 63.1028H2.21337L1.9143 62.8635L1.79468 62.3252L1.73486 60.9495V58.3177L1.85449 56.5233L2.09374 54.9084L2.45262 53.4131L2.87131 52.157L3.46944 50.9009L4.1872 49.8243L4.72552 49.1663L5.44327 48.3888L6.75916 47.3121L7.8358 46.5944L8.73299 46.056L10.4676 45.099L13.3386 43.6635L14.475 43.0654L15.9704 42.2878L17.3461 41.5102L17.705 41.3308Z" fill="white"/>
<path d="M40.9123 41.3308L41.331 41.3906L42.5871 42.1084L45.5179 43.6635L48.7479 45.2785L50.1236 46.056L51.3198 46.7738L52.1572 47.3719L52.7553 47.8504L53.5927 48.5682L54.3105 49.3458L54.9684 50.243L55.5067 51.1402L55.9852 52.157L56.5236 53.7719L56.8226 55.2074L57.0021 56.5233L57.1217 58.3775V60.9495L57.0619 62.3252L56.9422 62.8635L56.6432 63.1028L56.4039 63.1626L56.0451 63.043L55.8058 62.8037L55.746 62.6841V57.8392L55.5067 55.686L55.2077 54.2504L54.6694 52.6355L54.0712 51.4392L53.5927 50.7215L53.1142 50.1233L52.5759 49.5252L52.1572 49.1065L51.3198 48.4486L50.6619 47.9701L49.5254 47.2523L47.7908 46.2953L45.3983 45.099L42.1684 43.4243L40.7329 42.5869L40.4338 42.2878L40.374 42.1682V41.8093L40.5535 41.5102L40.9123 41.3308Z" fill="white"/>
<path d="M16.3888 54.2504L16.6879 54.37L18.4225 55.3868L19.6786 56.1046L19.7384 56.1644V59.8728L18.7216 60.4709L17.6449 61.0691L16.5683 61.727L16.2094 61.6672L15.4318 61.1887L14.2954 60.5307L13.2188 59.9326V56.1046L14.4748 55.3868L16.2094 54.37L16.3888 54.2504Z" fill="white"/>
<path d="M41.8098 44.7401L42.1687 44.8597L43.7238 45.6971L45.3388 46.5345L46.3556 47.0728L47.3126 47.5513L48.8079 48.3289L50.064 49.1065L50.7219 49.585L51.3201 50.0635L52.0378 50.7214L52.5762 51.3794L53.1743 52.2766L53.7126 53.413L54.0117 54.3102L54.3107 55.6261L54.4902 56.942L54.55 57.899V60.5906L54.4902 61.6074L54.3107 61.9065L54.0715 62.0859H53.593L53.2939 61.8467L53.1743 61.5476V57.6597L52.9948 56.1046L52.636 54.6093L52.2771 53.6523L51.7388 52.6354L51.2005 51.9177L50.5425 51.1999L49.7649 50.542L48.8677 49.9439L47.7313 49.2859L46.1163 48.4485L45.0995 47.9102L44.1425 47.4317L42.5276 46.5943L41.3911 45.9364L41.2117 45.6971L41.1519 45.3382L41.3313 44.9794L41.5705 44.7999L41.8098 44.7401Z" fill="white"/>
<path d="M16.9875 44.7401L17.4062 44.8597L17.6454 45.1588L17.7053 45.5177L17.5258 45.8766L16.7483 46.3551L15.0735 47.2523L13.937 47.8504L12.8006 48.3887L11.6641 48.9868L10.1688 49.8242L9.03236 50.6018L8.19498 51.3196L7.53704 52.0373L6.9389 52.9345L6.40059 54.071L6.04171 55.2672L5.86227 56.1046L5.68283 57.6597V61.5476L5.50339 61.9065L5.26414 62.0859H4.78563L4.48657 61.8467L4.36694 61.6074L4.30713 60.6504V57.899L4.42676 56.4037L4.72582 54.7289L5.26414 53.1139L5.86227 51.9775L6.34077 51.3196L7.05853 50.4822L7.71647 49.884L8.61367 49.2261L9.86975 48.4485L11.3053 47.671L12.5015 47.0728L13.638 46.4747L14.8342 45.8766L16.1501 45.1588L16.7483 44.7999L16.9875 44.7401Z" fill="white"/>
</svg>
