<svg width="64" height="64" viewBox="0 0 64 64" fill="none" xmlns="http://www.w3.org/2000/svg">
<g clip-path="url(#clip0_209_5323)">
<path d="M50.2507 32.8714L36.6368 21.4794C31.9517 17.6698 25.6502 14.0799 20.9772 19.3905C16.6292 24.3314 12.1441 30.1801 12.0812 30.2479C10.078 32.4052 9.98646 35.2934 11.8622 37.3048L0.643864 52.1666C-0.290509 53.4019 -0.210801 55.1682 0.901858 56.3136C2.1305 57.5777 4.15118 57.6071 5.41528 56.3788L18.1804 43.9774L22.2625 48.2873L15.0294 58.7113C14.137 59.9948 14.3006 61.7726 15.479 62.8673C16.7699 64.0667 18.7883 63.9925 19.9877 62.7016L31.2436 50.5873C32.5882 49.1436 32.691 46.8921 31.405 45.3252L31.1169 44.9745L24.24 36.5992L31.5275 27.7109L46.2125 38.1165C47.6075 39.0992 49.5568 38.87 50.6699 37.5371C51.8424 36.1333 51.6547 34.0443 50.2507 32.8714Z" fill="black"/>
<path d="M36.5544 17.7253C41.3718 17.7253 45.2772 13.82 45.2772 9.00248C45.2772 4.185 41.3718 0.279663 36.5544 0.279663C31.7369 0.279663 27.8315 4.185 27.8315 9.00248C27.8315 13.82 31.7369 17.7253 36.5544 17.7253Z" fill="black"/>
<path d="M59.0192 20.1515C58.269 19.9006 57.4908 19.7734 56.7062 19.7734C53.5657 19.7734 50.7865 21.7756 49.7905 24.7554C49.1725 26.603 49.3111 28.5805 50.1807 30.3237C51.0504 32.0667 52.5468 33.3669 54.3944 33.9844C55.1446 34.2352 55.923 34.3624 56.7078 34.3624H56.708C59.8482 34.3624 62.6272 32.3601 63.6231 29.3804C64.8981 25.5669 62.8328 21.4268 59.0192 20.1515ZM59.4954 31.7402C59.0243 32.0216 58.5096 32.2331 57.9664 32.3621C58.2339 31.2086 58.3264 29.5525 57.5506 27.6632C57.792 27.4008 58.2421 27.001 58.9644 26.6638C59.4635 27.5202 60.1071 29.2244 59.4954 31.7402ZM56.1933 28.2111C56.4191 28.7595 56.5559 29.282 56.6288 29.769C55.5771 29.6828 53.2409 29.0199 51.6513 25.07C51.8961 24.4494 52.2458 23.8919 52.6777 23.4151C53.0192 25.1196 53.9109 27.7002 56.1933 28.2111ZM56.4032 26.7544C55.8607 26.592 55.4351 26.2057 55.1021 25.7169C55.5139 25.1695 57.162 23.3513 60.7905 23.4786C61.0882 23.8184 61.342 24.1928 61.5465 24.5925C58.572 24.737 57.0203 26.0577 56.4032 26.7544ZM58.4315 21.9088C58.6082 21.9678 58.7798 22.0352 58.9462 22.1103C56.6207 22.4415 55.1823 23.508 54.423 24.2769C54.1827 23.549 54.0557 22.8272 53.9918 22.3552C54.7988 21.8899 55.7281 21.6266 56.7062 21.6266C57.2907 21.6264 57.8713 21.7214 58.4315 21.9088ZM51.8388 29.4965C51.5413 28.9003 51.3601 28.2672 51.2937 27.6235C53.1608 30.648 55.5026 31.1787 56.6712 31.2366C56.625 31.7373 56.5231 32.1643 56.4157 32.4976C55.9301 32.4712 55.4489 32.3831 54.9819 32.2269C53.6038 31.7666 52.4874 30.7969 51.8388 29.4965ZM61.8659 28.7933C61.7051 29.2746 61.4785 29.7192 61.2037 30.1244C61.2754 28.3835 60.827 27.0687 60.3785 26.2054C60.8641 26.1066 61.4189 26.0468 62.0468 26.0443C62.2189 26.9327 62.1727 27.8755 61.8659 28.7933Z" fill="black"/>
</g>
<defs>
<clipPath id="clip0_209_5323">
<rect width="64" height="64" fill="white"/>
</clipPath>
</defs>
</svg>
