<svg width="750" height="500" viewBox="0 0 750 500" fill="none" xmlns="http://www.w3.org/2000/svg">
<g clip-path="url(#clip0_213_5323)">
<path d="M750 0H0V500H750V0Z" fill="#74ACDF"/>
<path d="M750 166.67H0V333.34H750V166.67Z" fill="white"/>
<path d="M372.053 251.523L400.507 313.515C400.507 313.515 400.996 314.7 401.787 314.373C402.577 314.046 402.085 312.862 402.085 312.862L378.37 248.906M377.69 273.026C377.344 282.453 383.143 287.639 382.385 296.058C381.628 304.478 386.252 309.238 387.324 312.512C388.398 315.786 386.164 317.744 387.126 318.21C388.09 318.676 390.196 316.089 389.51 311.434C388.823 306.779 385.289 305.397 386.12 295.114C386.95 284.831 381.914 282.436 383.14 273.056" fill="#F6B40E"/>
<path d="M372.053 251.523L400.507 313.515C400.507 313.515 400.996 314.7 401.787 314.373C402.577 314.046 402.085 312.862 402.085 312.862L378.37 248.906M377.69 273.026C377.344 282.453 383.143 287.639 382.385 296.058C381.628 304.478 386.252 309.238 387.324 312.512C388.398 315.786 386.164 317.744 387.126 318.21C388.09 318.676 390.196 316.089 389.51 311.434C388.823 306.779 385.289 305.397 386.12 295.114C386.95 284.831 381.914 282.436 383.14 273.056" stroke="#85340A" stroke-width="1.1116"/>
<path d="M371.792 250.214L374.357 318.376C374.357 318.376 374.355 319.658 375.211 319.659C376.066 319.659 376.065 318.376 376.065 318.376L378.63 250.213M368.772 272.237C364.844 280.815 368.217 287.824 364.295 295.312C360.373 302.802 362.824 308.969 362.562 312.404C362.3 315.84 359.488 316.794 360.198 317.593C360.91 318.392 363.846 316.808 364.993 312.245C366.14 307.682 363.404 305.053 368.106 295.87C372.808 286.688 369.072 282.548 373.794 274.351" fill="#F6B40E"/>
<path d="M371.792 250.214L374.357 318.376C374.357 318.376 374.355 319.658 375.211 319.659C376.066 319.659 376.065 318.376 376.065 318.376L378.63 250.213M368.772 272.237C364.844 280.815 368.217 287.824 364.295 295.312C360.373 302.802 362.824 308.969 362.562 312.404C362.3 315.84 359.488 316.794 360.198 317.593C360.91 318.392 363.846 316.808 364.993 312.245C366.14 307.682 363.404 305.053 368.106 295.87C372.808 286.688 369.072 282.548 373.794 274.351" stroke="#85340A" stroke-width="1.1116"/>
<path d="M372.052 248.904L348.337 312.859C348.337 312.859 347.845 314.044 348.635 314.372C349.425 314.699 349.915 313.514 349.915 313.514L378.37 251.521M360.833 268.096C353.922 274.517 354.356 282.284 347.867 287.701C341.378 293.12 341.282 299.756 339.725 302.829C338.168 305.903 335.205 305.708 335.556 306.718C335.907 307.729 339.226 307.389 342.032 303.612C344.838 299.835 343.316 296.359 351.175 289.675C359.033 282.991 357.165 277.737 364.665 271.971" fill="#F6B40E"/>
<path d="M372.052 248.904L348.337 312.859C348.337 312.859 347.845 314.044 348.635 314.372C349.425 314.699 349.915 313.514 349.915 313.514L378.37 251.521M360.833 268.096C353.922 274.517 354.356 282.284 347.867 287.701C341.378 293.12 341.282 299.756 339.725 302.829C338.168 305.903 335.205 305.708 335.556 306.718C335.907 307.729 339.226 307.389 342.032 303.612C344.838 299.835 343.316 296.359 351.175 289.675C359.033 282.991 357.165 277.737 364.665 271.971" stroke="#85340A" stroke-width="1.1116"/>
<path d="M372.793 247.794L326.409 297.806C326.409 297.806 325.501 298.712 326.105 299.317C326.71 299.922 327.616 299.015 327.616 299.015L377.629 252.63M355.084 261.232C346.242 264.52 343.67 271.862 335.602 274.383C327.533 276.906 324.905 283 322.291 285.243C319.676 287.488 317.013 286.174 316.951 287.241C316.888 288.309 320.085 289.266 324.122 286.85C328.16 284.434 328.085 280.64 337.903 277.473C347.721 274.304 348.006 268.735 357.141 266.278" fill="#F6B40E"/>
<path d="M372.793 247.794L326.409 297.806C326.409 297.806 325.501 298.712 326.105 299.317C326.71 299.922 327.616 299.015 327.616 299.015L377.629 252.63M355.084 261.232C346.242 264.52 343.67 271.862 335.602 274.383C327.533 276.906 324.905 283 322.291 285.243C319.676 287.488 317.013 286.174 316.951 287.241C316.888 288.309 320.085 289.266 324.122 286.85C328.16 284.434 328.085 280.64 337.903 277.473C347.721 274.304 348.006 268.735 357.141 266.278" stroke="#85340A" stroke-width="1.1116"/>
<path d="M379.523 274.623C379.976 283.676 385.109 287.686 384.101 295.937C386.315 289.412 380.978 284.354 381.281 274.717M373.633 250.96L393.12 293.537L376.791 249.65" fill="#85340A"/>
<path d="M369.853 274.414C366.807 282.952 370.016 288.62 365.927 295.858C370.469 290.676 367.474 283.961 371.442 275.174M373.467 250.298L375.177 297.091L376.886 250.296" fill="#85340A"/>
<path d="M361 270.521C354.918 277.243 355.713 283.708 349.166 288.83C355.345 285.781 355.148 278.431 362.177 271.831M373.567 249.624L357.24 293.509L376.726 250.93" fill="#85340A"/>
<path d="M354.31 263.536C346.119 267.419 344.379 273.696 336.371 275.922C343.246 275.47 345.877 268.604 354.896 265.197M373.918 249.039L342.039 283.336L376.337 251.455" fill="#85340A"/>
<path d="M373.902 247.052L311.91 275.507C311.91 275.507 310.725 275.996 311.052 276.786C311.379 277.577 312.564 277.085 312.564 277.085L376.52 253.37M352.4 252.69C342.972 252.344 337.786 258.143 329.367 257.385C320.947 256.628 316.187 261.252 312.913 262.324C309.639 263.397 307.681 261.164 307.215 262.126C306.749 263.09 309.336 265.196 313.991 264.509C318.646 263.823 320.028 260.289 330.311 261.12C340.594 261.95 342.989 256.914 352.369 258.14" fill="#F6B40E"/>
<path d="M373.902 247.052L311.91 275.507C311.91 275.507 310.725 275.996 311.052 276.786C311.379 277.577 312.564 277.085 312.564 277.085L376.52 253.37M352.4 252.69C342.972 252.344 337.786 258.143 329.367 257.385C320.947 256.628 316.187 261.252 312.913 262.324C309.639 263.397 307.681 261.164 307.215 262.126C306.749 263.09 309.336 265.196 313.991 264.509C318.646 263.823 320.028 260.289 330.311 261.12C340.594 261.95 342.989 256.914 352.369 258.14" stroke="#85340A" stroke-width="1.1116"/>
<path d="M375.211 246.792L307.049 249.356C307.049 249.356 305.767 249.355 305.766 250.21C305.766 251.066 307.049 251.065 307.049 251.065L375.212 253.63M353.188 243.772C344.61 239.844 337.601 243.217 330.113 239.295C322.623 235.373 316.456 237.824 313.021 237.561C309.585 237.3 308.631 234.487 307.832 235.198C307.033 235.91 308.617 238.846 313.18 239.993C317.743 241.14 320.372 238.404 329.555 243.106C338.737 247.808 342.877 244.072 351.074 248.794" fill="#F6B40E"/>
<path d="M375.211 246.792L307.049 249.356C307.049 249.356 305.767 249.355 305.766 250.21C305.766 251.066 307.049 251.065 307.049 251.065L375.212 253.63M353.188 243.772C344.61 239.844 337.601 243.217 330.113 239.295C322.623 235.373 316.456 237.824 313.021 237.561C309.585 237.3 308.631 234.487 307.832 235.198C307.033 235.91 308.617 238.846 313.18 239.993C317.743 241.14 320.372 238.404 329.555 243.106C338.737 247.808 342.877 244.072 351.074 248.794" stroke="#85340A" stroke-width="1.1116"/>
<path d="M376.521 247.052L312.566 223.337C312.566 223.337 311.382 222.845 311.053 223.635C310.726 224.425 311.911 224.915 311.911 224.915L373.904 253.37M357.329 235.833C350.908 228.922 343.141 229.356 337.724 222.867C332.305 216.378 325.669 216.282 322.596 214.725C319.522 213.168 319.717 210.205 318.707 210.555C317.696 210.907 318.036 214.226 321.813 217.032C325.59 219.838 329.066 218.316 335.75 226.175C342.434 234.033 347.689 232.165 353.454 239.665" fill="#F6B40E"/>
<path d="M376.521 247.052L312.566 223.337C312.566 223.337 311.382 222.845 311.053 223.635C310.726 224.425 311.911 224.915 311.911 224.915L373.904 253.37M357.329 235.833C350.908 228.922 343.141 229.356 337.724 222.867C332.305 216.378 325.669 216.282 322.596 214.725C319.522 213.168 319.717 210.205 318.707 210.555C317.696 210.907 318.036 214.226 321.813 217.032C325.59 219.838 329.066 218.316 335.75 226.175C342.434 234.033 347.689 232.165 353.454 239.665" stroke="#85340A" stroke-width="1.1116"/>
<path d="M377.631 247.793L327.619 201.409C327.619 201.409 326.713 200.501 326.108 201.105C325.503 201.709 326.411 202.616 326.411 202.616L372.795 252.628M364.193 230.084C360.905 221.242 353.563 218.67 351.042 210.602C348.519 202.533 342.426 199.905 340.182 197.291C337.937 194.676 339.251 192.013 338.184 191.95C337.116 191.888 336.16 195.085 338.575 199.122C340.991 203.16 344.785 203.085 347.952 212.903C351.121 222.721 356.69 223.006 359.147 232.141" fill="#F6B40E"/>
<path d="M377.631 247.793L327.619 201.409C327.619 201.409 326.713 200.501 326.108 201.105C325.503 201.709 326.411 202.616 326.411 202.616L372.795 252.628M364.193 230.084C360.905 221.242 353.563 218.67 351.042 210.602C348.519 202.533 342.426 199.905 340.182 197.291C337.937 194.676 339.251 192.013 338.184 191.95C337.116 191.888 336.16 195.085 338.575 199.122C340.991 203.16 344.785 203.085 347.952 212.903C351.121 222.721 356.69 223.006 359.147 232.141" stroke="#85340A" stroke-width="1.1116"/>
<path d="M350.803 254.522C341.749 254.976 337.74 260.109 329.489 259.101C336.013 261.314 341.072 255.978 350.709 256.281M374.466 248.633L331.889 268.12L375.776 251.79" fill="#85340A"/>
<path d="M351.011 244.853C342.473 241.807 336.805 245.016 329.567 240.927C334.749 245.469 341.464 242.474 350.251 246.442M375.127 248.467L328.334 250.177L375.129 251.886" fill="#85340A"/>
<path d="M354.904 236C348.182 229.918 341.717 230.713 336.595 224.166C339.644 230.345 346.994 230.148 353.594 237.177M375.802 248.567L331.916 232.24L374.495 251.726" fill="#85340A"/>
<path d="M361.889 229.31C358.006 221.119 351.729 219.379 349.503 211.371C349.955 218.246 356.821 220.877 360.228 229.896M376.386 248.918L342.089 217.039L373.97 251.337" fill="#85340A"/>
<path d="M378.372 248.903L349.918 186.911C349.918 186.911 349.429 185.726 348.638 186.052C347.848 186.379 348.34 187.564 348.34 187.564L372.055 251.52M372.735 227.4C373.081 217.972 367.282 212.787 368.04 204.368C368.797 195.948 364.173 191.188 363.101 187.914C362.027 184.639 364.261 182.681 363.299 182.215C362.335 181.749 360.229 184.336 360.915 188.991C361.602 193.646 365.136 195.028 364.305 205.311C363.475 215.594 368.511 217.989 367.285 227.369" fill="#F6B40E"/>
<path d="M378.372 248.903L349.918 186.911C349.918 186.911 349.429 185.726 348.638 186.052C347.848 186.379 348.34 187.564 348.34 187.564L372.055 251.52M372.735 227.4C373.081 217.972 367.282 212.787 368.04 204.368C368.797 195.948 364.173 191.188 363.101 187.914C362.027 184.639 364.261 182.681 363.299 182.215C362.335 181.749 360.229 184.336 360.915 188.991C361.602 193.646 365.136 195.028 364.305 205.311C363.475 215.594 368.511 217.989 367.285 227.369" stroke="#85340A" stroke-width="1.1116"/>
<path d="M378.633 250.212L376.068 182.049C376.068 182.049 376.07 180.767 375.215 180.766C374.359 180.766 374.36 182.049 374.36 182.049L371.795 250.212M381.653 228.188C385.581 219.61 382.208 212.601 386.13 205.113C390.052 197.623 387.601 191.456 387.864 188.021C388.125 184.585 390.938 183.631 390.227 182.832C389.515 182.033 386.579 183.617 385.432 188.18C384.285 192.743 387.021 195.372 382.319 204.555C377.617 213.737 381.353 217.877 376.631 226.074" fill="#F6B40E"/>
<path d="M378.633 250.212L376.068 182.049C376.068 182.049 376.07 180.767 375.215 180.766C374.359 180.766 374.36 182.049 374.36 182.049L371.795 250.212M381.653 228.188C385.581 219.61 382.208 212.601 386.13 205.113C390.052 197.623 387.601 191.456 387.864 188.021C388.125 184.585 390.938 183.631 390.227 182.832C389.515 182.033 386.579 183.617 385.432 188.18C384.285 192.743 387.021 195.372 382.319 204.555C377.617 213.737 381.353 217.877 376.631 226.074" stroke="#85340A" stroke-width="1.1116"/>
<path d="M378.373 251.521L402.088 187.566C402.088 187.566 402.58 186.382 401.79 186.053C401 185.726 400.51 186.911 400.51 186.911L372.055 248.904M389.592 232.329C396.503 225.908 396.069 218.141 402.558 212.724C409.047 207.305 409.143 200.669 410.7 197.596C412.257 194.522 415.22 194.717 414.87 193.707C414.518 192.696 411.199 193.036 408.393 196.813C405.587 200.59 407.109 204.066 399.25 210.75C391.392 217.434 393.26 222.689 385.76 228.454" fill="#F6B40E"/>
<path d="M378.373 251.521L402.088 187.566C402.088 187.566 402.58 186.382 401.79 186.053C401 185.726 400.51 186.911 400.51 186.911L372.055 248.904M389.592 232.329C396.503 225.908 396.069 218.141 402.558 212.724C409.047 207.305 409.143 200.669 410.7 197.596C412.257 194.522 415.22 194.717 414.87 193.707C414.518 192.696 411.199 193.036 408.393 196.813C405.587 200.59 407.109 204.066 399.25 210.75C391.392 217.434 393.26 222.689 385.76 228.454" stroke="#85340A" stroke-width="1.1116"/>
<path d="M377.632 252.631L424.016 202.619C424.016 202.619 424.924 201.713 424.32 201.108C423.716 200.503 422.809 201.411 422.809 201.411L372.797 247.795M395.341 239.193C404.183 235.905 406.755 228.563 414.823 226.042C422.892 223.519 425.52 217.426 428.134 215.182C430.749 212.937 433.412 214.251 433.475 213.184C433.537 212.116 430.34 211.16 426.303 213.575C422.265 215.991 422.34 219.785 412.522 222.952C402.704 226.121 402.419 231.69 393.284 234.147" fill="#F6B40E"/>
<path d="M377.632 252.631L424.016 202.619C424.016 202.619 424.924 201.713 424.32 201.108C423.716 200.503 422.809 201.411 422.809 201.411L372.797 247.795M395.341 239.193C404.183 235.905 406.755 228.563 414.823 226.042C422.892 223.519 425.52 217.426 428.134 215.182C430.749 212.937 433.412 214.251 433.475 213.184C433.537 212.116 430.34 211.16 426.303 213.575C422.265 215.991 422.34 219.785 412.522 222.952C402.704 226.121 402.419 231.69 393.284 234.147" stroke="#85340A" stroke-width="1.1116"/>
<path d="M370.902 225.803C370.449 216.749 365.316 212.74 366.324 204.489C364.11 211.013 369.447 216.072 369.144 225.709M376.792 249.466L357.305 206.889L373.634 250.776" fill="#85340A"/>
<path d="M380.572 226.011C383.618 217.473 380.409 211.805 384.498 204.567C379.956 209.749 382.951 216.464 378.983 225.251M376.958 250.127L375.248 203.334L373.539 250.129" fill="#85340A"/>
<path d="M389.425 229.904C395.507 223.182 394.712 216.717 401.259 211.596C395.08 214.644 395.277 221.994 388.248 228.594M376.858 250.802L393.185 206.916L373.699 249.495" fill="#85340A"/>
<path d="M396.115 236.889C404.306 233.006 406.046 226.729 414.054 224.503C407.179 224.955 404.548 231.821 395.529 235.229M376.507 251.386L408.386 217.089L374.088 248.97" fill="#85340A"/>
<path d="M376.522 253.373L438.514 224.919C438.514 224.919 439.7 224.429 439.373 223.639C439.046 222.848 437.861 223.34 437.861 223.34L373.905 247.055M398.025 247.735C407.453 248.081 412.638 242.282 421.057 243.04C429.477 243.797 434.238 239.173 437.512 238.101C440.786 237.028 442.744 239.261 443.21 238.299C443.676 237.335 441.089 235.229 436.434 235.916C431.779 236.602 430.397 240.136 420.114 239.305C409.831 238.475 407.436 243.511 398.056 242.285" fill="#F6B40E"/>
<path d="M376.522 253.373L438.514 224.919C438.514 224.919 439.7 224.429 439.373 223.639C439.046 222.848 437.861 223.34 437.861 223.34L373.905 247.055M398.025 247.735C407.453 248.081 412.638 242.282 421.057 243.04C429.477 243.797 434.238 239.173 437.512 238.101C440.786 237.028 442.744 239.261 443.21 238.299C443.676 237.335 441.089 235.229 436.434 235.916C431.779 236.602 430.397 240.136 420.114 239.305C409.831 238.475 407.436 243.511 398.056 242.285" stroke="#85340A" stroke-width="1.1116"/>
<path d="M375.214 253.633L443.376 251.069C443.376 251.069 444.658 251.07 444.659 250.215C444.659 249.359 443.376 249.36 443.376 249.36L375.213 246.795M397.237 256.653C405.815 260.581 412.824 257.208 420.312 261.13C427.802 265.052 433.969 262.601 437.404 262.864C440.84 263.125 441.794 265.938 442.593 265.227C443.392 264.515 441.808 261.579 437.245 260.432C432.682 259.285 430.053 262.021 420.87 257.319C411.688 252.617 407.548 256.353 399.351 251.631" fill="#F6B40E"/>
<path d="M375.214 253.633L443.376 251.069C443.376 251.069 444.658 251.07 444.659 250.215C444.659 249.359 443.376 249.36 443.376 249.36L375.213 246.795M397.237 256.653C405.815 260.581 412.824 257.208 420.312 261.13C427.802 265.052 433.969 262.601 437.404 262.864C440.84 263.125 441.794 265.938 442.593 265.227C443.392 264.515 441.808 261.579 437.245 260.432C432.682 259.285 430.053 262.021 420.87 257.319C411.688 252.617 407.548 256.353 399.351 251.631" stroke="#85340A" stroke-width="1.1116"/>
<path d="M373.904 253.373L437.859 277.088C437.859 277.088 439.043 277.58 439.372 276.79C439.699 276.001 438.514 275.51 438.514 275.51L376.521 247.055M393.096 264.592C399.517 271.503 407.284 271.069 412.701 277.558C418.12 284.047 424.756 284.143 427.829 285.7C430.903 287.257 430.708 290.22 431.718 289.87C432.729 289.518 432.389 286.199 428.612 283.393C424.835 280.587 421.359 282.109 414.675 274.25C407.991 266.392 402.736 268.26 396.971 260.76" fill="#F6B40E"/>
<path d="M373.904 253.373L437.859 277.088C437.859 277.088 439.043 277.58 439.372 276.79C439.699 276.001 438.514 275.51 438.514 275.51L376.521 247.055M393.096 264.592C399.517 271.503 407.284 271.069 412.701 277.558C418.12 284.047 424.756 284.143 427.829 285.7C430.903 287.257 430.708 290.22 431.718 289.87C432.729 289.518 432.389 286.199 428.612 283.393C424.835 280.587 421.359 282.109 414.675 274.25C407.991 266.392 402.736 268.26 396.971 260.76" stroke="#85340A" stroke-width="1.1116"/>
<path d="M372.794 252.632L422.806 299.016C422.806 299.016 423.712 299.924 424.317 299.32C424.922 298.716 424.014 297.809 424.014 297.809L377.63 247.797M386.232 270.341C389.52 279.184 396.862 281.755 399.383 289.823C401.906 297.892 407.999 300.52 410.243 303.134C412.488 305.749 411.174 308.412 412.241 308.475C413.309 308.537 414.265 305.34 411.85 301.303C409.434 297.265 405.64 297.341 402.473 287.522C399.304 277.704 393.735 277.419 391.278 268.284" fill="#F6B40E"/>
<path d="M372.794 252.632L422.806 299.016C422.806 299.016 423.712 299.924 424.317 299.32C424.922 298.716 424.014 297.809 424.014 297.809L377.63 247.797M386.232 270.341C389.52 279.184 396.862 281.755 399.383 289.823C401.906 297.892 407.999 300.52 410.243 303.134C412.488 305.749 411.174 308.412 412.241 308.475C413.309 308.537 414.265 305.34 411.85 301.303C409.434 297.265 405.64 297.341 402.473 287.522C399.304 277.704 393.735 277.419 391.278 268.284" stroke="#85340A" stroke-width="1.1116"/>
<path d="M399.622 245.903C408.676 245.449 412.685 240.316 420.936 241.324C414.412 239.111 409.353 244.447 399.716 244.144M375.959 251.793L418.536 232.306L374.649 248.635" fill="#85340A"/>
<path d="M399.414 255.572C407.952 258.618 413.62 255.409 420.858 259.498C415.676 254.956 408.961 257.951 400.174 253.983M375.298 251.958L422.091 250.248L375.296 248.539" fill="#85340A"/>
<path d="M395.521 264.425C402.243 270.507 408.708 269.712 413.83 276.259C410.781 270.08 403.431 270.277 396.831 263.248M374.623 251.858L418.509 268.185L375.93 248.699" fill="#85340A"/>
<path d="M388.536 271.115C392.419 279.306 398.696 281.046 400.922 289.054C400.47 282.179 393.604 279.548 390.197 270.529M374.039 251.507L408.336 283.386L376.455 249.088" fill="#85340A"/>
<path d="M375.212 277.991C390.554 277.991 402.991 265.554 402.991 250.213C402.991 234.871 390.554 222.435 375.212 222.435C359.871 222.435 347.434 234.871 347.434 250.213C347.434 265.554 359.871 277.991 375.212 277.991Z" fill="#F6B40E" stroke="#85340A" stroke-width="1.5"/>
<path d="M384.682 244.273C382.786 244.273 380.969 245.094 379.901 246.804C382.038 248.726 386.758 248.936 389.963 246.585C388.575 245.09 386.579 244.273 384.682 244.273ZM384.651 244.71C386.498 244.677 388.223 245.524 388.464 246.366C386.327 248.717 382.913 248.513 380.776 246.804C381.711 245.308 383.215 244.736 384.651 244.71Z" fill="#843511"/>
<path d="M385.042 242.953C382.266 242.953 381.624 243.594 380.342 244.663C379.058 245.731 378.418 245.517 378.205 245.731C377.993 245.945 378.205 246.585 378.632 246.371C379.058 246.157 379.915 245.731 381.195 244.662C382.478 243.593 383.758 243.594 385.041 243.594C388.888 243.594 391.024 246.798 391.451 246.585C391.877 246.37 389.314 242.952 385.041 242.952L385.042 242.953Z" fill="#85340A"/>
<path d="M392.732 244.233C387.818 239.96 381.622 239.318 378.202 242.524C377.365 243.645 376.829 244.843 376.609 246.094C376.179 248.527 376.939 251.155 378.846 253.849C378.631 253.848 378.202 254.062 377.989 254.276C376.292 251.032 375.692 247.7 376.249 244.531C376.395 243.703 376.622 242.888 376.919 242.095C381.619 238.25 388.029 237.822 392.73 244.233L392.732 244.233Z" fill="#85340A"/>
<path d="M384.615 248.286C385.677 248.286 386.538 247.425 386.538 246.363C386.538 245.3 385.677 244.44 384.615 244.44C383.552 244.44 382.691 245.3 382.691 246.363C382.691 247.425 383.552 248.286 384.615 248.286Z" fill="#85340A"/>
<path d="M390.172 247.653C386.54 250.431 382.907 250.217 380.771 248.935C378.634 247.653 378.634 247.226 379.061 247.226C379.487 247.226 379.914 247.653 381.624 248.507C383.334 249.363 385.897 249.363 390.17 247.653L390.172 247.653Z" fill="#85340A"/>
<path d="M370.962 254.053C370.049 254.219 369.4 255.03 369.4 255.959C369.4 257.02 370.277 257.865 371.337 257.865C371.964 257.865 372.54 257.568 372.9 257.052C373.64 257.609 374.665 257.668 375.212 257.677C375.297 257.679 375.406 257.677 375.462 257.677C376.01 257.667 377.035 257.609 377.775 257.052C378.135 257.568 378.711 257.865 379.337 257.865C380.397 257.865 381.275 257.02 381.275 255.959C381.275 255.03 380.626 254.219 379.712 254.053C380.225 254.233 380.556 254.729 380.556 255.271C380.556 255.979 379.985 256.553 379.275 256.553C378.595 256.553 378.034 256.012 377.994 255.334C377.785 255.75 376.96 256.989 375.338 257.053C373.715 256.989 372.89 255.75 372.681 255.334C372.641 256.012 372.081 256.553 371.4 256.553C370.69 256.553 370.119 255.979 370.119 255.271C370.119 254.729 370.449 254.234 370.962 254.053Z" fill="#85340A"/>
<path d="M373.052 259.743C370.914 259.743 370.07 261.679 368.146 262.961C369.215 262.535 370.056 261.692 371.552 260.836C373.048 259.982 374.324 261.024 375.177 261.024H375.209C376.062 261.024 377.338 259.982 378.834 260.836C380.33 261.692 381.202 262.535 382.271 262.961C380.348 261.679 379.472 259.743 377.334 259.743C376.907 259.743 376.062 259.973 375.209 260.399H375.177C374.324 259.972 373.479 259.743 373.052 259.743Z" fill="#85340A"/>
<path d="M372.332 262.273C371.489 262.31 370.373 262.479 368.77 262.96C372.617 262.106 373.466 263.398 375.176 263.398H375.207C376.917 263.398 377.766 262.106 381.614 262.96C377.339 261.678 376.489 262.523 375.207 262.523H375.176C374.375 262.523 373.739 262.21 372.332 262.273Z" fill="#85340A"/>
<path d="M368.962 262.933C368.714 262.936 368.444 262.938 368.15 262.964C372.638 263.391 370.481 265.964 375.181 265.964H375.212C379.913 265.964 377.787 263.391 382.275 262.964C377.574 262.537 379.06 265.308 375.212 265.308H375.181C371.574 265.308 372.685 262.886 368.962 262.933Z" fill="#85340A"/>
<path d="M379.062 269.873C379.062 267.749 377.339 266.026 375.216 266.026C373.093 266.026 371.37 267.749 371.37 269.873C371.793 268.092 373.386 266.833 375.216 266.833C377.049 266.833 378.64 268.092 379.062 269.873Z" fill="#85340A"/>
<path d="M357.943 244.233C362.857 239.96 369.053 239.318 372.473 242.524C373.31 243.645 373.846 244.843 374.066 246.094C374.496 248.527 373.736 251.155 371.829 253.849C372.044 253.848 372.473 254.062 372.686 254.276C374.383 251.032 374.983 247.7 374.426 244.531C374.28 243.703 374.053 242.888 373.756 242.095C369.056 238.25 362.646 237.822 357.945 244.233L357.943 244.233Z" fill="#85340A"/>
<path d="M365.633 242.953C368.409 242.953 369.051 243.594 370.333 244.663C371.617 245.731 372.256 245.517 372.47 245.731C372.682 245.945 372.47 246.585 372.043 246.371C371.617 246.157 370.76 245.731 369.48 244.662C368.197 243.593 366.917 243.594 365.634 243.594C361.787 243.594 359.651 246.798 359.224 246.585C358.798 246.37 361.361 242.952 365.634 242.952L365.633 242.953Z" fill="#85340A"/>
<path d="M365.501 244.273C363.605 244.273 361.788 245.094 360.72 246.804C362.857 248.726 367.577 248.936 370.782 246.585C369.394 245.09 367.398 244.273 365.501 244.273ZM365.47 244.71C367.317 244.677 369.042 245.524 369.283 246.366C367.146 248.717 363.732 248.513 361.595 246.804C362.53 245.308 364.034 244.736 365.47 244.71Z" fill="#843511"/>
<path d="M365.753 248.286C366.815 248.286 367.676 247.425 367.676 246.363C367.676 245.3 366.815 244.44 365.753 244.44C364.69 244.44 363.829 245.3 363.829 246.363C363.829 247.425 364.69 248.286 365.753 248.286Z" fill="#85340A"/>
<path d="M360.503 247.653C364.135 250.431 367.768 250.217 369.904 248.935C372.041 247.653 372.041 247.226 371.614 247.226C371.188 247.226 370.761 247.653 369.051 248.507C367.341 249.363 364.778 249.363 360.505 247.653L360.503 247.653Z" fill="#85340A"/>
</g>
<defs>
<clipPath id="clip0_213_5323">
<rect width="750" height="500" fill="white"/>
</clipPath>
</defs>
</svg>
