<svg width="750" height="500" viewBox="0 0 750 500" fill="none" xmlns="http://www.w3.org/2000/svg">
<g clip-path="url(#clip0_213_6151)">
<path d="M0.142883 0H750.143V500H0.142883V0Z" fill="#009440"/>
<path d="M78.1429 250.286L374.571 439.571L671 250.286L374.571 61L78.1429 250.286Z" fill="#FFCB00"/>
<path d="M374.571 375.286C443.607 375.286 499.571 319.321 499.571 250.286C499.571 181.25 443.607 125.286 374.571 125.286C305.536 125.286 249.571 181.25 249.571 250.286C249.571 319.321 305.536 375.286 374.571 375.286Z" fill="#302681"/>
<mask id="mask0_213_6151" style="mask-type:luminance" maskUnits="userSpaceOnUse" x="249" y="125" width="251" height="251">
<path d="M374.571 375.286C443.607 375.286 499.571 319.321 499.571 250.286C499.571 181.25 443.607 125.286 374.571 125.286C305.536 125.286 249.571 181.25 249.571 250.286C249.571 319.321 305.536 375.286 374.571 375.286Z" fill="white"/>
</mask>
<g mask="url(#mask0_213_6151)">
<path d="M-0.428528 500.286C-0.428527 419.774 31.5548 342.559 88.4855 285.628C145.416 228.698 222.631 196.714 303.143 196.714C383.655 196.714 460.87 228.698 517.8 285.628C574.731 342.559 606.714 419.774 606.714 500.286H588.857C588.857 424.51 558.755 351.837 505.173 298.255C451.592 244.673 378.919 214.571 303.143 214.571C227.367 214.571 154.694 244.673 101.112 298.255C47.5306 351.837 17.4286 424.51 17.4286 500.286H-0.428528Z" fill="white"/>
</g>
<path fill-rule="evenodd" clip-rule="evenodd" d="M267.96 213.747C269.371 213.574 270.647 212.785 271.508 211.555C272.369 210.325 272.745 208.753 272.552 207.186C272.36 205.619 271.615 204.185 270.482 203.2C269.349 202.214 267.92 201.758 266.51 201.931C265.099 202.104 263.823 202.893 262.962 204.123C262.101 205.353 261.725 206.925 261.918 208.492C262.11 210.059 262.855 211.493 263.988 212.478C265.121 213.464 266.55 213.92 267.96 213.747M267.691 211.553C268.519 211.451 269.265 210.962 269.766 210.194C270.266 209.425 270.479 208.441 270.358 207.456C270.237 206.471 269.792 205.567 269.121 204.942C268.45 204.317 267.607 204.024 266.779 204.125C265.951 204.227 265.204 204.716 264.704 205.484C264.204 206.253 263.991 207.238 264.112 208.222C264.233 209.207 264.678 210.112 265.349 210.736C266.02 211.361 266.863 211.654 267.691 211.553" fill="#009440"/>
<path fill-rule="evenodd" clip-rule="evenodd" d="M277.661 212.672L279.866 212.518L279.558 208.107L284.308 207.775C285.298 207.706 286.22 207.246 286.871 206.497C287.522 205.748 287.849 204.771 287.78 203.781C287.71 202.791 287.251 201.87 286.502 201.219C285.753 200.568 284.776 200.241 283.786 200.31L277 200.785L277.661 212.672ZM279.404 205.901L283.984 205.581C284.389 205.553 284.766 205.365 285.033 205.058C285.299 204.752 285.433 204.352 285.404 203.947C285.376 203.543 285.188 203.165 284.882 202.899C284.575 202.633 284.176 202.499 283.771 202.527L279.19 202.848L279.404 205.901Z" fill="#009440"/>
<path d="M287.755 211.966C287.637 210.27 287.376 206.537 284.831 206.715L281.607 206.941C285.34 206.68 285.601 210.412 285.719 212.109" fill="#009440"/>
<path fill-rule="evenodd" clip-rule="evenodd" d="M292.748 211.733L298.36 211.635C299.03 211.623 299.691 211.48 300.305 211.212C300.919 210.945 301.475 210.56 301.941 210.078C302.406 209.596 302.772 209.027 303.018 208.403C303.263 207.78 303.384 207.114 303.372 206.444L303.342 204.744C303.33 204.074 303.187 203.413 302.92 202.799C302.653 202.184 302.267 201.628 301.785 201.163C301.303 200.698 300.734 200.332 300.111 200.086C299.487 199.84 298.822 199.72 298.152 199.732L292.54 199.83L292.748 211.733ZM294.92 209.484L298.151 209.427C299.008 209.412 299.824 209.057 300.419 208.441C301.014 207.825 301.34 206.997 301.325 206.14L301.308 205.12C301.293 204.263 300.938 203.447 300.321 202.852C299.705 202.256 298.877 201.93 298.02 201.945L294.79 202.002L294.92 209.484Z" fill="#009440"/>
<path d="M307.864 211.584L318.572 211.958L318.649 209.749L309.981 209.446L310.088 206.386L316.886 206.624L316.957 204.584L310.159 204.347L310.242 201.967L318.4 202.252L318.477 200.043L308.28 199.687L307.864 211.584Z" fill="#009440"/>
<path d="M322.967 212.227L325 212.405L325.712 204.273L327.372 212.612L329.236 212.775L332.319 204.851L331.608 212.983L333.641 213.161L334.678 201.301L331.713 201.042L328.63 208.967L326.97 200.627L324.005 200.367L322.967 212.227Z" fill="#009440"/>
<path d="M347.633 215.009L356.432 216.521L356.778 214.51L349.99 213.343L350.45 210.662L355.982 211.612L356.327 209.601L350.796 208.65L351.113 206.806L357.692 207.937L358.037 205.926L349.447 204.449L347.633 215.009Z" fill="#009440"/>
<path fill-rule="evenodd" clip-rule="evenodd" d="M370.239 219.449L372.379 220.003L373.486 215.722L378.097 216.914C379.057 217.163 380.077 217.019 380.932 216.516C381.787 216.012 382.407 215.189 382.656 214.229C382.904 213.268 382.761 212.248 382.257 211.393C381.753 210.538 380.931 209.918 379.97 209.67L373.384 207.966L370.239 219.449ZM374.04 213.582L378.485 214.731C378.878 214.833 379.296 214.774 379.646 214.568C379.995 214.362 380.249 214.026 380.351 213.633C380.452 213.24 380.394 212.822 380.187 212.473C379.981 212.123 379.645 211.869 379.252 211.768L374.806 210.618L374.04 213.582Z" fill="#009440"/>
<path fill-rule="evenodd" clip-rule="evenodd" d="M384.845 223.346L386.953 224.011L388.283 219.793L392.824 221.225C393.771 221.524 394.797 221.434 395.677 220.976C396.557 220.518 397.219 219.729 397.518 218.782C397.816 217.836 397.726 216.81 397.268 215.929C396.81 215.049 396.021 214.387 395.074 214.089L388.587 212.043L384.845 223.346ZM388.948 217.685L393.327 219.066C393.714 219.188 394.134 219.151 394.494 218.964C394.854 218.776 395.125 218.453 395.247 218.066C395.369 217.679 395.332 217.259 395.145 216.899C394.957 216.539 394.635 216.268 394.247 216.146L389.868 214.765L388.948 217.685Z" fill="#009440"/>
<path d="M394.495 226.389C395.007 224.767 396.132 221.198 393.699 220.431L390.617 219.46C394.185 220.585 393.06 224.153 392.549 225.775" fill="#009440"/>
<path fill-rule="evenodd" clip-rule="evenodd" d="M404.244 229.877C405.575 230.375 407.071 230.265 408.403 229.571C409.735 228.877 410.794 227.657 411.347 226.178C411.9 224.699 411.901 223.084 411.351 221.686C410.801 220.289 409.744 219.224 408.414 218.727C407.083 218.229 405.587 218.339 404.255 219.033C402.923 219.727 401.864 220.947 401.311 222.426C400.758 223.905 400.757 225.52 401.307 226.918C401.857 228.315 402.914 229.38 404.244 229.877M405.019 227.806C405.8 228.099 406.688 228.01 407.486 227.559C408.285 227.109 408.929 226.333 409.276 225.404C409.624 224.474 409.646 223.467 409.339 222.603C409.032 221.739 408.421 221.09 407.639 220.797C406.858 220.505 405.97 220.594 405.172 221.045C404.373 221.495 403.73 222.271 403.382 223.2C403.034 224.13 403.012 225.137 403.319 226.001C403.626 226.865 404.237 227.514 405.019 227.806" fill="#009440"/>
<mask id="mask1_213_6151" style="mask-type:luminance" maskUnits="userSpaceOnUse" x="413" y="222" width="15" height="16">
<path d="M413.345 233.403L418.092 222.486L427.918 226.758L423.171 237.675L413.345 233.403ZM421.445 228.209L420.631 230.081L425.544 232.217L426.358 230.345L421.445 228.209Z" fill="white"/>
</mask>
<g mask="url(#mask1_213_6151)">
<path fill-rule="evenodd" clip-rule="evenodd" d="M418.258 235.539C419.561 236.106 421.061 236.074 422.427 235.451C423.793 234.828 424.915 233.664 425.544 232.217C426.174 230.769 426.26 229.155 425.784 227.731C425.307 226.307 424.308 225.188 423.005 224.622C421.702 224.055 420.202 224.087 418.836 224.71C417.469 225.333 416.348 226.497 415.719 227.944C415.089 229.392 415.003 231.006 415.479 232.43C415.955 233.854 416.955 234.973 418.258 235.539M419.14 233.512C419.905 233.844 420.796 233.802 421.617 233.394C422.438 232.986 423.121 232.245 423.517 231.335C423.912 230.425 423.988 229.42 423.727 228.541C423.465 227.663 422.889 226.982 422.123 226.649C421.358 226.317 420.467 226.359 419.646 226.767C418.825 227.175 418.142 227.916 417.746 228.826C417.35 229.736 417.275 230.741 417.536 231.62C417.798 232.498 418.374 233.179 419.14 233.512" fill="#009440"/>
</g>
<path d="M421.411 230.42L425.544 232.217L424.866 233.776L420.733 231.979L421.411 230.42Z" fill="#009440"/>
<path d="M423.985 231.539L425.544 232.217L423.171 237.675L421.611 236.997L423.985 231.539Z" fill="#009440"/>
<path fill-rule="evenodd" clip-rule="evenodd" d="M427.162 239.536L429.14 240.523L431.113 236.566L435.375 238.69C436.263 239.133 437.29 239.205 438.231 238.89C439.173 238.575 439.95 237.899 440.393 237.011C440.835 236.123 440.907 235.096 440.592 234.155C440.278 233.214 439.602 232.436 438.714 231.994L432.626 228.958L427.162 239.536ZM432.1 234.587L436.209 236.636C436.572 236.817 436.993 236.846 437.378 236.718C437.763 236.589 438.081 236.312 438.262 235.949C438.443 235.586 438.472 235.165 438.344 234.78C438.215 234.395 437.938 234.077 437.575 233.896L433.466 231.847L432.1 234.587Z" fill="#009440"/>
<path d="M436.218 244.051C436.976 242.529 438.646 239.181 436.363 238.043L433.471 236.601C436.819 238.27 435.15 241.619 434.391 243.141" fill="#009440"/>
<path d="M440.638 246.384L449.963 251.66L451.052 249.736L443.503 245.465L445.011 242.801L450.931 246.15L451.936 244.374L446.016 241.024L447.188 238.952L454.293 242.972L455.382 241.048L446.5 236.023L440.638 246.384Z" fill="#009440"/>
<path d="M458.007 252.212C457.368 253.216 458.016 254.335 459.45 255.249C460.885 256.162 461.862 256.129 462.274 255.485C463.576 253.441 456.048 250.46 458.369 246.897C460.369 243.836 463.792 246.218 465.083 247.04C466.374 247.863 468.447 249.99 466.835 252.441L464.647 251.048C465.333 249.972 464.58 248.938 463.432 248.207C462.321 247.499 461.418 247.176 460.755 248.215C459.646 249.878 467.023 253.015 464.762 256.565C463.094 259.183 460.193 258.04 458.256 256.807C456.607 255.756 454.142 253.278 455.748 250.773L458.007 252.212Z" fill="#009440"/>
<path d="M470.778 260.657C470.087 261.626 470.676 262.777 472.06 263.765C473.445 264.752 474.422 264.771 474.868 264.148C476.275 262.176 468.914 258.805 471.417 255.368C473.575 252.416 476.869 254.974 478.115 255.863C479.361 256.752 481.32 258.984 479.581 261.348L477.47 259.842C478.211 258.803 477.513 257.731 476.405 256.941C475.332 256.176 474.447 255.806 473.731 256.81C472.536 258.412 479.74 261.931 477.296 265.358C475.493 267.885 472.655 266.592 470.786 265.258C469.194 264.123 466.862 261.519 468.598 259.101L470.778 260.657Z" fill="#009440"/>
<path fill-rule="evenodd" clip-rule="evenodd" d="M482.857 274.354C483.969 275.239 485.426 275.596 486.907 275.348C488.388 275.1 489.772 274.266 490.755 273.031C491.738 271.795 492.238 270.259 492.147 268.76C492.056 267.261 491.38 265.922 490.268 265.037C489.156 264.153 487.699 263.795 486.218 264.044C484.737 264.292 483.353 265.125 482.37 266.361C481.387 267.596 480.886 269.133 480.978 270.632C481.069 272.131 481.745 273.47 482.857 274.354M484.233 272.624C484.886 273.143 485.758 273.333 486.657 273.151C487.555 272.969 488.407 272.431 489.025 271.654C489.642 270.878 489.975 269.927 489.95 269.01C489.925 268.094 489.545 267.287 488.892 266.768C488.238 266.248 487.367 266.059 486.468 266.24C485.57 266.422 484.718 266.961 484.1 267.737C483.482 268.514 483.149 269.465 483.174 270.381C483.199 271.298 483.58 272.104 484.233 272.624" fill="#009440"/>
<path d="M272.531 222.48L270.875 227.574L273.423 228.402" fill="white"/>
<path d="M272.531 222.48L274.186 227.574L271.639 228.402" fill="white"/>
<path d="M277.626 226.181H272.268V228.86" fill="white"/>
<path d="M277.626 226.181L273.292 229.33L271.717 227.163" fill="white"/>
<path d="M267.436 226.181L271.77 229.33L273.344 227.163" fill="white"/>
<path d="M267.436 226.181H272.793V228.86" fill="white"/>
<path d="M275.68 232.171L274.024 227.076L271.477 227.903" fill="white"/>
<path d="M275.68 232.171L271.345 229.022L272.92 226.855" fill="white"/>
<path d="M269.382 232.171L273.716 229.022L272.141 226.855" fill="white"/>
<path d="M269.382 232.171L271.037 227.076L273.585 227.903" fill="white"/>
<path d="M283.585 275.031L281.93 280.126L284.477 280.953" fill="white"/>
<path d="M283.585 275.031L285.241 280.126L282.693 280.953" fill="white"/>
<path d="M288.68 278.732H283.323V281.411" fill="white"/>
<path d="M288.68 278.732L284.346 281.881L282.772 279.714" fill="white"/>
<path d="M278.49 278.732L282.824 281.881L284.399 279.714" fill="white"/>
<path d="M278.49 278.732H283.847V281.411" fill="white"/>
<path d="M286.734 284.722L285.078 279.627L282.531 280.455" fill="white"/>
<path d="M286.734 284.722L282.4 281.573L283.974 279.406" fill="white"/>
<path d="M280.436 284.722L284.77 281.573L283.196 279.406" fill="white"/>
<path d="M280.436 284.722L282.092 279.627L284.639 280.455" fill="white"/>
<path d="M268.279 287.148L266.899 291.394L269.022 292.084" fill="white"/>
<path d="M268.279 287.148L269.659 291.394L267.536 292.084" fill="white"/>
<path d="M272.525 290.233H268.06V292.465" fill="white"/>
<path d="M272.525 290.233L268.913 292.857L267.601 291.051" fill="white"/>
<path d="M264.033 290.233L267.645 292.857L268.957 291.051" fill="white"/>
<path d="M264.033 290.233H268.497V292.465" fill="white"/>
<path d="M270.903 295.224L269.523 290.978L267.401 291.668" fill="white"/>
<path d="M270.903 295.224L267.291 292.6L268.603 290.794" fill="white"/>
<path d="M265.655 295.224L269.267 292.6L267.955 290.794" fill="white"/>
<path d="M265.655 295.224L267.034 290.978L269.157 291.668" fill="white"/>
<path d="M295.83 270.184L295.042 272.61L296.255 273.004" fill="white"/>
<path d="M295.83 270.184L296.618 272.61L295.405 273.004" fill="white"/>
<path d="M298.256 271.946H295.705V273.222" fill="white"/>
<path d="M298.256 271.946L296.192 273.446L295.443 272.414" fill="white"/>
<path d="M293.404 271.946L295.468 273.446L296.217 272.414" fill="white"/>
<path d="M293.404 271.946H295.955V273.222" fill="white"/>
<path d="M297.329 274.799L296.541 272.372L295.328 272.767" fill="white"/>
<path d="M297.329 274.799L295.266 273.299L296.015 272.267" fill="white"/>
<path d="M294.331 274.799L296.394 273.299L295.645 272.267" fill="white"/>
<path d="M294.331 274.799L295.119 272.372L296.332 272.767" fill="white"/>
<path d="M309.605 288.338L308.226 292.584L310.349 293.274" fill="white"/>
<path d="M309.605 288.338L310.985 292.584L308.862 293.274" fill="white"/>
<path d="M313.851 291.423H309.387V293.655" fill="white"/>
<path d="M313.851 291.423L310.24 294.047L308.928 292.241" fill="white"/>
<path d="M305.36 291.423L308.971 294.047L310.283 292.241" fill="white"/>
<path d="M305.36 291.423H309.824V293.655" fill="white"/>
<path d="M312.229 296.414L310.85 292.169L308.727 292.858" fill="white"/>
<path d="M312.229 296.414L308.618 293.79L309.93 291.985" fill="white"/>
<path d="M306.981 296.414L310.593 293.79L309.281 291.984" fill="white"/>
<path d="M306.981 296.414L308.361 292.169L310.484 292.858" fill="white"/>
<path d="M305.864 301.646L304.76 305.043L306.459 305.595" fill="white"/>
<path d="M305.864 301.646L306.968 305.043L305.269 305.595" fill="white"/>
<path d="M309.261 304.114H305.689V305.9" fill="white"/>
<path d="M309.261 304.114L306.371 306.213L305.322 304.769" fill="white"/>
<path d="M302.467 304.114L305.357 306.213L306.406 304.769" fill="white"/>
<path d="M302.467 304.114H306.039V305.9" fill="white"/>
<path d="M307.963 308.107L306.86 304.71L305.161 305.262" fill="white"/>
<path d="M307.963 308.107L305.074 306.008L306.123 304.563" fill="white"/>
<path d="M303.765 308.107L306.654 306.008L305.604 304.563" fill="white"/>
<path d="M303.765 308.107L304.868 304.71L306.567 305.262" fill="white"/>
<path d="M413.347 206.153L411.692 211.248L414.239 212.076" fill="white"/>
<path d="M413.347 206.153L415.002 211.248L412.455 212.076" fill="white"/>
<path d="M418.442 209.855H413.085V212.533" fill="white"/>
<path d="M418.442 209.855L414.108 213.004L412.533 210.837" fill="white"/>
<path d="M408.252 209.855L412.586 213.004L414.16 210.837" fill="white"/>
<path d="M408.252 209.855H413.609V212.533" fill="white"/>
<path d="M416.496 215.844L414.84 210.749L412.293 211.577" fill="white"/>
<path d="M416.496 215.844L412.162 212.695L413.736 210.528" fill="white"/>
<path d="M410.198 215.844L414.532 212.695L412.958 210.528" fill="white"/>
<path d="M410.198 215.844L411.854 210.749L414.401 211.577" fill="white"/>
<path d="M462.156 288.806L460.501 293.901L463.049 294.729" fill="white"/>
<path d="M462.156 288.806L463.812 293.901L461.264 294.729" fill="white"/>
<path d="M467.251 292.508H461.894V295.186" fill="white"/>
<path d="M467.251 292.508L462.917 295.657L461.343 293.49" fill="white"/>
<path d="M457.062 292.508L461.396 295.657L462.97 293.49" fill="white"/>
<path d="M457.062 292.508H462.419V295.186" fill="white"/>
<path d="M465.305 298.497L463.65 293.402L461.102 294.23" fill="white"/>
<path d="M465.305 298.497L460.971 295.348L462.546 293.181" fill="white"/>
<path d="M459.008 298.497L463.342 295.348L461.767 293.181" fill="white"/>
<path d="M459.008 298.497L460.663 293.402L463.211 294.23" fill="white"/>
<path d="M479.503 291.782L478.4 295.179L480.098 295.731" fill="white"/>
<path d="M479.503 291.782L480.607 295.179L478.909 295.731" fill="white"/>
<path d="M482.9 294.25H479.329V296.036" fill="white"/>
<path d="M482.9 294.25L480.011 296.349L478.961 294.905" fill="white"/>
<path d="M476.107 294.25L478.996 296.349L480.046 294.905" fill="white"/>
<path d="M476.107 294.25H479.678V296.036" fill="white"/>
<path d="M481.603 298.243L480.499 294.846L478.801 295.398" fill="white"/>
<path d="M481.603 298.243L478.713 296.144L479.763 294.699" fill="white"/>
<path d="M477.404 298.243L480.294 296.144L479.244 294.699" fill="white"/>
<path d="M477.404 298.243L478.508 294.846L480.206 295.398" fill="white"/>
<path d="M467.259 300.753L465.879 304.999L468.002 305.689" fill="white"/>
<path d="M467.259 300.753L468.638 304.999L466.515 305.689" fill="white"/>
<path d="M471.504 303.838H467.04V306.07" fill="white"/>
<path d="M471.504 303.838L467.893 306.462L466.581 304.656" fill="white"/>
<path d="M463.013 303.838L466.624 306.462L467.936 304.656" fill="white"/>
<path d="M463.013 303.838H467.477V306.07" fill="white"/>
<path d="M469.883 308.829L468.503 304.584L466.38 305.273" fill="white"/>
<path d="M469.883 308.829L466.271 306.205L467.583 304.4" fill="white"/>
<path d="M464.635 308.829L468.246 306.205L466.934 304.399" fill="white"/>
<path d="M464.635 308.829L466.014 304.584L468.137 305.273" fill="white"/>
<path d="M437.156 326.944L435.777 331.19L437.9 331.879" fill="white"/>
<path d="M437.156 326.944L438.536 331.19L436.413 331.879" fill="white"/>
<path d="M441.402 330.029H436.938V332.261" fill="white"/>
<path d="M441.402 330.029L437.791 332.653L436.479 330.847" fill="white"/>
<path d="M432.911 330.029L436.522 332.653L437.834 330.847" fill="white"/>
<path d="M432.911 330.029H437.375V332.261" fill="white"/>
<path d="M439.781 335.02L438.401 330.774L436.278 331.464" fill="white"/>
<path d="M439.781 335.02L436.169 332.396L437.481 330.59" fill="white"/>
<path d="M434.532 335.02L438.144 332.396L436.832 330.59" fill="white"/>
<path d="M434.532 335.02L435.912 330.774L438.035 331.464" fill="white"/>
<path d="M436.986 340.422L435.883 343.818L437.581 344.37" fill="white"/>
<path d="M436.986 340.422L438.09 343.818L436.392 344.37" fill="white"/>
<path d="M440.383 342.889H436.812V344.675" fill="white"/>
<path d="M440.383 342.889L437.494 344.989L436.444 343.544" fill="white"/>
<path d="M433.59 342.89L436.479 344.989L437.529 343.544" fill="white"/>
<path d="M433.59 342.89H437.161V344.675" fill="white"/>
<path d="M439.086 346.883L437.982 343.486L436.284 344.038" fill="white"/>
<path d="M439.086 346.883L436.196 344.783L437.246 343.339" fill="white"/>
<path d="M434.887 346.882L437.777 344.783L436.727 343.339" fill="white"/>
<path d="M434.887 346.882L435.991 343.486L437.689 344.038" fill="white"/>
<path d="M449.571 317.973L448.468 321.369L450.166 321.921" fill="white"/>
<path d="M449.571 317.973L450.675 321.369L448.977 321.921" fill="white"/>
<path d="M452.968 320.441H449.397V322.226" fill="white"/>
<path d="M452.968 320.441L450.079 322.54L449.029 321.095" fill="white"/>
<path d="M446.175 320.441L449.064 322.54L450.114 321.095" fill="white"/>
<path d="M446.175 320.441H449.746V322.226" fill="white"/>
<path d="M451.671 324.434L450.567 321.037L448.869 321.589" fill="white"/>
<path d="M451.671 324.434L448.781 322.334L449.831 320.89" fill="white"/>
<path d="M447.472 324.433L450.362 322.334L449.312 320.89" fill="white"/>
<path d="M447.472 324.433L448.576 321.037L450.274 321.589" fill="white"/>
<path d="M459.605 310.787L458.226 315.033L460.349 315.723" fill="white"/>
<path d="M459.605 310.787L460.985 315.033L458.862 315.723" fill="white"/>
<path d="M463.851 313.872H459.387V316.104" fill="white"/>
<path d="M463.851 313.872L460.24 316.496L458.928 314.69" fill="white"/>
<path d="M455.36 313.872L458.971 316.496L460.283 314.69" fill="white"/>
<path d="M455.36 313.872H459.824V316.104" fill="white"/>
<path d="M462.23 318.863L460.85 314.618L458.727 315.307" fill="white"/>
<path d="M462.23 318.863L458.618 316.239L459.93 314.433" fill="white"/>
<path d="M456.981 318.863L460.593 316.239L459.281 314.433" fill="white"/>
<path d="M456.981 318.863L458.361 314.618L460.484 315.307" fill="white"/>
<path d="M436.646 315.592L435.543 318.988L437.241 319.54" fill="white"/>
<path d="M436.646 315.592L437.75 318.988L436.052 319.54" fill="white"/>
<path d="M440.043 318.06H436.472V319.845" fill="white"/>
<path d="M440.043 318.06L437.154 320.159L436.104 318.714" fill="white"/>
<path d="M433.25 318.06L436.139 320.159L437.189 318.714" fill="white"/>
<path d="M433.25 318.06H436.821V319.845" fill="white"/>
<path d="M438.746 322.053L437.642 318.656L435.944 319.208" fill="white"/>
<path d="M438.746 322.053L435.856 319.953L436.906 318.509" fill="white"/>
<path d="M434.547 322.053L437.436 319.953L436.387 318.509" fill="white"/>
<path d="M434.547 322.053L435.651 318.656L437.349 319.208" fill="white"/>
<path d="M326.952 250.923L325.573 255.169L327.696 255.859" fill="white"/>
<path d="M326.952 250.923L328.332 255.169L326.209 255.859" fill="white"/>
<path d="M331.198 254.008H326.734V256.24" fill="white"/>
<path d="M331.198 254.008L327.587 256.632L326.275 254.826" fill="white"/>
<path d="M322.707 254.008L326.318 256.632L327.63 254.826" fill="white"/>
<path d="M322.707 254.008H327.171V256.24" fill="white"/>
<path d="M329.576 258.999L328.197 254.754L326.074 255.443" fill="white"/>
<path d="M329.576 258.999L325.965 256.375L327.277 254.57" fill="white"/>
<path d="M324.328 258.999L327.94 256.375L326.628 254.57" fill="white"/>
<path d="M324.328 258.999L325.708 254.754L327.831 255.443" fill="white"/>
<path d="M408.585 240.422L407.481 243.818L409.18 244.37" fill="white"/>
<path d="M408.585 240.422L409.689 243.818L407.99 244.37" fill="white"/>
<path d="M411.982 242.89H408.41V244.675" fill="white"/>
<path d="M411.982 242.89L409.092 244.989L408.043 243.544" fill="white"/>
<path d="M405.188 242.89L408.078 244.989L409.127 243.544" fill="white"/>
<path d="M405.188 242.89H408.76V244.675" fill="white"/>
<path d="M410.684 246.883L409.581 243.486L407.882 244.038" fill="white"/>
<path d="M410.684 246.883L407.795 244.783L408.845 243.339" fill="white"/>
<path d="M406.486 246.883L409.375 244.783L408.326 243.339" fill="white"/>
<path d="M406.486 246.883L407.589 243.486L409.288 244.038" fill="white"/>
<path d="M374.571 301.051L372.916 306.146L375.463 306.974" fill="white"/>
<path d="M374.571 301.051L376.227 306.146L373.679 306.974" fill="white"/>
<path d="M379.666 304.753H374.309V307.431" fill="white"/>
<path d="M379.666 304.753L375.332 307.902L373.758 305.735" fill="white"/>
<path d="M369.477 304.753L373.811 307.902L375.385 305.735" fill="white"/>
<path d="M369.477 304.753H374.834V307.431" fill="white"/>
<path d="M377.72 310.742L376.065 305.647L373.517 306.475" fill="white"/>
<path d="M377.72 310.742L373.386 307.593L374.961 305.426" fill="white"/>
<path d="M371.423 310.742L375.757 307.593L374.182 305.426" fill="white"/>
<path d="M371.423 310.742L373.078 305.647L375.626 306.475" fill="white"/>
<path d="M389.027 277.114L387.648 281.36L389.771 282.05" fill="white"/>
<path d="M389.027 277.114L390.407 281.36L388.284 282.05" fill="white"/>
<path d="M393.273 280.199H388.809V282.431" fill="white"/>
<path d="M393.273 280.199L389.661 282.823L388.349 281.017" fill="white"/>
<path d="M384.781 280.199L388.393 282.823L389.705 281.017" fill="white"/>
<path d="M384.781 280.199H389.246V282.431" fill="white"/>
<path d="M391.651 285.19L390.272 280.944L388.149 281.634" fill="white"/>
<path d="M391.651 285.19L388.04 282.566L389.352 280.76" fill="white"/>
<path d="M386.403 285.19L390.015 282.566L388.703 280.76" fill="white"/>
<path d="M386.403 285.19L387.783 280.944L389.906 281.634" fill="white"/>
<path d="M374.571 265.889L373.192 270.135L375.315 270.825" fill="white"/>
<path d="M374.571 265.889L375.951 270.135L373.828 270.825" fill="white"/>
<path d="M378.817 268.974H374.353V271.206" fill="white"/>
<path d="M378.817 268.974L375.206 271.598L373.894 269.792" fill="white"/>
<path d="M370.326 268.974L373.937 271.598L375.249 269.792" fill="white"/>
<path d="M370.326 268.974H374.79V271.206" fill="white"/>
<path d="M377.196 273.965L375.816 269.72L373.693 270.409" fill="white"/>
<path d="M377.196 273.965L373.584 271.341L374.896 269.536" fill="white"/>
<path d="M371.947 273.965L375.559 271.341L374.247 269.536" fill="white"/>
<path d="M371.947 273.965L373.327 269.72L375.45 270.409" fill="white"/>
<path d="M361.986 278.007L360.883 281.403L362.581 281.955" fill="white"/>
<path d="M361.986 278.007L363.09 281.403L361.392 281.955" fill="white"/>
<path d="M365.383 280.475H361.812V282.26" fill="white"/>
<path d="M365.383 280.475L362.494 282.574L361.444 281.129" fill="white"/>
<path d="M358.59 280.475L361.479 282.574L362.529 281.129" fill="white"/>
<path d="M358.59 280.475H362.161V282.26" fill="white"/>
<path d="M364.086 284.468L362.982 281.071L361.284 281.623" fill="white"/>
<path d="M364.086 284.468L361.196 282.368L362.246 280.924" fill="white"/>
<path d="M359.887 284.468L362.777 282.368L361.727 280.924" fill="white"/>
<path d="M359.887 284.468L360.991 281.071L362.689 281.623" fill="white"/>
<path d="M368.279 287.701L367.491 290.127L368.704 290.521" fill="white"/>
<path d="M368.279 287.701L369.067 290.127L367.854 290.521" fill="white"/>
<path d="M370.705 289.463H368.154V290.739" fill="white"/>
<path d="M370.705 289.463L368.641 290.963L367.892 289.931" fill="white"/>
<path d="M365.853 289.463L367.917 290.963L368.666 289.931" fill="white"/>
<path d="M365.853 289.463H368.404V290.739" fill="white"/>
<path d="M369.778 292.315L368.99 289.889L367.777 290.283" fill="white"/>
<path d="M369.778 292.315L367.715 290.816L368.464 289.784" fill="white"/>
<path d="M366.78 292.316L368.843 290.816L368.094 289.784" fill="white"/>
<path d="M366.78 292.316L367.568 289.889L368.781 290.284" fill="white"/>
<path d="M411.986 330.005L410.607 334.251L412.73 334.941" fill="white"/>
<path d="M411.986 330.005L413.366 334.251L411.243 334.941" fill="white"/>
<path d="M416.232 333.09H411.768V335.322" fill="white"/>
<path d="M416.232 333.09L412.621 335.714L411.309 333.908" fill="white"/>
<path d="M407.741 333.09L411.352 335.714L412.664 333.908" fill="white"/>
<path d="M407.741 333.09H412.205V335.322" fill="white"/>
<path d="M414.611 338.081L413.231 333.835L411.108 334.525" fill="white"/>
<path d="M414.611 338.081L410.999 335.457L412.311 333.651" fill="white"/>
<path d="M409.362 338.081L412.974 335.457L411.662 333.651" fill="white"/>
<path d="M409.362 338.081L410.742 333.835L412.865 334.525" fill="white"/>
<path d="M422.701 319.844L421.597 323.24L423.295 323.792" fill="white"/>
<path d="M422.701 319.844L423.804 323.24L422.106 323.792" fill="white"/>
<path d="M426.097 322.311H422.526V324.097" fill="white"/>
<path d="M426.097 322.311L423.208 324.411L422.158 322.966" fill="white"/>
<path d="M419.304 322.311L422.193 324.411L423.243 322.966" fill="white"/>
<path d="M419.304 322.311H422.876V324.097" fill="white"/>
<path d="M424.8 326.304L423.696 322.908L421.998 323.46" fill="white"/>
<path d="M424.8 326.304L421.911 324.205L422.96 322.76" fill="white"/>
<path d="M420.601 326.304L423.491 324.205L422.441 322.76" fill="white"/>
<path d="M420.601 326.304L421.705 322.908L423.403 323.46" fill="white"/>
<path d="M402.122 316.782L401.019 320.179L402.717 320.731" fill="white"/>
<path d="M402.122 316.782L403.226 320.179L401.528 320.731" fill="white"/>
<path d="M405.519 319.25H401.948V321.036" fill="white"/>
<path d="M405.519 319.25L402.63 321.349L401.58 319.905" fill="white"/>
<path d="M398.726 319.25L401.615 321.349L402.665 319.905" fill="white"/>
<path d="M398.726 319.25H402.297V321.036" fill="white"/>
<path d="M404.222 323.243L403.118 319.846L401.42 320.398" fill="white"/>
<path d="M404.222 323.243L401.332 321.144L402.382 319.699" fill="white"/>
<path d="M400.023 323.243L402.913 321.144L401.863 319.699" fill="white"/>
<path d="M400.023 323.243L401.127 319.846L402.825 320.398" fill="white"/>
<path d="M324.401 311.255L322.746 316.35L325.293 317.178" fill="white"/>
<path d="M324.401 311.255L326.057 316.35L323.509 317.178" fill="white"/>
<path d="M329.496 314.957H324.139V317.635" fill="white"/>
<path d="M329.496 314.957L325.162 318.106L323.588 315.939" fill="white"/>
<path d="M319.306 314.957L323.64 318.106L325.215 315.939" fill="white"/>
<path d="M319.306 314.957H324.664V317.635" fill="white"/>
<path d="M327.55 320.946L325.895 315.851L323.347 316.679" fill="white"/>
<path d="M327.55 320.946L323.216 317.797L324.791 315.63" fill="white"/>
<path d="M321.253 320.946L325.587 317.797L324.012 315.63" fill="white"/>
<path d="M321.253 320.946L322.908 315.851L325.456 316.679" fill="white"/>
<path d="M374.571 346.289L374.02 347.987L374.869 348.263" fill="white"/>
<path d="M374.571 346.289L375.123 347.987L374.274 348.263" fill="white"/>
<path d="M376.27 347.523H374.484V348.416" fill="white"/>
<path d="M376.27 347.523L374.825 348.573L374.3 347.85" fill="white"/>
<path d="M372.873 347.523L374.318 348.573L374.843 347.85" fill="white"/>
<path d="M372.873 347.523H374.659V348.416" fill="white"/>
<path d="M375.621 349.519L375.069 347.821L374.22 348.097" fill="white"/>
<path d="M375.621 349.519L374.176 348.47L374.701 347.748" fill="white"/>
<path d="M373.522 349.52L374.967 348.47L374.442 347.748" fill="white"/>
<path d="M373.522 349.52L374.074 347.821L374.923 348.097" fill="white"/>
</g>
<defs>
<clipPath id="clip0_213_6151">
<rect width="750" height="500" fill="white"/>
</clipPath>
</defs>
</svg>
