<svg width="750" height="500" viewBox="0 0 750 500" fill="none" xmlns="http://www.w3.org/2000/svg">
<g clip-path="url(#clip0_213_7955)">
<path d="M0 0H750V500H0V0Z" fill="#C8102E"/>
<mask id="mask0_213_7955" style="mask-type:luminance" maskUnits="userSpaceOnUse" x="0" y="0" width="750" height="500">
<path d="M0 0H750V500H0V0Z" fill="white"/>
</mask>
<g mask="url(#mask0_213_7955)">
<path d="M-37.5 -25V525L787.5 -25V525L-37.5 -25Z" fill="#43B02A" stroke="white" stroke-width="66.6667"/>
</g>
<path d="M374.667 375C443.702 375 499.667 319.036 499.667 250C499.667 180.964 443.702 125 374.667 125C305.631 125 249.667 180.964 249.667 250C249.667 319.036 305.631 375 374.667 375Z" fill="white"/>
<path d="M374.667 158.53L382.395 171.912H397.843L390.122 185.294L397.843 198.677H382.395L374.667 212.059L366.939 198.677H351.49L359.211 185.294L351.49 171.912H366.939L374.667 158.53Z" fill="#C8102E" stroke="#43B02A" stroke-width="2.64706"/>
<path d="M453.883 295.735L438.429 295.737L430.705 309.115L422.976 295.738L407.526 295.733L415.25 282.354L407.525 268.971L422.978 268.969L430.703 255.59L438.432 268.968L453.881 268.973L446.157 282.351L453.883 295.735Z" fill="#C8102E" stroke="#43B02A" stroke-width="2.64706"/>
<path d="M295.451 295.735L303.176 282.351L295.452 268.973L310.902 268.968L318.631 255.59L326.355 268.969L341.809 268.971L334.083 282.354L341.807 295.733L326.358 295.738L318.629 309.115L310.904 295.737L295.451 295.735Z" fill="#C8102E" stroke="#43B02A" stroke-width="2.64706"/>
</g>
<defs>
<clipPath id="clip0_213_7955">
<rect width="750" height="500" fill="white"/>
</clipPath>
</defs>
</svg>
