<svg width="750" height="500" viewBox="0 0 750 500" fill="none" xmlns="http://www.w3.org/2000/svg">
<g clip-path="url(#clip0_213_7972)">
<path d="M0 0H750V500H0V0Z" fill="#012169"/>
<path d="M0 0H750V500L0 0Z" fill="#0DB02B"/>
<path d="M382.05 325.95C419.453 325.95 449.775 295.628 449.775 258.225C449.775 220.822 419.453 190.5 382.05 190.5C344.646 190.5 314.325 220.822 314.325 258.225C314.325 295.628 344.646 325.95 382.05 325.95Z" fill="#F7D116"/>
<path d="M148.2 213.9L138.6 204.975L128.925 213.825L129.975 200.775L117.075 198.675L127.95 191.325L121.5 179.925L134.025 183.825L138.9 171.675L143.625 183.9L156.15 180.15L149.55 191.475L160.275 198.975L147.3 200.85L148.2 213.9ZM182.1 322.35L171.75 315.45L161.7 322.725L165.225 311.025L155.025 303.975L167.55 303.675L171.3 292.05L175.5 303.525L188.025 303.375L178.125 310.8L182.1 322.35ZM150.075 415.725L140.475 406.8L130.8 415.575L131.85 402.525L118.95 400.425L129.825 393.075L123.375 381.675L135.9 385.575L140.775 373.425L145.5 385.65L158.025 381.9L151.425 393.225L162.15 400.725L149.175 402.6L150.075 415.725ZM64.125 306.375L54.525 297.45L44.85 306.225L45.9 293.175L33 291.075L43.875 283.725L37.425 272.325L49.95 276.225L54.825 264.075L59.55 276.3L72.075 272.55L65.475 283.875L76.2 291.375L63.225 293.25L64.125 306.375ZM229.5 277.725L219.9 268.725L210.225 277.575L211.275 264.525L198.375 262.425L209.25 255.075L202.8 243.675L215.325 247.575L220.2 235.425L224.925 247.65L237.45 243.9L230.85 255.225L241.575 262.725L228.6 264.6L229.5 277.725Z" fill="white"/>
<path d="M712.95 211.725C710.325 210.225 708.525 211.425 705 210.225C702.075 209.25 702.6 208.2 700.05 207.375C697.05 206.4 695.625 207.675 690.45 208.2C688.65 208.35 685.8 208.575 684.15 208.35C677.475 207.45 672.225 197.1 670.05 189.225C667.125 179.025 669.15 172.05 667.8 157.35C667.5 154.05 666.75 149.25 664.95 143.925C663.675 140.1 661.125 134.1 648.75 119.7C635.025 103.8 624.075 94.95 621.15 92.625C616.5 88.875 612.375 86.025 609.375 84C609.825 88.65 610.875 95.55 613.425 103.425C616.35 112.575 619.95 119.1 623.4 125.325C629.175 135.675 643.725 161.4 641.7 168.9C641.55 169.35 641.1 170.925 640.65 173.25C640.05 176.325 639.9 178.875 639.825 180.6C637.95 180 635.1 178.95 631.725 177.3C625.5 174.225 621.45 171 619.425 169.425C613.875 165.225 608.475 163.35 597.75 159.45C583.5 154.275 570.15 152.25 559.425 151.575C566.175 161.4 572.775 168 577.65 172.125C586.725 179.925 596.325 185.25 601.05 187.875C606.825 191.1 609.225 192 615.225 195.825C624.45 201.75 627.975 205.575 630.225 208.575C633 212.25 635.55 215.625 636.15 220.575C636.75 225.375 635.4 230.55 631.35 237C619.65 255.525 597.225 265.725 590.4 268.65C581.85 272.325 568.425 278.025 548.4 280.875C533.25 283.05 509.175 284.25 479.775 276.3C482.85 277.65 486.3 279 490.05 280.2C494.1 281.475 497.85 282.375 501.3 283.05C501.525 283.125 496.5 283.275 491.4 282.15C485.25 280.8 480.375 278.4 477 276.375C479.55 278.4 483.525 281.175 488.625 283.425C495.225 286.35 501.975 287.7 521.925 287.775C533.925 287.85 539.925 287.85 545.85 287.25C562.8 285.525 575.475 281.4 587.475 277.275C597.6 273.825 606.225 270.9 617.4 265.125C633.525 256.725 641.175 249.525 659.1 242.25C664.725 240 667.575 238.8 671.175 237.75C681.825 234.6 685.875 235.425 693.225 231.3C699.825 227.625 701.925 223.875 702.525 222.75C703.5 220.95 703.65 219.825 704.7 218.475C707.475 214.95 712.35 214.8 716.1 215.25C715.65 214.275 714.6 212.775 712.95 211.725ZM698.55 215.175C698.1 215.775 697.275 216 696.6 215.85C695.625 215.55 694.95 214.5 695.025 213.225L692.775 212.025H698.55C699.225 213 699.15 214.35 698.55 215.175Z" fill="#F7D116"/>
<path d="M421.336 216.608C418.862 217.046 416.465 218.238 413.915 218.212C412.455 218.197 410.52 217.134 409.182 218.047C407.3 219.331 407.871 222.31 406.831 224.099C406.367 224.896 405.615 225.385 404.702 225.484C403.887 225.573 402.952 225.324 402.354 226.045C401.735 226.791 401.921 227.815 401.882 228.705C401.833 229.802 401.564 230.901 400.876 231.771C400.173 232.659 399.131 233.212 398.306 233.974C397.197 234.996 396.317 236.242 395.105 237.164C393.348 238.5 391.289 239.25 389.347 240.255C387.973 240.966 386.8 241.973 385.38 242.613C384.271 243.112 383.069 243.367 381.925 243.766C380.512 244.258 379.146 244.88 377.702 245.285C376.577 245.601 375.395 245.699 374.247 245.906C373.306 246.076 372.384 246.338 371.432 246.455C369.327 246.713 367.199 245.415 365.162 245.007C363.691 244.713 362.178 244.558 360.684 244.456C359.944 244.405 359.238 244.458 358.508 244.286C356.877 243.902 355.746 242.652 354.286 241.92C352.646 241.098 350.677 240.894 349.167 239.832C347.016 238.319 346.616 235.392 344.433 233.937C343.451 233.284 341.955 232.81 340.852 233.469C339.995 233.981 339.707 234.953 339.519 235.871C339.129 237.779 338.762 239.859 339.381 241.757C340.038 243.772 341.655 244.636 343.013 246.108C344.021 247.201 344.811 249.071 344.605 250.586C344.394 252.131 343.269 253.275 342.699 254.681C341.944 256.546 342.117 259.026 340.683 260.545C339.721 261.566 338.426 262.681 337.267 263.464C335.983 264.332 334.756 264.945 333.77 266.197C332.433 267.894 329.954 271.154 332.048 273.193C334.133 275.223 337.858 273.737 339.559 271.954C340.564 270.899 341.28 269.62 342.385 268.652C343.098 268.028 343.994 267.649 344.944 267.61C346.476 267.548 348.003 267.924 349.551 267.856C352.459 267.728 355.801 267.077 358.636 268.035C360.726 268.742 361.659 271.22 363.882 271.64C365.547 271.954 367.307 271.339 369.001 271.455C370.38 271.55 371.732 271.946 373.095 272.157C375.486 272.528 377.832 272.836 380.133 273.619C383.151 274.647 385.881 277.352 386.629 280.529C386.98 282.02 386.755 283.62 386.952 285.135C387.165 286.776 388.032 288.247 388.285 289.87C388.6 291.89 388.229 293.861 388.723 295.884C389.522 299.156 390.73 303.104 394.337 304.175C394.995 304.37 395.699 304.454 396.384 304.457C397.773 304.464 399.113 304.362 400.479 304.099C401.887 303.827 403.689 303.611 404.634 302.408C405.922 300.766 405.028 298.732 404.851 296.908C404.653 294.859 405.119 292.79 405.361 290.766C405.527 289.384 405.839 288.04 406.077 286.671C406.24 285.736 406.262 284.749 406.612 283.856C407.635 281.242 409.541 278.991 410.138 276.178C410.426 274.819 409.848 273.633 409.566 272.34C409.231 270.804 409.16 269.043 409.33 267.477C409.54 265.552 411.121 264.332 412.189 262.871C412.82 262.006 413.237 260.995 413.971 260.205C414.707 259.413 415.725 258.918 416.332 258.008C416.729 257.414 416.95 256.722 417.275 256.089C418.081 254.519 419.299 252.612 420.825 251.67C421.886 251.014 423.097 250.963 424.279 250.684C425.241 250.457 426.116 250.017 426.966 249.526C427.838 249.024 428.798 248.382 428.824 247.259C428.851 246.085 427.662 245.27 427.016 244.444C426.452 243.722 426.21 242.789 426.199 241.885C426.188 240.935 426.069 239.859 426.355 238.942C426.652 237.988 427.303 237.18 427.676 236.255C428.102 235.201 428.19 234.055 428.107 232.928C427.99 231.338 426.873 229.986 426.239 228.577C425.835 227.68 425.684 226.71 425.447 225.762C425.233 224.905 424.933 224.072 424.766 223.203C424.473 221.672 424.995 220.096 424.712 218.596C424.501 217.478 423.81 216.614 422.616 216.554C422.194 216.533 421.754 216.535 421.336 216.608Z" fill="#0DB02B"/>
</g>
<defs>
<clipPath id="clip0_213_7972">
<rect width="750" height="500" fill="white"/>
</clipPath>
</defs>
</svg>
