<svg width="750" height="500" viewBox="0 0 750 500" fill="none" xmlns="http://www.w3.org/2000/svg">
<g clip-path="url(#clip0_213_7934)">
<path d="M0 0H750V500H0V0Z" fill="#E4002B"/>
<path d="M0 0H750V250L0 0Z" fill="#43B02A"/>
<path d="M750 250V500H0L750 250Z" fill="#418FDE"/>
<path d="M169.333 160.444C170.111 160.944 173.889 155.722 178.389 153.667C182.222 151.889 186.5 151.944 190.5 152.611C189.278 159.444 169 160.722 168.889 163.444C170.833 163.833 176.389 161.833 184.889 160.444C172.833 176.778 158.5 169.056 153.778 170.278C151.111 170.944 147.833 173.389 147.833 174.667C154.389 172.055 157.222 177.667 163.611 174.278C161.5 186.611 139.722 191.944 135.167 184.722C131.611 188.333 131.889 189.722 131.5 190.555C138.556 187.222 142.611 195 147.556 188.778C146.833 201.111 130.5 209.389 121.667 208.5C121.056 209.611 118.111 215.944 118.334 217.111C119.334 216.722 118.722 215 124.611 214.333C133.611 213.333 133.722 211.5 136.556 205.889C140 212.222 126.556 232.889 115.389 238.889C115.222 240.389 115.445 244.444 116.889 246.111C117.722 242.833 119.722 242 122.278 240.389C126.334 237.889 129.445 236.611 130.889 228.278C135.778 236 130.389 261.389 121.889 271.222C122.778 273.111 125 277.944 125.722 279.055C124.611 274.611 128.167 273.444 131.278 268.277C134.389 263.055 134.334 253.889 134.222 252.555C142.667 263.777 143.167 297.333 141.833 300.944C142.445 302.111 148.111 306.944 150.556 308.555C150.833 307.833 150.667 307.944 149.445 305.333C147.222 300.944 148.833 287.889 143.778 278.944C152.056 279.833 166.056 301.333 170.722 309.666C175.889 318 181.778 324.444 192.389 328.333C202.111 331.888 213.5 340.666 218.444 345.999L213.778 349.999C210.722 347.388 195.667 332.444 191.5 332.722C163.222 334.944 149.945 330.944 135.667 325.111C116.889 317.388 107.5 299.611 108.278 298.5C113.889 303.722 135.056 307.833 141.722 307.333L138.5 304.222C131.278 306.333 111.834 296.222 105.778 286.555C95.4447 269.5 96.7225 256.444 97.3336 255.555C103.945 268.389 113.056 272.333 119.056 275.444L118.611 272.333C95.6669 262.277 96.0003 237.444 96.0003 234.444C96.0003 223.833 99.6114 218.111 100.889 217.833C100 225.666 108.5 237.111 112.334 240L113.056 237.611C105.278 231.055 102.611 218.944 101.722 212.111C100.389 199.889 112.945 186.111 114.667 185.222C111.945 198.778 114.5 204.778 116.889 209.722L118 207.111C108.5 190.111 123.389 165.333 134.445 165.833C128.556 171.278 129.889 181.611 130.778 184.111C131.389 183.111 131.556 182.944 132.334 182.111C130 164.833 146.278 155.056 152.278 153C155.945 151.889 161.056 151.778 161.111 152.5C159.445 154.389 148.611 158.222 148.722 168.667C149.333 167.944 152.389 166.167 154.111 165.667C156.167 156.444 167.556 150 176.833 150C178 150 178.722 150.167 178.944 150.278C178.444 150.611 168.445 159.167 169.333 160.444Z" fill="#FFC72C"/>
<path d="M199.944 334.999C199.056 344.277 201.278 346.444 200 348.222C198.333 346.499 191.111 347.944 190.278 347.11C193.056 341.777 194.167 303.499 188.056 282.555C185.222 280.055 176.944 270.277 174.556 268.111C169.389 272.333 149.611 272.444 145.5 256.444C148.611 258.555 157.056 261.666 161.556 260.833C154.722 258.389 144.111 250.389 145.222 240.111C146.833 241.166 149.278 244.722 151.445 245.555C153.889 246.389 159.667 245.333 161.5 246.444C163.556 247.611 165.5 251.222 165.945 252.166C166.611 250.389 166.389 241.722 160.167 239.555C162 238 168.278 239.277 172.5 244.777C178.667 253.166 176.111 261.222 177.222 264.555C178.111 267.277 184.611 273.5 186.278 274.777C186.333 270.055 182.722 262.777 187.333 246.555C188.944 240.889 194.278 232.444 195.444 228.722C193 226.111 186.611 219.889 185.333 219.111C183.944 219.055 171.667 221.277 166.5 218.111C163.722 216.5 161.278 214.555 160.222 211.833C162 212.055 171.445 213.278 171.556 212.333C171.667 211.333 171.056 211.833 167.222 209.222C164.389 206.611 161 203.333 161.278 194.111C163.167 196.833 164.667 200.666 169.945 199.611C173.445 199.111 177.222 203.333 178.111 205.389C178.222 203.278 177.222 197 173.778 193.111C174.833 191.611 186.222 200.555 186.722 208.278C186.833 210.833 186.556 212.778 186.333 214.833C186.222 216.333 195.278 225.111 197.889 224.444C198.944 224.277 201.556 212.944 202.556 207.666C203.778 201.222 206.278 188.722 201.444 181.444C200.278 182.166 194.556 184.389 187.333 176.666C184.333 173.222 184.056 169.667 185.222 168.611C186.278 170.5 191.833 175.222 193.167 174.333C193.611 172.444 186.222 171.611 189 160.778C189.444 159.389 190.5 158.833 191.333 158.722C192.167 163.555 196.278 164.278 199.333 170.944C200.5 168.778 199.111 165.778 199.5 163.722C199.944 161.5 199.889 158.944 198.667 158C199.889 157.611 202.111 158 205.611 166.278C207.556 171.167 205.444 178.222 204.389 179.722C204.333 181.611 207.111 183.666 208 191.389C209 198.055 206.556 207.944 206.056 210C208.167 208.666 210.778 207.444 211.611 204.778C212.5 201.666 211.778 195.5 214.722 190.778C216.778 187.222 220.278 184.666 226 186.444C225.333 188.333 223.722 187.278 221.611 189.666C219.944 192.333 219.167 194.278 219.889 196.278C221.222 196.055 220.833 193.722 223.389 192.166C227.278 190.166 228.944 192.333 231.278 191.778C233.444 191.111 234.778 189.611 235.389 188.778C236.055 190.5 235.111 195.889 228.389 200.055C228.222 200.166 228 200.278 227.833 200.389C225.5 201.666 225.444 200.833 225 201.222C224.333 201.944 226.111 202.778 229 202.389C231.889 202 234.5 201.055 235.111 199.166C235.778 199.611 236.611 203.055 229.667 207.666C225.055 210.444 217.333 209.444 215 208.222C213.889 208.833 206.444 213.444 205.722 215C204.333 221.277 198.167 236.111 192.5 246.277C192.611 247.222 197.056 245.889 201.833 241.611C203.944 239.833 207.111 226.944 211.333 223.5C214.944 220.722 219.167 221.166 222.5 221.389C220.889 221.944 215.833 224.722 215.833 229.5C216.5 230.111 217.667 227.5 220.722 226.944C223.667 226.611 226.167 228.444 228.389 228.444C230.611 228.555 234.278 226.5 234.778 225.833C232.722 235.666 223.555 238.277 217.444 238.722C218.667 240.666 225.611 242.277 231.889 237.889C232.167 238.833 229.778 244.889 221.222 247.5C212 250.277 210.778 245.055 206.889 245.277C203.111 245.444 199.778 249 198.167 249.833C195.722 251.166 192.111 251.055 191.389 252C190.389 253.277 190.556 264.388 192.222 272.166C193.389 277.5 195.944 285.722 197.389 290.888C199.611 288.666 205.778 287.722 209.667 278.555C208.278 274.388 205.778 257.777 225.889 253.777C226.278 254.611 222.5 256.277 221.222 258.722C219.444 261.388 219.278 266.444 219.889 268.222C221.833 265.777 223.889 262.333 230.611 262.722C234.833 263 237.722 261.5 240.111 258.611C240.833 258.889 239.389 266.166 235.5 270.555C232.167 274.444 227.722 276.222 227.167 277.833C229.889 277.666 234.278 277.277 241.111 271C241.389 272.5 237.5 281.222 229.611 285.277C224.611 287.555 215.778 287.555 210.611 284.666C209.278 286.888 204.667 293.111 198.778 296.111C201.056 317.166 200.778 325.833 199.944 334.999Z" fill="#FFC72C"/>
<path d="M222.667 160.444C221.889 160.944 218.111 155.722 213.611 153.667C209.778 151.889 205.5 151.944 201.5 152.611C202.722 159.444 223 160.722 223.111 163.444C221.167 163.833 215.611 161.833 207.111 160.444C219.167 176.778 233.5 169.056 238.222 170.278C240.889 170.944 244.167 173.389 244.167 174.667C237.611 172.055 234.778 177.667 228.389 174.278C230.5 186.611 252.278 191.944 256.833 184.722C260.389 188.333 260.111 189.722 260.5 190.555C253.444 187.222 249.389 195 244.444 188.778C245.167 201.111 261.5 209.389 270.333 208.5C270.944 209.611 273.889 215.944 273.666 217.111C272.666 216.722 273.278 215 267.389 214.333C258.389 213.333 258.278 211.5 255.444 205.889C252 212.222 265.444 232.889 276.611 238.889C276.778 240.389 276.555 244.444 275.111 246.111C274.278 242.833 272.278 242 269.722 240.389C265.666 237.889 262.555 236.611 261.111 228.278C256.222 236 261.611 261.389 270.111 271.222C269.222 273.111 267 277.944 266.278 279.055C267.389 274.611 263.833 273.444 260.722 268.277C257.611 263.055 257.666 253.889 257.778 252.555C249.333 263.777 248.833 297.333 250.167 300.944C249.555 302.111 243.889 306.944 241.444 308.555C241.167 307.833 241.333 307.944 242.555 305.333C244.778 300.944 243.167 287.889 248.222 278.944C239.944 279.833 225.944 301.333 221.278 309.666C216.111 318 210.222 324.444 199.611 328.333C189.889 331.888 178.5 340.666 173.556 345.999L178.222 349.999C181.278 347.388 196.333 332.444 200.5 332.722C228.778 334.944 242.055 330.944 256.333 325.111C275.111 317.388 284.5 299.611 283.722 298.5C278.111 303.722 256.944 307.833 250.278 307.333L253.5 304.222C260.722 306.333 280.166 296.222 286.222 286.555C296.555 269.5 295.278 256.444 294.666 255.555C288.055 268.389 278.944 272.333 272.944 275.444L273.389 272.333C296.333 262.277 296 237.444 296 234.444C296 223.833 292.389 218.111 291.111 217.833C292 225.666 283.5 237.111 279.666 240L278.944 237.611C286.722 231.055 289.389 218.944 290.278 212.111C291.611 199.889 279.055 186.111 277.333 185.222C280.055 198.778 277.5 204.778 275.111 209.722L274 207.111C283.5 190.111 268.611 165.333 257.555 165.833C263.444 171.278 262.111 181.611 261.222 184.111C260.611 183.111 260.444 182.944 259.666 182.111C262 164.833 245.722 155.056 239.722 153C236.055 151.889 230.944 151.778 230.889 152.5C232.555 154.389 243.389 158.222 243.278 168.667C242.667 167.944 239.611 166.167 237.889 165.667C235.833 156.444 224.444 150 215.167 150C214 150 213.278 150.167 213.056 150.278C213.556 150.611 223.555 159.167 222.667 160.444Z" fill="#FFC72C"/>
</g>
<defs>
<clipPath id="clip0_213_7934">
<rect width="750" height="500" fill="white"/>
</clipPath>
</defs>
</svg>
