<svg width="750" height="500" viewBox="0 0 750 500" fill="none" xmlns="http://www.w3.org/2000/svg">
<g clip-path="url(#clip0_213_7155)">
<path d="M750 0H0V500H750V0Z" fill="#012169"/>
<mask id="mask0_213_7155" style="mask-type:luminance" maskUnits="userSpaceOnUse" x="0" y="0" width="378" height="189">
<path d="M0 0H377.64V188.82H0V0Z" fill="white"/>
</mask>
<g mask="url(#mask0_213_7155)">
<path d="M0 0L377.64 188.82ZM0 188.82L377.64 0Z" fill="black"/>
<path d="M0 0L377.64 188.82M0 188.82L377.64 0" stroke="white" stroke-width="37.764"/>
</g>
<mask id="mask1_213_7155" style="mask-type:luminance" maskUnits="userSpaceOnUse" x="0" y="0" width="378" height="189">
<path d="M0 0L188.82 94.41H0V0ZM188.82 0H377.64L188.82 94.41V0ZM188.82 94.41H377.64V188.82L188.82 94.41ZM188.82 94.41V188.82H0L188.82 94.41Z" fill="white"/>
</mask>
<g mask="url(#mask1_213_7155)">
<path d="M0 0L377.64 188.82ZM0 188.82L377.64 0Z" fill="black"/>
<path d="M0 0L377.64 188.82M0 188.82L377.64 0" stroke="#C8102E" stroke-width="25.176"/>
</g>
<mask id="mask2_213_7155" style="mask-type:luminance" maskUnits="userSpaceOnUse" x="0" y="0" width="378" height="189">
<path d="M0 0H377.64V188.82H0V0Z" fill="white"/>
</mask>
<g mask="url(#mask2_213_7155)">
<path d="M188.82 0V188.82ZM0 94.41H377.64Z" fill="black"/>
<path d="M188.82 0V188.82M0 94.41H377.64" stroke="white" stroke-width="62.94"/>
</g>
<mask id="mask3_213_7155" style="mask-type:luminance" maskUnits="userSpaceOnUse" x="0" y="0" width="378" height="189">
<path d="M0 0H377.64V188.82H0V0Z" fill="white"/>
</mask>
<g mask="url(#mask3_213_7155)">
<path d="M188.82 0V188.82ZM0 94.41H377.64Z" fill="black"/>
<path d="M188.82 0V188.82M0 94.41H377.64" stroke="#C8102E" stroke-width="37.764"/>
</g>
<path d="M605.163 127.607V141.895L633.738 127.607H605.163Z" fill="white"/>
<path d="M610.62 144.403L602.223 132.844L633.738 127.607L610.62 144.403Z" fill="white"/>
<path d="M605.163 127.607V141.895L576.588 127.607H605.163Z" fill="white"/>
<path d="M599.706 144.403L608.104 132.844L576.588 127.607L599.706 144.403Z" fill="white"/>
<path d="M613.993 134.023L600.405 138.438L622.824 161.199L613.993 134.023Z" fill="white"/>
<path d="M599.706 144.403L608.104 132.844L622.824 161.199L599.706 144.403Z" fill="white"/>
<path d="M596.333 134.023L609.921 138.438L605.163 106.847L596.333 134.023Z" fill="white"/>
<path d="M613.993 134.023L600.405 138.438L605.163 106.847L613.993 134.023Z" fill="white"/>
<path d="M596.333 134.023L609.921 138.438L587.503 161.199L596.333 134.023Z" fill="white"/>
<path d="M610.62 144.403L602.222 132.844L587.503 161.199L610.62 144.403Z" fill="white"/>
<path d="M605.163 130.757V140.198L624.045 130.757H605.163Z" fill="#C8102E"/>
<path d="M608.769 141.855L603.22 134.217L624.045 130.757L608.769 141.855Z" fill="#C8102E"/>
<path d="M605.163 130.757V140.198L586.281 130.757H605.163Z" fill="#C8102E"/>
<path d="M601.557 141.855L607.106 134.217L586.281 130.757L601.557 141.855Z" fill="#C8102E"/>
<path d="M610.998 134.996L602.019 137.913L616.833 152.954L610.998 134.996Z" fill="#C8102E"/>
<path d="M601.557 141.855L607.106 134.217L616.833 152.954L601.557 141.855Z" fill="#C8102E"/>
<path d="M599.328 134.996L608.307 137.914L605.163 117.038L599.328 134.996Z" fill="#C8102E"/>
<path d="M610.998 134.996L602.019 137.914L605.163 117.038L610.998 134.996Z" fill="#C8102E"/>
<path d="M599.328 134.996L608.307 137.913L593.493 152.954L599.328 134.996Z" fill="#C8102E"/>
<path d="M608.769 141.855L603.22 134.217L593.493 152.954L608.769 141.855Z" fill="#C8102E"/>
<path d="M679.956 193.646L679.956 206.36L705.384 193.646L679.956 193.646Z" fill="white"/>
<path d="M684.812 208.593L677.339 198.307L705.384 193.646L684.812 208.593Z" fill="white"/>
<path d="M679.956 193.646L679.956 206.36L654.528 193.646L679.956 193.646Z" fill="white"/>
<path d="M675.1 208.593L682.573 198.307L654.528 193.646L675.1 208.593Z" fill="white"/>
<path d="M687.814 199.355L675.722 203.284L695.671 223.539L687.814 199.355Z" fill="white"/>
<path d="M675.1 208.593L682.573 198.307L695.672 223.539L675.1 208.593Z" fill="white"/>
<path d="M672.099 199.355L684.19 203.284L679.956 175.172L672.099 199.355Z" fill="white"/>
<path d="M687.814 199.355L675.722 203.284L679.956 175.172L687.814 199.355Z" fill="white"/>
<path d="M672.099 199.355L684.19 203.284L664.241 223.539L672.099 199.355Z" fill="white"/>
<path d="M684.812 208.593L677.339 198.307L664.241 223.539L684.812 208.593Z" fill="white"/>
<path d="M679.956 196.796L679.956 204.663L695.691 196.796L679.956 196.796Z" fill="#C8102E"/>
<path d="M682.961 206.045L678.337 199.68L695.691 196.796L682.961 206.045Z" fill="#C8102E"/>
<path d="M679.956 196.796L679.956 204.663L664.221 196.796L679.956 196.796Z" fill="#C8102E"/>
<path d="M676.951 206.045L681.575 199.68L664.221 196.796L676.951 206.045Z" fill="#C8102E"/>
<path d="M684.819 200.329L677.336 202.76L689.681 215.293L684.819 200.329Z" fill="#C8102E"/>
<path d="M676.951 206.045L681.575 199.68L689.681 215.294L676.951 206.045Z" fill="#C8102E"/>
<path d="M675.094 200.329L682.576 202.76L679.956 185.364L675.094 200.329Z" fill="#C8102E"/>
<path d="M684.818 200.329L677.336 202.76L679.956 185.364L684.818 200.329Z" fill="#C8102E"/>
<path d="M675.094 200.329L682.576 202.76L670.231 215.293L675.094 200.329Z" fill="#C8102E"/>
<path d="M682.961 206.045L678.337 199.68L670.231 215.294L682.961 206.045Z" fill="#C8102E"/>
<path d="M517.905 215.399L517.905 229.686L546.479 215.399L517.905 215.399Z" fill="white"/>
<path d="M523.362 232.195L514.964 220.636L546.479 215.399L523.362 232.195Z" fill="white"/>
<path d="M517.905 215.399L517.905 229.686L489.33 215.399L517.905 215.399Z" fill="white"/>
<path d="M512.447 232.195L520.845 220.636L489.33 215.399L512.447 232.195Z" fill="white"/>
<path d="M526.735 221.814L513.147 226.229L535.565 248.99L526.735 221.814Z" fill="white"/>
<path d="M512.448 232.195L520.845 220.636L535.565 248.99L512.448 232.195Z" fill="white"/>
<path d="M509.074 221.814L522.663 226.229L517.905 194.638L509.074 221.814Z" fill="white"/>
<path d="M526.735 221.814L513.147 226.229L517.905 194.638L526.735 221.814Z" fill="white"/>
<path d="M509.074 221.814L522.663 226.229L500.244 248.99L509.074 221.814Z" fill="white"/>
<path d="M523.362 232.195L514.964 220.636L500.244 248.99L523.362 232.195Z" fill="white"/>
<path d="M517.905 218.548L517.905 227.989L536.787 218.548L517.905 218.548Z" fill="#C8102E"/>
<path d="M521.511 229.647L515.962 222.009L536.787 218.548L521.511 229.647Z" fill="#C8102E"/>
<path d="M517.905 218.548L517.905 227.989L499.023 218.548L517.905 218.548Z" fill="#C8102E"/>
<path d="M514.299 229.647L519.848 222.009L499.023 218.548L514.299 229.647Z" fill="#C8102E"/>
<path d="M523.74 222.787L514.761 225.705L529.575 240.745L523.74 222.787Z" fill="#C8102E"/>
<path d="M514.299 229.647L519.848 222.009L529.574 240.745L514.299 229.647Z" fill="#C8102E"/>
<path d="M512.07 222.788L521.049 225.705L517.905 204.83L512.07 222.788Z" fill="#C8102E"/>
<path d="M523.739 222.788L514.76 225.705L517.905 204.83L523.739 222.788Z" fill="#C8102E"/>
<path d="M512.07 222.787L521.049 225.705L506.235 240.745L512.07 222.787Z" fill="#C8102E"/>
<path d="M521.511 229.647L515.962 222.009L506.235 240.745L521.511 229.647Z" fill="#C8102E"/>
<path d="M605.163 353.169V369.03L636.885 353.169H605.163Z" fill="white"/>
<path d="M611.221 371.814L601.899 358.983L636.885 353.169L611.221 371.814Z" fill="white"/>
<path d="M605.163 353.169V369.03L573.441 353.169H605.163Z" fill="white"/>
<path d="M599.105 371.814L608.428 358.983L573.441 353.169L599.105 371.814Z" fill="white"/>
<path d="M614.966 360.291L599.881 365.192L624.768 390.46L614.966 360.291Z" fill="white"/>
<path d="M599.105 371.815L608.428 358.983L624.768 390.46L599.105 371.815Z" fill="white"/>
<path d="M595.36 360.291L610.445 365.192L605.163 330.122L595.36 360.291Z" fill="white"/>
<path d="M614.965 360.291L599.881 365.192L605.163 330.122L614.965 360.291Z" fill="white"/>
<path d="M595.36 360.291L610.445 365.192L585.558 390.46L595.36 360.291Z" fill="white"/>
<path d="M611.221 371.815L601.898 358.983L585.558 390.46L611.221 371.815Z" fill="white"/>
<path d="M605.163 356.318V367.333L627.192 356.318H605.163Z" fill="#C8102E"/>
<path d="M609.37 369.267L602.896 360.356L627.192 356.318L609.37 369.267Z" fill="#C8102E"/>
<path d="M605.163 356.318V367.333L583.134 356.318H605.163Z" fill="#C8102E"/>
<path d="M600.956 369.267L607.43 360.356L583.134 356.318L600.956 369.267Z" fill="#C8102E"/>
<path d="M611.971 361.264L601.495 364.668L618.778 382.215L611.971 361.264Z" fill="#C8102E"/>
<path d="M600.956 369.267L607.43 360.356L618.778 382.215L600.956 369.267Z" fill="#C8102E"/>
<path d="M598.356 361.264L608.831 364.668L605.163 340.313L598.356 361.264Z" fill="#C8102E"/>
<path d="M611.97 361.264L601.495 364.668L605.163 340.313L611.97 361.264Z" fill="#C8102E"/>
<path d="M598.356 361.264L608.831 364.668L591.548 382.215L598.356 361.264Z" fill="#C8102E"/>
<path d="M609.37 369.267L602.896 360.356L591.549 382.215L609.37 369.267Z" fill="#C8102E"/>
</g>
<defs>
<clipPath id="clip0_213_7155">
<rect width="750" height="500" fill="white"/>
</clipPath>
</defs>
</svg>
