<svg width="750" height="500" viewBox="0 0 750 500" fill="none" xmlns="http://www.w3.org/2000/svg">
<g clip-path="url(#clip0_213_5983)">
<path d="M750 0H0V500H750V0Z" fill="#FF0000"/>
<path d="M300 0H0V500H300V0Z" fill="#006600"/>
<path fill-rule="evenodd" clip-rule="evenodd" d="M397.8 327.55C360.037 326.413 186.875 218.325 185.688 201.113L195.249 185.166C212.426 210.124 389.45 315.241 406.837 311.516L397.8 327.545" fill="#FFFF00"/>
<path d="M397.8 327.55C360.037 326.413 186.875 218.325 185.688 201.113L195.249 185.166C212.426 210.124 389.45 315.241 406.837 311.516L397.8 327.545" stroke="black" stroke-width="0.71625" stroke-linecap="round" stroke-linejoin="round"/>
<path fill-rule="evenodd" clip-rule="evenodd" d="M193.237 183C189.85 192.117 238.424 222.148 296.866 257.693C355.306 293.235 405.697 315.2 409.432 312.05C409.661 311.643 411.27 308.874 411.123 308.896C410.423 309.951 408.718 310.284 406.059 309.518C390.271 304.964 349.091 286.062 298.092 255.135C247.094 224.207 202.724 195.705 195.828 183.595C195.348 182.756 195.007 181.225 195.076 180.034L194.909 180.032L193.44 182.598L193.239 183.001L193.237 183ZM398.688 328.05C398.047 329.212 396.853 329.251 394.585 329.001C380.46 327.438 337.599 306.595 286.883 276.235C227.87 240.91 179.133 208.723 184.421 200.31L185.859 197.767L186.142 197.855C181.388 212.111 282.327 269.828 288.27 273.508C346.675 309.691 395.914 330.821 400.271 325.33L398.686 328.056V328.054L398.688 328.05Z" fill="#FFFF00" stroke="black" stroke-width="0.71625" stroke-linecap="round" stroke-linejoin="round"/>
<path fill-rule="evenodd" clip-rule="evenodd" d="M300.213 211.538C338.009 211.239 384.65 206.373 411.491 195.675L405.708 186.279C389.843 195.06 342.946 200.834 299.893 201.698C248.973 201.229 213.031 196.488 195.022 184.404L189.563 194.41C222.668 208.418 256.591 211.393 300.213 211.538Z" fill="#FFFF00" stroke="black" stroke-width="0.71625" stroke-linecap="round" stroke-linejoin="round"/>
<path fill-rule="evenodd" clip-rule="evenodd" d="M413.05 195.888C412.126 197.365 394.621 203.402 368.834 207.857C351.349 210.522 328.541 212.801 300.079 212.829C273.038 212.854 250.948 210.929 234.224 208.663C207.154 204.418 193.183 198.512 188.018 196.426C188.511 195.443 188.829 194.754 189.305 193.837C204.174 199.757 218.21 203.327 234.654 205.857C251.268 208.107 273.091 210.059 299.999 210.034C328.329 210.005 350.885 207.553 368.269 204.967C394.713 200.702 409.158 195.213 411.186 192.664L413.054 195.888H413.051H413.05ZM407.975 186.359C405.108 188.661 390.827 193.726 365.701 197.739C348.932 200.142 327.611 202.293 300.37 202.319C274.49 202.345 253.346 200.6 237.263 198.258C211.746 194.925 198.165 188.914 193.268 187.161C193.756 186.319 194.252 185.483 194.761 184.644C198.571 186.562 211.677 191.883 237.544 195.547C253.444 197.801 274.62 199.482 300.371 199.455C327.484 199.427 348.562 197.235 365.225 194.845C390.481 191.37 404.071 184.911 406.135 183.293L407.976 186.357L407.975 186.359Z" fill="#FFFF00" stroke="black" stroke-width="0.71625" stroke-linecap="round" stroke-linejoin="round"/>
<path fill-rule="evenodd" clip-rule="evenodd" d="M176.1 257.075C199.348 269.579 250.981 275.88 299.842 276.314C344.331 276.384 402.29 269.437 423.964 257.951L423.367 245.436C416.587 256.033 354.476 266.198 299.36 265.781C244.244 265.366 193.062 256.853 176.001 245.833L176.1 257.072" fill="#FFFF00"/>
<path d="M176.1 257.075C199.348 269.579 250.981 275.88 299.842 276.314C344.331 276.384 402.29 269.437 423.964 257.951L423.367 245.436C416.587 256.033 354.476 266.198 299.36 265.781C244.244 265.366 193.062 256.853 176.001 245.833L176.1 257.072" stroke="black" stroke-width="0.71625" stroke-linecap="round" stroke-linejoin="round"/>
<path fill-rule="evenodd" clip-rule="evenodd" d="M425.15 255.275L425.151 258.259C421.894 262.154 401.469 268.041 375.855 272.187C356.361 275.176 330.946 277.43 299.277 277.43C269.191 277.43 245.199 275.285 226.592 272.428C197.181 268.145 178.369 260.645 174.592 258.407L174.609 254.925C185.952 262.467 216.685 267.984 227.005 269.673C245.49 272.511 269.34 274.639 299.276 274.639C330.796 274.639 356.069 272.4 375.44 269.432C393.816 266.777 419.995 259.873 425.149 255.277L425.15 255.275ZM425.163 244.66L425.164 247.644C421.906 251.537 401.481 257.424 375.867 261.569C356.374 264.558 330.959 266.812 299.29 266.812C269.204 266.812 245.211 264.669 226.605 261.81C197.194 257.53 178.381 250.03 174.605 247.79L174.621 244.309C185.965 251.85 216.698 257.368 227.018 259.054C245.503 261.894 269.353 264.024 299.289 264.024C330.809 264.024 356.081 261.784 375.453 258.812C393.829 256.158 420.008 249.254 425.161 244.657L425.163 244.66Z" fill="#FFFF00" stroke="black" stroke-width="0.71625" stroke-linecap="round" stroke-linejoin="round"/>
<path fill-rule="evenodd" clip-rule="evenodd" d="M299.738 325.4C246.273 325.081 200.461 310.826 190.788 308.47L197.842 319.513C214.929 326.701 259.622 337.413 300.25 336.227C340.88 335.042 376.388 331.894 401.41 319.713L408.643 308.269C391.591 316.3 333.559 325.318 299.738 325.4Z" fill="#FFFF00" stroke="black" stroke-width="0.71625" stroke-linecap="round" stroke-linejoin="round"/>
<path fill-rule="evenodd" clip-rule="evenodd" d="M404.125 317.15C403.062 318.774 401.979 320.378 400.88 321.937C389.078 326.098 370.481 330.467 362.633 331.742C346.603 335.045 321.802 337.484 299.791 337.495C252.428 336.802 213.66 327.531 195.421 319.622L193.949 317.092L194.19 316.711L196.685 317.679C229.12 329.283 265.549 333.913 300.058 334.744C321.98 334.821 343.927 332.232 361.673 329.058C388.887 323.605 399.89 319.495 403.267 317.632L404.125 317.15ZM410.397 306.806C410.424 306.838 410.452 306.869 410.478 306.903C409.683 308.245 408.864 309.609 408.025 310.981C401.731 313.231 384.648 318.229 359.702 321.717C343.265 323.956 333.049 326.125 300.353 326.76C239.084 325.201 199.415 313.221 189.992 310.266L188.595 307.587C224.102 316.857 260.372 323.327 300.355 323.989C330.269 323.351 342.995 321.149 359.295 318.926C388.384 314.403 403.04 309.614 407.439 308.231C407.384 308.152 407.319 308.068 407.246 307.982L410.4 306.804L410.397 306.806Z" fill="#FFFF00" stroke="black" stroke-width="0.6875" stroke-linecap="round" stroke-linejoin="round"/>
<path fill-rule="evenodd" clip-rule="evenodd" d="M411.038 247.2C411.211 282.371 393.213 313.933 378.715 327.856C358.205 347.555 331.011 360.226 299.254 360.81C263.791 361.462 230.354 338.343 221.385 328.186C203.85 308.33 189.574 283.115 189.116 249.133C191.288 210.746 206.358 184.008 228.201 165.671C250.045 147.335 279.13 138.405 303.353 139.044C331.3 139.781 363.946 153.491 386.504 180.709C401.283 198.541 407.683 217.894 411.038 247.2ZM299.555 126.773C367.661 126.773 423.675 182.195 423.675 250.151C423.675 318.106 367.661 373.531 299.555 373.531C231.449 373.531 175.9 318.108 175.9 250.151C175.9 182.195 231.449 126.773 299.555 126.773Z" fill="#FFFF00" stroke="black" stroke-width="0.71625" stroke-linecap="round" stroke-linejoin="round"/>
<path fill-rule="evenodd" clip-rule="evenodd" d="M299.888 126.35C368.055 126.35 423.651 181.954 423.651 250.128C423.651 318.3 368.054 373.903 299.888 373.903C231.72 373.903 176.124 318.301 176.124 250.128C176.124 181.954 231.721 126.35 299.888 126.35ZM178.848 250.128C178.848 316.703 233.518 371.181 299.888 371.181C366.259 371.181 420.929 316.703 420.929 250.128C420.929 183.551 366.258 129.073 299.888 129.073C233.518 129.073 178.848 183.553 178.848 250.128Z" fill="#FFFF00" stroke="black" stroke-width="0.71625" stroke-linecap="round" stroke-linejoin="round"/>
<path fill-rule="evenodd" clip-rule="evenodd" d="M299.988 136.638C362.151 136.638 413.354 187.664 413.354 250.018C413.354 312.373 362.15 363.396 299.988 363.396C237.825 363.396 186.621 312.373 186.621 250.018C186.621 187.664 237.826 136.638 299.988 136.638ZM189.344 250.017C189.344 310.873 239.318 360.672 299.988 360.672C360.658 360.672 410.631 310.873 410.631 250.017C410.631 189.159 360.659 139.361 299.988 139.361C239.318 139.361 189.344 189.159 189.344 250.017Z" fill="#FFFF00" stroke="black" stroke-width="0.71625" stroke-linecap="round" stroke-linejoin="round"/>
<path fill-rule="evenodd" clip-rule="evenodd" d="M304.975 125.85H294.368L294.381 374.55H305.024L304.975 125.85Z" fill="#FFFF00" stroke="black" stroke-width="0.71625" stroke-linecap="round" stroke-linejoin="round"/>
<path fill-rule="evenodd" clip-rule="evenodd" d="M303.913 124.433H306.612L306.635 375.995H303.933L303.913 124.433ZM293.386 124.435H296.107L296.111 375.997H293.388V124.435H293.386Z" fill="#FFFF00" stroke="black" stroke-width="0.71625" stroke-linecap="round" stroke-linejoin="round"/>
<path fill-rule="evenodd" clip-rule="evenodd" d="M423.738 254.919V245.725L416.25 238.75L373.75 227.5L312.5 221.25L238.75 225L186.25 237.5L175.65 245.35V254.546L202.5 242.5L266.25 232.5H327.5L372.5 237.5L403.75 245L423.738 254.919Z" fill="#FFFF00" stroke="black" stroke-width="0.71625" stroke-linecap="round" stroke-linejoin="round"/>
<path fill-rule="evenodd" clip-rule="evenodd" d="M299.938 230.963C329.166 230.909 357.525 233.732 380.019 238.112C403.23 242.752 419.565 248.556 425.15 255.076L425.144 258.303C418.408 250.191 396.428 244.243 379.496 240.843C357.174 236.501 329.005 233.697 299.938 233.751C269.265 233.809 240.704 236.714 218.708 241.005C201.058 244.508 177.519 251.465 174.58 258.328V254.967C176.194 250.216 193.721 243.118 218.31 238.195C240.471 233.874 269.085 231.019 299.938 230.963ZM299.95 220.347C329.179 220.294 357.538 223.119 380.031 227.497C403.243 232.139 419.578 237.941 425.163 244.46L425.156 247.688C418.421 239.578 396.44 233.629 379.509 230.231C357.186 225.886 329.018 223.083 299.95 223.139C269.278 223.194 240.855 226.101 218.856 230.39C201.824 233.619 177.324 240.852 174.591 247.715V244.352C176.205 239.653 194.088 232.3 218.323 227.581C240.484 223.259 269.098 220.406 299.95 220.347Z" fill="#FFFF00" stroke="black" stroke-width="0.71625" stroke-linecap="round" stroke-linejoin="round"/>
<path fill-rule="evenodd" clip-rule="evenodd" d="M299.35 166.2C345.411 165.97 385.588 172.64 403.969 182.056L410.674 193.655C394.697 185.045 351.354 176.093 299.417 177.431C257.1 177.691 211.884 182.09 189.197 194.194L197.202 180.808C215.821 171.152 259.729 166.254 299.352 166.203" fill="#FFFF00"/>
<path d="M299.35 166.2C345.411 165.97 385.588 172.64 403.969 182.056L410.674 193.655C394.697 185.045 351.354 176.093 299.417 177.431C257.1 177.691 211.884 182.09 189.197 194.194L197.202 180.808C215.821 171.152 259.729 166.254 299.352 166.203" stroke="black" stroke-width="0.71625" stroke-linecap="round" stroke-linejoin="round"/>
<path fill-rule="evenodd" clip-rule="evenodd" d="M299.963 175.775C326.234 175.706 351.619 177.187 371.808 180.83C390.609 184.329 408.539 189.581 411.103 192.405L413.09 195.918C406.855 191.846 391.339 187.313 371.416 183.535C351.409 179.775 326.041 178.529 299.916 178.597C270.264 178.496 247.226 180.061 227.455 183.509C206.545 187.421 192.038 193.011 188.459 195.666L190.407 191.953C197.361 188.406 208.394 184.129 226.936 180.791C247.382 177.056 270.664 175.936 299.964 175.775L299.963 175.775ZM299.951 165.17C325.093 165.104 349.916 166.505 369.266 169.983C384.528 172.954 399.62 177.592 405.146 181.719L408.053 186.339C403.111 180.845 384.508 175.64 368.086 172.724C348.885 169.412 325.092 168.101 299.951 167.892C273.566 167.966 249.182 169.582 230.261 173.027C212.21 176.462 200.561 180.529 195.632 183.705L198.188 179.846C204.99 176.266 215.978 172.977 229.817 170.288C248.878 166.818 273.411 165.244 299.951 165.17Z" fill="#FFFF00" stroke="black" stroke-width="0.71625" stroke-linecap="round" stroke-linejoin="round"/>
<path fill-rule="evenodd" clip-rule="evenodd" d="M361.438 301.575C338.665 297.324 315.851 296.707 299.916 296.894C223.158 297.794 198.361 312.655 195.335 317.155L189.598 307.804C209.141 293.639 250.94 285.695 300.332 286.507C325.98 286.927 348.112 288.631 366.731 292.237L361.436 301.578" fill="#FFFF00"/>
<path d="M361.438 301.575C338.665 297.324 315.851 296.707 299.916 296.894C223.158 297.794 198.361 312.655 195.335 317.155L189.598 307.804C209.141 293.639 250.94 285.695 300.332 286.507C325.98 286.927 348.112 288.631 366.731 292.237L361.436 301.578" stroke="black" stroke-width="0.71625" stroke-linecap="round" stroke-linejoin="round"/>
<path fill-rule="evenodd" clip-rule="evenodd" d="M299.475 295.575C320.828 295.894 341.786 296.776 362.016 300.548L360.551 303.134C341.763 299.666 321.733 298.339 299.548 298.447C271.219 298.225 242.566 300.871 217.621 308.03C209.75 310.221 196.72 315.281 195.391 319.463L193.934 317.059C194.354 314.588 202.229 309.458 216.951 305.322C245.524 297.139 272.25 295.76 299.475 295.573L299.475 295.575ZM300.444 284.83C322.567 285.243 345.413 286.266 367.619 290.665L366.093 293.357C346.041 289.376 326.882 288.049 300.575 287.644C272.156 287.696 242.011 289.722 214.602 297.691C205.753 300.268 190.481 305.841 189.972 310.253L188.515 307.671C188.846 303.664 202.067 298.436 213.962 294.976C241.582 286.946 271.805 284.881 300.444 284.83Z" fill="#FFFF00" stroke="black" stroke-width="0.6875" stroke-linecap="round" stroke-linejoin="round"/>
<path fill-rule="evenodd" clip-rule="evenodd" d="M409.475 309.225L400.251 323.536L373.75 300L305 253.75L227.5 211.25L187.263 197.488L195.838 181.588L198.75 180L223.75 186.25L306.25 228.75L353.75 258.75L393.75 287.5L410 306.25L409.475 309.225Z" fill="#FFFF00" stroke="black" stroke-width="0.71625" stroke-linecap="round" stroke-linejoin="round"/>
<path fill-rule="evenodd" clip-rule="evenodd" d="M185.813 197.863C192.87 193.076 244.736 216.181 299.006 248.905C353.133 281.723 404.853 318.806 400.184 325.746L398.648 328.162L397.944 328.717C398.095 328.609 398.873 327.658 397.868 325.085C395.562 317.497 358.874 288.221 298 251.466C238.656 216.08 189.199 194.752 184.254 200.849L185.813 197.863ZM411.363 309.021C415.825 300.206 367.718 263.966 308.073 228.681C247.056 194.099 203.08 173.743 195.048 179.813L193.263 183.061C193.247 183.24 193.328 182.84 193.705 182.549C195.166 181.274 197.586 181.36 198.679 181.34C212.51 181.548 252.013 199.727 307.436 231.5C331.721 245.644 410.025 295.864 409.726 309.987C409.747 311.201 409.827 311.451 409.37 312.052L411.363 309.021Z" fill="#FFFF00"/>
<path d="M411.363 309.021C415.825 300.206 367.718 263.966 308.073 228.681C247.056 194.099 203.08 173.743 195.048 179.813L193.263 183.061C193.247 183.24 193.328 182.84 193.705 182.549C195.166 181.274 197.586 181.36 198.679 181.34C212.51 181.548 252.013 199.727 307.436 231.5C331.721 245.644 410.025 295.864 409.726 309.987C409.747 311.201 409.827 311.451 409.37 312.052L411.363 309.021ZM411.363 309.021L411.362 309.02M185.813 197.863C192.87 193.076 244.736 216.181 299.006 248.905C353.133 281.723 404.853 318.806 400.184 325.746L398.648 328.162L397.944 328.717C398.095 328.609 398.873 327.658 397.868 325.085C395.562 317.497 358.874 288.221 298 251.466C238.656 216.08 189.199 194.752 184.254 200.849L185.813 197.863Z" stroke="black" stroke-width="0.71625" stroke-linecap="round" stroke-linejoin="round"/>
<path d="M225.75 263.762C225.75 284.101 234.078 302.496 247.571 315.94C261.09 329.412 279.461 337.914 299.832 337.914C320.309 337.914 338.891 329.598 352.352 316.177C365.814 302.759 374.156 284.237 374.16 263.827H374.157V164.841L225.732 164.665L225.748 263.762L225.75 263.762Z" fill="white" stroke="black" stroke-width="0.837963" stroke-linejoin="bevel"/>
<path d="M228.525 263.9V263.956C228.525 283.402 236.577 301.111 249.494 313.967C262.436 326.849 280.261 334.857 299.761 334.857C319.362 334.857 337.151 326.907 350.039 314.075C362.924 301.244 370.91 283.534 370.912 264.02H370.91V167.987L228.61 167.964L228.523 263.899M342.3 196.716L342.305 257.829L342.254 264.294C342.254 265.995 342.152 267.934 341.954 269.586C340.797 279.247 336.354 287.669 329.772 294.221C322.068 301.89 311.434 306.647 299.714 306.647C288.055 306.647 277.665 301.725 269.927 294.022C261.99 286.122 257.39 275.29 257.39 264.088L257.373 196.56L342.298 196.713L342.3 196.716Z" fill="#FF0000"/>
<path d="M228.525 263.9V263.956C228.525 283.402 236.577 301.111 249.494 313.967C262.436 326.849 280.261 334.857 299.761 334.857C319.362 334.857 337.151 326.907 350.039 314.075C362.924 301.244 370.91 283.534 370.912 264.02H370.91V167.987L228.61 167.964L228.523 263.899M342.3 196.716L342.305 257.829L342.254 264.294C342.254 265.995 342.152 267.934 341.954 269.586C340.797 279.247 336.354 287.669 329.772 294.221C322.068 301.89 311.434 306.647 299.714 306.647C288.055 306.647 277.665 301.725 269.927 294.022C261.99 286.122 257.39 275.29 257.39 264.088L257.373 196.56L342.298 196.713L342.3 196.716Z" stroke="black" stroke-width="0.634175"/>
<path d="M237.737 193.037C237.906 186.136 242.803 184.502 242.838 184.478C242.873 184.455 248.127 186.238 248.11 193.101L237.737 193.037Z" fill="#FFFF00"/>
<path d="M233.512 184.612L232.66 192.543L237.836 192.555C237.886 185.993 242.803 184.901 242.922 184.926C243.034 184.919 247.908 186.376 248.038 192.555H253.227L252.29 184.563L233.513 184.61L233.512 184.612Z" fill="#FFFF00" stroke="black" stroke-width="0.625"/>
<path d="M232.312 192.575H253.495C253.941 192.575 254.306 193.016 254.306 193.555C254.306 194.093 253.941 194.532 253.495 194.532H232.312C231.866 194.532 231.501 194.093 231.501 193.555C231.501 193.016 231.866 192.575 232.312 192.575Z" fill="#FFFF00" stroke="black" stroke-width="0.625"/>
<path d="M240.012 192.537C240.035 188.397 242.84 187.225 242.854 187.227C242.855 187.227 245.782 188.435 245.805 192.537H240.012Z" fill="#FFFF00" stroke="black" stroke-width="0.625"/>
<path d="M232.762 181.312H253.069C253.496 181.312 253.847 181.71 253.847 182.193C253.847 182.677 253.496 183.074 253.069 183.074H232.762C232.335 183.074 231.984 182.679 231.984 182.193C231.984 181.71 232.335 181.312 232.762 181.312Z" fill="#FFFF00" stroke="black" stroke-width="0.625"/>
<path d="M233.187 183.087H252.61C253.019 183.087 253.354 183.483 253.354 183.967C253.354 184.452 253.019 184.848 252.61 184.848H233.187C232.778 184.848 232.443 184.452 232.443 183.967C232.443 183.483 232.778 183.087 233.187 183.087Z" fill="#FFFF00" stroke="black" stroke-width="0.625"/>
<path d="M239.462 169.85L240.996 169.852V170.942H242.115V169.828L243.686 169.833V170.942H244.808V169.829H246.38L246.377 172.343C246.377 172.738 246.06 172.994 245.692 172.994H240.177C239.807 172.994 239.465 172.697 239.464 172.336L239.46 169.851L239.462 169.85Z" fill="#FFFF00" stroke="black" stroke-width="0.625"/>
<path d="M245.237 173.212L245.584 181.277L240.205 181.257L240.561 173.191L245.237 173.212Z" fill="#FFFF00" stroke="black" stroke-width="0.625"/>
<path d="M238.675 176.95L238.839 181.297L233.682 181.299L233.828 176.95L238.675 176.95Z" fill="#FFFF00" stroke="black" stroke-width="0.625"/>
<path d="M251.936 176.95L252.1 181.297L246.943 181.299L247.089 176.95L251.936 176.95Z" fill="#FFFF00" stroke="black" stroke-width="0.625"/>
<path d="M232.875 173.8L234.374 173.804V174.894H235.471V173.778L237.008 173.783V174.895H238.107V173.779L239.645 173.781L239.642 176.296C239.642 176.689 239.331 176.944 238.972 176.944H233.576C233.214 176.944 232.878 176.65 232.877 176.287L232.873 173.801L232.875 173.8Z" fill="#FFFF00" stroke="black" stroke-width="0.625"/>
<path d="M246.136 173.8L247.635 173.804V174.894H248.732V173.778L250.269 173.783V174.895H251.368V173.779L252.906 173.781L252.903 176.296C252.903 176.689 252.592 176.944 252.233 176.944H246.837C246.475 176.944 246.139 176.65 246.138 176.287L246.134 173.801L246.136 173.8Z" fill="#FFFF00" stroke="black" stroke-width="0.625"/>
<path d="M242.375 175.762C242.342 174.979 243.471 174.97 243.457 175.762V177.683H242.375L242.375 175.762Z" fill="black"/>
<path d="M235.712 178.55C235.709 177.793 236.758 177.777 236.745 178.55V180.034H235.713L235.712 178.55Z" fill="black"/>
<path d="M249.014 178.55C249.01 177.793 250.06 177.777 250.047 178.55V180.034H249.014L249.014 178.55Z" fill="black"/>
<path d="M237.737 250.937C237.906 244.036 242.803 242.402 242.838 242.378C242.873 242.355 248.127 244.137 248.11 251.001L237.737 250.937Z" fill="#FFFF00"/>
<path d="M233.512 242.512L232.66 250.443L237.836 250.454C237.886 243.893 242.803 242.801 242.922 242.825C243.034 242.819 247.908 244.276 248.038 250.454H253.227L252.29 242.463L233.513 242.51L233.512 242.512Z" fill="#FFFF00" stroke="black" stroke-width="0.625"/>
<path d="M232.312 250.475H253.495C253.941 250.475 254.306 250.916 254.306 251.455C254.306 251.993 253.941 252.432 253.495 252.432H232.312C231.866 252.432 231.501 251.993 231.501 251.455C231.501 250.916 231.866 250.475 232.312 250.475Z" fill="#FFFF00" stroke="black" stroke-width="0.625"/>
<path d="M240.012 250.437C240.035 246.296 242.84 245.125 242.854 245.127C242.855 245.127 245.782 246.335 245.805 250.437H240.012Z" fill="#FFFF00" stroke="black" stroke-width="0.625"/>
<path d="M232.762 239.212H253.069C253.496 239.212 253.847 239.61 253.847 240.093C253.847 240.577 253.496 240.974 253.069 240.974H232.762C232.335 240.974 231.984 240.579 231.984 240.093C231.984 239.61 232.335 239.212 232.762 239.212Z" fill="#FFFF00" stroke="black" stroke-width="0.625"/>
<path d="M233.187 240.987H252.61C253.019 240.987 253.354 241.383 253.354 241.867C253.354 242.352 253.019 242.748 252.61 242.748H233.187C232.778 242.748 232.443 242.352 232.443 241.867C232.443 241.383 232.778 240.987 233.187 240.987Z" fill="#FFFF00" stroke="black" stroke-width="0.625"/>
<path d="M239.462 227.75L240.996 227.752V228.841H242.115V227.728L243.686 227.733V228.842H244.808V227.729H246.38L246.377 230.243C246.377 230.638 246.06 230.894 245.692 230.894H240.177C239.807 230.894 239.465 230.597 239.464 230.235L239.46 227.751L239.462 227.75Z" fill="#FFFF00" stroke="black" stroke-width="0.625"/>
<path d="M245.237 231.112L245.584 239.176L240.205 239.157L240.561 231.091L245.237 231.112Z" fill="#FFFF00" stroke="black" stroke-width="0.625"/>
<path d="M238.675 234.85L238.839 239.197L233.682 239.199L233.828 234.85L238.675 234.85Z" fill="#FFFF00" stroke="black" stroke-width="0.625"/>
<path d="M251.936 234.85L252.1 239.197L246.943 239.199L247.089 234.85L251.936 234.85Z" fill="#FFFF00" stroke="black" stroke-width="0.625"/>
<path d="M232.875 231.7L234.374 231.703V232.794H235.471V231.678L237.008 231.683V232.794H238.107V231.679L239.645 231.681L239.642 234.196C239.642 234.588 239.331 234.844 238.972 234.844H233.576C233.214 234.844 232.878 234.55 232.877 234.187L232.873 231.701L232.875 231.7Z" fill="#FFFF00" stroke="black" stroke-width="0.625"/>
<path d="M246.136 231.7L247.635 231.703V232.794H248.732V231.678L250.269 231.683V232.794H251.368V231.679L252.906 231.681L252.903 234.196C252.903 234.588 252.592 234.844 252.233 234.844H246.837C246.475 234.844 246.139 234.55 246.138 234.187L246.134 231.701L246.136 231.7Z" fill="#FFFF00" stroke="black" stroke-width="0.625"/>
<path d="M242.375 233.662C242.342 232.878 243.471 232.87 243.457 233.662V235.583H242.375L242.375 233.662Z" fill="black"/>
<path d="M235.712 236.45C235.709 235.692 236.758 235.677 236.745 236.45V237.934H235.713L235.712 236.45Z" fill="black"/>
<path d="M249.014 236.45C249.01 235.692 250.06 235.677 250.047 236.45V237.934H249.014L249.014 236.45Z" fill="black"/>
<path d="M260.314 311.205C255.535 306.222 257.826 301.596 257.834 301.554C257.842 301.513 262.809 299.041 267.667 303.889L260.314 311.205Z" fill="#FFFF00"/>
<path d="M251.358 308.266L256.386 314.459L260.04 310.794C255.419 306.136 258.11 301.877 258.211 301.81C258.285 301.726 262.754 299.294 267.229 303.555L270.885 299.873L264.554 294.907L251.357 308.265L251.358 308.266Z" fill="#FFFF00" stroke="black" stroke-width="0.625"/>
<path d="M256.163 314.728L271.088 299.697C271.403 299.38 271.973 299.432 272.356 299.812C272.737 300.191 272.792 300.759 272.477 301.076L257.552 316.107C257.237 316.424 256.669 316.374 256.287 315.995C255.904 315.615 255.848 315.045 256.163 314.728Z" fill="#FFFF00" stroke="black" stroke-width="0.625"/>
<path d="M261.562 309.238C258.64 306.304 259.784 303.488 259.796 303.48C259.797 303.479 262.716 302.253 265.644 305.127L261.562 309.238Z" fill="#FFFF00" stroke="black" stroke-width="0.625"/>
<path d="M248.488 306.473L262.796 292.064C263.097 291.761 263.627 291.792 263.969 292.132C264.313 292.473 264.348 293.002 264.046 293.305L249.738 307.715C249.437 308.018 248.91 307.989 248.565 307.646C248.222 307.306 248.187 306.777 248.488 306.473Z" fill="#FFFF00" stroke="black" stroke-width="0.625"/>
<path d="M250.047 307.422L263.732 293.64C264.021 293.35 264.538 293.391 264.881 293.732C265.225 294.074 265.27 294.591 264.982 294.881L251.296 308.663C251.008 308.953 250.491 308.912 250.147 308.57C249.804 308.229 249.759 307.713 250.047 307.422Z" fill="#FFFF00" stroke="black" stroke-width="0.625"/>
<path d="M245.075 293.642L246.158 292.556L246.93 293.324L247.719 292.53L246.929 291.745L248.039 290.634L248.826 291.415L249.617 290.619L248.827 289.834L249.934 288.719L251.717 290.493C251.997 290.771 251.955 291.176 251.695 291.437L247.81 295.35C247.549 295.613 247.098 295.647 246.841 295.393L245.075 293.644L245.075 293.642Z" fill="#FFFF00" stroke="black" stroke-width="0.625"/>
<path d="M251.53 291.914L257.497 297.35L253.693 301.153L248.221 295.217L251.53 291.914Z" fill="#FFFF00" stroke="black" stroke-width="0.625"/>
<path d="M249.559 299.204L252.759 302.15L249.127 305.811L246.143 302.644L249.559 299.204Z" fill="#FFFF00" stroke="black" stroke-width="0.625"/>
<path d="M258.903 289.794L262.103 292.74L258.471 296.401L255.487 293.234L258.903 289.794Z" fill="#FFFF00" stroke="black" stroke-width="0.625"/>
<path d="M243.237 301.1L244.296 300.039L245.069 300.807L245.842 300.029L245.051 299.243L246.137 298.156L246.925 298.939L247.7 298.159L246.908 297.373L247.993 296.283L249.776 298.057C250.055 298.333 250.017 298.734 249.764 298.989L245.962 302.818C245.707 303.075 245.261 303.106 245.003 302.851L243.236 301.102L243.237 301.1Z" fill="#FFFF00" stroke="black" stroke-width="0.625"/>
<path d="M252.581 291.69L253.64 290.629L254.413 291.397L255.186 290.619L254.395 289.833L255.481 288.746L256.269 289.529L257.044 288.749L256.252 287.963L257.337 286.873L259.12 288.647C259.399 288.923 259.361 289.324 259.108 289.579L255.306 293.408C255.051 293.665 254.605 293.696 254.347 293.441L252.58 291.692L252.581 291.69Z" fill="#FFFF00" stroke="black" stroke-width="0.625"/>
<path d="M251.323 295.742C250.744 295.213 251.533 294.406 252.086 294.974L253.449 296.327L252.686 297.095L251.323 295.742Z" fill="black"/>
<path d="M248.607 302.433C248.066 301.903 248.795 301.147 249.334 301.701L250.387 302.746L249.66 303.479L248.607 302.433Z" fill="black"/>
<path d="M257.979 292.995C257.439 292.464 258.167 291.708 258.707 292.262L259.759 293.308L259.032 294.04L257.979 292.995Z" fill="black"/>
<path d="M294.88 193.037C295.048 186.136 299.945 184.502 299.981 184.478C300.016 184.455 305.27 186.238 305.252 193.101L294.88 193.037Z" fill="#FFFF00"/>
<path d="M290.655 184.612L289.802 192.543L294.978 192.555C295.028 185.993 299.946 184.901 300.065 184.926C300.176 184.919 305.051 186.376 305.181 192.555H310.37L309.433 184.563L290.655 184.61L290.655 184.612Z" fill="#FFFF00" stroke="black" stroke-width="0.625"/>
<path d="M289.455 192.575H310.637C311.084 192.575 311.449 193.016 311.449 193.555C311.449 194.093 311.084 194.532 310.637 194.532H289.455C289.008 194.532 288.643 194.093 288.643 193.555C288.643 193.016 289.008 192.575 289.455 192.575Z" fill="#FFFF00" stroke="black" stroke-width="0.625"/>
<path d="M297.155 192.537C297.178 188.397 299.982 187.225 299.997 187.227C299.998 187.227 302.925 188.435 302.948 192.537H297.155Z" fill="#FFFF00" stroke="black" stroke-width="0.625"/>
<path d="M289.905 181.312H310.211C310.639 181.312 310.989 181.71 310.989 182.193C310.989 182.677 310.639 183.074 310.211 183.074H289.905C289.477 183.074 289.126 182.679 289.126 182.193C289.126 181.71 289.477 181.312 289.905 181.312Z" fill="#FFFF00" stroke="black" stroke-width="0.625"/>
<path d="M290.33 183.087H309.752C310.161 183.087 310.496 183.483 310.496 183.967C310.496 184.452 310.161 184.848 309.752 184.848H290.33C289.921 184.848 289.586 184.452 289.586 183.967C289.586 183.483 289.921 183.087 290.33 183.087Z" fill="#FFFF00" stroke="black" stroke-width="0.625"/>
<path d="M296.605 169.85L298.138 169.852V170.942H299.257V169.828L300.828 169.833V170.942H301.95V169.829H303.522L303.52 172.343C303.52 172.738 303.202 172.994 302.834 172.994H297.32C296.949 172.994 296.608 172.697 296.607 172.336L296.603 169.851L296.605 169.85Z" fill="#FFFF00" stroke="black" stroke-width="0.625"/>
<path d="M302.38 173.212L302.726 181.277L297.347 181.257L297.703 173.191L302.38 173.212Z" fill="#FFFF00" stroke="black" stroke-width="0.625"/>
<path d="M295.817 176.95L295.981 181.297L290.824 181.299L290.97 176.95L295.817 176.95Z" fill="#FFFF00" stroke="black" stroke-width="0.625"/>
<path d="M309.078 176.95L309.243 181.297L304.086 181.299L304.231 176.95L309.078 176.95Z" fill="#FFFF00" stroke="black" stroke-width="0.625"/>
<path d="M290.017 173.8L291.516 173.804V174.894H292.613V173.778L294.15 173.783V174.895H295.249V173.779L296.787 173.781L296.784 176.296C296.784 176.689 296.474 176.944 296.114 176.944H290.718C290.356 176.944 290.02 176.65 290.019 176.287L290.015 173.801L290.017 173.8Z" fill="#FFFF00" stroke="black" stroke-width="0.625"/>
<path d="M303.278 173.8L304.778 173.804V174.894H305.875V173.778L307.411 173.783V174.895H308.51V173.779L310.048 173.781L310.046 176.296C310.046 176.689 309.735 176.944 309.375 176.944H303.979C303.618 176.944 303.281 176.65 303.28 176.287L303.277 173.801L303.278 173.8Z" fill="#FFFF00" stroke="black" stroke-width="0.625"/>
<path d="M299.517 175.762C299.484 174.979 300.613 174.97 300.6 175.762V177.683H299.517L299.517 175.762Z" fill="black"/>
<path d="M292.855 178.55C292.851 177.793 293.901 177.777 293.888 178.55V180.034H292.855L292.855 178.55Z" fill="black"/>
<path d="M306.156 178.55C306.152 177.793 307.202 177.777 307.189 178.55V180.034H306.156L306.156 178.55Z" fill="black"/>
<path d="M362.002 193.037C361.834 186.136 356.937 184.502 356.902 184.478C356.866 184.455 351.612 186.238 351.63 193.101L362.002 193.037Z" fill="#FFFF00"/>
<path d="M366.227 184.612L367.08 192.543L361.904 192.555C361.854 185.993 356.936 184.901 356.817 184.926C356.706 184.919 351.831 186.376 351.701 192.555H346.512L347.449 184.563L366.227 184.61L366.227 184.612Z" fill="#FFFF00" stroke="black" stroke-width="0.625"/>
<path d="M367.427 192.575H346.245C345.798 192.575 345.434 193.016 345.434 193.555C345.434 194.093 345.798 194.532 346.245 194.532H367.427C367.874 194.532 368.239 194.093 368.239 193.555C368.239 193.016 367.874 192.575 367.427 192.575Z" fill="#FFFF00" stroke="black" stroke-width="0.625"/>
<path d="M359.728 192.537C359.704 188.397 356.9 187.225 356.886 187.227C356.884 187.227 353.958 188.435 353.934 192.537H359.728Z" fill="#FFFF00" stroke="black" stroke-width="0.625"/>
<path d="M366.977 181.312H346.671C346.243 181.312 345.893 181.71 345.893 182.193C345.893 182.677 346.243 183.074 346.671 183.074H366.977C367.405 183.074 367.756 182.679 367.756 182.193C367.756 181.71 367.405 181.312 366.977 181.312Z" fill="#FFFF00" stroke="black" stroke-width="0.625"/>
<path d="M366.553 183.087H347.13C346.721 183.087 346.386 183.483 346.386 183.967C346.386 184.452 346.721 184.848 347.13 184.848H366.553C366.962 184.848 367.297 184.452 367.297 183.967C367.297 183.483 366.962 183.087 366.553 183.087Z" fill="#FFFF00" stroke="black" stroke-width="0.625"/>
<path d="M360.277 169.85L358.744 169.852V170.942H357.625V169.828L356.054 169.833V170.942H354.932V169.829H353.36L353.363 172.343C353.363 172.738 353.68 172.994 354.048 172.994H359.562C359.933 172.994 360.275 172.697 360.276 172.336L360.279 169.851L360.277 169.85Z" fill="#FFFF00" stroke="black" stroke-width="0.625"/>
<path d="M354.502 173.212L354.156 181.277L359.535 181.257L359.179 173.191L354.502 173.212Z" fill="#FFFF00" stroke="black" stroke-width="0.625"/>
<path d="M361.065 176.95L360.901 181.297L366.058 181.299L365.912 176.95L361.065 176.95Z" fill="#FFFF00" stroke="black" stroke-width="0.625"/>
<path d="M347.804 176.95L347.64 181.297L352.797 181.299L352.651 176.95L347.804 176.95Z" fill="#FFFF00" stroke="black" stroke-width="0.625"/>
<path d="M366.865 173.8L365.366 173.804V174.894H364.269V173.778L362.732 173.783V174.895H361.633V173.779L360.095 173.781L360.098 176.296C360.098 176.689 360.409 176.944 360.768 176.944H366.164C366.526 176.944 366.862 176.65 366.863 176.287L366.867 173.801L366.865 173.8Z" fill="#FFFF00" stroke="black" stroke-width="0.625"/>
<path d="M353.604 173.8L352.104 173.804V174.894H351.007V173.778L349.471 173.783V174.895H348.372V173.779L346.834 173.781L346.836 176.296C346.836 176.689 347.147 176.944 347.507 176.944H352.903C353.264 176.944 353.601 176.65 353.602 176.287L353.605 173.801L353.604 173.8Z" fill="#FFFF00" stroke="black" stroke-width="0.625"/>
<path d="M357.365 175.762C357.398 174.979 356.269 174.97 356.282 175.762V177.683H357.365L357.365 175.762Z" fill="black"/>
<path d="M364.027 178.55C364.031 177.793 362.981 177.777 362.994 178.55V180.034H364.027L364.027 178.55Z" fill="black"/>
<path d="M350.726 178.55C350.73 177.793 349.68 177.777 349.693 178.55V180.034H350.726L350.726 178.55Z" fill="black"/>
<path d="M362.002 250.937C361.834 244.036 356.937 242.402 356.902 242.378C356.866 242.355 351.612 244.137 351.63 251.001L362.002 250.937Z" fill="#FFFF00"/>
<path d="M366.227 242.512L367.08 250.443L361.904 250.454C361.854 243.893 356.936 242.801 356.817 242.825C356.706 242.819 351.831 244.276 351.701 250.454H346.512L347.449 242.463L366.227 242.51L366.227 242.512Z" fill="#FFFF00" stroke="black" stroke-width="0.625"/>
<path d="M367.427 250.475H346.245C345.798 250.475 345.434 250.916 345.434 251.455C345.434 251.993 345.798 252.432 346.245 252.432H367.427C367.874 252.432 368.239 251.993 368.239 251.455C368.239 250.916 367.874 250.475 367.427 250.475Z" fill="#FFFF00" stroke="black" stroke-width="0.625"/>
<path d="M359.728 250.437C359.704 246.296 356.9 245.125 356.886 245.127C356.884 245.127 353.958 246.335 353.934 250.437H359.728Z" fill="#FFFF00" stroke="black" stroke-width="0.625"/>
<path d="M366.977 239.212H346.671C346.243 239.212 345.893 239.61 345.893 240.093C345.893 240.577 346.243 240.974 346.671 240.974H366.977C367.405 240.974 367.756 240.579 367.756 240.093C367.756 239.61 367.405 239.212 366.977 239.212Z" fill="#FFFF00" stroke="black" stroke-width="0.625"/>
<path d="M366.553 240.987H347.13C346.721 240.987 346.386 241.383 346.386 241.867C346.386 242.352 346.721 242.748 347.13 242.748H366.553C366.962 242.748 367.297 242.352 367.297 241.867C367.297 241.383 366.962 240.987 366.553 240.987Z" fill="#FFFF00" stroke="black" stroke-width="0.625"/>
<path d="M360.277 227.75L358.744 227.752V228.841H357.625V227.728L356.054 227.733V228.842H354.932V227.729H353.36L353.363 230.243C353.363 230.638 353.68 230.894 354.048 230.894H359.562C359.933 230.894 360.275 230.597 360.276 230.235L360.279 227.751L360.277 227.75Z" fill="#FFFF00" stroke="black" stroke-width="0.625"/>
<path d="M354.502 231.112L354.156 239.176L359.535 239.157L359.179 231.091L354.502 231.112Z" fill="#FFFF00" stroke="black" stroke-width="0.625"/>
<path d="M361.065 234.85L360.901 239.197L366.058 239.199L365.912 234.85L361.065 234.85Z" fill="#FFFF00" stroke="black" stroke-width="0.625"/>
<path d="M347.804 234.85L347.64 239.197L352.797 239.199L352.651 234.85L347.804 234.85Z" fill="#FFFF00" stroke="black" stroke-width="0.625"/>
<path d="M366.865 231.7L365.366 231.703V232.794H364.269V231.678L362.732 231.683V232.794H361.633V231.679L360.095 231.681L360.098 234.196C360.098 234.588 360.409 234.844 360.768 234.844H366.164C366.526 234.844 366.862 234.55 366.863 234.187L366.867 231.701L366.865 231.7Z" fill="#FFFF00" stroke="black" stroke-width="0.625"/>
<path d="M353.604 231.7L352.104 231.703V232.794H351.007V231.678L349.471 231.683V232.794H348.372V231.679L346.834 231.681L346.836 234.196C346.836 234.588 347.147 234.844 347.507 234.844H352.903C353.264 234.844 353.601 234.55 353.602 234.187L353.605 231.701L353.604 231.7Z" fill="#FFFF00" stroke="black" stroke-width="0.625"/>
<path d="M357.365 233.662C357.398 232.878 356.269 232.87 356.282 233.662V235.583H357.365L357.365 233.662Z" fill="black"/>
<path d="M364.027 236.45C364.031 235.692 362.981 235.677 362.994 236.45V237.934H364.027L364.027 236.45Z" fill="black"/>
<path d="M350.726 236.45C350.73 235.692 349.68 235.677 349.693 236.45V237.934H350.726L350.726 236.45Z" fill="black"/>
<path d="M339.426 311.205C344.204 306.222 341.913 301.596 341.906 301.554C341.897 301.513 336.93 299.041 332.072 303.889L339.426 311.205Z" fill="#FFFF00"/>
<path d="M348.382 308.266L343.354 314.459L339.699 310.794C344.321 306.136 341.63 301.877 341.529 301.81C341.455 301.726 336.986 299.294 332.511 303.555L328.855 299.873L335.186 294.907L348.383 308.264L348.382 308.266Z" fill="#FFFF00" stroke="black" stroke-width="0.625"/>
<path d="M343.577 314.728L328.651 299.697C328.337 299.38 327.767 299.432 327.384 299.812C327.003 300.191 326.948 300.759 327.263 301.076L342.188 316.107C342.503 316.424 343.071 316.374 343.453 315.995C343.836 315.615 343.891 315.045 343.577 314.728Z" fill="#FFFF00" stroke="black" stroke-width="0.625"/>
<path d="M338.178 309.238C341.1 306.304 339.956 303.488 339.944 303.48C339.943 303.479 337.023 302.253 334.096 305.127L338.178 309.238Z" fill="#FFFF00" stroke="black" stroke-width="0.625"/>
<path d="M351.252 306.473L336.944 292.064C336.642 291.761 336.113 291.792 335.77 292.132C335.427 292.473 335.392 293.002 335.694 293.305L350.002 307.715C350.303 308.018 350.83 307.989 351.175 307.646C351.518 307.306 351.553 306.777 351.252 306.473Z" fill="#FFFF00" stroke="black" stroke-width="0.625"/>
<path d="M349.693 307.422L336.007 293.64C335.719 293.35 335.202 293.391 334.859 293.732C334.515 294.074 334.47 294.591 334.758 294.881L348.443 308.663C348.731 308.953 349.248 308.912 349.593 308.57C349.936 308.229 349.981 307.713 349.693 307.422Z" fill="#FFFF00" stroke="black" stroke-width="0.625"/>
<path d="M354.665 293.642L353.582 292.556L352.81 293.324L352.021 292.53L352.811 291.745L351.701 290.634L350.914 291.415L350.123 290.619L350.913 289.834L349.806 288.719L348.023 290.493C347.743 290.771 347.785 291.176 348.045 291.437L351.93 295.35C352.191 295.613 352.642 295.647 352.899 295.393L354.665 293.644L354.665 293.642Z" fill="#FFFF00" stroke="black" stroke-width="0.625"/>
<path d="M348.209 291.914L342.243 297.35L346.047 301.153L351.519 295.217L348.209 291.914Z" fill="#FFFF00" stroke="black" stroke-width="0.625"/>
<path d="M350.181 299.204L346.981 302.15L350.613 305.811L353.597 302.644L350.181 299.204Z" fill="#FFFF00" stroke="black" stroke-width="0.625"/>
<path d="M340.837 289.794L337.637 292.74L341.269 296.401L344.252 293.234L340.837 289.794Z" fill="#FFFF00" stroke="black" stroke-width="0.625"/>
<path d="M356.503 301.1L355.444 300.039L354.671 300.807L353.898 300.029L354.689 299.243L353.603 298.156L352.814 298.939L352.04 298.159L352.832 297.373L351.746 296.283L349.964 298.057C349.685 298.333 349.723 298.734 349.976 298.989L353.778 302.818C354.033 303.075 354.479 303.106 354.737 302.851L356.504 301.102L356.503 301.1Z" fill="#FFFF00" stroke="black" stroke-width="0.625"/>
<path d="M347.159 291.69L346.1 290.629L345.327 291.397L344.554 290.619L345.345 289.833L344.259 288.746L343.47 289.529L342.696 288.749L343.488 287.963L342.402 286.873L340.62 288.647C340.341 288.923 340.379 289.324 340.632 289.579L344.434 293.408C344.689 293.665 345.135 293.696 345.393 293.441L347.16 291.692L347.159 291.69Z" fill="#FFFF00" stroke="black" stroke-width="0.625"/>
<path d="M348.417 295.742C348.996 295.213 348.207 294.406 347.654 294.973L346.291 296.327L347.054 297.095L348.417 295.742Z" fill="black"/>
<path d="M351.133 302.433C351.673 301.903 350.945 301.147 350.406 301.701L349.353 302.746L350.08 303.479L351.133 302.433Z" fill="black"/>
<path d="M341.761 292.995C342.301 292.464 341.572 291.708 341.033 292.262L339.98 293.308L340.708 294.04L341.761 292.995Z" fill="black"/>
<path d="M290.795 253.008V253.014C290.795 255.779 291.857 258.298 293.56 260.126C295.266 261.959 297.617 263.098 300.187 263.098C302.771 263.098 305.117 261.967 306.816 260.141C308.514 258.318 309.569 255.801 309.569 253.025V239.565L290.829 239.549L290.795 253.008Z" fill="#003399"/>
<path d="M290.795 220.488V220.494C290.795 223.259 291.857 225.778 293.56 227.606C295.266 229.439 297.617 230.578 300.187 230.578C302.771 230.578 305.117 229.447 306.816 227.621C308.514 225.798 309.569 223.281 309.569 220.505V207.045L290.829 207.029L290.795 220.488Z" fill="#003399"/>
<path d="M264.796 253.008V253.014C264.796 255.779 265.858 258.298 267.561 260.126C269.267 261.959 271.618 263.098 274.188 263.098C276.772 263.098 279.118 261.967 280.817 260.141C282.515 258.318 283.57 255.801 283.57 253.025V239.565L264.83 239.549L264.796 253.008Z" fill="#003399"/>
<path d="M316.726 253.008V253.014C316.726 255.779 317.788 258.298 319.491 260.126C321.197 261.959 323.548 263.098 326.118 263.098C328.702 263.098 331.048 261.967 332.747 260.141C334.445 258.318 335.5 255.801 335.5 253.025V239.565L316.76 239.549L316.726 253.008Z" fill="#003399"/>
<path d="M290.795 285.237V285.244C290.795 288.009 291.857 290.528 293.56 292.355C295.266 294.189 297.617 295.328 300.187 295.328C302.771 295.328 305.117 294.197 306.816 292.371C308.514 290.547 309.569 288.031 309.569 285.255V271.795L290.829 271.779L290.795 285.237Z" fill="#003399"/>
</g>
<defs>
<clipPath id="clip0_213_5983">
<rect width="750" height="500" fill="white"/>
</clipPath>
</defs>
</svg>
