<svg width="750" height="500" viewBox="0 0 750 500" fill="none" xmlns="http://www.w3.org/2000/svg">
<g clip-path="url(#clip0_213_7770)">
<path d="M0 0H750V500H0V0Z" fill="#CF142B"/>
<path d="M0 333.333H750V0H0V333.333Z" fill="#00247D"/>
<path d="M0 0H750V166.667H0V0Z" fill="#FFCC00"/>
<path d="M214.469 289.08L231.516 302.399L239.508 292.17L214.469 289.08Z" fill="white"/>
<path d="M214.469 289.08L236.089 289.835L235.636 302.807L214.469 289.08Z" fill="white"/>
<path d="M235.553 274.859L228.154 295.187L240.351 299.627L235.553 274.859Z" fill="white"/>
<path d="M235.553 274.859L241.516 295.654L229.039 299.232L235.553 274.859Z" fill="white"/>
<path d="M221.479 313.526L239.414 301.429L232.156 290.668L221.479 313.526Z" fill="white"/>
<path d="M221.479 313.526L228.878 293.198L241.075 297.637L221.479 313.526Z" fill="white"/>
<path d="M255.593 290.516L233.973 289.761L233.52 302.733L255.593 290.516Z" fill="white"/>
<path d="M255.593 290.516L237.658 302.613L230.4 291.852L255.593 290.516Z" fill="white"/>
<path d="M246.895 314.414L240.932 293.618L228.455 297.196L246.895 314.414Z" fill="white"/>
<path d="M246.895 314.414L229.848 301.095L237.839 290.867L246.895 314.414Z" fill="white"/>
<path d="M246.343 239.671L256.477 258.783L267.945 252.703L246.343 239.671Z" fill="white"/>
<path d="M246.343 239.671L265.776 249.177L260.073 260.836L246.343 239.671Z" fill="white"/>
<path d="M271.393 235.284L256.348 250.828L265.674 259.855L271.393 235.284Z" fill="white"/>
<path d="M271.393 235.284L268.358 256.703L255.506 254.882L271.393 235.284Z" fill="white"/>
<path d="M242.775 264.851L264.084 261.119L261.845 248.333L242.775 264.851Z" fill="white"/>
<path d="M242.775 264.851L257.821 249.306L267.147 258.334L242.775 264.851Z" fill="white"/>
<path d="M283.307 257.752L263.874 248.246L258.17 259.906L283.307 257.752Z" fill="white"/>
<path d="M283.307 257.752L261.998 261.484L259.759 248.699L283.307 257.752Z" fill="white"/>
<path d="M265.62 276.025L268.655 254.606L255.804 252.785L265.62 276.025Z" fill="white"/>
<path d="M265.62 276.025L255.485 256.913L266.953 250.832L265.62 276.025Z" fill="white"/>
<path d="M290.737 204.778L295.235 225.939L307.931 223.24L290.737 204.778Z" fill="white"/>
<path d="M290.737 204.778L306.814 219.254L298.128 228.9L290.737 204.778Z" fill="white"/>
<path d="M316.029 207.437L297.294 218.253L303.784 229.494L316.029 207.437Z" fill="white"/>
<path d="M316.029 207.437L307.23 227.2L295.372 221.92L316.029 207.437Z" fill="white"/>
<path d="M280.393 228.011L301.908 230.272L303.265 217.364L280.393 228.011Z" fill="white"/>
<path d="M280.393 228.011L299.128 217.194L305.618 228.435L280.393 228.011Z" fill="white"/>
<path d="M321.317 232.312L305.24 217.837L296.555 227.483L321.317 232.312Z" fill="white"/>
<path d="M321.317 232.312L299.802 230.051L301.159 217.142L321.317 232.312Z" fill="white"/>
<path d="M299.292 245.028L308.091 225.265L296.234 219.986L299.292 245.028Z" fill="white"/>
<path d="M299.292 245.028L294.794 223.868L307.491 221.169L299.292 245.028Z" fill="white"/>
<path d="M345.168 185.438L342.157 206.861L355.011 208.667L345.168 185.438Z" fill="white"/>
<path d="M345.168 185.438L355.324 204.539L343.864 210.633L345.168 185.438Z" fill="white"/>
<path d="M368.026 196.586L346.721 200.343L348.975 213.126L368.026 196.586Z" fill="white"/>
<path d="M368.026 196.586L352.998 212.148L343.661 203.131L368.026 196.586Z" fill="white"/>
<path d="M327.502 203.732L346.946 213.215L352.636 201.549L327.502 203.732Z" fill="white"/>
<path d="M327.502 203.732L348.807 199.975L351.061 212.758L327.502 203.732Z" fill="white"/>
<path d="M364.487 221.77L354.33 202.669L342.87 208.763L364.487 221.77Z" fill="white"/>
<path d="M364.487 221.77L345.043 212.287L350.733 200.62L364.487 221.77Z" fill="white"/>
<path d="M339.441 226.186L354.469 210.625L345.132 201.608L339.441 226.186Z" fill="white"/>
<path d="M339.441 226.186L342.452 204.764L355.306 206.57L339.441 226.186Z" fill="white"/>
<path d="M535.745 289.08L518.697 302.399L510.706 292.17L535.745 289.08Z" fill="white"/>
<path d="M535.745 289.08L514.125 289.835L514.578 302.807L535.745 289.08Z" fill="white"/>
<path d="M514.661 274.859L522.06 295.187L509.863 299.627L514.661 274.859Z" fill="white"/>
<path d="M514.661 274.859L508.698 295.654L521.175 299.232L514.661 274.859Z" fill="white"/>
<path d="M528.735 313.526L510.8 301.429L518.058 290.668L528.735 313.526Z" fill="white"/>
<path d="M528.735 313.526L521.336 293.198L509.138 297.637L528.735 313.526Z" fill="white"/>
<path d="M494.621 290.516L516.241 289.761L516.694 302.733L494.621 290.516Z" fill="white"/>
<path d="M494.621 290.516L512.555 302.613L519.814 291.852L494.621 290.516Z" fill="white"/>
<path d="M503.319 314.414L509.282 293.618L521.759 297.196L503.319 314.414Z" fill="white"/>
<path d="M503.319 314.414L520.366 301.095L512.375 290.867L503.319 314.414Z" fill="white"/>
<path d="M503.87 239.671L493.736 258.783L482.268 252.703L503.87 239.671Z" fill="white"/>
<path d="M503.87 239.671L484.437 249.177L490.141 260.836L503.87 239.671Z" fill="white"/>
<path d="M478.82 235.283L493.866 250.828L484.539 259.855L478.82 235.283Z" fill="white"/>
<path d="M478.82 235.283L481.856 256.703L494.707 254.881L478.82 235.283Z" fill="white"/>
<path d="M507.439 264.851L486.13 261.119L488.369 248.333L507.439 264.851Z" fill="white"/>
<path d="M507.439 264.851L492.393 249.306L483.066 258.334L507.439 264.851Z" fill="white"/>
<path d="M466.907 257.752L486.34 248.246L492.043 259.906L466.907 257.752Z" fill="white"/>
<path d="M466.907 257.752L488.216 261.484L490.455 248.699L466.907 257.752Z" fill="white"/>
<path d="M484.594 276.025L481.559 254.606L494.41 252.785L484.594 276.025Z" fill="white"/>
<path d="M484.594 276.025L494.728 256.913L483.261 250.832L484.594 276.025Z" fill="white"/>
<path d="M459.477 204.778L454.979 225.939L442.283 223.24L459.477 204.778Z" fill="white"/>
<path d="M459.477 204.778L443.4 219.254L452.085 228.9L459.477 204.778Z" fill="white"/>
<path d="M434.184 207.437L452.919 218.253L446.429 229.494L434.184 207.437Z" fill="white"/>
<path d="M434.184 207.437L442.984 227.2L454.841 221.92L434.184 207.437Z" fill="white"/>
<path d="M469.821 228.011L448.306 230.272L446.949 217.364L469.821 228.011Z" fill="white"/>
<path d="M469.821 228.011L451.086 217.194L444.596 228.435L469.821 228.011Z" fill="white"/>
<path d="M428.897 232.312L444.974 217.837L453.659 227.483L428.897 232.312Z" fill="white"/>
<path d="M428.897 232.312L450.412 230.051L449.055 217.142L428.897 232.312Z" fill="white"/>
<path d="M450.921 245.028L442.122 225.265L453.98 219.986L450.921 245.028Z" fill="white"/>
<path d="M450.921 245.028L455.419 223.868L442.723 221.169L450.921 245.028Z" fill="white"/>
<path d="M405.045 185.438L408.056 206.86L395.203 208.667L405.045 185.438Z" fill="white"/>
<path d="M405.045 185.438L394.889 204.539L406.35 210.632L405.045 185.438Z" fill="white"/>
<path d="M382.188 196.586L403.492 200.343L401.239 213.125L382.188 196.586Z" fill="white"/>
<path d="M382.188 196.586L397.216 212.148L406.553 203.131L382.188 196.586Z" fill="white"/>
<path d="M422.712 203.732L403.268 213.215L397.578 201.549L422.712 203.732Z" fill="white"/>
<path d="M422.712 203.732L401.407 199.975L399.153 212.758L422.712 203.732Z" fill="white"/>
<path d="M385.727 221.77L395.883 202.669L407.344 208.763L385.727 221.77Z" fill="white"/>
<path d="M385.727 221.77L405.171 212.287L399.481 200.62L385.727 221.77Z" fill="white"/>
<path d="M410.772 226.186L395.745 210.625L405.082 201.608L410.772 226.186Z" fill="white"/>
<path d="M410.772 226.186L407.762 204.764L394.908 206.57L410.772 226.186Z" fill="white"/>
</g>
<defs>
<clipPath id="clip0_213_7770">
<rect width="750" height="500" fill="white"/>
</clipPath>
</defs>
</svg>
