<svg width="68" height="80" viewBox="0 0 68 80" fill="none" xmlns="http://www.w3.org/2000/svg">
<path d="M33.4984 0H34.4456L35.8235 0.688913L42.5404 4.56405L44.6071 5.76964L46.8461 7.06136L50.9795 9.47255L52.4435 10.3337L54.7686 11.7115L57.0075 13.0032L59.4187 14.4672L60.7966 15.2422L62.0883 16.0172L64.4133 17.395L66.1356 18.4284L66.9968 19.0312L67.5135 19.7201L67.7718 20.2368V59.4187L67.4273 60.1938L66.8245 60.8827L66.0495 61.3994L63.9828 62.605L61.2271 64.2411L54.6825 68.1163L52.1851 69.5802L50.0323 70.8719L47.535 72.3358L45.2099 73.7137L42.7126 75.1776L40.3014 76.6415L38.0624 77.9333L35.9096 79.225L34.8762 79.8278L34.2734 80H33.5845L32.6372 79.6555L30.226 78.1916L28.1593 76.986L26.8676 76.211L24.3703 74.747L22.2174 73.4553L20.1507 72.2497L15.7589 69.6663L14.4672 68.8913L11.7115 67.2551L9.21421 65.7912L7.06136 64.4995L4.99462 63.2939L2.75565 62.0022L1.46394 61.2271L0.775027 60.7104L0.258342 60.0215L0 59.4187V20.409L0.258342 19.7201L1.03337 18.859L1.63617 18.4284L2.58342 17.9117L3.44456 17.395L4.21959 16.9645L4.99462 16.4478L5.76964 16.0172L6.80301 15.4144L8.35307 14.4672L9.12809 14.0366L10.4198 13.2616L11.6254 12.5727L13.0893 11.7115L15.3283 10.4198L17.2228 9.30032L19.2896 8.09473L21.5285 6.80301L23.5953 5.59742L25.8342 4.30571L28.3315 2.84177L30.7427 1.46394L32.9817 0.172228L33.4984 0Z" fill="#12141A"/>
<path d="M33.0678 23.9397H34.5318L35.5652 24.1119L36.8569 24.5425L38.0625 25.2314L39.0097 26.0064L39.7847 26.9537L40.4737 27.9871L40.9042 29.1927L41.0765 29.7093L41.1626 30.3983V35.7373H42.2821L43.0571 35.9957L43.746 36.5124L44.2627 37.2874L44.3488 37.5457V48.9128L44.0043 49.7739L43.4015 50.3767L42.8849 50.6351L41.6793 51.324L41.5501 51.4101L41.4209 51.4962L40.9042 51.7546L40.7751 51.8407L40.6459 51.9268L38.7514 52.9601L36.7708 54.0796L34.5318 55.2852L34.1873 55.3713H33.4984L32.8095 55.113L31.3456 54.338L29.3649 53.2185L27.126 52.0129L25.1454 50.8934L23.9398 50.2045L23.4231 49.6017L23.1647 49.085L23.0786 48.6544V37.8902L23.4231 36.9429L24.0259 36.254L24.7148 35.8234L26.5232 35.6512L26.6093 30.3983L26.9537 28.8482L27.6427 27.4704L28.4177 26.437L29.2788 25.5759L30.4844 24.8008L31.8623 24.198L33.0678 23.9397Z" fill="#9A9AAB"/>
<path d="M33.4984 0H34.4456L35.8235 0.688913L42.5404 4.56405L44.6071 5.76964L46.8461 7.06136L50.9795 9.47255L52.4435 10.3337L54.7686 11.7115L57.0075 13.0032L59.4187 14.4672L60.7966 15.2422L62.0883 16.0172L64.4133 17.395L66.1356 18.4284L66.9968 19.0312L67.5135 19.7201L67.7718 20.2368V59.4187L67.4273 60.1938L66.8245 60.8827L66.0495 61.3994L63.9828 62.605L61.2271 64.2411L54.6825 68.1163L52.1851 69.5802L50.0323 70.8719L47.535 72.3358L45.2099 73.7137L42.7126 75.1776L40.3014 76.6415L38.0624 77.9333L35.9096 79.225L34.8762 79.8278L34.2734 80H33.5845L32.6372 79.6555L30.226 78.1916L28.1593 76.986L26.8676 76.211L24.3703 74.747L22.2174 73.4553L20.1507 72.2497L15.7589 69.6663L14.4672 68.8913L11.7115 67.2551L9.21421 65.7912L7.06136 64.4995L4.99462 63.2939L2.75565 62.0022L1.46394 61.2271L0.775027 60.7104L0.258342 60.0215L0 59.4187V20.409L0.258342 19.7201L1.03337 18.859L1.63617 18.4284L2.58342 17.9117L3.44456 17.395L4.21959 16.9645L4.99462 16.4478L5.76964 16.0172L6.80301 15.4144L8.35307 14.4672L9.12809 14.0366L10.4198 13.2616L11.6254 12.5727L13.0893 11.7115L15.3283 10.4198L17.2228 9.30032L19.2896 8.09473L21.5285 6.80301L23.5953 5.59742L25.8342 4.30571L28.3315 2.84177L30.7427 1.46394L32.9817 0.172228L33.4984 0ZM33.5845 2.32508L31.6039 3.44456L29.5371 4.65016L27.7287 5.68353L25.5759 6.97524L24.6286 7.49193L22.1313 8.95587L19.8924 10.2476L18.6868 10.9365L16.7922 12.056L15.9311 12.5727L15.1561 13.0032L13.2616 14.1227L11.0226 15.4144L9.55867 16.2756L7.06136 17.7395L5.76964 18.5145L3.27234 19.9785L2.41119 20.5813L2.06674 21.2702V58.6437L2.49731 59.3326L6.88913 61.916L8.78364 63.0355L10.5059 64.0689L12.831 65.4467L15.3283 66.9107L16.4478 67.5996H16.7061V67.7718L18.2562 68.6329L19.5479 69.408L22.0452 70.8719L23.9397 71.9914L25.662 73.0248L26.437 73.4553L27.5565 74.1442L28.5038 74.6609L31.8622 76.6415L33.5845 77.6749H34.1873L35.0484 77.2443L38.493 75.1776L39.9569 74.3165L40.9903 73.7137L41.8515 73.197L43.3154 72.3358L44.3488 71.733L45.4682 71.0441L46.2433 70.6136L48.5684 69.2357L50.4629 68.1163L64.7578 59.6771L65.4467 59.1604L65.7051 58.6437V21.2702L65.4467 20.6674L64.8439 20.1507L62.3466 18.6868L56.0603 14.9839L52.2713 12.7449L50.6351 11.7976L49.4295 11.1087L48.5684 10.592L45.8988 9.04198L44.0043 7.9225L41.5931 6.54467L39.5264 5.33907L37.1152 3.96125L35.0484 2.75565L34.2734 2.32508H33.5845Z" fill="#494B59"/>
<path d="M33.5842 2.32507H34.2731L36.4259 3.53067L38.751 4.9085L40.3011 5.76964L42.3678 6.97523L44.779 8.35306L46.9319 9.64477L49.343 11.0226L51.9265 12.5727L52.8737 13.0893L57.2655 15.6728L59.5906 17.0506L62.0879 18.5145L64.4991 19.9785L65.2742 20.4951L65.6186 20.9257L65.7047 21.2702V58.6437L65.3603 59.2465L64.5852 59.7632L62.2602 61.141L60.7962 62.0021L58.385 63.4661L57.0072 64.2411L55.7155 65.0161L53.2182 66.4801L50.8931 67.8579L46.5013 70.4413L45.7263 70.958L44.8651 71.3886L44.2623 71.8192L43.3151 72.3358L42.1956 73.0248L41.4206 73.4553L40.3011 74.1442L39.3538 74.6609L38.4927 75.1776L36.5982 76.2971L34.4453 77.5888L34.187 77.6749H33.5842L31.6897 76.5554L26.0061 73.197L24.8005 72.5081L22.4754 71.1302L20.2365 69.8385L18.5142 68.8052L16.7058 67.7718V67.5996L16.3613 67.5134L14.9835 66.7384L13.6918 65.9634L11.1945 64.4995L8.78331 63.0355L6.71657 61.8299L4.21926 60.366L2.49698 59.3326L2.06641 58.6437V21.2702L2.41086 20.5813L3.272 19.9785L7.83605 17.3089L9.73056 16.1894L11.7973 14.9838L14.0363 13.6921L15.5863 12.7449L16.9641 11.9699L19.0309 10.7643L19.6337 10.4198L21.7004 9.2142L23.9394 7.92249L25.3172 7.06135L26.2645 6.54466L27.4701 5.85575L29.5368 4.65015L31.948 3.27233L33.5842 2.32507ZM33.7564 4.73627L32.8091 5.25295L30.7424 6.45855L28.934 7.49192L26.8673 8.69752L24.6283 9.98923L22.5616 11.1948L21.356 11.8837L19.892 12.7449L17.3947 14.2088L15.1557 15.5005L13.6918 16.3617L4.99429 21.4424L4.30537 21.873L4.21926 22.0452V57.8687L4.64983 58.2131L7.14714 59.6771L9.47222 61.0549L11.9695 62.5188L13.4335 63.38L15.7585 64.7578L17.8253 65.9634L19.7198 67.0829L23.5088 69.3218L25.3172 70.3552L26.4367 71.0441L28.6757 72.3358L31.0007 73.7137L33.0675 74.9193L33.8425 75.3498L34.3592 75.1776L36.8565 73.7137L39.0955 72.422L40.3872 71.6469L46.2429 68.2024L52.9598 64.2411L56.4905 62.1744L58.8156 60.7965L60.8823 59.591L61.4851 59.3326L61.7435 59.0743L63.4658 58.0409L63.638 57.8687V22.0452L63.2935 21.7007L61.9157 20.9257L55.4571 17.1367H55.2849V16.9645L54.8544 16.8784V16.7061L52.8737 15.5866L52.6154 15.4144H52.357V15.2422L51.6681 14.8977L50.9792 14.4672L50.5486 14.381V14.2088L49.6014 13.6921L47.5347 12.4865L46.3291 11.7976L46.4152 11.6254L46.2429 11.4532H46.4152L46.5013 11.1948L46.0707 11.0226L45.9846 11.3671L45.8124 11.4532L44.5207 10.7643L40.99 8.69752L39.0094 7.57803L36.7704 6.28632L35.4787 5.51129L34.1009 4.73627H33.7564Z" fill="#12141A"/>
<path d="M33.7568 3.87512L34.2735 3.96124L35.8235 4.82238L37.8903 6.02797L39.8709 7.14746L41.9377 8.35306L44.1766 9.64477L46.6739 11.1087L48.9129 12.4004L50.8074 13.5199L59.0744 18.3423L61.5717 19.8062L63.8967 21.1841L64.3273 21.7007V58.127L64.1551 58.2992V57.7825L63.8106 57.6964V57.1798L63.9829 56.8353L64.069 56.2325L64.1551 55.1991V53.3907L64.069 52.6157L63.8106 52.3574V51.6684L63.8967 51.2379V50.1184L63.8106 50.0323L63.7245 57.8687H63.6384L63.5523 42.1098V21.873L63.1217 21.7007L60.8828 20.409L58.9882 19.2895L55.2853 17.1367V16.9645L54.8548 16.8784V16.7061L54.3381 16.5339L52.6158 15.5005L52.3575 15.4144V15.2422L51.7547 15.07L50.9796 14.5533L50.5491 14.381V14.2088L50.1185 14.0366L49.6018 13.7782L47.5351 12.5726L46.2434 11.7976L46.1572 11.4532L46.4156 11.1948L46.0711 11.1087L45.985 11.4532L46.0711 11.6254L45.6406 11.4532L44.0905 10.592L42.0238 9.38642L39.7848 8.09471L37.3736 6.71689L35.4791 5.5974L34.1013 4.82238L33.5846 4.90849L31.4317 6.11409L30.14 6.88912L28.3316 7.92248L24.1981 10.3337L22.3897 11.367L20.4952 12.4865L18.2563 13.7782L16.7923 14.6394L14.7256 15.845L12.4005 17.2228L10.5921 18.2562L8.26704 19.634L6.45864 20.6674L4.56413 21.7869L4.30579 22.0452V57.8687L5.08082 58.3853L7.57812 59.8493L13.4339 63.2939L15.759 64.6717L17.8257 65.8773L19.7202 66.9968L23.5092 69.2357L25.3176 70.2691L26.4371 70.958L28.6761 72.2497L31.0012 73.6275L33.0679 74.8331L33.8429 75.2637L34.3596 75.0915L36.8569 73.6275L39.0959 72.3358L40.3876 71.5608L46.2434 68.1162L52.9603 64.155L56.4909 62.0883L58.816 60.7104L60.8828 59.5048L61.055 59.5909L61.1411 60.1076L61.3133 60.1937L60.6244 60.6243L59.9355 60.5382L60.0216 60.9688L56.2326 63.2077L53.9936 64.4994L51.8408 65.7912L49.5157 67.169L47.449 68.3746L45.1239 69.7524L43.0571 70.958L39.2681 73.197L37.0291 74.4887L35.1346 75.6082L34.2735 76.1249H33.5846L31.3456 74.8331L29.8817 73.972L27.6427 72.6803L25.4899 71.3886L23.4231 70.183L19.6341 67.944L18.6868 67.3412L17.7396 66.8245L15.6728 65.6189L13.7783 64.4994L11.7116 63.2939L9.21429 61.8299L7.92258 61.0549L6.02807 59.9354L3.87522 58.6437L3.53076 58.2131V55.7158H3.61688L3.7891 56.9214V57.8687L3.70299 58.127L3.7891 58.2992L3.96133 57.9548H4.13356L4.04745 50.4629L3.96133 50.8073L3.87522 51.2379L4.04745 51.4962V52.7879L3.87522 53.0463L3.7891 53.3907V54.1658L3.61688 55.5436H3.53076V21.6146L3.96133 21.1841L6.28641 19.8062L13.7783 15.4144L14.9839 14.7255L17.1368 13.4338L19.0313 12.4004L20.9258 11.2809L25.4899 8.6114L29.9678 6.02797L33.4985 3.96124L33.7568 3.87512Z" fill="#292B37"/>
<path d="M33.3259 26.437H34.3593L35.5649 26.6954L36.5982 27.212L37.5455 27.9871L38.3205 29.1065L38.7511 30.226L38.8372 30.7427V35.7373H28.9341V30.5705L29.3647 29.2788L29.9675 28.3315L30.8286 27.4704L31.6897 26.9537L32.8092 26.5231L33.3259 26.437Z" fill="#12141A"/>
<path d="M3.61688 21.9591L4.13356 22.0452L4.21967 23.0786L4.30579 57.8687L5.08082 58.3854L7.57812 59.8493L13.4339 63.2939L15.759 64.6717L17.8257 65.8773L19.7202 66.9968L23.5092 69.2357L25.3176 70.2691L26.4371 70.958L28.6761 72.2497L31.0012 73.6276L33.0679 74.8332L33.8429 75.2637L34.3596 75.0915L36.8569 73.6276L39.0959 72.3359L40.3876 71.5608L46.2434 68.1163L52.9603 64.155L56.4909 62.0883L58.816 60.7105L60.8828 59.5049L61.787 59.1604L62.0453 59.5479L62.0884 59.7632L60.6244 60.6243L60.323 60.7966L60.0216 60.9688L56.2326 63.2078L53.9936 64.4995L51.8408 65.7912L49.5157 67.169L47.449 68.3746L45.1239 69.7524L43.0571 70.958L39.2681 73.197L37.0291 74.4887L35.1346 75.6082L34.2735 76.1249H33.5846L31.3456 74.8332L29.8817 73.972L27.6427 72.6803L25.4899 71.3886L23.4231 70.183L19.6341 67.944L18.6868 67.3412L17.7396 66.8246L15.6728 65.619L13.7783 64.4995L11.7116 63.2939L9.21429 61.8299L7.92258 61.0549L6.02807 59.9354L3.87522 58.6437L3.53076 58.2131V55.7158H3.61688L3.7891 56.9214V57.8687L3.70299 58.127L3.7891 58.2993L3.96133 57.9548H4.13356L4.04745 50.4629L3.96133 50.8073L3.87522 51.2379L4.04745 51.4962V52.788L3.87522 53.0463L3.7891 53.3908V54.1658L3.61688 55.5436H3.53076V22.1313L3.61688 21.9591Z" fill="#262833"/>
<path d="M33.4984 0H34.4456L35.8235 0.688913L42.5404 4.56405L44.6071 5.76964L46.8461 7.06136L50.9795 9.47255L52.4435 10.3337L54.7686 11.7115L57.0075 13.0032L59.4187 14.4672L60.7966 15.2422L62.0883 16.0172L64.4133 17.395L66.1356 18.4284L66.9968 19.0312L67.5135 19.7201L67.7718 20.2368V20.9257L67.5996 20.7535L67.2551 19.8924L66.5662 19.1173L64.4133 17.8256L61.916 16.3617L59.591 14.9839L57.0937 13.5199L51.8407 10.4198L49.9462 9.30032L47.8794 8.09473L45.4682 6.7169L43.4015 5.5113L42.1959 4.82239L41.6792 4.99462L40.732 5.68353H40.5597V5.85576L40.9903 6.02799L42.6265 6.97524L44.3488 8.00861L44.1765 8.09473L42.0237 6.88913L40.5597 6.02799L38.7513 4.99462L36.6846 3.78902L34.4456 2.49731L34.2734 2.41119H33.5845L31.6039 3.53068L30.5705 4.13348L30.3983 4.04736L31.5178 3.35845L32.5511 2.75565L32.3789 2.66954V2.49731H32.2067L31.8622 2.15285L31.69 2.06674V1.89451H31.5178V1.63617L31.0011 1.72228L27.3843 3.78902L23.2508 6.20022L21.0118 7.49193L18.9451 8.69752L15.07 10.9365L14.2088 11.4532L13.7783 11.5393V11.7115L13.3477 11.7976V11.9699L12.3143 12.4865L12.1421 12.4004L12.6588 11.9699L17.2228 9.30032L19.2896 8.09473L21.5285 6.80301L23.5953 5.59742L25.8342 4.30571L28.3315 2.84177L30.7427 1.46394L32.9817 0.172228L33.4984 0Z" fill="#9898A9"/>
<path d="M48.8264 12.7449L49.0847 12.9171L48.8264 13.0893L49.3431 12.831L50.3764 13.2616L52.7015 14.6394L54.9405 15.9311L59.074 18.3423L61.5713 19.8062L63.8964 21.1841L64.3269 21.7007V58.127L64.1547 58.2992V57.7825L63.8102 57.6964V57.1797L63.9825 56.8353L64.0686 56.2325L64.1547 55.1991V53.3907L64.0686 52.6157L63.8102 52.3574V51.6684L63.8964 51.2379V50.1184L63.8102 50.0323L63.7241 57.8687H63.638L63.5519 42.1098V21.873L63.1213 21.7007L60.8824 20.409L58.9879 19.2895L55.2849 17.1367V16.9645L54.8544 16.8783V16.7061L54.3377 16.5339L52.6154 15.5005L52.3571 15.4144V15.2422L51.7543 15.07L50.9792 14.5533L50.5487 14.381V14.2088L50.1181 14.0366L49.6014 13.7782L48.4819 13.0893V12.9171L48.8264 12.7449Z" fill="#272934"/>
<path d="M42.0235 4.73633L42.5402 4.90856L44.0041 5.7697L46.2431 7.06141L48.0515 8.09478L50.1182 9.30038L53.4767 11.281L54.4239 11.8838L55.3712 12.4005L56.8351 13.2616L57.9546 13.9505L58.213 14.295L57.6963 14.5533H57.524L57.4379 14.8978L57.524 15.2422L57.3518 15.5006L58.7296 16.3617L61.0547 17.7396L60.7964 17.8257L59.4186 17.0506L55.6295 14.8117L53.5628 13.6061L52.2711 12.8311L50.6349 11.8838L49.4293 11.1949L48.5682 10.6782L45.8986 9.12815L44.3486 8.18089L44.0902 7.92255L42.2819 6.88918L40.8179 6.02804L40.5596 5.85581V5.68358L41.7652 4.82244L42.0235 4.73633Z" fill="#737586"/>
<path d="M33.6706 39.5264L34.5317 39.6125L35.3068 39.9569L35.7373 40.3875L36.1679 41.0764L36.3401 41.6792L36.254 42.6265L35.9957 43.3154L35.479 43.9182L35.2207 44.0904V44.7793L35.9096 47.7933L35.9957 48.5683L35.9096 48.6545H31.7761L31.69 48.2239L32.2928 45.5544L32.5511 44.1765L32.0344 43.746L31.6039 43.057L31.4316 42.5404V41.5931L31.7761 40.6459L32.2067 40.1292L33.0678 39.6125L33.6706 39.5264Z" fill="#12141A"/>
<path d="M31.1731 1.55005L31.5175 1.63616V1.89451H31.6898V2.06673L32.1203 2.23896L32.2064 2.4973H32.3787V2.66953L32.637 2.75565L31.5175 3.44456L30.4842 4.04736L30.1397 4.39181L27.9007 5.68353L26.1785 6.71689L25.2312 7.23358L23.1645 8.43918L20.9255 9.73089L19.6338 10.5059L19.3754 10.4198L19.5477 10.2476L19.2032 9.38643L18.6865 9.04198L19.2032 8.43918L21.3561 7.23358L22.82 6.37244L25.059 5.08073L26.5229 4.21959L28.7619 2.92787L31.1731 1.55005Z" fill="#737586"/>
<path d="M3.61688 21.9591L4.13356 22.0452L4.21967 23.0786V50.2045L3.96133 50.4629L3.87522 51.2379L4.04745 51.4962V52.788L3.87522 53.0463L3.7891 53.3908V54.1658L3.61688 55.5436H3.53076V22.1313L3.61688 21.9591Z" fill="#252732"/>
<path d="M51.6681 10.3337L52.0987 10.506L53.4765 11.281L54.4238 11.8838L55.371 12.4005L56.835 13.2616L57.9545 13.9505L58.2128 14.295L57.6961 14.5533H57.5239L57.4378 14.8978L57.5239 15.2422L57.3517 15.5006L58.7295 16.3617L61.0546 17.7396L60.7962 17.8257L59.4184 17.0506L55.6294 14.8117L53.5626 13.6061L52.357 12.9172L52.2709 12.6588L50.6348 11.7116L50.8931 11.4532H51.0653V11.281L51.4959 11.0227H51.6681L51.8404 10.5921L51.6681 10.3337Z" fill="#626373"/>
<path d="M24.4562 5.42517L24.6284 5.51128L24.4562 5.85574L25.2312 5.94186L25.4895 6.28631V6.45854H25.6618V6.63077L25.834 6.71688L25.4895 6.97522H25.3173L25.2312 7.23357L23.1645 8.43916L20.9255 9.73088L19.6338 10.5059L19.3754 10.4198L19.5477 10.2476L19.2032 9.38642L18.6865 9.04196L19.2032 8.43916L21.3561 7.23357L22.82 6.37243L24.4562 5.42517Z" fill="#636575"/>
<path d="M36.5122 5.33911L37.0288 5.51134L39.0956 6.71694L41.5068 8.09476L45.6402 10.506L47.8792 11.7977L50.0321 13.0894L49.8598 13.1755L49.257 12.9172L49.0848 13.0033L48.9987 13.1755L48.8265 13.0894L48.9126 12.9172H48.7404L48.3098 13.0033L46.243 11.7977L46.1569 11.4532L46.4153 11.1949L46.0708 11.1088L45.9847 11.4532L46.0708 11.6254L45.6402 11.4532L44.0902 10.5921L42.0235 9.38647L39.7845 8.09476L37.3733 6.71694L35.8232 5.76968L36.1677 5.68357L36.5122 5.33911Z" fill="#484A58"/>
<path d="M12.1421 12.2281L12.3143 12.3143V12.5726L10.2476 13.7782L8.35307 14.8977L6.28633 16.1033L4.39182 17.2228L1.89451 18.6867L1.03337 19.2895L0.516685 19.9784L0.258342 20.6673L0.172228 37.2012V43.5737L0.0861141 45.2099H0V20.409L0.258342 19.7201L1.03337 18.8589L1.63617 18.4284L2.58342 17.9117L3.44456 17.395L4.21959 16.9644L4.99462 16.4477L5.76964 16.0172L6.80301 15.4144L8.35307 14.4671L9.12809 14.0365L10.4198 13.2615L11.6254 12.5726L12.1421 12.2281Z" fill="#646676"/>
<path d="M67.5132 20.4951L67.6854 20.7535L67.7715 20.9257V59.4187L67.5993 59.5909L67.5132 20.4951Z" fill="#6B6D7E"/>
<path d="M23.5952 71.8192L24.1119 71.9914L25.4036 72.7665L26.437 73.3693L27.5565 74.0582L28.5037 74.5749L31.8622 76.5555L33.5845 77.5889H34.1872L35.0484 77.1583L38.493 75.0915L39.9569 74.2304L40.9903 73.6276L41.8514 73.1109L43.3153 72.2498L43.9181 71.9053L44.0904 71.9914L43.2292 72.5942L42.7987 72.8526H42.5403V73.0248L41.6792 73.4554L41.0764 73.886L39.8708 74.5749H39.6124V74.7471L39.1819 74.8332L39.0958 75.0915L38.5791 75.3499H38.3207V75.5221L37.8902 75.6082V75.7805L37.6318 75.9527H37.2874L37.2012 76.211H36.8568L36.7707 76.4694L35.7373 77.0722L35.1345 77.2444V77.4166L34.1011 77.9333L33.4983 77.8472L32.8955 77.5027V77.3305L32.1205 77.0722L32.0344 76.8138L31.6038 76.7277L30.1399 75.8666V75.6943L29.7093 75.6082L28.9343 75.1777V75.0054H28.6759V74.8332L28.1593 74.7471L27.212 74.1443V73.9721L26.7814 73.886L26.3509 73.5415L25.9203 73.2832L25.3175 73.0248L25.1453 72.9387V72.7665H24.8869V72.5942L24.4564 72.5081L23.6813 71.9914L23.5952 71.8192Z" fill="#8A8B9C"/>
<path d="M1.98047 58.4714L2.23881 58.8159L2.49715 59.2465L6.88897 61.8299L8.78348 62.9494L10.5058 63.9827L12.8308 65.3606L15.3282 66.8245L16.4476 67.5134L16.706 67.5995V67.7718L17.2227 67.944L23.509 71.6469L23.5951 71.8191L23.1645 71.733L21.6145 70.7858L20.6672 70.2691L19.5477 69.5802L18.7727 69.1496L17.6532 68.4607L16.8782 68.0301L15.7587 67.3412L14.9837 66.9106L13.7781 66.2217L12.0558 65.1883L9.98908 63.9827L8.09457 62.8633L5.94172 61.5715L3.70275 60.2798L2.49715 59.5048L2.06658 58.9881L1.98047 58.4714Z" fill="#858697"/>
<path d="M64.9298 59.5049V59.7632L62.863 60.9688L60.7102 62.2605L58.6434 63.4661L55.8878 65.1023L53.9933 66.2218L47.2764 70.183L44.7791 71.647L44.3485 71.9053L44.1763 71.8192L44.4346 71.5609L45.2096 71.1303L46.243 70.5275L48.5681 69.1497L50.4626 68.0302L64.7575 59.591L64.9298 59.5049Z" fill="#666878"/>
<path d="M45.0373 10.4198L45.8123 10.592L47.2763 11.4532L49.5152 12.7449L50.0319 13.0893L49.8597 13.1755L49.2569 12.9171L49.0846 13.0032L48.9985 13.1755L48.8263 13.0893L48.9124 12.9171H48.7402L48.3096 13.0032L46.2429 11.7976L46.1568 11.4532L46.4151 11.1948L46.0707 11.1087L45.9845 11.4532L46.0707 11.6254L45.6401 11.4532L45.0373 11.1087L44.9512 10.8504L45.0373 10.4198Z" fill="#454754"/>
<path d="M18.9448 71.3885L19.4615 71.5608L21.2699 72.5941L22.2172 73.1969L23.1644 73.7136L24.2839 74.4025L25.4895 75.0915L27.2118 76.0387L28.9341 77.0721L30.0535 77.761L30.398 78.1916L29.9674 78.0193L28.5896 77.2443L26.8673 76.2109L24.37 74.747L22.2172 73.4553L20.1504 72.2497L19.0309 71.5608L18.9448 71.3885Z" fill="#5E606F"/>
<path d="M40.7318 4.04736L41.7652 4.56405L42.0235 4.82239L41.4207 5.16685L40.7318 5.68353H40.5596V5.85576L40.9901 6.02799L42.6263 6.97524L44.3486 8.00861L44.1764 8.09473L42.0235 6.88913L40.5596 6.02799L39.6123 5.42519L39.7845 5.33907L39.9568 5.42519L40.0429 4.82239L40.3873 4.56405H40.5596L40.7318 4.04736Z" fill="#9A9AAB"/>
<path d="M47.018 72.422L47.1902 72.5081L45.8124 73.3693L43.5734 74.661L42.2817 75.436L39.526 77.0722L37.8038 78.1055L37.5454 78.0194L37.8899 77.8472L38.2343 77.5027L40.3011 76.2971L41.5928 75.5221L42.7984 74.8332L43.4873 74.4887H43.6595V74.3165L44.8651 73.6276L46.329 72.7665L47.018 72.422Z" fill="#636575"/>
<path d="M1.98047 58.4714L2.23881 58.8159L2.49715 59.2465L6.88897 61.8299L8.78348 62.9494L10.0752 63.7244L9.90297 63.8966L7.49177 62.5188L6.11395 61.6577L4.73612 60.8826L3.01384 59.8493L2.32493 59.3326L2.06658 58.9881L1.98047 58.4714Z" fill="#686A7B"/>
<path d="M52.7877 66.6523H52.9599L52.8738 66.9107L51.496 67.6857L47.2764 70.183L44.7791 71.647L44.3485 71.9053L44.1763 71.8192L44.4346 71.5608L45.2096 71.1303L46.243 70.5275L48.5681 69.1497L50.4626 68.0302L52.7877 66.6523Z" fill="#676979"/>
<path d="M30.3979 78.1917L31.0869 78.3639L32.8953 79.3972L33.5842 79.7417L34.4453 79.8278L34.5314 79.6556L35.8231 78.9667L36.2537 78.7944L36.5982 78.45L37.201 78.1917L37.4593 78.2778L35.0481 79.7417L34.2731 80H33.5842L32.6369 79.6556L30.3979 78.2778V78.1917Z" fill="#646676"/>
<path d="M23.5952 71.8192L24.1119 71.9914L25.4036 72.7665L26.437 73.3693L27.5565 74.0582L28.5037 74.5749L30.3982 75.6943L31.001 76.0388V76.2971L30.5705 76.1249L30.1399 75.8666V75.6943L29.7093 75.6082L28.9343 75.1777V75.0054H28.6759V74.8332L28.1593 74.7471L27.212 74.1443V73.9721L26.7814 73.886L26.3509 73.5415L25.9203 73.2832L25.3175 73.0248L25.1453 72.9387V72.7665H24.8869V72.5942L24.4564 72.5081L23.6813 71.9914L23.5952 71.8192Z" fill="#838495"/>
<path d="M63.2074 58.1271L63.3796 58.2132L63.2074 58.3854L63.638 58.816L62.5185 59.5049L62.0879 59.7632L61.9157 59.6771L62.0018 59.5049L61.8296 59.1604L60.8823 59.5049L61.7435 58.9882L63.2074 58.1271Z" fill="#252732"/>
<path d="M9.98926 63.8105L10.5059 63.9828L12.831 65.3606L15.3283 66.8245L16.4478 67.5135L16.7062 67.6857L16.4478 67.7718L15.4144 67.169L14.2088 66.4801L13.0894 65.7912L9.98926 63.9828V63.8105Z" fill="#808191"/>
<path d="M25.6616 75.3499L26.0922 75.436L27.6422 76.2971L28.934 77.0721L30.0534 77.761L30.3979 78.1916L29.9673 78.0194L28.5895 77.2444L26.8672 76.211L25.7477 75.5221L25.6616 75.3499Z" fill="#626474"/>
<path d="M35.0482 4.47791L35.4788 4.65013L36.5122 5.25293L36.5983 5.51127L36.1677 5.76962L35.4788 5.59739L34.6177 5.0807L35.0482 4.73625V4.47791Z" fill="#2D2F3B"/>
<path d="M64.2411 53.563H64.3272V58.127L64.155 58.2993V57.7826L63.8105 57.6965V57.1798L63.9828 56.8353L64.0689 56.2325L64.155 55.1992V53.6491L64.2411 53.563Z" fill="#262833"/>
<path d="M40.3013 3.87512H40.7319L40.818 4.04735L40.5596 4.56403L40.1291 4.82238L39.9568 5.42518L39.4402 5.25295L39.0957 4.90849L39.1818 4.73626L39.9568 4.47792L40.043 4.13346L40.3013 3.87512Z" fill="#737586"/>
<path d="M2.06674 18.3423L2.23897 18.5145L1.11948 19.2034L0.602799 19.8062L0.172228 20.7535L0.0861141 21.3563H0V20.409L0.258342 19.7201L1.03337 18.859L1.63617 18.4284L2.06674 18.3423Z" fill="#757787"/>
<path d="M56.3184 15.0699L56.7489 15.1561L57.8684 15.845L60.1935 17.2228L61.0546 17.7395L60.7963 17.8256L59.4185 17.0506L57.524 15.9311L56.4045 15.2422L56.3184 15.0699Z" fill="#666878"/>
<path d="M47.0179 72.422L47.1902 72.5081L45.8123 73.3693L43.5734 74.661L42.7983 75.0915L42.8845 74.8332L43.4873 74.4887H43.6595V74.3165L44.8651 73.6276L46.329 72.7665L47.0179 72.422Z" fill="#5F6170"/>
<path d="M45.0373 10.4198L45.8123 10.592L46.4151 11.0226L46.0707 11.1087L45.9845 11.4532L46.0707 11.6254L45.6401 11.4532L45.0373 11.1087L44.9512 10.8504L45.0373 10.4198Z" fill="#444654"/>
<path d="M43.9181 71.9053L44.0903 71.9914L43.2292 72.5942L42.7986 72.8525H42.5403V73.0248L41.6791 73.4553L41.0763 73.8859L40.4735 74.2304L40.043 74.4026V74.1442L40.9902 73.6276L41.8514 73.1109L43.3153 72.2497L43.9181 71.9053Z" fill="#828394"/>
<path d="M4.47795 16.7922L4.7363 16.8784L4.1335 17.395L2.75567 18.1701L2.3251 18.4284H1.89453L2.06676 18.1701L3.01401 17.6534L3.87516 17.1367L4.47795 16.7922Z" fill="#767788"/>
<path d="M37.1148 78.1917L37.4593 78.2778L35.0481 79.7417L34.4453 79.9139L34.5314 79.6556L35.8231 78.9667L36.2537 78.7944L36.5982 78.45L37.1148 78.1917Z" fill="#646676"/>
<path d="M31.3454 42.1959L31.5176 42.5404L31.8621 43.3154L32.2065 43.8321L32.6371 44.2627L32.4649 44.4349L31.6037 43.6599L31.2593 42.7987V42.282L31.3454 42.1959Z" fill="#9898A9"/>
<path d="M12.1418 12.2281L12.314 12.3143V12.5726L10.5917 13.606H10.1611L10.2472 13.3476L11.6251 12.5726L12.1418 12.2281Z" fill="#878899"/>
<path d="M9.98926 63.8105L10.5059 63.9828L12.831 65.3606L13.0894 65.6189L12.9171 65.7051L12.056 65.1884L9.98926 63.9828V63.8105Z" fill="#828394"/>
<path d="M46.9319 70.0969L47.2764 70.183L44.7791 71.647L44.3485 71.9053L44.1763 71.8192L44.4346 71.5609L45.2096 71.1303L46.243 70.5275L46.9319 70.0969Z" fill="#787A8A"/>
<path d="M7.06127 15.4144V15.6728L5.68345 16.4478L4.56396 17.1367V16.8784V16.7061L5.33899 16.2756L5.85568 16.1033L7.06127 15.4144Z" fill="#747586"/>
<path d="M50.2042 70.5275L50.3765 70.6136L49.6014 71.1303L47.5347 72.3359L47.2764 72.2497L48.3959 71.5608L50.2042 70.5275Z" fill="#5A5C6B"/>
<path d="M16.5337 67.6857L17.0504 67.8579L19.1171 69.0635L19.5477 69.408L19.1171 69.3218L18.1699 68.8052L16.8781 68.0301L16.5337 67.6857Z" fill="#898A9B"/>
<path d="M36.3399 42.5404L36.426 42.8849L36.0815 43.6599L35.4787 44.2627L35.1343 44.3488L35.2204 44.0043L35.7371 43.5738L36.0815 42.971L36.1676 42.6265L36.3399 42.5404Z" fill="#9898A9"/>
<path d="M55.285 65.1884H55.4573V65.3606L53.1322 66.7384H52.96V66.5662L54.8545 65.4467L55.285 65.1884Z" fill="#686A7A"/>
<path d="M42.6261 74.9193H42.7983L42.6261 75.2638L41.2483 76.0388L40.9038 76.211V75.9527L42.0233 75.2638L42.6261 74.9193Z" fill="#626474"/>
<path d="M30.915 76.1249L31.4317 76.2971L32.9818 77.2444L33.0679 77.4166L32.2929 77.1582L32.0345 76.986V76.8138L31.604 76.7277L31.0012 76.3832L30.915 76.1249Z" fill="#8E8FA0"/>
<path d="M23.5952 71.8192L24.1119 71.9914L25.4036 72.7665L25.9203 73.0248L25.5758 73.197L25.1453 72.9387V72.7665H24.8869V72.5942L24.4564 72.5081L23.6813 71.9914L23.5952 71.8192Z" fill="#838495"/>
<path d="M33.0677 77.3304L33.5844 77.5888H34.1872L34.9622 77.4166L34.7039 77.6749L34.1011 77.9332L33.4983 77.8471L32.8955 77.5027L33.0677 77.3304Z" fill="#848596"/>
<path d="M1.98047 58.4714L2.23881 58.8159L2.49715 59.2465L3.96109 60.1076L3.87498 60.3659L2.49715 59.5048L2.06658 58.9881L1.98047 58.4714Z" fill="#666878"/>
<path d="M10.0753 13.4338L10.4197 13.6061L9.98915 13.9505L8.78356 14.6394L8.61133 14.5533L9.38636 14.0366V13.8644L10.0753 13.4338Z" fill="#737585"/>
<path d="M21.5283 70.6135L22.045 70.7858L23.5951 71.733L23.3367 71.8191L22.1311 71.1302L21.5283 70.6996V70.6135Z" fill="#8C8C9D"/>
<path d="M3.96094 60.1937L4.99431 60.7104L5.68322 61.141V61.3132L5.16653 61.141L4.04705 60.4521L3.96094 60.1937Z" fill="#6B6D7D"/>
<path d="M47.018 72.422L47.1902 72.5081L45.8124 73.3693L45.3818 73.5415L45.468 73.2831L46.6735 72.5942L47.018 72.422Z" fill="#5C5E6D"/>
<path d="M59.0739 16.62L60.0212 17.1367L61.0545 17.7395L60.7962 17.8256L59.4184 17.0506L58.9878 16.7061L59.0739 16.62Z" fill="#626474"/>
<path d="M30.3979 78.1917L31.0869 78.3639L32.0341 78.9667L31.7758 79.1389L30.3979 78.2778V78.1917Z" fill="#616373"/>
<path d="M41.5071 73.2831H41.6793L41.5932 73.5414L40.7321 74.0581L40.2154 74.4026L39.957 74.3165L40.0431 74.1442L40.9904 73.6275L41.5071 73.2831Z" fill="#808192"/>
<path d="M18.9448 71.3885L19.4615 71.5608L20.7532 72.3358V72.5941L19.0309 71.5608L18.9448 71.3885Z" fill="#595B6B"/>
<path d="M35.0482 4.73633L35.3927 4.82244V5.33913L35.4788 5.51136L35.0482 5.33913L34.6177 5.08078L35.0482 4.73633Z" fill="#484A58"/>
<path d="M7.31945 15.0699L7.66391 15.1561L5.7694 16.2755L5.59717 16.1894L5.85551 15.9311L6.80277 15.4144L7.31945 15.0699Z" fill="#8A8A9B"/>
<path d="M4.47788 16.7922L4.73622 16.8784L4.13343 17.395L3.61674 17.5673L3.3584 17.4811L3.9612 17.0506L4.47788 16.7922Z" fill="#808192"/>
<path d="M48.6543 12.3143L49.5154 12.7449L50.0321 13.0894L49.8599 13.1755L49.2571 12.9171L49.0849 13.0032L48.9988 13.1755L48.8265 13.0894L48.9126 12.9171V12.6588L48.6543 12.4866V12.3143Z" fill="#484A58"/>
<path d="M39.8708 74.3164H40.043V74.4886L39.6125 74.5747V74.747L39.1819 74.8331L39.0958 75.0914L38.5791 75.2637V75.0053L39.5264 74.4886L39.8708 74.3164Z" fill="#878899"/>
<path d="M11.0223 12.9171L11.1945 13.0032L11.2806 13.1755L10.5917 13.606H10.1611L10.2472 13.3477L11.0223 12.9171Z" fill="#868798"/>
<path d="M20.8394 72.422L21.7005 72.8526L22.3033 73.2831L22.2172 73.4554L20.9255 72.6803L20.8394 72.422Z" fill="#5C5E6D"/>
<path d="M25.748 73.1108L26.0925 73.197L27.5564 74.0581L27.3842 74.1442L26.5231 73.7136L25.748 73.197V73.1108Z" fill="#8F8FA0"/>
<path d="M3.6167 21.9591L4.13338 22.0452V23.1647H4.04727V22.648H3.87504L3.6167 22.1313V21.9591Z" fill="#12141A"/>
<path d="M45.0373 10.4198L45.554 10.592L45.6401 10.7643H45.4679L45.554 11.0226L45.2095 11.1087L44.9512 10.8504L45.0373 10.4198Z" fill="#272934"/>
<path d="M29.2788 77.3304L29.9677 77.6749L30.3983 78.1916L29.9677 78.0194L29.3649 77.6749L29.2788 77.3304Z" fill="#626474"/>
<path d="M29.8813 75.5221L30.398 75.6943L31.0008 76.0388V76.2971L30.5703 76.1249L30.1397 75.8666V75.6943L29.8813 75.6082V75.5221Z" fill="#858697"/>
<path d="M46.0708 11.0226L46.5014 11.1948L46.3292 11.4532L46.2431 11.5393L46.4153 11.7115H46.0708L45.8125 11.367H45.9847L46.0708 11.0226Z" fill="#282A35"/>
<path d="M46.9319 70.0969L47.2764 70.183L46.243 70.7858H46.0708V70.6136L46.9319 70.0969Z" fill="#727484"/>
<path d="M52.7878 66.6523H52.96L52.8739 66.9107L52.0989 67.3413L51.7544 67.2551L52.7878 66.6523Z" fill="#636575"/>
<path d="M13.0029 65.6189L13.4335 65.705L14.2946 66.2217L13.9502 66.3078L13.0029 65.705V65.6189Z" fill="#88899A"/>
<path d="M9.98926 63.8105L10.5059 63.9828L11.1087 64.3272L11.0226 64.4995L10.5921 64.3272L9.98926 63.9828V63.8105Z" fill="#777989"/>
<path d="M60.366 62.1744L60.7105 62.2606L59.6771 62.8634H59.5049V62.6911L60.366 62.1744Z" fill="#686A7A"/>
<path d="M53.8213 13.5199L54.7685 14.0366L55.0269 14.2088L54.9408 14.381L53.9074 13.7782L53.8213 13.5199Z" fill="#6A6C7C"/>
<path d="M2.75567 17.8256L2.9279 17.9117L2.3251 18.4284H1.89453L2.06676 18.17L2.75567 17.8256Z" fill="#848595"/>
<path d="M48.2236 71.647L48.3097 71.9053L47.5347 72.3359L47.2764 72.2498L48.2236 71.647Z" fill="#5D5F6E"/>
<path d="M9.21417 13.9504L9.55862 14.0366L8.52526 14.6394H8.35303V14.4671L9.12805 14.0366L9.21417 13.9504Z" fill="#898A9B"/>
</svg>
